G04*
G04 #@! TF.GenerationSoftware,Altium Limited,CircuitStudio,1.5.2 (30)*
G04*
G04 Layer_Physical_Order=1*
G04 Layer_Color=11767835*
%FSLAX25Y25*%
%MOIN*%
G70*
G01*
G75*
%ADD10C,0.03937*%
%ADD11C,0.01181*%
%ADD12C,0.23622*%
%ADD13O,0.06800X0.05000*%
%ADD14C,0.08268*%
%ADD15R,0.08268X0.08268*%
%ADD16C,0.06299*%
%ADD17R,0.06299X0.06299*%
%ADD18C,0.03150*%
D10*
X1534413Y1281299D02*
Y1282874D01*
X1456854Y1203740D02*
X1534413Y1281299D01*
X1444256Y1203740D02*
X1456854D01*
X1520634Y1281299D02*
Y1289173D01*
X1452917Y1213583D02*
X1520634Y1281299D01*
X1442287Y1213583D02*
X1452917D01*
X1427327Y1198622D02*
X1442287Y1213583D01*
X1414217Y1198622D02*
X1427327D01*
X1429138Y1188622D02*
X1444256Y1203740D01*
X1414217Y1188622D02*
X1429138D01*
X1746815Y1282283D02*
Y1289173D01*
X1742287Y1277756D02*
X1746815Y1282283D01*
X1680476Y1277756D02*
X1742287D01*
X1675949Y1282284D02*
X1680476Y1277756D01*
X1675949Y1282284D02*
Y1289173D01*
X1671027Y1277362D02*
X1675949Y1282283D01*
X1610004Y1277362D02*
X1671027D01*
X1605083Y1282284D02*
Y1289173D01*
Y1282284D02*
X1610004Y1277362D01*
X1600161D02*
X1605083Y1282284D01*
X1539925Y1277362D02*
X1600161D01*
X1534413Y1282874D02*
X1539925Y1277362D01*
X1534413Y1282874D02*
Y1289173D01*
D11*
X1409394Y1193602D02*
X1421027D01*
X1409295Y1193504D02*
X1409394Y1193602D01*
X1409197Y1193602D02*
X1409295Y1193504D01*
X1404216Y1198622D02*
X1409334Y1203740D01*
X1420929D01*
X1409256Y1233661D02*
X1421027D01*
X1409256Y1233661D02*
X1409256Y1233661D01*
X1433626Y1326575D02*
X1497602D01*
X1421421Y1314370D02*
X1433626Y1326575D01*
X1421421Y1306102D02*
Y1314370D01*
X1435201Y1323819D02*
X1551933D01*
X1424177Y1312795D02*
X1435201Y1323819D01*
X1424177Y1298622D02*
Y1312795D01*
X1436775Y1321063D02*
X1562957D01*
X1426933Y1311220D02*
X1436775Y1321063D01*
X1426933Y1291535D02*
Y1311220D01*
X1466697Y1301378D02*
X1636185D01*
X1448980Y1283661D02*
X1466697Y1301378D01*
X1445437Y1283661D02*
X1448980D01*
X1473390Y1298622D02*
X1625161D01*
X1448547Y1273779D02*
X1473390Y1298622D01*
X1444610Y1273779D02*
X1448547D01*
X1459216Y1304134D02*
X1690516D01*
X1448823Y1293740D02*
X1459216Y1304134D01*
X1444650Y1293740D02*
X1448823D01*
X1444650Y1303740D02*
X1447799Y1306890D01*
X1690516Y1304134D02*
X1705476Y1289173D01*
X1701539Y1306890D02*
X1719256Y1289173D01*
X1447799Y1306890D02*
X1701539D01*
X1625161Y1298622D02*
X1634610Y1289173D01*
X1636185Y1301378D02*
X1648390Y1289173D01*
X1437957Y1230118D02*
Y1305315D01*
X1421421Y1213583D02*
X1437957Y1230118D01*
X1409177Y1213583D02*
X1421421D01*
X1404216Y1188622D02*
X1409197Y1193602D01*
X1404216Y1218622D02*
X1409216Y1223622D01*
X1421027D01*
X1404216Y1228622D02*
X1409256Y1233661D01*
X1418764Y1263681D02*
X1429689Y1274606D01*
X1409276Y1263681D02*
X1418764D01*
X1404216Y1258622D02*
X1409276Y1263681D01*
X1419059Y1253740D02*
X1432445Y1267126D01*
X1409335Y1253740D02*
X1419059D01*
X1404216Y1248622D02*
X1409335Y1253740D01*
X1418764Y1243602D02*
X1435201Y1260039D01*
X1409197Y1243602D02*
X1418764D01*
X1404216Y1238622D02*
X1409197Y1243602D01*
X1437957Y1305315D02*
X1442681Y1310039D01*
X1693666D01*
X1441500Y1312795D02*
X1682642D01*
X1435201Y1306496D02*
X1441500Y1312795D01*
X1439925Y1315551D02*
X1628311D01*
X1432445Y1308071D02*
X1439925Y1315551D01*
X1438350Y1318307D02*
X1617288D01*
X1429689Y1309646D02*
X1438350Y1318307D01*
X1435201Y1260039D02*
Y1306496D01*
X1432445Y1267126D02*
Y1308071D01*
X1429689Y1274606D02*
Y1309646D01*
X1420240Y1329331D02*
X1486579D01*
X1404216Y1313307D02*
X1420240Y1329331D01*
X1419059Y1303740D02*
X1421421Y1306102D01*
X1419059Y1283661D02*
X1426933Y1291535D01*
X1409256Y1283661D02*
X1419059D01*
Y1293504D02*
X1424177Y1298622D01*
X1409098Y1293504D02*
X1419059D01*
X1409335Y1303740D02*
X1419059D01*
X1693666Y1310039D02*
X1719256Y1335630D01*
X1682642Y1312795D02*
X1705476Y1335630D01*
X1628311Y1315551D02*
X1648390Y1335630D01*
X1617288Y1318307D02*
X1634610Y1335630D01*
X1562957Y1321063D02*
X1577524Y1335630D01*
X1551933Y1323819D02*
X1563744Y1335630D01*
X1497602Y1326575D02*
X1506657Y1335630D01*
X1486579Y1329331D02*
X1492878Y1335630D01*
X1404216Y1208622D02*
X1409177Y1213583D01*
X1404216Y1278622D02*
X1409256Y1283661D01*
X1404216Y1288622D02*
X1409098Y1293504D01*
X1404216Y1298622D02*
X1409335Y1303740D01*
X1404216Y1308622D02*
Y1313307D01*
D12*
X1594256Y1234842D02*
D03*
X1781264Y1144291D02*
D03*
Y1352953D02*
D03*
X1407248Y1144291D02*
D03*
Y1352953D02*
D03*
D13*
X1444650Y1263740D02*
D03*
Y1273740D02*
D03*
Y1283740D02*
D03*
Y1303740D02*
D03*
Y1293740D02*
D03*
Y1243740D02*
D03*
Y1253740D02*
D03*
Y1233740D02*
D03*
Y1223740D02*
D03*
Y1213740D02*
D03*
Y1203740D02*
D03*
D14*
X1705476Y1289173D02*
D03*
X1719256D02*
D03*
X1733035D02*
D03*
X1634610D02*
D03*
X1648390D02*
D03*
X1662169D02*
D03*
X1563744D02*
D03*
X1577524D02*
D03*
X1591303D02*
D03*
X1506854D02*
D03*
X1520634D02*
D03*
X1493075D02*
D03*
X1479295D02*
D03*
X1705476Y1352165D02*
D03*
X1719256D02*
D03*
X1733035D02*
D03*
X1634610D02*
D03*
X1648390D02*
D03*
X1662169D02*
D03*
X1563744D02*
D03*
X1577524D02*
D03*
X1591303D02*
D03*
X1492878D02*
D03*
X1506657D02*
D03*
X1520437D02*
D03*
X1733035Y1335630D02*
D03*
X1719256D02*
D03*
X1705476D02*
D03*
X1662169D02*
D03*
X1648390D02*
D03*
X1634610D02*
D03*
X1591303D02*
D03*
X1577524D02*
D03*
X1563744D02*
D03*
X1520437D02*
D03*
X1506657D02*
D03*
X1492878D02*
D03*
D15*
X1746815Y1289173D02*
D03*
X1675949D02*
D03*
X1605083D02*
D03*
X1534413D02*
D03*
X1746815Y1352165D02*
D03*
X1675949D02*
D03*
X1605083D02*
D03*
X1534216D02*
D03*
X1746815Y1335630D02*
D03*
X1675949D02*
D03*
X1605083D02*
D03*
X1534216D02*
D03*
D16*
X1414217Y1188622D02*
D03*
Y1198622D02*
D03*
X1404216Y1188622D02*
D03*
Y1198622D02*
D03*
X1414217Y1248622D02*
D03*
X1404216D02*
D03*
X1414217Y1258622D02*
D03*
Y1268622D02*
D03*
X1404216Y1258622D02*
D03*
Y1268622D02*
D03*
X1414217Y1278622D02*
D03*
X1404216D02*
D03*
X1414217Y1288622D02*
D03*
X1404216D02*
D03*
X1414217Y1298622D02*
D03*
X1404216D02*
D03*
X1414217Y1308622D02*
D03*
X1404216Y1238622D02*
D03*
Y1228622D02*
D03*
X1414217Y1238622D02*
D03*
Y1228622D02*
D03*
X1404216Y1218622D02*
D03*
Y1208622D02*
D03*
X1414217Y1218622D02*
D03*
Y1208622D02*
D03*
D17*
X1404216Y1308622D02*
D03*
D18*
X1421027Y1193602D02*
D03*
X1420929Y1203740D02*
D03*
X1421027Y1223622D02*
D03*
Y1233661D02*
D03*
M02*
