G04*
G04 #@! TF.GenerationSoftware,Altium Limited,CircuitStudio,1.5.2 (30)*
G04*
G04 Layer_Color=15065295*
%FSLAX25Y25*%
%MOIN*%
G70*
G01*
G75*
%ADD10C,0.03937*%
%ADD19C,0.01000*%
%ADD20C,0.00787*%
%ADD21C,0.01575*%
%ADD22C,0.00600*%
%ADD23R,0.03150X0.17716*%
G36*
X1404354Y1329882D02*
X1401563Y1335000D01*
X1407146D01*
X1404354Y1329882D01*
D02*
G37*
D10*
X1701736Y1214370D02*
Y1232737D01*
X1710920Y1241920D01*
X1720103Y1232737D01*
Y1214370D01*
Y1228145D01*
X1701736D01*
X1630870Y1241920D02*
X1649237D01*
Y1237328D01*
X1630870Y1218962D01*
Y1214370D01*
X1649237D01*
X1560004Y1241920D02*
Y1237328D01*
X1569187Y1228145D01*
X1578371Y1237328D01*
Y1241920D01*
X1569187Y1228145D02*
Y1214370D01*
X1489138Y1241920D02*
X1507504Y1214370D01*
Y1241920D02*
X1489138Y1214370D01*
D19*
X1439649Y1271240D02*
X1442150Y1268740D01*
X1439649Y1266240D02*
X1442150Y1268740D01*
X1439649Y1261240D02*
Y1266240D01*
Y1261240D02*
X1442150Y1258740D01*
X1447149D01*
X1449650Y1261240D01*
Y1266240D01*
X1447149Y1268740D02*
X1449650Y1266240D01*
X1447149Y1268740D02*
X1449650Y1271240D01*
X1447149Y1288740D02*
X1449650Y1291240D01*
X1447149Y1288740D02*
X1449650Y1286240D01*
X1439649D02*
X1442150Y1288740D01*
X1439649Y1291240D02*
X1442150Y1288740D01*
X1447149Y1278740D02*
X1449650Y1281240D01*
X1447149Y1278740D02*
X1449650Y1276240D01*
Y1271240D02*
Y1276240D01*
X1447149Y1268740D02*
X1449650Y1271240D01*
X1439649D02*
X1442150Y1268740D01*
X1439649Y1271240D02*
Y1276240D01*
X1442150Y1278740D01*
X1439649Y1281240D02*
X1442150Y1278740D01*
X1439649Y1281240D02*
Y1286240D01*
X1449650Y1281240D02*
Y1286240D01*
Y1301240D02*
Y1306240D01*
X1447149Y1308740D02*
X1449650Y1306240D01*
X1442150Y1308740D02*
X1447149D01*
X1439649Y1306240D02*
X1442150Y1308740D01*
X1439649Y1301240D02*
Y1306240D01*
Y1301240D02*
X1442150Y1298740D01*
X1439649Y1296240D02*
X1442150Y1298740D01*
X1439649Y1291240D02*
Y1296240D01*
X1449650Y1291240D02*
Y1296240D01*
X1447149Y1298740D02*
X1449650Y1296240D01*
X1447149Y1298740D02*
X1449650Y1301240D01*
X1447149Y1248740D02*
X1449650Y1251240D01*
X1447149Y1248740D02*
X1449650Y1246240D01*
Y1241240D02*
Y1246240D01*
X1439649Y1241240D02*
Y1246240D01*
X1442150Y1248740D01*
X1439649Y1251240D02*
X1442150Y1248740D01*
X1439649Y1251240D02*
Y1256240D01*
X1442150Y1258740D01*
X1447149D01*
X1449650Y1256240D01*
Y1251240D02*
Y1256240D01*
Y1231240D02*
Y1236240D01*
X1439649Y1231240D02*
Y1236240D01*
Y1231240D02*
X1442150Y1228740D01*
X1439649Y1226240D02*
X1442150Y1228740D01*
X1439649Y1221240D02*
Y1226240D01*
Y1221240D02*
X1442150Y1218740D01*
X1447149D02*
X1449650Y1221240D01*
Y1226240D01*
X1447149Y1228740D02*
X1449650Y1226240D01*
X1447149Y1228740D02*
X1449650Y1231240D01*
X1439649Y1241240D02*
X1442150Y1238740D01*
X1439649Y1236240D02*
X1442150Y1238740D01*
X1447149D02*
X1449650Y1236240D01*
X1447149Y1238740D02*
X1449650Y1241240D01*
X1447149Y1218740D02*
X1449650Y1221240D01*
X1447149Y1218740D02*
X1449650Y1216240D01*
Y1211240D02*
Y1216240D01*
X1447149Y1208740D02*
X1449650Y1211240D01*
X1439649D02*
X1442150Y1208740D01*
X1439649Y1211240D02*
Y1216240D01*
X1442150Y1218740D01*
X1439649Y1221240D02*
X1442150Y1218740D01*
X1439649Y1211240D02*
X1442150Y1208740D01*
X1439649Y1206240D02*
X1442150Y1208740D01*
X1439649Y1201240D02*
Y1206240D01*
Y1201240D02*
X1442150Y1198740D01*
X1447149D01*
X1449650Y1201240D01*
Y1206240D01*
X1447149Y1208740D02*
X1449650Y1206240D01*
X1447149Y1208740D02*
X1449650Y1211240D01*
X1447149Y1208740D02*
X1449650Y1211240D01*
X1439649D02*
X1442150Y1208740D01*
X1694453Y1271850D02*
X1688549D01*
Y1274802D01*
X1689533Y1275786D01*
X1691501D01*
X1692485Y1274802D01*
Y1271850D01*
X1689533Y1277754D02*
X1688549Y1278738D01*
Y1280706D01*
X1689533Y1281689D01*
X1690517D01*
X1691501Y1280706D01*
X1692485Y1281689D01*
X1693469D01*
X1694453Y1280706D01*
Y1278738D01*
X1693469Y1277754D01*
X1692485D01*
X1691501Y1278738D01*
X1690517Y1277754D01*
X1689533D01*
X1691501Y1278738D02*
Y1280706D01*
X1623586Y1271850D02*
X1617683D01*
Y1274802D01*
X1618667Y1275786D01*
X1620635D01*
X1621619Y1274802D01*
Y1271850D01*
X1617683Y1277754D02*
Y1281690D01*
X1618667D01*
X1622602Y1277754D01*
X1623586D01*
X1552720Y1271850D02*
X1546817D01*
Y1274802D01*
X1547801Y1275786D01*
X1549769D01*
X1550753Y1274802D01*
Y1271850D01*
X1546817Y1281690D02*
X1547801Y1279722D01*
X1549769Y1277754D01*
X1551736D01*
X1552720Y1278738D01*
Y1280706D01*
X1551736Y1281690D01*
X1550753D01*
X1549769Y1280706D01*
Y1277754D01*
X1468272Y1271850D02*
X1462368D01*
Y1274802D01*
X1463352Y1275786D01*
X1465320D01*
X1466304Y1274802D01*
Y1271850D01*
X1462368Y1281690D02*
Y1277754D01*
X1465320D01*
X1464336Y1279722D01*
Y1280706D01*
X1465320Y1281690D01*
X1467288D01*
X1468272Y1280706D01*
Y1278738D01*
X1467288Y1277754D01*
X1694256Y1330905D02*
X1688258D01*
Y1333904D01*
X1689257Y1334904D01*
X1691257D01*
X1692256Y1333904D01*
Y1330905D01*
X1694256Y1339902D02*
X1688258D01*
X1691257Y1336903D01*
Y1340902D01*
X1623390Y1330905D02*
X1617392D01*
Y1333904D01*
X1618391Y1334904D01*
X1620391D01*
X1621390Y1333904D01*
Y1330905D01*
X1618391Y1336903D02*
X1617392Y1337903D01*
Y1339902D01*
X1618391Y1340902D01*
X1619391D01*
X1620391Y1339902D01*
Y1338903D01*
Y1339902D01*
X1621390Y1340902D01*
X1622390D01*
X1623390Y1339902D01*
Y1337903D01*
X1622390Y1336903D01*
X1552524Y1330905D02*
X1546525D01*
Y1333904D01*
X1547525Y1334904D01*
X1549524D01*
X1550524Y1333904D01*
Y1330905D01*
X1552524Y1340902D02*
Y1336903D01*
X1548525Y1340902D01*
X1547525D01*
X1546525Y1339902D01*
Y1337903D01*
X1547525Y1336903D01*
X1481657Y1330905D02*
X1475659D01*
Y1333904D01*
X1476659Y1334904D01*
X1478658D01*
X1479658Y1333904D01*
Y1330905D01*
X1481657Y1336903D02*
Y1338903D01*
Y1337903D01*
X1475659D01*
X1476659Y1336903D01*
D20*
X1695831Y1300197D02*
X1756461D01*
Y1271850D02*
Y1300197D01*
X1695831Y1271850D02*
X1756461D01*
X1695831D02*
Y1300197D01*
X1624964D02*
X1685594D01*
Y1271850D02*
Y1300197D01*
X1624964Y1271850D02*
X1685594D01*
X1624964D02*
Y1300197D01*
X1554098D02*
X1614728D01*
Y1271850D02*
Y1300197D01*
X1554098Y1271850D02*
X1614728D01*
X1554098D02*
Y1300197D01*
X1469650D02*
X1544059D01*
Y1271850D02*
Y1300197D01*
X1469650Y1271850D02*
X1544059D01*
X1469650D02*
Y1300197D01*
X1695831Y1363189D02*
X1756461D01*
Y1334842D02*
Y1363189D01*
X1695831Y1334842D02*
X1756461D01*
X1695831D02*
Y1363189D01*
X1624964D02*
X1685594D01*
Y1334842D02*
Y1363189D01*
X1624964Y1334842D02*
X1685594D01*
X1624964D02*
Y1363189D01*
X1554098D02*
X1614728D01*
Y1334842D02*
Y1363189D01*
X1554098Y1334842D02*
X1614728D01*
X1554098D02*
Y1363189D01*
X1483232D02*
X1543862D01*
Y1334842D02*
Y1363189D01*
X1483232Y1334842D02*
X1543862D01*
X1483232D02*
Y1363189D01*
X1391500Y1329094D02*
X1426933D01*
X1391500Y1168150D02*
Y1329094D01*
X1426933Y1168150D02*
Y1329094D01*
X1391500Y1168150D02*
X1426933D01*
X1695831Y1330905D02*
X1703114D01*
X1756461D02*
Y1367126D01*
X1695831D02*
X1756461D01*
X1695831Y1330905D02*
Y1367126D01*
X1752130Y1330905D02*
X1756461D01*
X1624965D02*
X1632248D01*
X1685594D02*
Y1367126D01*
X1624965D02*
X1685594D01*
X1624965Y1330905D02*
Y1367126D01*
X1681264Y1330905D02*
X1685594D01*
X1554098D02*
X1561382D01*
X1614728D02*
Y1367126D01*
X1554098D02*
X1614728D01*
X1554098Y1330905D02*
Y1367126D01*
X1610398Y1330905D02*
X1614728D01*
X1483232D02*
X1490516D01*
X1543862D02*
Y1367126D01*
X1483232D02*
X1543862D01*
X1483232Y1330905D02*
Y1367126D01*
X1539531Y1330905D02*
X1543862D01*
D21*
X1688350Y1357283D02*
Y1362531D01*
X1690974Y1365155D01*
X1693598Y1362531D01*
Y1357283D01*
Y1361219D01*
X1688350D01*
X1617484Y1365155D02*
X1622732D01*
Y1363843D01*
X1617484Y1358595D01*
Y1357283D01*
X1622732D01*
X1475752Y1365155D02*
X1480999Y1357283D01*
Y1365155D02*
X1475752Y1357283D01*
X1546618Y1365155D02*
Y1363843D01*
X1549242Y1361219D01*
X1551866Y1363843D01*
Y1365155D01*
X1549242Y1361219D02*
Y1357283D01*
X1700161Y1254527D02*
X1702017Y1256383D01*
X1701089Y1255455D01*
X1695523Y1261021D01*
X1695523Y1259166D01*
X1702944Y1268442D02*
X1699234Y1264732D01*
X1702017Y1261949D01*
X1702944Y1264732D01*
X1703872Y1265659D01*
X1705727D01*
X1707583Y1263804D01*
Y1261949D01*
X1705727Y1260093D01*
X1703872D01*
X1716303Y1254527D02*
X1718158Y1256383D01*
X1717231Y1255455D01*
X1711665Y1261021D01*
X1711665Y1259166D01*
X1723724Y1261949D02*
X1718158Y1267515D01*
Y1261949D01*
X1721869Y1265659D01*
X1629295Y1254527D02*
X1631150Y1256383D01*
X1630223Y1255455D01*
X1624657Y1261021D01*
X1624657Y1259166D01*
X1628367Y1264732D02*
X1632078Y1268442D01*
X1633006Y1267515D01*
Y1260093D01*
X1633933Y1259166D01*
X1645437Y1254527D02*
X1647292Y1256383D01*
X1646365Y1255455D01*
X1640799Y1261021D01*
X1640799Y1259166D01*
X1648220Y1268442D02*
X1647292Y1265659D01*
Y1261949D01*
X1649147Y1260093D01*
X1651003D01*
X1652858Y1261949D01*
Y1263804D01*
X1651930Y1264732D01*
X1650075Y1264732D01*
X1647292Y1261949D01*
X1574571Y1254527D02*
X1576426Y1256383D01*
X1575498Y1255455D01*
X1569932Y1261021D01*
X1569932Y1259166D01*
X1574571Y1263804D02*
X1574571Y1265659D01*
X1576426Y1267515D01*
X1578281D01*
X1579209Y1266587D01*
Y1264732D01*
X1578281Y1263804D01*
X1579209Y1264732D01*
X1581064Y1264732D01*
X1581992Y1263804D01*
Y1261949D01*
X1580137Y1260093D01*
X1578281D01*
X1558429Y1254527D02*
X1560284Y1256383D01*
X1559357Y1255455D01*
X1553791Y1261021D01*
X1553791Y1259166D01*
X1566778Y1262876D02*
X1563067Y1259166D01*
Y1266587D01*
X1562140Y1267515D01*
X1560284D01*
X1558429Y1265659D01*
X1558429Y1263804D01*
X1500949Y1260433D02*
X1503572D01*
X1502261D01*
Y1268304D01*
X1500949Y1266992D01*
X1507508D02*
X1508820Y1268304D01*
X1511444D01*
X1512756Y1266992D01*
Y1261745D01*
X1511444Y1260433D01*
X1508820D01*
X1507508Y1261745D01*
Y1266992D01*
X1489531Y1261745D02*
X1490843Y1260433D01*
X1493467D01*
X1494779Y1261745D01*
Y1266992D01*
X1493467Y1268304D01*
X1490843D01*
X1489531Y1266992D01*
Y1265681D01*
X1490843Y1264369D01*
X1494779D01*
X1481984Y1268305D02*
X1476736D01*
Y1264369D01*
X1479360Y1265681D01*
X1480672D01*
X1481984Y1264369D01*
Y1261745D01*
X1480672Y1260433D01*
X1478048D01*
X1476736Y1261745D01*
X1748716Y1268304D02*
X1743468D01*
Y1264369D01*
X1746092Y1265681D01*
X1747404D01*
X1748716Y1264369D01*
Y1261745D01*
X1747404Y1260433D01*
X1744780D01*
X1743468Y1261745D01*
X1751340Y1268304D02*
Y1263057D01*
X1753964Y1260433D01*
X1756587Y1263057D01*
Y1268304D01*
X1735330Y1266993D02*
X1734018Y1268305D01*
X1731395D01*
X1730083Y1266993D01*
Y1261745D01*
X1731395Y1260433D01*
X1734018D01*
X1735330Y1261745D01*
Y1264369D01*
X1732706D01*
X1677850Y1268304D02*
X1672602D01*
Y1264369D01*
X1675226Y1265681D01*
X1676538D01*
X1677850Y1264369D01*
Y1261745D01*
X1676538Y1260433D01*
X1673914D01*
X1672602Y1261745D01*
X1680474Y1268304D02*
Y1263057D01*
X1683097Y1260433D01*
X1685721Y1263057D01*
Y1268304D01*
X1664464Y1266993D02*
X1663152Y1268305D01*
X1660528D01*
X1659216Y1266993D01*
Y1261745D01*
X1660528Y1260433D01*
X1663152D01*
X1664464Y1261745D01*
Y1264369D01*
X1661840D01*
X1606984Y1268304D02*
X1601736D01*
Y1264369D01*
X1604360Y1265681D01*
X1605672D01*
X1606984Y1264369D01*
Y1261745D01*
X1605672Y1260433D01*
X1603048D01*
X1601736Y1261745D01*
X1609608Y1268304D02*
Y1263057D01*
X1612231Y1260433D01*
X1614855Y1263057D01*
Y1268304D01*
X1593598Y1266993D02*
X1592286Y1268305D01*
X1589662D01*
X1588350Y1266993D01*
Y1261745D01*
X1589662Y1260433D01*
X1592286D01*
X1593598Y1261745D01*
Y1264369D01*
X1590974D01*
X1536314Y1268304D02*
X1531067D01*
Y1264369D01*
X1533691Y1265681D01*
X1535003D01*
X1536314Y1264369D01*
Y1261745D01*
X1535003Y1260433D01*
X1532379D01*
X1531067Y1261745D01*
X1538938Y1268304D02*
Y1263057D01*
X1541562Y1260433D01*
X1544186Y1263057D01*
Y1268304D01*
X1523519Y1266992D02*
X1522207Y1268304D01*
X1519583D01*
X1518272Y1266992D01*
Y1261745D01*
X1519583Y1260433D01*
X1522207D01*
X1523519Y1261745D01*
Y1264369D01*
X1520895D01*
X1702917Y1326048D02*
X1704229Y1327360D01*
X1706853D01*
X1708165Y1326048D01*
Y1324736D01*
X1706853Y1323424D01*
X1708165Y1322112D01*
Y1320800D01*
X1706853Y1319488D01*
X1704229D01*
X1702917Y1320800D01*
Y1322112D01*
X1704229Y1323424D01*
X1702917Y1324736D01*
Y1326048D01*
X1704229Y1323424D02*
X1706853D01*
X1714728Y1319488D02*
X1717352D01*
X1716040D01*
Y1327360D01*
X1714728Y1326048D01*
X1721288Y1319488D02*
X1723912D01*
X1722600D01*
Y1327360D01*
X1721288Y1326048D01*
X1735330Y1326048D02*
X1734018Y1327360D01*
X1731395D01*
X1730083Y1326048D01*
Y1320800D01*
X1731395Y1319488D01*
X1734018D01*
X1735330Y1320800D01*
Y1323424D01*
X1732706D01*
X1748716Y1327360D02*
X1743468D01*
Y1323424D01*
X1746092Y1324736D01*
X1747404D01*
X1748716Y1323424D01*
Y1320800D01*
X1747404Y1319488D01*
X1744780D01*
X1743468Y1320800D01*
X1751340Y1327360D02*
Y1322112D01*
X1753964Y1319488D01*
X1756587Y1322112D01*
Y1327360D01*
X1637299Y1327360D02*
X1634675Y1326048D01*
X1632051Y1323424D01*
Y1320800D01*
X1633363Y1319488D01*
X1635987D01*
X1637299Y1320800D01*
Y1322112D01*
X1635987Y1323424D01*
X1632051D01*
X1645831Y1327360D02*
X1651078D01*
Y1326048D01*
X1645831Y1320800D01*
Y1319488D01*
X1664464Y1326048D02*
X1663152Y1327360D01*
X1660528D01*
X1659216Y1326048D01*
Y1320800D01*
X1660528Y1319488D01*
X1663152D01*
X1664464Y1320800D01*
Y1323424D01*
X1661840D01*
X1677850Y1327360D02*
X1672602D01*
Y1323424D01*
X1675226Y1324736D01*
X1676538D01*
X1677850Y1323424D01*
Y1320800D01*
X1676538Y1319488D01*
X1673914D01*
X1672602Y1320800D01*
X1680474Y1327360D02*
Y1322112D01*
X1683097Y1319488D01*
X1685721Y1322112D01*
Y1327360D01*
X1491500Y1319488D02*
X1494124D01*
X1492812D01*
Y1327360D01*
X1491500Y1326048D01*
X1509346Y1319488D02*
X1504098D01*
X1509346Y1324736D01*
Y1326048D01*
X1508034Y1327360D01*
X1505410D01*
X1504098Y1326048D01*
X1522732D02*
X1521420Y1327360D01*
X1518796D01*
X1517484Y1326048D01*
Y1320800D01*
X1518796Y1319488D01*
X1521420D01*
X1522732Y1320800D01*
Y1323424D01*
X1520108D01*
X1536118Y1327360D02*
X1530870D01*
Y1323424D01*
X1533494Y1324736D01*
X1534806D01*
X1536118Y1323424D01*
Y1320800D01*
X1534806Y1319488D01*
X1532182D01*
X1530870Y1320800D01*
X1538741Y1327360D02*
Y1322112D01*
X1541365Y1319488D01*
X1543989Y1322112D01*
Y1327360D01*
X1606984D02*
X1601736D01*
Y1323424D01*
X1604360Y1324736D01*
X1605672D01*
X1606984Y1323424D01*
Y1320800D01*
X1605672Y1319488D01*
X1603048D01*
X1601736Y1320800D01*
X1609608Y1327360D02*
Y1322112D01*
X1612231Y1319488D01*
X1614855Y1322112D01*
Y1327360D01*
X1593598Y1326048D02*
X1592286Y1327360D01*
X1589662D01*
X1588350Y1326048D01*
Y1320800D01*
X1589662Y1319488D01*
X1592286D01*
X1593598Y1320800D01*
Y1323424D01*
X1590974D01*
X1578900Y1319488D02*
Y1327360D01*
X1574965Y1323424D01*
X1580212D01*
X1561185Y1326048D02*
X1562497Y1327360D01*
X1565121D01*
X1566433Y1326048D01*
Y1324736D01*
X1565121Y1323424D01*
X1563809D01*
X1565121D01*
X1566433Y1322112D01*
Y1320800D01*
X1565121Y1319488D01*
X1562497D01*
X1561185Y1320800D01*
D22*
X1412366Y1180996D02*
Y1183661D01*
X1415032Y1180996D01*
X1415698D01*
X1416365Y1181662D01*
Y1182995D01*
X1415698Y1183661D01*
X1416365Y1176997D02*
X1415698Y1178330D01*
X1414365Y1179663D01*
X1413033D01*
X1412366Y1178996D01*
Y1177663D01*
X1413033Y1176997D01*
X1413699D01*
X1414365Y1177663D01*
Y1179663D01*
X1402366Y1180996D02*
Y1183661D01*
X1405032Y1180996D01*
X1405698D01*
X1406365Y1181662D01*
Y1182995D01*
X1405698Y1183661D01*
X1406365Y1176997D02*
Y1179663D01*
X1404366D01*
X1405032Y1178330D01*
Y1177663D01*
X1404366Y1176997D01*
X1403033D01*
X1402366Y1177663D01*
Y1178996D01*
X1403033Y1179663D01*
X1412130Y1313279D02*
Y1315945D01*
X1414796Y1313279D01*
X1415462D01*
X1416129Y1313945D01*
Y1315278D01*
X1415462Y1315945D01*
X1402130Y1314764D02*
Y1313431D01*
Y1314097D01*
X1406129D01*
X1405462Y1314764D01*
D23*
X1393075Y1248622D02*
D03*
M02*
