M48
;Layer_Color=6321
;FILE_FORMAT=4:4
METRIC,LZ
;TYPE=PLATED
T1F00S00C0.3000
T2F00S00C0.6000
T3F00S00C0.8890
T4F00S00C1.0000
T5F00S00C1.1000
T6F00S00C1.5000
T7F00S00C3.1750
;TYPE=NON_PLATED
T8F00S00C3.1750
%
T01
X0319798Y0162498
Y0163898
Y0166398
X0321298Y0167998
X0322598Y0167298
X0322898Y0162498
X0325208Y0172243
X0327908
X0326208Y0176443
X0365998Y0177043
Y0174503
Y0171963
Y0169423
X0368598Y0169523
Y0172063
Y0174603
Y0177143
Y0179683
Y0182223
Y0184763
Y0187303
Y0189843
Y0192383
Y0194923
Y0197463
X0365998Y0197363
Y0194823
Y0192283
Y0189743
Y0187203
Y0184663
Y0182123
Y0179583
X0370723Y0177673
X0372698Y0177078
Y0174538
Y0171998
Y0169458
X0370723Y0170048
X0375298Y0169398
Y0171958
Y0174498
Y0176998
Y0179598
Y0182098
Y0184598
Y0187198
Y0189698
Y0192298
Y0194798
Y0197298
X0372698Y0197398
Y0194858
Y0192318
Y0189778
Y0187238
Y0184698
Y0182158
Y0179618
X0370723Y0185298
Y0192923
X0382958Y0177268
X0383458Y0176318
X0383983Y0175343
X0384508Y0174343
X0378798Y0166398
Y0165098
Y0163798
X0375898Y0162598
Y0165098
X0375298Y0199898
Y0202398
Y0204998
X0375273Y0207523
X0375298Y0210098
X0372698
Y0207558
Y0205018
Y0202478
Y0199938
X0370723Y0200523
X0368598Y0200003
Y0202543
Y0205083
Y0207623
Y0210163
X0365998Y0210063
Y0207523
Y0204983
Y0202443
Y0199903
X0370723Y0208148
X0370823Y0211123
T02
X0380258Y0172243
T03
X0348008Y0174803
Y0177343
X0359156Y017653
Y017907
Y018161
Y018415
Y018669
Y018923
Y019177
Y019431
Y019685
X0361696
Y019431
Y019177
Y018923
Y018669
Y018415
Y018161
Y017907
Y017653
Y017399
X0359156
Y017145
X0361696
Y016891
X0359156
Y019939
Y020193
Y020447
Y020701
X0361696
Y020447
Y020193
Y019939
Y020955
X0359156
T04
X0321598Y0173058
Y0176598
T05
X032131Y016383
Y016637
X032385
Y016383
X032639
Y016637
X032893
Y016383
X033147
Y016637
X033401
Y016383
X033655
Y016637
X033909
Y016383
X034163
Y016637
X034417
Y016383
X034671
Y016637
X034925
Y016383
X035179
Y016637
X035433
Y016383
X035687
Y016637
X0330048Y0177673
Y0180213
Y0182753
X0327508
Y0180213
Y0177673
Y0185293
Y0187833
Y0190373
Y0192913
Y0195453
Y0197993
X0330048
Y0195453
Y0192913
Y0190373
Y0187833
Y0185293
X035941Y016637
Y016383
X036195
Y016637
X036449
Y016383
X036703
Y016637
X036957
Y016383
X037211
Y016637
X037465
Y016383
X037719
Y016637
X0390508Y0173863
X0393048
Y0176403
X0390508
Y0178943
Y0181483
Y0184023
Y0186563
Y0189103
X0393048
Y0191643
Y0194183
X0390508
Y0191643
Y0196723
X0393048
Y0186563
Y0184023
Y0181483
Y0178943
Y0199263
X0390508
Y0201803
X0393048
Y0204343
X0390508
X037719Y021209
Y021463
X037465
Y021209
X037211
Y021463
X036957
Y021209
X036703
Y021463
X036449
Y021209
X036195
Y021463
X035941
Y021209
X035687
Y021463
X035433
Y021209
X035179
Y021463
X034925
Y021209
X034671
Y021463
X034417
Y021209
X034163
Y021463
X033909
Y021209
X033655
Y021463
X033401
Y021209
X033147
Y021463
X032893
Y021209
X032639
Y021463
X032385
Y021209
X032131
Y021463
X0327508Y0200533
X0330048
T06
X0317498Y0172218
Y0177298
T07
X031623Y01651
X038227Y0210185
X031623Y021336
T08
X038227Y0168275
M30
