M48
;Layer_Color=6321
;FILE_FORMAT=2:5
INCH,LZ
;TYPE=PLATED
T1F00S00C0.01575
T2F00S00C0.03500
T3F00S00C0.04331
T4F00S00C0.05512
T5F00S00C0.16142
%
T01
X1421027Y1193602
X1420929Y120374
X1421027Y1223622
Y1233661
T02
X144465Y120374
Y121374
Y122374
Y123374
Y124374
Y125374
Y126374
Y127374
Y128374
Y129374
Y130374
T03
X1414217Y1188622
Y1198622
Y1208622
Y1218622
Y1228622
Y1238622
Y1248622
X1404216
Y1238622
Y1228622
Y1218622
Y1208622
Y1198622
Y1188622
Y1258622
Y1268622
Y1278622
Y1288622
Y1298622
Y1308622
X1414217
Y1298622
Y1288622
Y1278622
Y1268622
Y1258622
T04
X1534413Y1289173
X1520634
X1506854
X1493075
X1479295
X1492878Y133563
X1506657
X1520437
X1534216
X1534216Y1352165
X1520437
X1506657
X1492878
X1563744
X1577524
X1591303
X1605083
X1605083Y133563
X1591303
X1577524
X1563744
X1563744Y1289173
X1577524
X1591303
X1605083
X163461
X164839
X1662169
X1675949
X1705476
X1705476Y133563
X1705476Y1352165
X1675949
X1662169
X164839
X163461
X163461Y133563
X164839
X1662169
X1675949
X1719256
X1733035
X1746815
X1746815Y1352165
X1733035
X1719256
Y1289173
X1733035
X1746815
T05
X1781264Y1144291
X1594256Y1234842
X1407248Y1144291
Y1352953
X1781264
M30
