M48
;Layer_Color=6321
;FILE_FORMAT=2:5
INCH,LZ
;TYPE=PLATED
T1F00S00C0.03500
T2F00S00C0.05512
T3F00S00C0.16142
%
T01
X144465Y120374
Y121374
Y122374
Y123374
Y124374
Y125374
Y126374
Y127374
Y128374
Y129374
Y130374
T02
X1534413Y1276575
X1534413Y1289173
X1520634
X1520634Y1276575
X1506854
X1506854Y1289173
X1493075
X1493075Y1276575
X1479295
X1479295Y1289173
X1563744
X1563744Y1276575
X1577524
X1577524Y1289173
X1591303
X1591303Y1276575
X1605083
X1605083Y1289173
X163461
X163461Y1276575
X164839
X164839Y1289173
X1662169
X1662169Y1276575
X1675949
X1675949Y1289173
X1705476
X1705476Y1276575
X1719256
X1719256Y1289173
X1733035
X1733035Y1276575
X1746815
X1746815Y1289173
T03
X1781264Y1144291
X1594256Y1234842
X1407248Y1144291
Y1352953
X1781264
M30
