G04*
G04 #@! TF.GenerationSoftware,Altium Limited,CircuitStudio,1.5.2 (30)*
G04*
G04 Layer_Color=20142*
%FSLAX25Y25*%
%MOIN*%
G70*
G01*
G75*
%ADD19C,0.24422*%
%ADD20C,0.09068*%
%ADD21R,0.09068X0.09068*%
%ADD22O,0.07600X0.05800*%
D19*
X1594256Y1234842D02*
D03*
X1407248Y1352953D02*
D03*
Y1144291D02*
D03*
X1781264Y1352953D02*
D03*
Y1144291D02*
D03*
D20*
X1563744Y1276575D02*
D03*
X1577524D02*
D03*
X1591303D02*
D03*
X1634610D02*
D03*
X1648390D02*
D03*
X1662169D02*
D03*
X1705476D02*
D03*
X1719256D02*
D03*
X1733035D02*
D03*
X1506854D02*
D03*
X1520634D02*
D03*
X1493075D02*
D03*
X1479295D02*
D03*
X1479295Y1289173D02*
D03*
X1493075D02*
D03*
X1520634D02*
D03*
X1506854D02*
D03*
X1591303D02*
D03*
X1577524D02*
D03*
X1563744D02*
D03*
X1662169D02*
D03*
X1648390D02*
D03*
X1634610D02*
D03*
X1733035D02*
D03*
X1719256D02*
D03*
X1705476D02*
D03*
D21*
X1605083Y1276575D02*
D03*
X1675949D02*
D03*
X1746815D02*
D03*
X1534413D02*
D03*
X1534413Y1289173D02*
D03*
X1605083D02*
D03*
X1675949D02*
D03*
X1746815D02*
D03*
D22*
X1444650Y1203740D02*
D03*
Y1213740D02*
D03*
Y1223740D02*
D03*
Y1233740D02*
D03*
Y1253740D02*
D03*
Y1243740D02*
D03*
Y1293740D02*
D03*
Y1303740D02*
D03*
Y1283740D02*
D03*
Y1273740D02*
D03*
Y1263740D02*
D03*
M02*
