G04*
G04 #@! TF.GenerationSoftware,Altium Limited,CircuitStudio,1.5.2 (30)*
G04*
G04 Layer_Color=15065295*
%FSLAX25Y25*%
%MOIN*%
G70*
G01*
G75*
%ADD11C,0.03937*%
%ADD16C,0.00787*%
%ADD17C,0.01000*%
%ADD18C,0.01575*%
D11*
X1489138Y1241920D02*
X1507504Y1214370D01*
Y1241920D02*
X1489138Y1214370D01*
X1560004Y1241920D02*
Y1237328D01*
X1569187Y1228145D01*
X1578371Y1237328D01*
Y1241920D01*
X1569187Y1228145D02*
Y1214370D01*
X1630870Y1241920D02*
X1649237D01*
Y1237328D01*
X1630870Y1218962D01*
Y1214370D01*
X1649237D01*
X1701736D02*
Y1232737D01*
X1710920Y1241920D01*
X1720103Y1232737D01*
Y1214370D01*
Y1228145D01*
X1701736D01*
D16*
X1610398Y1271850D02*
X1614728D01*
X1554098D02*
Y1308071D01*
X1614728D01*
Y1271850D02*
Y1308071D01*
X1554098Y1271850D02*
X1561382D01*
X1681264D02*
X1685594D01*
X1624965D02*
Y1308071D01*
X1685594D01*
Y1271850D02*
Y1308071D01*
X1624965Y1271850D02*
X1632248D01*
X1752130D02*
X1756461D01*
X1695831D02*
Y1308071D01*
X1756461D01*
Y1271850D02*
Y1308071D01*
X1695831Y1271850D02*
X1703114D01*
X1469650D02*
X1476933D01*
X1539728D02*
X1544059D01*
X1469650D02*
Y1308071D01*
X1544059D01*
Y1271850D02*
Y1308071D01*
X1469650Y1271850D02*
Y1300197D01*
Y1271850D02*
X1544059D01*
Y1300197D01*
X1469650D02*
X1544059D01*
X1554098Y1271850D02*
Y1300197D01*
Y1271850D02*
X1614728D01*
Y1300197D01*
X1554098D02*
X1614728D01*
X1624964Y1271850D02*
Y1300197D01*
Y1271850D02*
X1685594D01*
Y1300197D01*
X1624964D02*
X1685594D01*
X1695831Y1271850D02*
Y1300197D01*
Y1271850D02*
X1756461D01*
Y1300197D01*
X1695831D02*
X1756461D01*
D17*
X1439649Y1211240D02*
X1442150Y1208740D01*
X1447149D02*
X1449650Y1211240D01*
X1447149Y1208740D02*
X1449650Y1211240D01*
X1447149Y1208740D02*
X1449650Y1206240D01*
Y1201240D02*
Y1206240D01*
X1447149Y1198740D02*
X1449650Y1201240D01*
X1442150Y1198740D02*
X1447149D01*
X1439649Y1201240D02*
X1442150Y1198740D01*
X1439649Y1201240D02*
Y1206240D01*
X1442150Y1208740D01*
X1439649Y1211240D02*
X1442150Y1208740D01*
X1439649Y1221240D02*
X1442150Y1218740D01*
X1439649Y1216240D02*
X1442150Y1218740D01*
X1439649Y1211240D02*
Y1216240D01*
Y1211240D02*
X1442150Y1208740D01*
X1447149D02*
X1449650Y1211240D01*
Y1216240D01*
X1447149Y1218740D02*
X1449650Y1216240D01*
X1447149Y1218740D02*
X1449650Y1221240D01*
X1447149Y1238740D02*
X1449650Y1241240D01*
X1447149Y1238740D02*
X1449650Y1236240D01*
X1439649D02*
X1442150Y1238740D01*
X1439649Y1241240D02*
X1442150Y1238740D01*
X1447149Y1228740D02*
X1449650Y1231240D01*
X1447149Y1228740D02*
X1449650Y1226240D01*
Y1221240D02*
Y1226240D01*
X1447149Y1218740D02*
X1449650Y1221240D01*
X1439649D02*
X1442150Y1218740D01*
X1439649Y1221240D02*
Y1226240D01*
X1442150Y1228740D01*
X1439649Y1231240D02*
X1442150Y1228740D01*
X1439649Y1231240D02*
Y1236240D01*
X1449650Y1231240D02*
Y1236240D01*
Y1251240D02*
Y1256240D01*
X1447149Y1258740D02*
X1449650Y1256240D01*
X1442150Y1258740D02*
X1447149D01*
X1439649Y1256240D02*
X1442150Y1258740D01*
X1439649Y1251240D02*
Y1256240D01*
Y1251240D02*
X1442150Y1248740D01*
X1439649Y1246240D02*
X1442150Y1248740D01*
X1439649Y1241240D02*
Y1246240D01*
X1449650Y1241240D02*
Y1246240D01*
X1447149Y1248740D02*
X1449650Y1246240D01*
X1447149Y1248740D02*
X1449650Y1251240D01*
X1447149Y1298740D02*
X1449650Y1301240D01*
X1447149Y1298740D02*
X1449650Y1296240D01*
Y1291240D02*
Y1296240D01*
X1439649Y1291240D02*
Y1296240D01*
X1442150Y1298740D01*
X1439649Y1301240D02*
X1442150Y1298740D01*
X1439649Y1301240D02*
Y1306240D01*
X1442150Y1308740D01*
X1447149D01*
X1449650Y1306240D01*
Y1301240D02*
Y1306240D01*
Y1281240D02*
Y1286240D01*
X1439649Y1281240D02*
Y1286240D01*
Y1281240D02*
X1442150Y1278740D01*
X1439649Y1276240D02*
X1442150Y1278740D01*
X1439649Y1271240D02*
Y1276240D01*
Y1271240D02*
X1442150Y1268740D01*
X1447149D02*
X1449650Y1271240D01*
Y1276240D01*
X1447149Y1278740D02*
X1449650Y1276240D01*
X1447149Y1278740D02*
X1449650Y1281240D01*
X1439649Y1291240D02*
X1442150Y1288740D01*
X1439649Y1286240D02*
X1442150Y1288740D01*
X1447149D02*
X1449650Y1286240D01*
X1447149Y1288740D02*
X1449650Y1291240D01*
X1447149Y1268740D02*
X1449650Y1271240D01*
X1447149Y1268740D02*
X1449650Y1266240D01*
Y1261240D02*
Y1266240D01*
X1447149Y1258740D02*
X1449650Y1261240D01*
X1442150Y1258740D02*
X1447149D01*
X1439649Y1261240D02*
X1442150Y1258740D01*
X1439649Y1261240D02*
Y1266240D01*
X1442150Y1268740D01*
X1439649Y1271240D02*
X1442150Y1268740D01*
X1467878Y1271850D02*
X1461880D01*
Y1274849D01*
X1462879Y1275849D01*
X1464879D01*
X1465878Y1274849D01*
Y1271850D01*
X1461880Y1281847D02*
Y1277848D01*
X1464879D01*
X1463879Y1279848D01*
Y1280847D01*
X1464879Y1281847D01*
X1466878D01*
X1467878Y1280847D01*
Y1278848D01*
X1466878Y1277848D01*
X1552524Y1271850D02*
X1546525D01*
Y1274849D01*
X1547525Y1275849D01*
X1549524D01*
X1550524Y1274849D01*
Y1271850D01*
X1546525Y1281847D02*
X1547525Y1279848D01*
X1549524Y1277848D01*
X1551524D01*
X1552524Y1278848D01*
Y1280847D01*
X1551524Y1281847D01*
X1550524D01*
X1549524Y1280847D01*
Y1277848D01*
X1623390Y1271850D02*
X1617392D01*
Y1274849D01*
X1618391Y1275849D01*
X1620391D01*
X1621390Y1274849D01*
Y1271850D01*
X1617392Y1277848D02*
Y1281847D01*
X1618391D01*
X1622390Y1277848D01*
X1623390D01*
X1694256Y1271850D02*
X1688258D01*
Y1274849D01*
X1689257Y1275849D01*
X1691257D01*
X1692256Y1274849D01*
Y1271850D01*
X1689257Y1277848D02*
X1688258Y1278848D01*
Y1280847D01*
X1689257Y1281847D01*
X1690257D01*
X1691257Y1280847D01*
X1692256Y1281847D01*
X1693256D01*
X1694256Y1280847D01*
Y1278848D01*
X1693256Y1277848D01*
X1692256D01*
X1691257Y1278848D01*
X1690257Y1277848D01*
X1689257D01*
X1691257Y1278848D02*
Y1280847D01*
D18*
X1523519Y1266992D02*
X1522207Y1268304D01*
X1519583D01*
X1518272Y1266992D01*
Y1261745D01*
X1519583Y1260433D01*
X1522207D01*
X1523519Y1261745D01*
Y1264369D01*
X1520895D01*
X1536314Y1268304D02*
X1531067D01*
Y1264369D01*
X1533691Y1265681D01*
X1535003D01*
X1536314Y1264369D01*
Y1261745D01*
X1535003Y1260433D01*
X1532379D01*
X1531067Y1261745D01*
X1538938Y1268304D02*
Y1263057D01*
X1541562Y1260433D01*
X1544186Y1263057D01*
Y1268304D01*
X1593598Y1266993D02*
X1592286Y1268305D01*
X1589662D01*
X1588350Y1266993D01*
Y1261745D01*
X1589662Y1260433D01*
X1592286D01*
X1593598Y1261745D01*
Y1264369D01*
X1590974D01*
X1606984Y1268304D02*
X1601736D01*
Y1264369D01*
X1604360Y1265681D01*
X1605672D01*
X1606984Y1264369D01*
Y1261745D01*
X1605672Y1260433D01*
X1603048D01*
X1601736Y1261745D01*
X1609608Y1268304D02*
Y1263057D01*
X1612231Y1260433D01*
X1614855Y1263057D01*
Y1268304D01*
X1664464Y1266993D02*
X1663152Y1268305D01*
X1660528D01*
X1659216Y1266993D01*
Y1261745D01*
X1660528Y1260433D01*
X1663152D01*
X1664464Y1261745D01*
Y1264369D01*
X1661840D01*
X1677850Y1268304D02*
X1672602D01*
Y1264369D01*
X1675226Y1265681D01*
X1676538D01*
X1677850Y1264369D01*
Y1261745D01*
X1676538Y1260433D01*
X1673914D01*
X1672602Y1261745D01*
X1680474Y1268304D02*
Y1263057D01*
X1683097Y1260433D01*
X1685721Y1263057D01*
Y1268304D01*
X1735330Y1266993D02*
X1734018Y1268305D01*
X1731395D01*
X1730083Y1266993D01*
Y1261745D01*
X1731395Y1260433D01*
X1734018D01*
X1735330Y1261745D01*
Y1264369D01*
X1732706D01*
X1748716Y1268304D02*
X1743468D01*
Y1264369D01*
X1746092Y1265681D01*
X1747404D01*
X1748716Y1264369D01*
Y1261745D01*
X1747404Y1260433D01*
X1744780D01*
X1743468Y1261745D01*
X1751340Y1268304D02*
Y1263057D01*
X1753964Y1260433D01*
X1756587Y1263057D01*
Y1268304D01*
X1481984Y1268305D02*
X1476736D01*
Y1264369D01*
X1479360Y1265681D01*
X1480672D01*
X1481984Y1264369D01*
Y1261745D01*
X1480672Y1260433D01*
X1478048D01*
X1476736Y1261745D01*
X1489531Y1261745D02*
X1490843Y1260433D01*
X1493467D01*
X1494779Y1261745D01*
Y1266992D01*
X1493467Y1268304D01*
X1490843D01*
X1489531Y1266992D01*
Y1265681D01*
X1490843Y1264369D01*
X1494779D01*
X1500949Y1260433D02*
X1503572D01*
X1502261D01*
Y1268304D01*
X1500949Y1266992D01*
X1507508D02*
X1508820Y1268304D01*
X1511444D01*
X1512756Y1266992D01*
Y1261745D01*
X1511444Y1260433D01*
X1508820D01*
X1507508Y1261745D01*
Y1266992D01*
X1558429Y1254527D02*
X1560284Y1256383D01*
X1559357Y1255455D01*
X1553791Y1261021D01*
X1553791Y1259166D01*
X1566778Y1262876D02*
X1563067Y1259166D01*
Y1266587D01*
X1562140Y1267515D01*
X1560284D01*
X1558429Y1265659D01*
X1558429Y1263804D01*
X1574571Y1254527D02*
X1576426Y1256383D01*
X1575498Y1255455D01*
X1569932Y1261021D01*
X1569932Y1259166D01*
X1574571Y1263804D02*
X1574571Y1265659D01*
X1576426Y1267515D01*
X1578281D01*
X1579209Y1266587D01*
Y1264732D01*
X1578281Y1263804D01*
X1579209Y1264732D01*
X1581064Y1264732D01*
X1581992Y1263804D01*
Y1261949D01*
X1580137Y1260093D01*
X1578281D01*
X1645437Y1254527D02*
X1647292Y1256383D01*
X1646365Y1255455D01*
X1640799Y1261021D01*
X1640799Y1259166D01*
X1648220Y1268442D02*
X1647292Y1265659D01*
Y1261949D01*
X1649147Y1260093D01*
X1651003D01*
X1652858Y1261949D01*
Y1263804D01*
X1651930Y1264732D01*
X1650075Y1264732D01*
X1647292Y1261949D01*
X1629295Y1254527D02*
X1631150Y1256383D01*
X1630223Y1255455D01*
X1624657Y1261021D01*
X1624657Y1259166D01*
X1628367Y1264732D02*
X1632078Y1268442D01*
X1633006Y1267515D01*
Y1260093D01*
X1633933Y1259166D01*
X1716303Y1254527D02*
X1718158Y1256383D01*
X1717231Y1255455D01*
X1711665Y1261021D01*
X1711665Y1259166D01*
X1723724Y1261949D02*
X1718158Y1267515D01*
Y1261949D01*
X1721869Y1265659D01*
X1700161Y1254527D02*
X1702017Y1256383D01*
X1701089Y1255455D01*
X1695523Y1261021D01*
X1695523Y1259166D01*
X1702944Y1268442D02*
X1699234Y1264732D01*
X1702017Y1261949D01*
X1702944Y1264732D01*
X1703872Y1265659D01*
X1705727D01*
X1707583Y1263804D01*
Y1261949D01*
X1705727Y1260093D01*
X1703872D01*
M02*
