G04*
G04 #@! TF.GenerationSoftware,Altium Limited,CircuitStudio,1.5.2 (30)*
G04*
G04 Layer_Color=20142*
%FSLAX44Y44*%
%MOMM*%
G71*
G01*
G75*
%ADD45C,1.8032*%
%ADD46R,1.8032X1.8032*%
%ADD47O,3.7032X3.2032*%
%ADD48O,2.7032X2.2032*%
%ADD49O,1.9812X1.4732*%
%ADD50R,1.9532X1.9532*%
%ADD51C,1.9532*%
%ADD52O,1.9532X1.7032*%
%ADD53C,0.2032*%
%ADD54C,5.0033*%
%ADD55C,5.0032*%
%ADD56O,1.9304X1.4732*%
G36*
X3516778Y2009941D02*
X3517111Y2009904D01*
X3517518Y2009830D01*
X3517963Y2009756D01*
X3518444Y2009645D01*
X3518963Y2009496D01*
X3519481Y2009311D01*
X3520037Y2009089D01*
X3520592Y2008793D01*
X3521111Y2008497D01*
X3521629Y2008126D01*
X3522148Y2007682D01*
X3522592Y2007200D01*
X3522629Y2007163D01*
X3522703Y2007089D01*
X3522814Y2006904D01*
X3522962Y2006682D01*
X3523148Y2006386D01*
X3523333Y2006052D01*
X3523555Y2005608D01*
X3523777Y2005126D01*
X3523999Y2004571D01*
X3524221Y2003941D01*
X3524407Y2003275D01*
X3524592Y2002497D01*
X3524740Y2001682D01*
X3524851Y2000794D01*
X3524925Y1999868D01*
Y1998831D01*
X3512630D01*
Y1998794D01*
Y1998720D01*
Y1998609D01*
X3512667Y1998461D01*
X3512704Y1998090D01*
X3512778Y1997572D01*
X3512926Y1997053D01*
X3513148Y1996461D01*
X3513408Y1995905D01*
X3513778Y1995424D01*
X3513815Y1995387D01*
X3514000Y1995239D01*
X3514222Y1995054D01*
X3514556Y1994831D01*
X3514963Y1994609D01*
X3515482Y1994424D01*
X3516037Y1994276D01*
X3516630Y1994239D01*
X3516815D01*
X3517037Y1994276D01*
X3517296Y1994313D01*
X3517592Y1994387D01*
X3517926Y1994498D01*
X3518259Y1994646D01*
X3518555Y1994868D01*
X3518593Y1994905D01*
X3518704Y1994979D01*
X3518852Y1995128D01*
X3519000Y1995350D01*
X3519222Y1995646D01*
X3519407Y1995979D01*
X3519592Y1996424D01*
X3519778Y1996905D01*
X3524666Y1996090D01*
Y1996053D01*
X3524629Y1995979D01*
X3524555Y1995831D01*
X3524481Y1995646D01*
X3524370Y1995424D01*
X3524258Y1995165D01*
X3523925Y1994572D01*
X3523518Y1993905D01*
X3522999Y1993202D01*
X3522370Y1992572D01*
X3521666Y1991980D01*
X3521629D01*
X3521592Y1991906D01*
X3521444Y1991869D01*
X3521296Y1991758D01*
X3521111Y1991647D01*
X3520851Y1991535D01*
X3520592Y1991424D01*
X3520259Y1991276D01*
X3519518Y1991017D01*
X3518666Y1990795D01*
X3517667Y1990647D01*
X3516593Y1990573D01*
X3516371D01*
X3516148Y1990609D01*
X3515815D01*
X3515407Y1990684D01*
X3514926Y1990758D01*
X3514408Y1990832D01*
X3513889Y1990980D01*
X3513297Y1991128D01*
X3512704Y1991350D01*
X3512112Y1991609D01*
X3511519Y1991906D01*
X3510927Y1992276D01*
X3510371Y1992683D01*
X3509890Y1993165D01*
X3509408Y1993720D01*
X3509371Y1993757D01*
X3509334Y1993831D01*
X3509260Y1993980D01*
X3509112Y1994165D01*
X3509001Y1994424D01*
X3508853Y1994720D01*
X3508668Y1995054D01*
X3508519Y1995461D01*
X3508334Y1995905D01*
X3508186Y1996387D01*
X3508001Y1996905D01*
X3507890Y1997498D01*
X3507779Y1998090D01*
X3507668Y1998720D01*
X3507631Y1999423D01*
X3507593Y2000127D01*
Y2000164D01*
Y2000312D01*
Y2000571D01*
X3507631Y2000905D01*
X3507668Y2001275D01*
X3507704Y2001720D01*
X3507779Y2002201D01*
X3507890Y2002756D01*
X3508186Y2003905D01*
X3508371Y2004497D01*
X3508593Y2005126D01*
X3508890Y2005719D01*
X3509223Y2006275D01*
X3509593Y2006830D01*
X3510001Y2007348D01*
X3510038Y2007386D01*
X3510112Y2007460D01*
X3510260Y2007608D01*
X3510445Y2007756D01*
X3510667Y2007941D01*
X3510963Y2008163D01*
X3511297Y2008423D01*
X3511667Y2008682D01*
X3512075Y2008904D01*
X3512556Y2009163D01*
X3513037Y2009385D01*
X3513593Y2009570D01*
X3514148Y2009719D01*
X3514778Y2009867D01*
X3515407Y2009941D01*
X3516074Y2009978D01*
X3516482D01*
X3516778Y2009941D01*
D02*
G37*
G36*
X3475263D02*
X3475560D01*
X3476300Y2009867D01*
X3477078Y2009793D01*
X3477893Y2009645D01*
X3478671Y2009422D01*
X3479004Y2009311D01*
X3479337Y2009163D01*
X3479374D01*
X3479411Y2009126D01*
X3479596Y2009015D01*
X3479893Y2008867D01*
X3480226Y2008645D01*
X3480633Y2008348D01*
X3481004Y2008015D01*
X3481337Y2007608D01*
X3481633Y2007200D01*
X3481670Y2007126D01*
X3481744Y2006978D01*
X3481855Y2006645D01*
X3481892Y2006460D01*
X3481967Y2006201D01*
X3482041Y2005941D01*
X3482078Y2005608D01*
X3482152Y2005238D01*
X3482189Y2004830D01*
X3482226Y2004386D01*
X3482263Y2003905D01*
X3482300Y2003386D01*
Y2002793D01*
X3482226Y1997053D01*
Y1997016D01*
Y1996942D01*
Y1996831D01*
Y1996646D01*
Y1996201D01*
X3482263Y1995683D01*
Y1995090D01*
X3482337Y1994498D01*
X3482374Y1993905D01*
X3482448Y1993424D01*
Y1993387D01*
X3482485Y1993239D01*
X3482559Y1992980D01*
X3482633Y1992683D01*
X3482781Y1992313D01*
X3482929Y1991906D01*
X3483115Y1991461D01*
X3483337Y1990980D01*
X3478485D01*
Y1991017D01*
X3478448Y1991054D01*
X3478411Y1991202D01*
X3478337Y1991350D01*
X3478263Y1991535D01*
X3478189Y1991795D01*
X3478115Y1992091D01*
X3478004Y1992424D01*
Y1992461D01*
X3477967Y1992498D01*
X3477930Y1992646D01*
X3477856Y1992832D01*
X3477819Y1992980D01*
X3477745Y1992943D01*
X3477597Y1992794D01*
X3477337Y1992572D01*
X3477004Y1992313D01*
X3476597Y1992017D01*
X3476152Y1991684D01*
X3475634Y1991424D01*
X3475115Y1991165D01*
X3475041Y1991128D01*
X3474856Y1991091D01*
X3474560Y1990980D01*
X3474189Y1990869D01*
X3473745Y1990758D01*
X3473227Y1990684D01*
X3472634Y1990609D01*
X3472042Y1990573D01*
X3471783D01*
X3471560Y1990609D01*
X3471338D01*
X3471042Y1990647D01*
X3470412Y1990758D01*
X3469672Y1990943D01*
X3468931Y1991202D01*
X3468190Y1991572D01*
X3467523Y1992091D01*
Y1992128D01*
X3467450Y1992165D01*
X3467264Y1992387D01*
X3467005Y1992720D01*
X3466709Y1993165D01*
X3466413Y1993720D01*
X3466153Y1994387D01*
X3465968Y1995165D01*
X3465931Y1995572D01*
X3465894Y1996016D01*
Y1996090D01*
Y1996276D01*
X3465931Y1996572D01*
X3466005Y1996942D01*
X3466079Y1997387D01*
X3466190Y1997831D01*
X3466376Y1998312D01*
X3466635Y1998794D01*
X3466672Y1998868D01*
X3466783Y1999016D01*
X3466931Y1999238D01*
X3467190Y1999498D01*
X3467450Y1999794D01*
X3467820Y2000127D01*
X3468227Y2000423D01*
X3468709Y2000683D01*
X3468783Y2000720D01*
X3468968Y2000794D01*
X3469264Y2000905D01*
X3469709Y2001090D01*
X3470264Y2001275D01*
X3470931Y2001460D01*
X3471745Y2001645D01*
X3472634Y2001831D01*
X3472671D01*
X3472782Y2001868D01*
X3472968Y2001905D01*
X3473190Y2001942D01*
X3473486Y2001979D01*
X3473819Y2002053D01*
X3474560Y2002238D01*
X3475338Y2002423D01*
X3476152Y2002608D01*
X3476856Y2002831D01*
X3477189Y2002942D01*
X3477448Y2003053D01*
Y2003534D01*
Y2003608D01*
Y2003756D01*
X3477411Y2004016D01*
X3477374Y2004349D01*
X3477263Y2004682D01*
X3477152Y2005015D01*
X3476967Y2005312D01*
X3476708Y2005571D01*
X3476671Y2005608D01*
X3476560Y2005682D01*
X3476375Y2005756D01*
X3476115Y2005904D01*
X3475745Y2006015D01*
X3475301Y2006089D01*
X3474745Y2006163D01*
X3474078Y2006201D01*
X3473856D01*
X3473634Y2006163D01*
X3473338Y2006126D01*
X3473004Y2006052D01*
X3472634Y2005978D01*
X3472301Y2005830D01*
X3472005Y2005645D01*
X3471967Y2005608D01*
X3471894Y2005534D01*
X3471745Y2005423D01*
X3471597Y2005238D01*
X3471375Y2004978D01*
X3471190Y2004645D01*
X3471005Y2004275D01*
X3470820Y2003830D01*
X3466413Y2004645D01*
Y2004682D01*
X3466450Y2004756D01*
X3466487Y2004904D01*
X3466561Y2005090D01*
X3466635Y2005312D01*
X3466746Y2005571D01*
X3467005Y2006163D01*
X3467375Y2006793D01*
X3467820Y2007460D01*
X3468338Y2008089D01*
X3468968Y2008645D01*
X3469005D01*
X3469042Y2008719D01*
X3469153Y2008756D01*
X3469301Y2008867D01*
X3469523Y2008941D01*
X3469745Y2009052D01*
X3470042Y2009200D01*
X3470338Y2009311D01*
X3470709Y2009422D01*
X3471116Y2009570D01*
X3471560Y2009682D01*
X3472079Y2009756D01*
X3472597Y2009867D01*
X3473190Y2009904D01*
X3473782Y2009978D01*
X3475004D01*
X3475263Y2009941D01*
D02*
G37*
G36*
X3439590Y2051020D02*
X3440330Y2050983D01*
X3441071Y2050946D01*
X3441775Y2050872D01*
X3442404Y2050798D01*
X3442478D01*
X3442663Y2050761D01*
X3442923Y2050686D01*
X3443293Y2050575D01*
X3443700Y2050427D01*
X3444145Y2050242D01*
X3444626Y2050020D01*
X3445070Y2049724D01*
X3445107Y2049687D01*
X3445256Y2049576D01*
X3445478Y2049390D01*
X3445774Y2049168D01*
X3446070Y2048835D01*
X3446404Y2048465D01*
X3446737Y2048057D01*
X3447033Y2047576D01*
X3447070Y2047502D01*
X3447144Y2047354D01*
X3447292Y2047057D01*
X3447440Y2046687D01*
X3447589Y2046243D01*
X3447737Y2045761D01*
X3447811Y2045169D01*
X3447848Y2044576D01*
Y2044539D01*
Y2044502D01*
Y2044280D01*
X3447811Y2043947D01*
X3447737Y2043502D01*
X3447589Y2042984D01*
X3447440Y2042428D01*
X3447181Y2041873D01*
X3446848Y2041280D01*
X3446811Y2041206D01*
X3446663Y2041021D01*
X3446441Y2040762D01*
X3446182Y2040428D01*
X3445811Y2040095D01*
X3445367Y2039688D01*
X3444848Y2039354D01*
X3444256Y2039021D01*
X3444293D01*
X3444367Y2038984D01*
X3444478Y2038947D01*
X3444626Y2038910D01*
X3445070Y2038725D01*
X3445589Y2038466D01*
X3446144Y2038169D01*
X3446774Y2037762D01*
X3447329Y2037280D01*
X3447848Y2036688D01*
X3447885Y2036614D01*
X3448033Y2036392D01*
X3448255Y2036058D01*
X3448477Y2035614D01*
X3448700Y2035022D01*
X3448922Y2034392D01*
X3449070Y2033651D01*
X3449107Y2032836D01*
Y2032800D01*
Y2032762D01*
Y2032540D01*
X3449070Y2032207D01*
X3448996Y2031763D01*
X3448922Y2031244D01*
X3448774Y2030652D01*
X3448552Y2030059D01*
X3448293Y2029429D01*
X3448255Y2029355D01*
X3448144Y2029170D01*
X3447959Y2028874D01*
X3447700Y2028504D01*
X3447404Y2028059D01*
X3446996Y2027652D01*
X3446589Y2027207D01*
X3446070Y2026800D01*
X3445996Y2026763D01*
X3445811Y2026652D01*
X3445515Y2026467D01*
X3445107Y2026282D01*
X3444589Y2026059D01*
X3443997Y2025874D01*
X3443330Y2025689D01*
X3442589Y2025578D01*
X3442441D01*
X3442293Y2025541D01*
X3441923D01*
X3441664Y2025504D01*
X3440960D01*
X3440515Y2025467D01*
X3439404D01*
X3438775Y2025430D01*
X3427665D01*
Y2051057D01*
X3438923D01*
X3439590Y2051020D01*
D02*
G37*
G36*
X3383818Y2051316D02*
X3384299Y2051242D01*
X3384854Y2051131D01*
X3385410Y2050909D01*
X3385966Y2050650D01*
X3386484Y2050279D01*
X3386558Y2050242D01*
X3386706Y2050094D01*
X3386891Y2049872D01*
X3387151Y2049576D01*
X3387373Y2049205D01*
X3387595Y2048798D01*
X3387743Y2048316D01*
X3387780Y2047798D01*
Y2047761D01*
Y2047687D01*
Y2047576D01*
X3387743Y2047390D01*
X3387632Y2047020D01*
X3387410Y2046576D01*
X3387373Y2046539D01*
X3387336Y2046465D01*
X3387225Y2046317D01*
X3387076Y2046131D01*
X3386891Y2045909D01*
X3386632Y2045687D01*
X3386373Y2045502D01*
X3386077Y2045280D01*
X3386114D01*
X3386262Y2045206D01*
X3386484Y2045094D01*
X3386743Y2044983D01*
X3387039Y2044798D01*
X3387336Y2044576D01*
X3387632Y2044354D01*
X3387891Y2044058D01*
X3387928Y2044021D01*
X3388002Y2043909D01*
X3388076Y2043761D01*
X3388224Y2043502D01*
X3388336Y2043243D01*
X3388410Y2042910D01*
X3388484Y2042576D01*
X3388521Y2042169D01*
Y2042095D01*
X3388484Y2041873D01*
X3388447Y2041576D01*
X3388336Y2041169D01*
X3388150Y2040725D01*
X3387891Y2040206D01*
X3387521Y2039725D01*
X3387039Y2039206D01*
X3386965Y2039169D01*
X3386780Y2039021D01*
X3386447Y2038799D01*
X3386003Y2038577D01*
X3385447Y2038354D01*
X3384780Y2038132D01*
X3384003Y2037984D01*
X3383151Y2037947D01*
X3382780D01*
X3382373Y2038021D01*
X3381855Y2038095D01*
X3381299Y2038206D01*
X3380707Y2038392D01*
X3380114Y2038651D01*
X3379559Y2039021D01*
X3379485Y2039058D01*
X3379337Y2039243D01*
X3379114Y2039465D01*
X3378855Y2039799D01*
X3378596Y2040243D01*
X3378337Y2040725D01*
X3378152Y2041317D01*
X3378004Y2041984D01*
X3381225Y2042354D01*
Y2042317D01*
X3381262Y2042206D01*
X3381299Y2042021D01*
X3381336Y2041799D01*
X3381522Y2041354D01*
X3381670Y2041095D01*
X3381818Y2040910D01*
X3381855D01*
X3381929Y2040836D01*
X3382040Y2040762D01*
X3382188Y2040688D01*
X3382373Y2040614D01*
X3382596Y2040539D01*
X3382855Y2040502D01*
X3383151Y2040465D01*
X3383299D01*
X3383447Y2040502D01*
X3383633Y2040539D01*
X3384077Y2040688D01*
X3384299Y2040799D01*
X3384521Y2040984D01*
X3384558Y2041021D01*
X3384595Y2041095D01*
X3384706Y2041206D01*
X3384818Y2041354D01*
X3384891Y2041539D01*
X3385003Y2041761D01*
X3385040Y2042021D01*
X3385077Y2042317D01*
Y2042354D01*
Y2042428D01*
X3385040Y2042576D01*
X3385003Y2042761D01*
X3384854Y2043132D01*
X3384743Y2043354D01*
X3384558Y2043539D01*
X3384521Y2043576D01*
X3384484Y2043613D01*
X3384336Y2043687D01*
X3384188Y2043798D01*
X3383781Y2043983D01*
X3383558Y2044021D01*
X3383262Y2044058D01*
X3383040D01*
X3382855Y2044021D01*
X3382632Y2043983D01*
X3382373Y2043947D01*
X3382040Y2043872D01*
X3381670Y2043761D01*
X3382077Y2046354D01*
X3382373D01*
X3382596Y2046391D01*
X3383040Y2046428D01*
X3383484Y2046539D01*
X3383521D01*
X3383558Y2046576D01*
X3383781Y2046687D01*
X3384003Y2046835D01*
X3384225Y2047020D01*
X3384262Y2047094D01*
X3384336Y2047242D01*
X3384410Y2047465D01*
X3384447Y2047724D01*
Y2047761D01*
Y2047798D01*
X3384410Y2048020D01*
X3384299Y2048279D01*
X3384077Y2048539D01*
X3384003Y2048576D01*
X3383818Y2048724D01*
X3383484Y2048835D01*
X3383003Y2048872D01*
X3382892D01*
X3382744Y2048835D01*
X3382596D01*
X3382225Y2048687D01*
X3382040Y2048613D01*
X3381855Y2048465D01*
X3381781Y2048390D01*
X3381707Y2048279D01*
X3381633Y2048168D01*
X3381522Y2047983D01*
X3381447Y2047761D01*
X3381373Y2047465D01*
X3381299Y2047168D01*
X3378188Y2047613D01*
Y2047650D01*
X3378226Y2047687D01*
X3378263Y2047909D01*
X3378374Y2048205D01*
X3378485Y2048613D01*
X3378670Y2049020D01*
X3378892Y2049427D01*
X3379151Y2049835D01*
X3379448Y2050168D01*
X3379522Y2050205D01*
X3379707Y2050353D01*
X3380003Y2050538D01*
X3380410Y2050798D01*
X3380929Y2051020D01*
X3381559Y2051205D01*
X3382262Y2051353D01*
X3383077Y2051390D01*
X3383447D01*
X3383818Y2051316D01*
D02*
G37*
G36*
X3488510Y2046131D02*
X3479215D01*
X3478438Y2041761D01*
X3478474D01*
X3478511Y2041799D01*
X3478734Y2041910D01*
X3479067Y2042021D01*
X3479474Y2042206D01*
X3479993Y2042354D01*
X3480548Y2042465D01*
X3481178Y2042576D01*
X3481807Y2042613D01*
X3482141D01*
X3482363Y2042576D01*
X3482622Y2042539D01*
X3482955Y2042502D01*
X3483326Y2042428D01*
X3483733Y2042317D01*
X3484585Y2042021D01*
X3485066Y2041836D01*
X3485511Y2041613D01*
X3485992Y2041317D01*
X3486474Y2040984D01*
X3486918Y2040614D01*
X3487362Y2040206D01*
X3487399Y2040169D01*
X3487473Y2040095D01*
X3487585Y2039947D01*
X3487733Y2039762D01*
X3487881Y2039539D01*
X3488103Y2039243D01*
X3488288Y2038910D01*
X3488510Y2038540D01*
X3488733Y2038132D01*
X3488918Y2037651D01*
X3489140Y2037132D01*
X3489288Y2036614D01*
X3489436Y2036021D01*
X3489547Y2035392D01*
X3489621Y2034725D01*
X3489659Y2034022D01*
Y2033985D01*
Y2033873D01*
Y2033725D01*
X3489621Y2033503D01*
Y2033207D01*
X3489547Y2032874D01*
X3489510Y2032503D01*
X3489436Y2032133D01*
X3489214Y2031244D01*
X3488881Y2030281D01*
X3488659Y2029763D01*
X3488436Y2029281D01*
X3488140Y2028800D01*
X3487807Y2028318D01*
X3487770Y2028281D01*
X3487696Y2028170D01*
X3487548Y2028022D01*
X3487362Y2027800D01*
X3487103Y2027541D01*
X3486770Y2027245D01*
X3486400Y2026948D01*
X3485992Y2026652D01*
X3485511Y2026319D01*
X3484992Y2026022D01*
X3484437Y2025726D01*
X3483807Y2025467D01*
X3483141Y2025245D01*
X3482437Y2025097D01*
X3481659Y2024986D01*
X3480844Y2024948D01*
X3480511D01*
X3480252Y2024986D01*
X3479956Y2025022D01*
X3479585Y2025060D01*
X3479215Y2025097D01*
X3478771Y2025171D01*
X3477882Y2025393D01*
X3476882Y2025763D01*
X3476400Y2025948D01*
X3475919Y2026208D01*
X3475475Y2026504D01*
X3475030Y2026837D01*
X3474993Y2026874D01*
X3474919Y2026911D01*
X3474808Y2027022D01*
X3474660Y2027170D01*
X3474512Y2027393D01*
X3474290Y2027615D01*
X3474105Y2027874D01*
X3473882Y2028170D01*
X3473623Y2028541D01*
X3473401Y2028911D01*
X3472993Y2029800D01*
X3472623Y2030800D01*
X3472512Y2031355D01*
X3472401Y2031948D01*
X3477289Y2032466D01*
Y2032392D01*
X3477326Y2032207D01*
X3477401Y2031874D01*
X3477512Y2031503D01*
X3477660Y2031096D01*
X3477882Y2030652D01*
X3478178Y2030244D01*
X3478511Y2029837D01*
X3478549Y2029800D01*
X3478697Y2029689D01*
X3478919Y2029541D01*
X3479215Y2029355D01*
X3479548Y2029170D01*
X3479956Y2029022D01*
X3480437Y2028911D01*
X3480919Y2028874D01*
X3480993D01*
X3481178Y2028911D01*
X3481474Y2028948D01*
X3481844Y2029022D01*
X3482252Y2029170D01*
X3482696Y2029392D01*
X3483141Y2029726D01*
X3483548Y2030133D01*
X3483585Y2030207D01*
X3483733Y2030355D01*
X3483881Y2030652D01*
X3484103Y2031096D01*
X3484289Y2031614D01*
X3484474Y2032244D01*
X3484585Y2033022D01*
X3484622Y2033911D01*
Y2033947D01*
Y2034022D01*
Y2034133D01*
Y2034318D01*
X3484585Y2034725D01*
X3484474Y2035244D01*
X3484363Y2035836D01*
X3484178Y2036429D01*
X3483918Y2036984D01*
X3483548Y2037466D01*
X3483511Y2037503D01*
X3483363Y2037651D01*
X3483104Y2037836D01*
X3482807Y2038095D01*
X3482400Y2038317D01*
X3481919Y2038503D01*
X3481363Y2038651D01*
X3480771Y2038688D01*
X3480548D01*
X3480400Y2038651D01*
X3480030Y2038577D01*
X3479511Y2038466D01*
X3478919Y2038243D01*
X3478289Y2037910D01*
X3477956Y2037688D01*
X3477623Y2037429D01*
X3477289Y2037132D01*
X3476956Y2036799D01*
X3472993Y2037354D01*
X3475512Y2050724D01*
X3488510D01*
Y2046131D01*
D02*
G37*
G36*
X3461476Y2051168D02*
X3461809Y2051131D01*
X3462180Y2051094D01*
X3462587Y2051020D01*
X3463032Y2050946D01*
X3463994Y2050686D01*
X3464957Y2050316D01*
X3465476Y2050094D01*
X3465920Y2049835D01*
X3466402Y2049501D01*
X3466809Y2049131D01*
X3466846Y2049094D01*
X3466920Y2049057D01*
X3466994Y2048909D01*
X3467142Y2048761D01*
X3467327Y2048576D01*
X3467513Y2048316D01*
X3467698Y2048057D01*
X3467920Y2047724D01*
X3468290Y2046983D01*
X3468661Y2046131D01*
X3468809Y2045650D01*
X3468883Y2045132D01*
X3468957Y2044576D01*
X3468994Y2044021D01*
Y2043947D01*
Y2043724D01*
X3468957Y2043391D01*
X3468920Y2042984D01*
X3468846Y2042465D01*
X3468735Y2041910D01*
X3468587Y2041317D01*
X3468364Y2040725D01*
X3468327Y2040650D01*
X3468253Y2040465D01*
X3468105Y2040132D01*
X3467883Y2039725D01*
X3467624Y2039243D01*
X3467290Y2038688D01*
X3466883Y2038095D01*
X3466402Y2037466D01*
X3466365Y2037429D01*
X3466216Y2037243D01*
X3465994Y2036984D01*
X3465661Y2036614D01*
X3465216Y2036169D01*
X3464661Y2035577D01*
X3463994Y2034947D01*
X3463180Y2034170D01*
X3463143Y2034133D01*
X3463069Y2034096D01*
X3462957Y2033985D01*
X3462809Y2033836D01*
X3462402Y2033466D01*
X3461920Y2033022D01*
X3461439Y2032540D01*
X3460958Y2032059D01*
X3460513Y2031651D01*
X3460365Y2031466D01*
X3460217Y2031318D01*
X3460180Y2031281D01*
X3460106Y2031207D01*
X3459995Y2031059D01*
X3459847Y2030874D01*
X3459514Y2030466D01*
X3459217Y2029985D01*
X3468994D01*
Y2025430D01*
X3451773D01*
Y2025467D01*
Y2025541D01*
X3451811Y2025689D01*
X3451848Y2025874D01*
X3451884Y2026096D01*
X3451922Y2026356D01*
X3452070Y2027022D01*
X3452292Y2027763D01*
X3452588Y2028578D01*
X3452958Y2029467D01*
X3453440Y2030318D01*
Y2030355D01*
X3453514Y2030429D01*
X3453588Y2030578D01*
X3453736Y2030726D01*
X3453884Y2030985D01*
X3454107Y2031244D01*
X3454366Y2031577D01*
X3454662Y2031948D01*
X3454995Y2032392D01*
X3455403Y2032836D01*
X3455847Y2033355D01*
X3456366Y2033911D01*
X3456921Y2034466D01*
X3457551Y2035096D01*
X3458217Y2035762D01*
X3458958Y2036466D01*
X3458995Y2036503D01*
X3459106Y2036614D01*
X3459254Y2036762D01*
X3459476Y2036984D01*
X3459773Y2037206D01*
X3460069Y2037503D01*
X3460735Y2038169D01*
X3461402Y2038873D01*
X3462069Y2039577D01*
X3462365Y2039873D01*
X3462661Y2040206D01*
X3462883Y2040465D01*
X3463032Y2040688D01*
X3463069Y2040762D01*
X3463180Y2040947D01*
X3463365Y2041243D01*
X3463550Y2041650D01*
X3463735Y2042095D01*
X3463920Y2042613D01*
X3464031Y2043132D01*
X3464069Y2043687D01*
Y2043724D01*
Y2043761D01*
Y2043947D01*
X3464031Y2044280D01*
X3463958Y2044650D01*
X3463846Y2045058D01*
X3463698Y2045465D01*
X3463476Y2045872D01*
X3463180Y2046243D01*
X3463143Y2046279D01*
X3463032Y2046391D01*
X3462809Y2046539D01*
X3462550Y2046687D01*
X3462180Y2046835D01*
X3461772Y2046983D01*
X3461291Y2047094D01*
X3460735Y2047131D01*
X3460476D01*
X3460180Y2047094D01*
X3459847Y2047020D01*
X3459439Y2046909D01*
X3459032Y2046724D01*
X3458625Y2046502D01*
X3458254Y2046205D01*
X3458217Y2046169D01*
X3458106Y2046020D01*
X3457958Y2045798D01*
X3457810Y2045465D01*
X3457625Y2045058D01*
X3457477Y2044502D01*
X3457328Y2043872D01*
X3457254Y2043132D01*
X3452366Y2043613D01*
Y2043650D01*
X3452403Y2043798D01*
Y2043983D01*
X3452477Y2044280D01*
X3452514Y2044613D01*
X3452625Y2044983D01*
X3452737Y2045391D01*
X3452848Y2045872D01*
X3453218Y2046798D01*
X3453662Y2047761D01*
X3453958Y2048242D01*
X3454292Y2048687D01*
X3454662Y2049057D01*
X3455069Y2049427D01*
X3455107Y2049464D01*
X3455180Y2049501D01*
X3455292Y2049576D01*
X3455477Y2049724D01*
X3455699Y2049835D01*
X3455995Y2049983D01*
X3456292Y2050168D01*
X3456662Y2050316D01*
X3457069Y2050501D01*
X3457514Y2050650D01*
X3458477Y2050946D01*
X3459625Y2051131D01*
X3460217Y2051168D01*
X3460847Y2051205D01*
X3461217D01*
X3461476Y2051168D01*
D02*
G37*
G36*
X3412333Y2051020D02*
X3413037Y2050983D01*
X3413814Y2050946D01*
X3414629Y2050835D01*
X3415407Y2050724D01*
X3416111Y2050538D01*
X3416147D01*
X3416222Y2050501D01*
X3416333Y2050464D01*
X3416481Y2050427D01*
X3416925Y2050242D01*
X3417444Y2049983D01*
X3418036Y2049650D01*
X3418703Y2049242D01*
X3419332Y2048761D01*
X3419962Y2048168D01*
X3419999D01*
X3420036Y2048094D01*
X3420221Y2047872D01*
X3420518Y2047502D01*
X3420851Y2047020D01*
X3421258Y2046428D01*
X3421666Y2045724D01*
X3422073Y2044909D01*
X3422406Y2044021D01*
Y2043983D01*
X3422443Y2043909D01*
X3422480Y2043761D01*
X3422554Y2043576D01*
X3422591Y2043354D01*
X3422665Y2043058D01*
X3422740Y2042724D01*
X3422851Y2042354D01*
X3422924Y2041947D01*
X3422999Y2041465D01*
X3423073Y2040984D01*
X3423110Y2040428D01*
X3423221Y2039280D01*
X3423258Y2037984D01*
Y2037947D01*
Y2037836D01*
Y2037688D01*
Y2037466D01*
X3423221Y2037169D01*
Y2036873D01*
X3423184Y2036503D01*
X3423147Y2036095D01*
X3423073Y2035244D01*
X3422924Y2034355D01*
X3422702Y2033429D01*
X3422443Y2032540D01*
Y2032503D01*
X3422406Y2032429D01*
X3422332Y2032281D01*
X3422258Y2032059D01*
X3422184Y2031837D01*
X3422036Y2031577D01*
X3421740Y2030911D01*
X3421369Y2030207D01*
X3420888Y2029429D01*
X3420332Y2028689D01*
X3419703Y2027985D01*
X3419629Y2027911D01*
X3419443Y2027763D01*
X3419147Y2027541D01*
X3418740Y2027245D01*
X3418221Y2026911D01*
X3417629Y2026578D01*
X3416888Y2026245D01*
X3416074Y2025948D01*
X3416036D01*
X3415999Y2025911D01*
X3415888D01*
X3415777Y2025874D01*
X3415370Y2025800D01*
X3414851Y2025689D01*
X3414222Y2025578D01*
X3413444Y2025504D01*
X3412518Y2025467D01*
X3411518Y2025430D01*
X3401816D01*
Y2051057D01*
X3412037D01*
X3412333Y2051020D01*
D02*
G37*
G36*
X3365719Y2017051D02*
X3366127Y2017014D01*
X3366571Y2016940D01*
X3367090Y2016866D01*
X3367645Y2016755D01*
X3368238Y2016607D01*
X3368867Y2016422D01*
X3369497Y2016199D01*
X3370163Y2015903D01*
X3370793Y2015607D01*
X3371385Y2015237D01*
X3372015Y2014792D01*
X3372570Y2014311D01*
X3372607D01*
X3372644Y2014237D01*
X3372756Y2014126D01*
X3372867Y2014014D01*
X3373015Y2013829D01*
X3373163Y2013607D01*
X3373570Y2013089D01*
X3373978Y2012422D01*
X3374422Y2011607D01*
X3374829Y2010681D01*
X3375200Y2009608D01*
X3370089Y2008385D01*
Y2008423D01*
X3370052Y2008459D01*
Y2008571D01*
X3369978Y2008719D01*
X3369867Y2009052D01*
X3369682Y2009496D01*
X3369423Y2010015D01*
X3369089Y2010533D01*
X3368645Y2011052D01*
X3368163Y2011496D01*
X3368090Y2011533D01*
X3367904Y2011681D01*
X3367608Y2011867D01*
X3367201Y2012089D01*
X3366682Y2012311D01*
X3366090Y2012496D01*
X3365423Y2012644D01*
X3364682Y2012681D01*
X3364423D01*
X3364201Y2012644D01*
X3363979Y2012607D01*
X3363683Y2012570D01*
X3363053Y2012422D01*
X3362312Y2012163D01*
X3361535Y2011792D01*
X3361127Y2011570D01*
X3360757Y2011311D01*
X3360386Y2010978D01*
X3360053Y2010607D01*
Y2010570D01*
X3359979Y2010496D01*
X3359905Y2010385D01*
X3359794Y2010200D01*
X3359646Y2009978D01*
X3359498Y2009719D01*
X3359350Y2009385D01*
X3359201Y2009015D01*
X3359016Y2008571D01*
X3358868Y2008089D01*
X3358720Y2007534D01*
X3358572Y2006941D01*
X3358461Y2006275D01*
X3358387Y2005571D01*
X3358350Y2004793D01*
X3358313Y2003941D01*
Y2003905D01*
Y2003719D01*
Y2003460D01*
X3358350Y2003164D01*
Y2002756D01*
X3358424Y2002275D01*
X3358461Y2001794D01*
X3358535Y2001238D01*
X3358757Y2000090D01*
X3359053Y1998942D01*
X3359239Y1998387D01*
X3359498Y1997868D01*
X3359757Y1997387D01*
X3360053Y1996979D01*
X3360090Y1996942D01*
X3360127Y1996905D01*
X3360238Y1996794D01*
X3360386Y1996646D01*
X3360757Y1996350D01*
X3361275Y1995979D01*
X3361905Y1995572D01*
X3362682Y1995276D01*
X3363571Y1995016D01*
X3364053Y1994979D01*
X3364571Y1994942D01*
X3364756D01*
X3364904Y1994979D01*
X3365312Y1995016D01*
X3365793Y1995090D01*
X3366312Y1995276D01*
X3366904Y1995498D01*
X3367497Y1995794D01*
X3368090Y1996239D01*
X3368163Y1996313D01*
X3368349Y1996498D01*
X3368608Y1996794D01*
X3368904Y1997238D01*
X3369275Y1997831D01*
X3369608Y1998535D01*
X3369941Y1999386D01*
X3370237Y2000386D01*
X3375274Y1998831D01*
Y1998794D01*
X3375237Y1998646D01*
X3375163Y1998423D01*
X3375052Y1998127D01*
X3374904Y1997794D01*
X3374755Y1997387D01*
X3374570Y1996942D01*
X3374348Y1996461D01*
X3373830Y1995461D01*
X3373163Y1994424D01*
X3372348Y1993424D01*
X3371904Y1992980D01*
X3371422Y1992572D01*
X3371385Y1992535D01*
X3371311Y1992498D01*
X3371163Y1992387D01*
X3370941Y1992239D01*
X3370682Y1992091D01*
X3370349Y1991943D01*
X3369978Y1991758D01*
X3369571Y1991572D01*
X3369089Y1991350D01*
X3368571Y1991165D01*
X3368015Y1991017D01*
X3367423Y1990869D01*
X3366793Y1990721D01*
X3366090Y1990609D01*
X3365386Y1990573D01*
X3364608Y1990535D01*
X3364386D01*
X3364127Y1990573D01*
X3363757Y1990609D01*
X3363349Y1990647D01*
X3362831Y1990721D01*
X3362275Y1990832D01*
X3361646Y1990980D01*
X3361016Y1991165D01*
X3360349Y1991387D01*
X3359646Y1991684D01*
X3358942Y1992017D01*
X3358239Y1992387D01*
X3357535Y1992869D01*
X3356868Y1993387D01*
X3356239Y1994017D01*
X3356202Y1994054D01*
X3356091Y1994165D01*
X3355943Y1994387D01*
X3355721Y1994646D01*
X3355498Y1995016D01*
X3355202Y1995424D01*
X3354906Y1995942D01*
X3354609Y1996535D01*
X3354313Y1997164D01*
X3354017Y1997868D01*
X3353721Y1998683D01*
X3353499Y1999534D01*
X3353276Y2000423D01*
X3353128Y2001423D01*
X3353017Y2002460D01*
X3352980Y2003571D01*
Y2003608D01*
Y2003645D01*
Y2003867D01*
X3353017Y2004201D01*
Y2004645D01*
X3353091Y2005164D01*
X3353165Y2005793D01*
X3353239Y2006460D01*
X3353387Y2007237D01*
X3353572Y2008015D01*
X3353795Y2008830D01*
X3354054Y2009645D01*
X3354387Y2010496D01*
X3354757Y2011311D01*
X3355202Y2012089D01*
X3355683Y2012829D01*
X3356276Y2013533D01*
X3356313Y2013570D01*
X3356424Y2013681D01*
X3356609Y2013866D01*
X3356868Y2014089D01*
X3357202Y2014348D01*
X3357609Y2014644D01*
X3358054Y2014977D01*
X3358609Y2015311D01*
X3359201Y2015644D01*
X3359831Y2015977D01*
X3360572Y2016273D01*
X3361312Y2016533D01*
X3362164Y2016755D01*
X3363016Y2016940D01*
X3363979Y2017051D01*
X3364942Y2017088D01*
X3365386D01*
X3365719Y2017051D01*
D02*
G37*
G36*
X3417418D02*
X3417825Y2017014D01*
X3418269Y2016940D01*
X3418788Y2016866D01*
X3419343Y2016755D01*
X3419936Y2016607D01*
X3420565Y2016422D01*
X3421195Y2016199D01*
X3421862Y2015903D01*
X3422491Y2015607D01*
X3423084Y2015237D01*
X3423713Y2014792D01*
X3424269Y2014311D01*
X3424306D01*
X3424343Y2014237D01*
X3424454Y2014126D01*
X3424565Y2014014D01*
X3424713Y2013829D01*
X3424861Y2013607D01*
X3425269Y2013089D01*
X3425676Y2012422D01*
X3426121Y2011607D01*
X3426528Y2010681D01*
X3426898Y2009608D01*
X3421788Y2008385D01*
Y2008423D01*
X3421750Y2008459D01*
Y2008571D01*
X3421677Y2008719D01*
X3421566Y2009052D01*
X3421380Y2009496D01*
X3421121Y2010015D01*
X3420788Y2010533D01*
X3420343Y2011052D01*
X3419862Y2011496D01*
X3419788Y2011533D01*
X3419603Y2011681D01*
X3419306Y2011867D01*
X3418899Y2012089D01*
X3418380Y2012311D01*
X3417788Y2012496D01*
X3417121Y2012644D01*
X3416381Y2012681D01*
X3416122D01*
X3415899Y2012644D01*
X3415677Y2012607D01*
X3415381Y2012570D01*
X3414751Y2012422D01*
X3414011Y2012163D01*
X3413233Y2011792D01*
X3412826Y2011570D01*
X3412455Y2011311D01*
X3412085Y2010978D01*
X3411752Y2010607D01*
Y2010570D01*
X3411678Y2010496D01*
X3411603Y2010385D01*
X3411492Y2010200D01*
X3411344Y2009978D01*
X3411196Y2009719D01*
X3411048Y2009385D01*
X3410900Y2009015D01*
X3410715Y2008571D01*
X3410566Y2008089D01*
X3410418Y2007534D01*
X3410270Y2006941D01*
X3410159Y2006275D01*
X3410085Y2005571D01*
X3410048Y2004793D01*
X3410011Y2003941D01*
Y2003905D01*
Y2003719D01*
Y2003460D01*
X3410048Y2003164D01*
Y2002756D01*
X3410122Y2002275D01*
X3410159Y2001794D01*
X3410233Y2001238D01*
X3410455Y2000090D01*
X3410752Y1998942D01*
X3410937Y1998387D01*
X3411196Y1997868D01*
X3411455Y1997387D01*
X3411752Y1996979D01*
X3411789Y1996942D01*
X3411826Y1996905D01*
X3411937Y1996794D01*
X3412085Y1996646D01*
X3412455Y1996350D01*
X3412974Y1995979D01*
X3413603Y1995572D01*
X3414381Y1995276D01*
X3415270Y1995016D01*
X3415751Y1994979D01*
X3416270Y1994942D01*
X3416455D01*
X3416603Y1994979D01*
X3417010Y1995016D01*
X3417492Y1995090D01*
X3418010Y1995276D01*
X3418603Y1995498D01*
X3419195Y1995794D01*
X3419788Y1996239D01*
X3419862Y1996313D01*
X3420047Y1996498D01*
X3420306Y1996794D01*
X3420602Y1997238D01*
X3420973Y1997831D01*
X3421306Y1998535D01*
X3421639Y1999386D01*
X3421936Y2000386D01*
X3426972Y1998831D01*
Y1998794D01*
X3426935Y1998646D01*
X3426861Y1998423D01*
X3426750Y1998127D01*
X3426602Y1997794D01*
X3426454Y1997387D01*
X3426269Y1996942D01*
X3426046Y1996461D01*
X3425528Y1995461D01*
X3424861Y1994424D01*
X3424047Y1993424D01*
X3423602Y1992980D01*
X3423121Y1992572D01*
X3423084Y1992535D01*
X3423010Y1992498D01*
X3422862Y1992387D01*
X3422639Y1992239D01*
X3422380Y1992091D01*
X3422047Y1991943D01*
X3421677Y1991758D01*
X3421269Y1991572D01*
X3420788Y1991350D01*
X3420269Y1991165D01*
X3419714Y1991017D01*
X3419121Y1990869D01*
X3418492Y1990721D01*
X3417788Y1990609D01*
X3417084Y1990573D01*
X3416307Y1990535D01*
X3416085D01*
X3415825Y1990573D01*
X3415455Y1990609D01*
X3415048Y1990647D01*
X3414529Y1990721D01*
X3413974Y1990832D01*
X3413344Y1990980D01*
X3412715Y1991165D01*
X3412048Y1991387D01*
X3411344Y1991684D01*
X3410641Y1992017D01*
X3409937Y1992387D01*
X3409233Y1992869D01*
X3408567Y1993387D01*
X3407937Y1994017D01*
X3407900Y1994054D01*
X3407789Y1994165D01*
X3407641Y1994387D01*
X3407419Y1994646D01*
X3407196Y1995016D01*
X3406900Y1995424D01*
X3406604Y1995942D01*
X3406308Y1996535D01*
X3406011Y1997164D01*
X3405715Y1997868D01*
X3405419Y1998683D01*
X3405197Y1999534D01*
X3404974Y2000423D01*
X3404826Y2001423D01*
X3404715Y2002460D01*
X3404678Y2003571D01*
Y2003608D01*
Y2003645D01*
Y2003867D01*
X3404715Y2004201D01*
Y2004645D01*
X3404789Y2005164D01*
X3404863Y2005793D01*
X3404937Y2006460D01*
X3405085Y2007237D01*
X3405271Y2008015D01*
X3405493Y2008830D01*
X3405752Y2009645D01*
X3406086Y2010496D01*
X3406456Y2011311D01*
X3406900Y2012089D01*
X3407382Y2012829D01*
X3407974Y2013533D01*
X3408011Y2013570D01*
X3408122Y2013681D01*
X3408307Y2013866D01*
X3408567Y2014089D01*
X3408900Y2014348D01*
X3409307Y2014644D01*
X3409752Y2014977D01*
X3410307Y2015311D01*
X3410900Y2015644D01*
X3411530Y2015977D01*
X3412270Y2016273D01*
X3413011Y2016533D01*
X3413863Y2016755D01*
X3414714Y2016940D01*
X3415677Y2017051D01*
X3416640Y2017088D01*
X3417084D01*
X3417418Y2017051D01*
D02*
G37*
G36*
X3453229D02*
X3453636Y2017014D01*
X3454081Y2016940D01*
X3454599Y2016866D01*
X3455154Y2016755D01*
X3455747Y2016607D01*
X3456377Y2016422D01*
X3457006Y2016199D01*
X3457673Y2015903D01*
X3458302Y2015607D01*
X3458895Y2015237D01*
X3459525Y2014792D01*
X3460080Y2014311D01*
X3460117D01*
X3460154Y2014237D01*
X3460265Y2014126D01*
X3460376Y2014014D01*
X3460524Y2013829D01*
X3460673Y2013607D01*
X3461080Y2013089D01*
X3461487Y2012422D01*
X3461931Y2011607D01*
X3462339Y2010681D01*
X3462709Y2009608D01*
X3457599Y2008385D01*
Y2008423D01*
X3457562Y2008459D01*
Y2008571D01*
X3457487Y2008719D01*
X3457376Y2009052D01*
X3457191Y2009496D01*
X3456932Y2010015D01*
X3456599Y2010533D01*
X3456154Y2011052D01*
X3455673Y2011496D01*
X3455599Y2011533D01*
X3455414Y2011681D01*
X3455117Y2011867D01*
X3454710Y2012089D01*
X3454192Y2012311D01*
X3453599Y2012496D01*
X3452932Y2012644D01*
X3452192Y2012681D01*
X3451933D01*
X3451711Y2012644D01*
X3451488Y2012607D01*
X3451192Y2012570D01*
X3450562Y2012422D01*
X3449822Y2012163D01*
X3449044Y2011792D01*
X3448637Y2011570D01*
X3448266Y2011311D01*
X3447896Y2010978D01*
X3447563Y2010607D01*
Y2010570D01*
X3447489Y2010496D01*
X3447415Y2010385D01*
X3447303Y2010200D01*
X3447155Y2009978D01*
X3447007Y2009719D01*
X3446859Y2009385D01*
X3446711Y2009015D01*
X3446526Y2008571D01*
X3446378Y2008089D01*
X3446230Y2007534D01*
X3446082Y2006941D01*
X3445970Y2006275D01*
X3445896Y2005571D01*
X3445859Y2004793D01*
X3445822Y2003941D01*
Y2003905D01*
Y2003719D01*
Y2003460D01*
X3445859Y2003164D01*
Y2002756D01*
X3445933Y2002275D01*
X3445970Y2001794D01*
X3446044Y2001238D01*
X3446266Y2000090D01*
X3446563Y1998942D01*
X3446748Y1998387D01*
X3447007Y1997868D01*
X3447267Y1997387D01*
X3447563Y1996979D01*
X3447600Y1996942D01*
X3447637Y1996905D01*
X3447748Y1996794D01*
X3447896Y1996646D01*
X3448266Y1996350D01*
X3448785Y1995979D01*
X3449414Y1995572D01*
X3450192Y1995276D01*
X3451081Y1995016D01*
X3451562Y1994979D01*
X3452081Y1994942D01*
X3452266D01*
X3452414Y1994979D01*
X3452821Y1995016D01*
X3453303Y1995090D01*
X3453821Y1995276D01*
X3454414Y1995498D01*
X3455006Y1995794D01*
X3455599Y1996239D01*
X3455673Y1996313D01*
X3455858Y1996498D01*
X3456117Y1996794D01*
X3456414Y1997238D01*
X3456784Y1997831D01*
X3457117Y1998535D01*
X3457451Y1999386D01*
X3457747Y2000386D01*
X3462783Y1998831D01*
Y1998794D01*
X3462746Y1998646D01*
X3462672Y1998423D01*
X3462561Y1998127D01*
X3462413Y1997794D01*
X3462265Y1997387D01*
X3462080Y1996942D01*
X3461858Y1996461D01*
X3461339Y1995461D01*
X3460673Y1994424D01*
X3459858Y1993424D01*
X3459413Y1992980D01*
X3458932Y1992572D01*
X3458895Y1992535D01*
X3458821Y1992498D01*
X3458673Y1992387D01*
X3458451Y1992239D01*
X3458191Y1992091D01*
X3457858Y1991943D01*
X3457487Y1991758D01*
X3457080Y1991572D01*
X3456599Y1991350D01*
X3456080Y1991165D01*
X3455525Y1991017D01*
X3454932Y1990869D01*
X3454303Y1990721D01*
X3453599Y1990609D01*
X3452896Y1990573D01*
X3452118Y1990535D01*
X3451896D01*
X3451636Y1990573D01*
X3451266Y1990609D01*
X3450859Y1990647D01*
X3450340Y1990721D01*
X3449785Y1990832D01*
X3449155Y1990980D01*
X3448526Y1991165D01*
X3447859Y1991387D01*
X3447155Y1991684D01*
X3446452Y1992017D01*
X3445748Y1992387D01*
X3445044Y1992869D01*
X3444378Y1993387D01*
X3443748Y1994017D01*
X3443711Y1994054D01*
X3443600Y1994165D01*
X3443452Y1994387D01*
X3443230Y1994646D01*
X3443008Y1995016D01*
X3442711Y1995424D01*
X3442415Y1995942D01*
X3442119Y1996535D01*
X3441823Y1997164D01*
X3441526Y1997868D01*
X3441230Y1998683D01*
X3441008Y1999534D01*
X3440786Y2000423D01*
X3440638Y2001423D01*
X3440526Y2002460D01*
X3440490Y2003571D01*
Y2003608D01*
Y2003645D01*
Y2003867D01*
X3440526Y2004201D01*
Y2004645D01*
X3440601Y2005164D01*
X3440674Y2005793D01*
X3440749Y2006460D01*
X3440897Y2007237D01*
X3441082Y2008015D01*
X3441304Y2008830D01*
X3441563Y2009645D01*
X3441897Y2010496D01*
X3442267Y2011311D01*
X3442711Y2012089D01*
X3443193Y2012829D01*
X3443785Y2013533D01*
X3443822Y2013570D01*
X3443933Y2013681D01*
X3444119Y2013866D01*
X3444378Y2014089D01*
X3444711Y2014348D01*
X3445118Y2014644D01*
X3445563Y2014977D01*
X3446118Y2015311D01*
X3446711Y2015644D01*
X3447340Y2015977D01*
X3448081Y2016273D01*
X3448822Y2016533D01*
X3449673Y2016755D01*
X3450526Y2016940D01*
X3451488Y2017051D01*
X3452451Y2017088D01*
X3452896D01*
X3453229Y2017051D01*
D02*
G37*
G36*
X3400123Y1990980D02*
X3394938D01*
X3384532Y2007867D01*
Y1990980D01*
X3379755D01*
Y2016607D01*
X3384754D01*
X3395346Y1999349D01*
Y2016607D01*
X3400123D01*
Y1990980D01*
D02*
G37*
G36*
X3366005Y2051020D02*
X3366745Y2050983D01*
X3367486Y2050946D01*
X3368190Y2050872D01*
X3368819Y2050798D01*
X3368893D01*
X3369078Y2050761D01*
X3369337Y2050686D01*
X3369708Y2050575D01*
X3370115Y2050427D01*
X3370560Y2050242D01*
X3371041Y2050020D01*
X3371486Y2049724D01*
X3371523Y2049687D01*
X3371671Y2049576D01*
X3371893Y2049390D01*
X3372189Y2049168D01*
X3372485Y2048835D01*
X3372819Y2048465D01*
X3373152Y2048057D01*
X3373448Y2047576D01*
X3373485Y2047502D01*
X3373559Y2047354D01*
X3373708Y2047057D01*
X3373856Y2046687D01*
X3374004Y2046243D01*
X3374152Y2045761D01*
X3374226Y2045169D01*
X3374263Y2044576D01*
Y2044539D01*
Y2044502D01*
Y2044280D01*
X3374226Y2043947D01*
X3374152Y2043502D01*
X3374004Y2042984D01*
X3373856Y2042428D01*
X3373596Y2041873D01*
X3373263Y2041280D01*
X3373226Y2041206D01*
X3373078Y2041021D01*
X3372856Y2040762D01*
X3372596Y2040428D01*
X3372226Y2040095D01*
X3371782Y2039688D01*
X3371263Y2039354D01*
X3370671Y2039021D01*
X3370708D01*
X3370782Y2038984D01*
X3370893Y2038947D01*
X3371041Y2038910D01*
X3371486Y2038725D01*
X3372004Y2038466D01*
X3372560Y2038169D01*
X3373189Y2037762D01*
X3373745Y2037280D01*
X3374263Y2036688D01*
X3374300Y2036614D01*
X3374448Y2036392D01*
X3374670Y2036058D01*
X3374893Y2035614D01*
X3375115Y2035022D01*
X3375337Y2034392D01*
X3375485Y2033651D01*
X3375522Y2032836D01*
Y2032800D01*
Y2032762D01*
Y2032540D01*
X3375485Y2032207D01*
X3375411Y2031763D01*
X3375337Y2031244D01*
X3375189Y2030652D01*
X3374967Y2030059D01*
X3374707Y2029429D01*
X3374670Y2029355D01*
X3374559Y2029170D01*
X3374374Y2028874D01*
X3374115Y2028504D01*
X3373819Y2028059D01*
X3373411Y2027652D01*
X3373004Y2027207D01*
X3372485Y2026800D01*
X3372411Y2026763D01*
X3372226Y2026652D01*
X3371930Y2026467D01*
X3371523Y2026282D01*
X3371004Y2026059D01*
X3370411Y2025874D01*
X3369745Y2025689D01*
X3369004Y2025578D01*
X3368856D01*
X3368708Y2025541D01*
X3368338D01*
X3368079Y2025504D01*
X3367375D01*
X3366931Y2025467D01*
X3365819D01*
X3365190Y2025430D01*
X3354080D01*
Y2051057D01*
X3365338D01*
X3366005Y2051020D01*
D02*
G37*
G36*
X3497928Y2009941D02*
X3498187Y2009904D01*
X3498521Y2009830D01*
X3498891Y2009756D01*
X3499261Y2009645D01*
X3499706Y2009534D01*
X3500113Y2009348D01*
X3500594Y2009163D01*
X3501039Y2008904D01*
X3501520Y2008608D01*
X3501964Y2008274D01*
X3502409Y2007867D01*
X3502853Y2007423D01*
X3502890Y2007386D01*
X3502964Y2007312D01*
X3503076Y2007163D01*
X3503224Y2006941D01*
X3503372Y2006719D01*
X3503557Y2006386D01*
X3503779Y2006015D01*
X3504001Y2005608D01*
X3504186Y2005126D01*
X3504409Y2004608D01*
X3504594Y2004016D01*
X3504779Y2003386D01*
X3504890Y2002682D01*
X3505001Y2001979D01*
X3505075Y2001164D01*
X3505112Y2000349D01*
Y2000312D01*
Y2000164D01*
Y1999905D01*
X3505075Y1999572D01*
X3505038Y1999201D01*
X3505001Y1998757D01*
X3504927Y1998238D01*
X3504816Y1997720D01*
X3504557Y1996535D01*
X3504372Y1995942D01*
X3504149Y1995350D01*
X3503890Y1994757D01*
X3503557Y1994202D01*
X3503224Y1993646D01*
X3502816Y1993128D01*
X3502779Y1993091D01*
X3502705Y1993017D01*
X3502594Y1992906D01*
X3502409Y1992720D01*
X3502187Y1992535D01*
X3501927Y1992313D01*
X3501631Y1992091D01*
X3501298Y1991869D01*
X3500891Y1991609D01*
X3500483Y1991387D01*
X3499557Y1990980D01*
X3499039Y1990795D01*
X3498483Y1990684D01*
X3497928Y1990609D01*
X3497335Y1990573D01*
X3497076D01*
X3496780Y1990609D01*
X3496410Y1990647D01*
X3495965Y1990721D01*
X3495484Y1990832D01*
X3495002Y1990980D01*
X3494521Y1991165D01*
X3494484Y1991202D01*
X3494299Y1991276D01*
X3494077Y1991461D01*
X3493743Y1991684D01*
X3493336Y1991943D01*
X3492928Y1992313D01*
X3492447Y1992758D01*
X3491928Y1993276D01*
Y1983869D01*
X3487003D01*
Y2009570D01*
X3491595D01*
Y2006830D01*
X3491632Y2006904D01*
X3491743Y2007052D01*
X3491966Y2007312D01*
X3492225Y2007645D01*
X3492558Y2008015D01*
X3493002Y2008385D01*
X3493447Y2008756D01*
X3494002Y2009089D01*
X3494077Y2009126D01*
X3494261Y2009237D01*
X3494595Y2009385D01*
X3495002Y2009534D01*
X3495484Y2009682D01*
X3496076Y2009830D01*
X3496706Y2009941D01*
X3497372Y2009978D01*
X3497668D01*
X3497928Y2009941D01*
D02*
G37*
%LPC*%
G36*
X3364634Y2036614D02*
X3359265D01*
Y2029763D01*
X3364968D01*
X3365523Y2029800D01*
X3366116D01*
X3366708Y2029837D01*
X3367190Y2029874D01*
X3367412D01*
X3367560Y2029911D01*
X3367597D01*
X3367745Y2029948D01*
X3367968Y2030022D01*
X3368227Y2030096D01*
X3368523Y2030244D01*
X3368856Y2030429D01*
X3369153Y2030652D01*
X3369449Y2030911D01*
X3369486Y2030948D01*
X3369560Y2031059D01*
X3369671Y2031244D01*
X3369819Y2031503D01*
X3369967Y2031800D01*
X3370078Y2032170D01*
X3370152Y2032614D01*
X3370189Y2033096D01*
Y2033133D01*
Y2033281D01*
X3370152Y2033503D01*
X3370115Y2033762D01*
X3370041Y2034096D01*
X3369930Y2034392D01*
X3369782Y2034725D01*
X3369597Y2035058D01*
X3369560Y2035096D01*
X3369486Y2035207D01*
X3369375Y2035355D01*
X3369189Y2035503D01*
X3368967Y2035725D01*
X3368671Y2035910D01*
X3368338Y2036095D01*
X3367968Y2036244D01*
X3367930D01*
X3367745Y2036318D01*
X3367449Y2036355D01*
X3367264Y2036392D01*
X3367004Y2036429D01*
X3366745Y2036466D01*
X3366412Y2036503D01*
X3366042Y2036540D01*
X3365597D01*
X3365153Y2036577D01*
X3364634Y2036614D01*
D02*
G37*
G36*
X3410370Y2046724D02*
X3407000D01*
Y2029763D01*
X3411555D01*
X3412037Y2029800D01*
X3412555D01*
X3413074Y2029874D01*
X3413555Y2029911D01*
X3413963Y2029985D01*
X3414037D01*
X3414185Y2030059D01*
X3414407Y2030133D01*
X3414703Y2030244D01*
X3415037Y2030392D01*
X3415370Y2030578D01*
X3415703Y2030800D01*
X3416036Y2031059D01*
X3416074Y2031096D01*
X3416185Y2031207D01*
X3416333Y2031392D01*
X3416518Y2031651D01*
X3416703Y2031985D01*
X3416962Y2032392D01*
X3417148Y2032911D01*
X3417370Y2033503D01*
Y2033540D01*
X3417407Y2033577D01*
Y2033688D01*
X3417444Y2033836D01*
X3417518Y2033985D01*
X3417555Y2034207D01*
X3417666Y2034762D01*
X3417740Y2035429D01*
X3417851Y2036207D01*
X3417888Y2037169D01*
X3417925Y2038206D01*
Y2038243D01*
Y2038354D01*
Y2038503D01*
Y2038688D01*
Y2038947D01*
X3417888Y2039243D01*
X3417851Y2039873D01*
X3417777Y2040614D01*
X3417703Y2041391D01*
X3417555Y2042095D01*
X3417370Y2042761D01*
Y2042798D01*
X3417332Y2042836D01*
X3417259Y2043021D01*
X3417148Y2043317D01*
X3416999Y2043687D01*
X3416777Y2044058D01*
X3416518Y2044465D01*
X3416222Y2044872D01*
X3415888Y2045243D01*
X3415851Y2045280D01*
X3415740Y2045391D01*
X3415518Y2045539D01*
X3415259Y2045724D01*
X3414888Y2045946D01*
X3414481Y2046131D01*
X3414037Y2046317D01*
X3413518Y2046465D01*
X3413481D01*
X3413296Y2046502D01*
X3413000Y2046539D01*
X3412592Y2046613D01*
X3412333D01*
X3412000Y2046650D01*
X3411667D01*
X3411296Y2046687D01*
X3410852D01*
X3410370Y2046724D01*
D02*
G37*
G36*
X3477448Y1999868D02*
X3477411D01*
X3477263Y1999794D01*
X3477041Y1999757D01*
X3476708Y1999646D01*
X3476300Y1999534D01*
X3475745Y1999386D01*
X3475152Y1999238D01*
X3474412Y1999090D01*
X3474338D01*
X3474227Y1999053D01*
X3474078Y1999016D01*
X3473745Y1998942D01*
X3473301Y1998831D01*
X3472856Y1998720D01*
X3472412Y1998572D01*
X3472042Y1998387D01*
X3471745Y1998238D01*
X3471708Y1998201D01*
X3471597Y1998127D01*
X3471449Y1997979D01*
X3471301Y1997794D01*
X3471116Y1997535D01*
X3470968Y1997238D01*
X3470857Y1996905D01*
X3470820Y1996535D01*
Y1996498D01*
Y1996350D01*
X3470857Y1996165D01*
X3470931Y1995942D01*
X3471005Y1995646D01*
X3471116Y1995350D01*
X3471301Y1995054D01*
X3471560Y1994757D01*
X3471597Y1994720D01*
X3471708Y1994646D01*
X3471856Y1994535D01*
X3472116Y1994387D01*
X3472375Y1994239D01*
X3472708Y1994128D01*
X3473116Y1994054D01*
X3473523Y1994017D01*
X3473745D01*
X3474005Y1994054D01*
X3474338Y1994128D01*
X3474745Y1994239D01*
X3475152Y1994387D01*
X3475634Y1994572D01*
X3476078Y1994868D01*
X3476115Y1994905D01*
X3476227Y1994979D01*
X3476375Y1995128D01*
X3476560Y1995313D01*
X3476745Y1995572D01*
X3476930Y1995831D01*
X3477115Y1996165D01*
X3477226Y1996498D01*
Y1996535D01*
X3477263Y1996609D01*
X3477300Y1996794D01*
X3477337Y1997016D01*
X3477374Y1997350D01*
X3477411Y1997757D01*
X3477448Y1998275D01*
Y1998868D01*
Y1999868D01*
D02*
G37*
G36*
X3496002Y2006089D02*
X3495928D01*
X3495706Y2006052D01*
X3495373Y2006015D01*
X3494965Y2005904D01*
X3494484Y2005756D01*
X3493965Y2005497D01*
X3493484Y2005164D01*
X3493002Y2004682D01*
X3492965Y2004608D01*
X3492817Y2004423D01*
X3492632Y2004090D01*
X3492447Y2003645D01*
X3492225Y2003053D01*
X3492039Y2002349D01*
X3491891Y2001534D01*
X3491854Y2000571D01*
Y2000534D01*
Y2000423D01*
Y2000275D01*
X3491891Y2000053D01*
Y1999794D01*
X3491928Y1999498D01*
X3492003Y1998831D01*
X3492151Y1998053D01*
X3492373Y1997276D01*
X3492669Y1996572D01*
X3492854Y1996239D01*
X3493076Y1995942D01*
X3493151Y1995868D01*
X3493299Y1995720D01*
X3493558Y1995461D01*
X3493928Y1995202D01*
X3494336Y1994942D01*
X3494854Y1994683D01*
X3495446Y1994535D01*
X3496076Y1994461D01*
X3496150D01*
X3496372Y1994498D01*
X3496669Y1994535D01*
X3497076Y1994646D01*
X3497520Y1994794D01*
X3498002Y1995054D01*
X3498483Y1995387D01*
X3498928Y1995831D01*
X3498965Y1995905D01*
X3499113Y1996090D01*
X3499298Y1996424D01*
X3499520Y1996905D01*
X3499594Y1997201D01*
X3499706Y1997535D01*
X3499817Y1997905D01*
X3499891Y1998312D01*
X3499965Y1998757D01*
X3500039Y1999238D01*
X3500076Y1999757D01*
Y2000312D01*
Y2000349D01*
Y2000460D01*
Y2000609D01*
Y2000794D01*
X3500039Y2001053D01*
X3500002Y2001312D01*
X3499928Y2001942D01*
X3499779Y2002645D01*
X3499594Y2003386D01*
X3499298Y2004053D01*
X3498891Y2004645D01*
X3498854Y2004719D01*
X3498669Y2004867D01*
X3498409Y2005090D01*
X3498076Y2005386D01*
X3497668Y2005645D01*
X3497187Y2005867D01*
X3496632Y2006015D01*
X3496002Y2006089D01*
D02*
G37*
G36*
X3516371Y2006201D02*
X3516111D01*
X3515815Y2006126D01*
X3515445Y2006052D01*
X3515037Y2005904D01*
X3514593Y2005719D01*
X3514148Y2005423D01*
X3513741Y2005015D01*
X3513704Y2004978D01*
X3513593Y2004793D01*
X3513408Y2004534D01*
X3513223Y2004164D01*
X3513000Y2003719D01*
X3512852Y2003164D01*
X3512741Y2002534D01*
X3512704Y2001831D01*
X3520037D01*
Y2001868D01*
Y2001942D01*
Y2002016D01*
X3520000Y2002164D01*
X3519962Y2002571D01*
X3519889Y2003016D01*
X3519740Y2003534D01*
X3519555Y2004090D01*
X3519259Y2004608D01*
X3518926Y2005052D01*
X3518889Y2005090D01*
X3518741Y2005238D01*
X3518518Y2005423D01*
X3518222Y2005645D01*
X3517852Y2005830D01*
X3517407Y2006015D01*
X3516926Y2006163D01*
X3516371Y2006201D01*
D02*
G37*
G36*
X3438219Y2036614D02*
X3432849D01*
Y2029763D01*
X3438553D01*
X3439108Y2029800D01*
X3439701D01*
X3440293Y2029837D01*
X3440775Y2029874D01*
X3440997D01*
X3441145Y2029911D01*
X3441182D01*
X3441330Y2029948D01*
X3441552Y2030022D01*
X3441812Y2030096D01*
X3442108Y2030244D01*
X3442441Y2030429D01*
X3442737Y2030652D01*
X3443034Y2030911D01*
X3443071Y2030948D01*
X3443145Y2031059D01*
X3443256Y2031244D01*
X3443404Y2031503D01*
X3443552Y2031800D01*
X3443663Y2032170D01*
X3443737Y2032614D01*
X3443774Y2033096D01*
Y2033133D01*
Y2033281D01*
X3443737Y2033503D01*
X3443700Y2033762D01*
X3443626Y2034096D01*
X3443515Y2034392D01*
X3443367Y2034725D01*
X3443182Y2035058D01*
X3443145Y2035096D01*
X3443071Y2035207D01*
X3442960Y2035355D01*
X3442774Y2035503D01*
X3442552Y2035725D01*
X3442256Y2035910D01*
X3441923Y2036095D01*
X3441552Y2036244D01*
X3441515D01*
X3441330Y2036318D01*
X3441034Y2036355D01*
X3440849Y2036392D01*
X3440590Y2036429D01*
X3440330Y2036466D01*
X3439997Y2036503D01*
X3439626Y2036540D01*
X3439182D01*
X3438738Y2036577D01*
X3438219Y2036614D01*
D02*
G37*
G36*
X3364412Y2046798D02*
X3359265D01*
Y2040873D01*
X3364227D01*
X3364857Y2040910D01*
X3366005D01*
X3366227Y2040947D01*
X3366449D01*
X3366597Y2040984D01*
X3366819Y2041021D01*
X3367153Y2041132D01*
X3367486Y2041243D01*
X3367819Y2041391D01*
X3368152Y2041576D01*
X3368449Y2041836D01*
X3368486Y2041873D01*
X3368560Y2041984D01*
X3368708Y2042132D01*
X3368856Y2042391D01*
X3368967Y2042687D01*
X3369115Y2043021D01*
X3369189Y2043428D01*
X3369226Y2043872D01*
Y2043909D01*
Y2044058D01*
X3369189Y2044280D01*
X3369153Y2044576D01*
X3369078Y2044872D01*
X3368930Y2045169D01*
X3368782Y2045502D01*
X3368560Y2045798D01*
X3368523Y2045835D01*
X3368449Y2045909D01*
X3368264Y2046057D01*
X3368079Y2046205D01*
X3367782Y2046354D01*
X3367449Y2046502D01*
X3367042Y2046613D01*
X3366597Y2046687D01*
X3366560D01*
X3366412Y2046724D01*
X3366005D01*
X3365782Y2046761D01*
X3364820D01*
X3364412Y2046798D01*
D02*
G37*
G36*
X3437997D02*
X3432849D01*
Y2040873D01*
X3437812D01*
X3438441Y2040910D01*
X3439590D01*
X3439812Y2040947D01*
X3440034D01*
X3440182Y2040984D01*
X3440404Y2041021D01*
X3440738Y2041132D01*
X3441071Y2041243D01*
X3441404Y2041391D01*
X3441737Y2041576D01*
X3442034Y2041836D01*
X3442071Y2041873D01*
X3442145Y2041984D01*
X3442293Y2042132D01*
X3442441Y2042391D01*
X3442552Y2042687D01*
X3442701Y2043021D01*
X3442774Y2043428D01*
X3442812Y2043872D01*
Y2043909D01*
Y2044058D01*
X3442774Y2044280D01*
X3442737Y2044576D01*
X3442663Y2044872D01*
X3442515Y2045169D01*
X3442367Y2045502D01*
X3442145Y2045798D01*
X3442108Y2045835D01*
X3442034Y2045909D01*
X3441848Y2046057D01*
X3441664Y2046205D01*
X3441367Y2046354D01*
X3441034Y2046502D01*
X3440627Y2046613D01*
X3440182Y2046687D01*
X3440145D01*
X3439997Y2046724D01*
X3439590D01*
X3439367Y2046761D01*
X3438405D01*
X3437997Y2046798D01*
D02*
G37*
%LPD*%
D45*
X3300480Y1776730D02*
D03*
Y1802130D02*
D03*
Y1827530D02*
D03*
X3275080Y1776730D02*
D03*
Y1802130D02*
D03*
Y1827530D02*
D03*
X3300480Y2005330D02*
D03*
X3275080Y1979930D02*
D03*
X3300480D02*
D03*
X3275080Y1954530D02*
D03*
X3300480D02*
D03*
X3275080Y1929130D02*
D03*
X3300480D02*
D03*
X3275080Y1903730D02*
D03*
Y1878330D02*
D03*
X3300480Y1903730D02*
D03*
Y1878330D02*
D03*
X3275080Y1852930D02*
D03*
X3300480D02*
D03*
X3930480Y1738630D02*
D03*
Y1764030D02*
D03*
X3905080Y1738630D02*
D03*
Y1764030D02*
D03*
X3930480Y1891030D02*
D03*
X3905080D02*
D03*
X3930480Y1916430D02*
D03*
Y1941830D02*
D03*
X3905080Y1916430D02*
D03*
Y1941830D02*
D03*
X3930480Y1967230D02*
D03*
X3905080D02*
D03*
X3930480Y1992630D02*
D03*
X3905080D02*
D03*
X3930480Y2018030D02*
D03*
X3905080D02*
D03*
X3930480Y2043430D02*
D03*
X3905080Y1865630D02*
D03*
Y1840230D02*
D03*
X3930480Y1865630D02*
D03*
Y1840230D02*
D03*
X3905080Y1814830D02*
D03*
Y1789430D02*
D03*
X3930480Y1814830D02*
D03*
Y1789430D02*
D03*
D46*
X3275080Y2005330D02*
D03*
X3905080Y2043430D02*
D03*
D47*
X3174980Y1722180D02*
D03*
Y1772980D02*
D03*
D48*
X3215980Y1730580D02*
D03*
Y1765980D02*
D03*
D49*
X3591560Y2070100D02*
D03*
X3616960D02*
D03*
X3591560Y2044700D02*
D03*
X3616960D02*
D03*
X3591560Y2019300D02*
D03*
X3616960D02*
D03*
X3591560Y1993900D02*
D03*
X3616960D02*
D03*
X3591560Y1968500D02*
D03*
X3616960D02*
D03*
X3591560Y1943100D02*
D03*
X3616960D02*
D03*
X3591560Y1917700D02*
D03*
X3616960D02*
D03*
X3591560Y1892300D02*
D03*
X3616960D02*
D03*
X3591560Y1866900D02*
D03*
X3616960D02*
D03*
X3591560Y1841500D02*
D03*
X3616960D02*
D03*
X3591560Y1816100D02*
D03*
X3616960D02*
D03*
X3591560Y1790700D02*
D03*
X3616960D02*
D03*
X3591560Y1765300D02*
D03*
X3616960D02*
D03*
X3591560Y1739900D02*
D03*
X3616960D02*
D03*
X3591560Y1714500D02*
D03*
X3616960D02*
D03*
X3591560Y1689100D02*
D03*
X3616960D02*
D03*
X3591560Y2095500D02*
D03*
X3616960D02*
D03*
D50*
X3213100Y1638300D02*
D03*
Y2120900D02*
D03*
D51*
Y1663700D02*
D03*
X3238500Y1638300D02*
D03*
Y1663700D02*
D03*
X3263900Y1638300D02*
D03*
Y1663700D02*
D03*
X3289300Y1638300D02*
D03*
Y1663700D02*
D03*
X3314700Y1638300D02*
D03*
Y1663700D02*
D03*
X3340100Y1638300D02*
D03*
Y1663700D02*
D03*
X3365500Y1638300D02*
D03*
Y1663700D02*
D03*
X3390900Y1638300D02*
D03*
Y1663700D02*
D03*
X3416300Y1638300D02*
D03*
Y1663700D02*
D03*
X3441700Y1638300D02*
D03*
Y1663700D02*
D03*
X3467100Y1638300D02*
D03*
Y1663700D02*
D03*
X3492500Y1638300D02*
D03*
Y1663700D02*
D03*
X3517900Y1638300D02*
D03*
Y1663700D02*
D03*
X3543300Y1638300D02*
D03*
Y1663700D02*
D03*
X3568700Y1638300D02*
D03*
Y1663700D02*
D03*
X3594100Y1638300D02*
D03*
Y1663700D02*
D03*
X3619500Y1638300D02*
D03*
Y1663700D02*
D03*
X3644900Y1638300D02*
D03*
Y1663700D02*
D03*
X3670300Y1638300D02*
D03*
X3695700D02*
D03*
Y1663700D02*
D03*
X3721100Y1638300D02*
D03*
Y1663700D02*
D03*
X3746500Y1638300D02*
D03*
Y1663700D02*
D03*
X3771900Y1638300D02*
D03*
Y1663700D02*
D03*
Y2146300D02*
D03*
Y2120900D02*
D03*
X3746500Y2146300D02*
D03*
Y2120900D02*
D03*
X3721100Y2146300D02*
D03*
Y2120900D02*
D03*
X3695700Y2146300D02*
D03*
X3670300D02*
D03*
X3644900D02*
D03*
X3619500D02*
D03*
X3594100D02*
D03*
X3568700D02*
D03*
X3543300D02*
D03*
X3517900D02*
D03*
Y2120900D02*
D03*
X3492500Y2146300D02*
D03*
Y2120900D02*
D03*
X3467100Y2146300D02*
D03*
Y2120900D02*
D03*
X3441700Y2146300D02*
D03*
Y2120900D02*
D03*
X3416300Y2146300D02*
D03*
Y2120900D02*
D03*
X3390900Y2146300D02*
D03*
Y2120900D02*
D03*
X3365500Y2146300D02*
D03*
Y2120900D02*
D03*
X3340100Y2146300D02*
D03*
Y2120900D02*
D03*
X3314700Y2146300D02*
D03*
Y2120900D02*
D03*
X3289300Y2146300D02*
D03*
Y2120900D02*
D03*
X3263900Y2146300D02*
D03*
Y2120900D02*
D03*
X3238500Y2146300D02*
D03*
Y2120900D02*
D03*
X3213100Y2146300D02*
D03*
D52*
X3670300Y1663700D02*
D03*
D53*
X3695700Y2120900D02*
D03*
X3670300D02*
D03*
X3644900D02*
D03*
X3619500D02*
D03*
X3594100D02*
D03*
X3568700D02*
D03*
X3543300D02*
D03*
D54*
X3162300Y2133600D02*
D03*
Y1651000D02*
D03*
X3822700Y2101850D02*
D03*
D55*
Y1682750D02*
D03*
D56*
X3480080Y1748030D02*
D03*
Y1773430D02*
D03*
M02*
