G04*
G04 #@! TF.GenerationSoftware,Altium Limited,CircuitStudio,1.5.2 (30)*
G04*
G04 Layer_Color=16770453*
%FSLAX44Y44*%
%MOMM*%
G71*
G01*
G75*
%ADD28R,0.5500X0.5500*%
%ADD29R,0.4200X0.5500*%
%ADD30R,1.1999X0.4001*%
D28*
X3641980Y1694230D02*
D03*
X3650980D02*
D03*
X3641980Y1719630D02*
D03*
X3650980D02*
D03*
X3641980Y1745030D02*
D03*
X3650980D02*
D03*
X3641980Y1770430D02*
D03*
X3650980D02*
D03*
X3641980Y1795830D02*
D03*
X3650980D02*
D03*
X3641980Y1821230D02*
D03*
X3650980D02*
D03*
X3641980Y1846630D02*
D03*
X3650980D02*
D03*
X3641980Y1872030D02*
D03*
X3650980D02*
D03*
X3641980Y1897430D02*
D03*
X3650980D02*
D03*
X3641980Y1922830D02*
D03*
X3650980D02*
D03*
X3641980Y1948230D02*
D03*
X3650980D02*
D03*
X3641980Y1973630D02*
D03*
X3650980D02*
D03*
X3641980Y1999030D02*
D03*
X3650980D02*
D03*
X3641980Y2024430D02*
D03*
X3650980D02*
D03*
X3641980Y2049830D02*
D03*
X3650980D02*
D03*
X3641980Y2075230D02*
D03*
X3650980D02*
D03*
X3641980Y2100730D02*
D03*
X3650980D02*
D03*
D29*
X3734870Y2049780D02*
D03*
X3744070D02*
D03*
X3677480D02*
D03*
X3668280D02*
D03*
X3734870Y2024380D02*
D03*
X3744070D02*
D03*
X3677480D02*
D03*
X3668280D02*
D03*
X3734870Y1998980D02*
D03*
X3744070D02*
D03*
X3677480D02*
D03*
X3668280D02*
D03*
X3734870Y1973580D02*
D03*
X3744070D02*
D03*
X3677480D02*
D03*
X3668280D02*
D03*
X3734870Y1948180D02*
D03*
X3744070D02*
D03*
X3677480D02*
D03*
X3668280D02*
D03*
X3734870Y1922780D02*
D03*
X3744070D02*
D03*
X3677480D02*
D03*
X3668280D02*
D03*
X3734870Y1897380D02*
D03*
X3744070D02*
D03*
X3677480D02*
D03*
X3668280D02*
D03*
X3734870Y1871980D02*
D03*
X3744070D02*
D03*
X3677480D02*
D03*
X3668280D02*
D03*
X3734870Y1846580D02*
D03*
X3744070D02*
D03*
X3677480D02*
D03*
X3668280D02*
D03*
X3734870Y1821180D02*
D03*
X3744070D02*
D03*
X3677480D02*
D03*
X3668280D02*
D03*
X3734870Y1795780D02*
D03*
X3744070D02*
D03*
X3677480D02*
D03*
X3668280D02*
D03*
X3734870Y1770380D02*
D03*
X3744070D02*
D03*
X3677480D02*
D03*
X3668280D02*
D03*
X3734870Y1744980D02*
D03*
X3744070D02*
D03*
X3677480D02*
D03*
X3668280D02*
D03*
X3734870Y1719580D02*
D03*
X3744070D02*
D03*
X3677480D02*
D03*
X3668280D02*
D03*
X3734870Y1694180D02*
D03*
X3744070D02*
D03*
X3677480D02*
D03*
X3668280D02*
D03*
X3677480Y2075180D02*
D03*
X3668280D02*
D03*
X3677480Y2100580D02*
D03*
X3668280D02*
D03*
X3734870Y2075180D02*
D03*
X3744070D02*
D03*
X3734870Y2100580D02*
D03*
X3744070D02*
D03*
D30*
X3716630Y2049930D02*
D03*
Y2043430D02*
D03*
Y2036930D02*
D03*
X3697630D02*
D03*
Y2043430D02*
D03*
Y2049930D02*
D03*
X3716630Y2024530D02*
D03*
Y2018030D02*
D03*
Y2011530D02*
D03*
X3697630D02*
D03*
Y2018030D02*
D03*
Y2024530D02*
D03*
X3716630Y1999130D02*
D03*
Y1992630D02*
D03*
Y1986130D02*
D03*
X3697630D02*
D03*
Y1992630D02*
D03*
Y1999130D02*
D03*
X3716630Y1973730D02*
D03*
Y1967230D02*
D03*
Y1960730D02*
D03*
X3697630D02*
D03*
Y1967230D02*
D03*
Y1973730D02*
D03*
X3716630Y1948330D02*
D03*
Y1941830D02*
D03*
Y1935330D02*
D03*
X3697630D02*
D03*
Y1941830D02*
D03*
Y1948330D02*
D03*
X3716630Y1922930D02*
D03*
Y1916430D02*
D03*
Y1909930D02*
D03*
X3697630D02*
D03*
Y1916430D02*
D03*
Y1922930D02*
D03*
X3716630Y1897530D02*
D03*
Y1891030D02*
D03*
Y1884530D02*
D03*
X3697630D02*
D03*
Y1891030D02*
D03*
Y1897530D02*
D03*
X3716630Y1872130D02*
D03*
Y1865630D02*
D03*
Y1859130D02*
D03*
X3697630D02*
D03*
Y1865630D02*
D03*
Y1872130D02*
D03*
X3716630Y1846730D02*
D03*
Y1840230D02*
D03*
Y1833730D02*
D03*
X3697630D02*
D03*
Y1840230D02*
D03*
Y1846730D02*
D03*
X3716630Y1821330D02*
D03*
Y1814830D02*
D03*
Y1808330D02*
D03*
X3697630D02*
D03*
Y1814830D02*
D03*
Y1821330D02*
D03*
X3716630Y1795930D02*
D03*
Y1789430D02*
D03*
Y1782930D02*
D03*
X3697630D02*
D03*
Y1789430D02*
D03*
Y1795930D02*
D03*
X3716630Y1770530D02*
D03*
Y1764030D02*
D03*
Y1757530D02*
D03*
X3697630D02*
D03*
Y1764030D02*
D03*
Y1770530D02*
D03*
X3716630Y1745130D02*
D03*
Y1738630D02*
D03*
Y1732130D02*
D03*
X3697630D02*
D03*
Y1738630D02*
D03*
Y1745130D02*
D03*
X3716630Y1719730D02*
D03*
Y1713230D02*
D03*
Y1706730D02*
D03*
X3697630D02*
D03*
Y1713230D02*
D03*
Y1719730D02*
D03*
X3716630Y1694330D02*
D03*
Y1687830D02*
D03*
Y1681330D02*
D03*
X3697630D02*
D03*
Y1687830D02*
D03*
Y1694330D02*
D03*
X3716630Y2100730D02*
D03*
Y2094230D02*
D03*
Y2087730D02*
D03*
X3697630D02*
D03*
Y2094230D02*
D03*
Y2100730D02*
D03*
X3716630Y2075330D02*
D03*
Y2068830D02*
D03*
Y2062330D02*
D03*
X3697630D02*
D03*
Y2068830D02*
D03*
Y2075330D02*
D03*
M02*
