G04*
G04 #@! TF.GenerationSoftware,Altium Limited,CircuitStudio,1.5.2 (30)*
G04*
G04 Layer_Physical_Order=1*
G04 Layer_Color=11767835*
%FSLAX44Y44*%
%MOMM*%
G71*
G01*
G75*
%ADD10C,0.7620*%
%ADD11C,0.8000*%
%ADD12C,0.5000*%
%ADD13C,0.4000*%
%ADD14C,0.2500*%
%ADD15C,1.6000*%
%ADD16R,1.6000X1.6000*%
%ADD17O,3.5000X3.0000*%
%ADD18O,2.5000X2.0000*%
%ADD19O,1.7780X1.2700*%
%ADD20R,1.7500X1.7500*%
%ADD21C,1.7500*%
%ADD22O,1.7500X1.5000*%
%ADD23C,4.8001*%
%ADD24C,4.8000*%
%ADD25O,1.7272X1.2700*%
%ADD26C,0.6000*%
%ADD27C,1.0000*%
G36*
X3954980Y2162645D02*
X3956964Y2162383D01*
X3958812Y2161618D01*
X3960400Y2160400D01*
X3961618Y2158812D01*
X3962384Y2156964D01*
X3962645Y2154980D01*
X3962662D01*
Y1627980D01*
X3962645D01*
X3962384Y1625996D01*
X3961618Y1624148D01*
X3960400Y1622560D01*
X3958813Y1621342D01*
X3956964Y1620576D01*
X3954980Y1620315D01*
Y1620298D01*
X3161080D01*
X3161051Y1620293D01*
X3156493Y1620652D01*
X3152018Y1621726D01*
X3147767Y1623486D01*
X3143844Y1625891D01*
X3140345Y1628879D01*
X3137357Y1632378D01*
X3134953Y1636301D01*
X3133192Y1640552D01*
X3132118Y1645026D01*
X3131758Y1649605D01*
X3131765Y1649613D01*
X3131765D01*
X3131768Y1651645D01*
X3132009Y1818125D01*
X3132018Y1818129D01*
X3132018D01*
X3132018Y1818129D01*
X3132308Y1820335D01*
X3133160Y1822390D01*
X3134514Y1824155D01*
X3136280Y1825510D01*
X3138335Y1826361D01*
X3140541Y1826652D01*
Y1826661D01*
X3214980D01*
Y1826600D01*
X3218184Y1827022D01*
X3221170Y1828259D01*
X3223734Y1830226D01*
X3225701Y1832790D01*
X3226938Y1835776D01*
X3227360Y1838980D01*
X3227299D01*
X3227298Y1838980D01*
Y1996980D01*
X3227360D01*
X3226938Y2000184D01*
X3225701Y2003170D01*
X3223734Y2005734D01*
X3221170Y2007701D01*
X3218184Y2008938D01*
X3214980Y2009360D01*
Y2009299D01*
X3139457Y2009298D01*
X3139440Y2009315D01*
Y2009315D01*
X3139440Y2009315D01*
X3137456Y2009576D01*
X3135608Y2010342D01*
X3134020Y2011560D01*
X3132802Y2013147D01*
X3132036Y2014996D01*
X3131775Y2016980D01*
X3131758D01*
Y2135644D01*
X3131758Y2135647D01*
X3132090Y2139871D01*
X3133080Y2143993D01*
X3134702Y2147910D01*
X3136918Y2151525D01*
X3139671Y2154749D01*
X3142895Y2157502D01*
X3146510Y2159717D01*
X3150427Y2161340D01*
X3154549Y2162329D01*
X3156787Y2162506D01*
X3156807Y2162507D01*
X3158776Y2162661D01*
X3158776D01*
X3160800Y2162661D01*
X3160807Y2162661D01*
X3160787D01*
X3160800D01*
X3954980D01*
Y2162645D01*
D02*
G37*
%LPC*%
G36*
X3177480Y1739805D02*
X3176250D01*
Y1723450D01*
X3194980D01*
X3194766Y1725618D01*
X3193763Y1728925D01*
X3192134Y1731972D01*
X3189943Y1734642D01*
X3187272Y1736834D01*
X3184225Y1738463D01*
X3180918Y1739466D01*
X3177480Y1739805D01*
D02*
G37*
G36*
X3905080Y1748236D02*
X3902594Y1747909D01*
X3900277Y1746949D01*
X3898287Y1745423D01*
X3896761Y1743433D01*
X3895801Y1741116D01*
X3895474Y1738630D01*
X3895801Y1736144D01*
X3896761Y1733827D01*
X3898287Y1731837D01*
X3900277Y1730311D01*
X3902594Y1729351D01*
X3905080Y1729024D01*
X3907566Y1729351D01*
X3909883Y1730311D01*
X3911873Y1731837D01*
X3913399Y1733827D01*
X3914359Y1736144D01*
X3914686Y1738630D01*
X3914359Y1741116D01*
X3913399Y1743433D01*
X3911873Y1745423D01*
X3909883Y1746949D01*
X3907566Y1747909D01*
X3905080Y1748236D01*
D02*
G37*
G36*
X3173710Y1739805D02*
X3172480D01*
X3169041Y1739466D01*
X3165735Y1738463D01*
X3162688Y1736834D01*
X3160017Y1734642D01*
X3157825Y1731972D01*
X3156197Y1728925D01*
X3155194Y1725618D01*
X3154980Y1723450D01*
X3173710D01*
Y1739805D01*
D02*
G37*
G36*
X3194980Y1720910D02*
X3176250D01*
Y1704555D01*
X3177480D01*
X3180918Y1704894D01*
X3184225Y1705897D01*
X3187272Y1707525D01*
X3189943Y1709717D01*
X3192134Y1712388D01*
X3193763Y1715435D01*
X3194766Y1718741D01*
X3194980Y1720910D01*
D02*
G37*
G36*
X3214710Y1729310D02*
X3200999D01*
X3201263Y1727306D01*
X3202526Y1724256D01*
X3204536Y1721636D01*
X3207156Y1719626D01*
X3210206Y1718363D01*
X3213480Y1717932D01*
X3214710D01*
Y1729310D01*
D02*
G37*
G36*
X3230961D02*
X3217250D01*
Y1717932D01*
X3218480D01*
X3221754Y1718363D01*
X3224804Y1719626D01*
X3227423Y1721636D01*
X3229434Y1724256D01*
X3230697Y1727306D01*
X3230961Y1729310D01*
D02*
G37*
G36*
X3619500Y1747842D02*
X3614420D01*
X3612365Y1747571D01*
X3610449Y1746778D01*
X3608804Y1745516D01*
X3607542Y1743871D01*
X3606748Y1741955D01*
X3606478Y1739900D01*
X3606748Y1737844D01*
X3607542Y1735929D01*
X3608804Y1734284D01*
X3610449Y1733022D01*
X3612365Y1732229D01*
X3614420Y1731958D01*
X3619500D01*
X3621555Y1732229D01*
X3623471Y1733022D01*
X3625116Y1734284D01*
X3626378Y1735929D01*
X3627171Y1737844D01*
X3627442Y1739900D01*
X3627171Y1741955D01*
X3626378Y1743871D01*
X3625116Y1745516D01*
X3623471Y1746778D01*
X3621555Y1747571D01*
X3619500Y1747842D01*
D02*
G37*
G36*
X3940944Y1762760D02*
X3931750D01*
Y1753566D01*
X3933232Y1753761D01*
X3935795Y1754823D01*
X3937997Y1756513D01*
X3939687Y1758714D01*
X3940749Y1761278D01*
X3940944Y1762760D01*
D02*
G37*
G36*
X3929210D02*
X3920016D01*
X3920211Y1761278D01*
X3921273Y1758714D01*
X3922963Y1756513D01*
X3925164Y1754823D01*
X3927728Y1753761D01*
X3929210Y1753566D01*
Y1762760D01*
D02*
G37*
G36*
X3930480Y1748236D02*
X3927993Y1747909D01*
X3925677Y1746949D01*
X3923687Y1745423D01*
X3922161Y1743433D01*
X3921201Y1741116D01*
X3920874Y1738630D01*
X3921201Y1736144D01*
X3922161Y1733827D01*
X3923687Y1731837D01*
X3925677Y1730311D01*
X3927993Y1729351D01*
X3930480Y1729024D01*
X3932966Y1729351D01*
X3935283Y1730311D01*
X3937273Y1731837D01*
X3938799Y1733827D01*
X3939759Y1736144D01*
X3940086Y1738630D01*
X3939759Y1741116D01*
X3938799Y1743433D01*
X3937273Y1745423D01*
X3935283Y1746949D01*
X3932966Y1747909D01*
X3930480Y1748236D01*
D02*
G37*
G36*
X3214710Y1743228D02*
X3213480D01*
X3210206Y1742797D01*
X3207156Y1741534D01*
X3204536Y1739523D01*
X3202526Y1736904D01*
X3201263Y1733853D01*
X3200999Y1731850D01*
X3214710D01*
Y1743228D01*
D02*
G37*
G36*
X3218480D02*
X3217250D01*
Y1731850D01*
X3230961D01*
X3230697Y1733853D01*
X3229434Y1736904D01*
X3227423Y1739523D01*
X3224804Y1741534D01*
X3221754Y1742797D01*
X3218480Y1743228D01*
D02*
G37*
G36*
X3173710Y1720910D02*
X3154980D01*
X3155194Y1718741D01*
X3156197Y1715435D01*
X3157825Y1712388D01*
X3160017Y1709717D01*
X3162688Y1707525D01*
X3165735Y1705897D01*
X3169041Y1704894D01*
X3172480Y1704555D01*
X3173710D01*
Y1720910D01*
D02*
G37*
G36*
X3721100Y1674062D02*
X3718418Y1673709D01*
X3715919Y1672674D01*
X3713772Y1671027D01*
X3712126Y1668881D01*
X3711090Y1666382D01*
X3710737Y1663700D01*
X3711090Y1661018D01*
X3712126Y1658519D01*
X3713772Y1656372D01*
X3715919Y1654726D01*
X3718418Y1653690D01*
X3721100Y1653337D01*
X3723782Y1653690D01*
X3726281Y1654726D01*
X3728427Y1656372D01*
X3730074Y1658519D01*
X3731109Y1661018D01*
X3731462Y1663700D01*
X3731109Y1666382D01*
X3730074Y1668881D01*
X3728427Y1671027D01*
X3726281Y1672674D01*
X3723782Y1673709D01*
X3721100Y1674062D01*
D02*
G37*
G36*
X3671550Y1672802D02*
X3669050D01*
X3666694Y1672492D01*
X3664499Y1671582D01*
X3662614Y1670136D01*
X3661167Y1668251D01*
X3660258Y1666056D01*
X3659948Y1663700D01*
X3660258Y1661344D01*
X3661167Y1659149D01*
X3662614Y1657264D01*
X3664499Y1655817D01*
X3666694Y1654908D01*
X3669050Y1654598D01*
X3671550D01*
X3673906Y1654908D01*
X3676101Y1655817D01*
X3677986Y1657264D01*
X3679432Y1659149D01*
X3680341Y1661344D01*
X3680652Y1663700D01*
X3680341Y1666056D01*
X3679432Y1668251D01*
X3677986Y1670136D01*
X3676101Y1671582D01*
X3673906Y1672492D01*
X3671550Y1672802D01*
D02*
G37*
G36*
X3822700Y1708397D02*
X3817696Y1707905D01*
X3812885Y1706445D01*
X3808451Y1704075D01*
X3804564Y1700885D01*
X3801375Y1696999D01*
X3799005Y1692565D01*
X3797545Y1687753D01*
X3797052Y1682750D01*
X3797545Y1677746D01*
X3799005Y1672935D01*
X3801375Y1668501D01*
X3804564Y1664614D01*
X3808451Y1661425D01*
X3812885Y1659055D01*
X3817696Y1657595D01*
X3822700Y1657102D01*
X3827704Y1657595D01*
X3832515Y1659055D01*
X3836949Y1661425D01*
X3840835Y1664614D01*
X3844025Y1668501D01*
X3846395Y1672935D01*
X3847855Y1677746D01*
X3848347Y1682750D01*
X3847855Y1687753D01*
X3846395Y1692565D01*
X3844025Y1696999D01*
X3840835Y1700885D01*
X3836949Y1704075D01*
X3832515Y1706445D01*
X3827704Y1707905D01*
X3822700Y1708397D01*
D02*
G37*
G36*
X3594100Y1674062D02*
X3591418Y1673709D01*
X3588918Y1672674D01*
X3586772Y1671027D01*
X3585126Y1668881D01*
X3584090Y1666382D01*
X3583737Y1663700D01*
X3584090Y1661018D01*
X3585126Y1658519D01*
X3586772Y1656372D01*
X3588918Y1654726D01*
X3591418Y1653690D01*
X3594100Y1653337D01*
X3596782Y1653690D01*
X3599281Y1654726D01*
X3601427Y1656372D01*
X3603074Y1658519D01*
X3604109Y1661018D01*
X3604463Y1663700D01*
X3604109Y1666382D01*
X3603074Y1668881D01*
X3601427Y1671027D01*
X3599281Y1672674D01*
X3596782Y1673709D01*
X3594100Y1674062D01*
D02*
G37*
G36*
X3619500D02*
X3616818Y1673709D01*
X3614319Y1672674D01*
X3612173Y1671027D01*
X3610526Y1668881D01*
X3609490Y1666382D01*
X3609137Y1663700D01*
X3609490Y1661018D01*
X3610526Y1658519D01*
X3612173Y1656372D01*
X3614319Y1654726D01*
X3616818Y1653690D01*
X3619500Y1653337D01*
X3622182Y1653690D01*
X3624681Y1654726D01*
X3626827Y1656372D01*
X3628474Y1658519D01*
X3629509Y1661018D01*
X3629862Y1663700D01*
X3629509Y1666382D01*
X3628474Y1668881D01*
X3626827Y1671027D01*
X3624681Y1672674D01*
X3622182Y1673709D01*
X3619500Y1674062D01*
D02*
G37*
G36*
X3644900D02*
X3642218Y1673709D01*
X3639719Y1672674D01*
X3637572Y1671027D01*
X3635926Y1668881D01*
X3634890Y1666382D01*
X3634537Y1663700D01*
X3634890Y1661018D01*
X3635926Y1658519D01*
X3637572Y1656372D01*
X3639719Y1654726D01*
X3642218Y1653690D01*
X3644900Y1653337D01*
X3647582Y1653690D01*
X3650081Y1654726D01*
X3652227Y1656372D01*
X3653874Y1658519D01*
X3654909Y1661018D01*
X3655262Y1663700D01*
X3654909Y1666382D01*
X3653874Y1668881D01*
X3652227Y1671027D01*
X3650081Y1672674D01*
X3647582Y1673709D01*
X3644900Y1674062D01*
D02*
G37*
G36*
X3747770Y1674920D02*
Y1664970D01*
X3757720D01*
X3757499Y1666647D01*
X3756362Y1669394D01*
X3754552Y1671752D01*
X3752194Y1673562D01*
X3749447Y1674699D01*
X3747770Y1674920D01*
D02*
G37*
G36*
X3770630D02*
X3768953Y1674699D01*
X3766206Y1673562D01*
X3763848Y1671752D01*
X3762038Y1669394D01*
X3760901Y1666647D01*
X3760680Y1664970D01*
X3770630D01*
Y1674920D01*
D02*
G37*
G36*
X3773170D02*
Y1664970D01*
X3783120D01*
X3782899Y1666647D01*
X3781762Y1669394D01*
X3779952Y1671752D01*
X3777594Y1673562D01*
X3774847Y1674699D01*
X3773170Y1674920D01*
D02*
G37*
G36*
X3211830D02*
X3210153Y1674699D01*
X3207406Y1673562D01*
X3205048Y1671752D01*
X3203238Y1669394D01*
X3202101Y1666647D01*
X3201880Y1664970D01*
X3211830D01*
Y1674920D01*
D02*
G37*
G36*
X3214370D02*
Y1664970D01*
X3224320D01*
X3224099Y1666647D01*
X3222962Y1669394D01*
X3221152Y1671752D01*
X3218794Y1673562D01*
X3216047Y1674699D01*
X3214370Y1674920D01*
D02*
G37*
G36*
X3745230D02*
X3743553Y1674699D01*
X3740806Y1673562D01*
X3738448Y1671752D01*
X3736638Y1669394D01*
X3735500Y1666647D01*
X3735280Y1664970D01*
X3745230D01*
Y1674920D01*
D02*
G37*
G36*
X3218480Y1777603D02*
X3213480D01*
X3210471Y1777207D01*
X3207668Y1776046D01*
X3205261Y1774199D01*
X3203414Y1771792D01*
X3202253Y1768988D01*
X3201856Y1765980D01*
X3202253Y1762971D01*
X3203414Y1760168D01*
X3205261Y1757761D01*
X3207668Y1755914D01*
X3210471Y1754753D01*
X3213480Y1754356D01*
X3218480D01*
X3221488Y1754753D01*
X3224292Y1755914D01*
X3226699Y1757761D01*
X3228546Y1760168D01*
X3229707Y1762971D01*
X3230103Y1765980D01*
X3229707Y1768988D01*
X3228546Y1771792D01*
X3226699Y1774199D01*
X3224292Y1776046D01*
X3221488Y1777207D01*
X3218480Y1777603D01*
D02*
G37*
G36*
X3929210Y1825294D02*
X3927728Y1825099D01*
X3925164Y1824037D01*
X3922963Y1822347D01*
X3921273Y1820145D01*
X3920211Y1817581D01*
X3920016Y1816100D01*
X3929210D01*
Y1825294D01*
D02*
G37*
G36*
X3931750Y1825294D02*
Y1816100D01*
X3940944D01*
X3940749Y1817581D01*
X3939687Y1820145D01*
X3937997Y1822347D01*
X3935795Y1824037D01*
X3933232Y1825099D01*
X3931750Y1825294D01*
D02*
G37*
G36*
X3275080Y1837136D02*
X3272594Y1836809D01*
X3270277Y1835849D01*
X3268287Y1834323D01*
X3266761Y1832333D01*
X3265801Y1830016D01*
X3265474Y1827530D01*
X3265801Y1825044D01*
X3266761Y1822727D01*
X3268287Y1820737D01*
X3270277Y1819211D01*
X3272594Y1818251D01*
X3275080Y1817924D01*
X3277566Y1818251D01*
X3279883Y1819211D01*
X3281872Y1820737D01*
X3283399Y1822727D01*
X3284359Y1825044D01*
X3284686Y1827530D01*
X3284359Y1830016D01*
X3283399Y1832333D01*
X3281872Y1834323D01*
X3279883Y1835849D01*
X3277566Y1836809D01*
X3275080Y1837136D01*
D02*
G37*
G36*
X3929210Y1813560D02*
X3920016D01*
X3920211Y1812078D01*
X3921273Y1809514D01*
X3922963Y1807313D01*
X3925164Y1805623D01*
X3927728Y1804561D01*
X3929210Y1804366D01*
Y1813560D01*
D02*
G37*
G36*
X3905080Y1824436D02*
X3902594Y1824109D01*
X3900277Y1823149D01*
X3898287Y1821622D01*
X3896761Y1819633D01*
X3895801Y1817316D01*
X3895474Y1814830D01*
X3895801Y1812344D01*
X3896761Y1810027D01*
X3898287Y1808037D01*
X3900277Y1806511D01*
X3902594Y1805551D01*
X3905080Y1805224D01*
X3907566Y1805551D01*
X3909883Y1806511D01*
X3911873Y1808037D01*
X3913399Y1810027D01*
X3914359Y1812344D01*
X3914686Y1814830D01*
X3914359Y1817316D01*
X3913399Y1819633D01*
X3911873Y1821622D01*
X3909883Y1823149D01*
X3907566Y1824109D01*
X3905080Y1824436D01*
D02*
G37*
G36*
X3619500Y1824042D02*
X3614420D01*
X3612365Y1823771D01*
X3610449Y1822978D01*
X3608804Y1821716D01*
X3607542Y1820071D01*
X3606748Y1818155D01*
X3606478Y1816100D01*
X3606748Y1814044D01*
X3607542Y1812129D01*
X3608804Y1810484D01*
X3610449Y1809222D01*
X3612365Y1808428D01*
X3614420Y1808158D01*
X3619500D01*
X3621555Y1808428D01*
X3623471Y1809222D01*
X3625116Y1810484D01*
X3626378Y1812129D01*
X3627171Y1814044D01*
X3627442Y1816100D01*
X3627171Y1818155D01*
X3626378Y1820071D01*
X3625116Y1821716D01*
X3623471Y1822978D01*
X3621555Y1823771D01*
X3619500Y1824042D01*
D02*
G37*
G36*
X3905080Y1849836D02*
X3902594Y1849509D01*
X3900277Y1848549D01*
X3898287Y1847023D01*
X3896761Y1845033D01*
X3895801Y1842716D01*
X3895474Y1840230D01*
X3895801Y1837744D01*
X3896761Y1835427D01*
X3898287Y1833437D01*
X3900277Y1831911D01*
X3902594Y1830951D01*
X3905080Y1830624D01*
X3907566Y1830951D01*
X3909883Y1831911D01*
X3911873Y1833437D01*
X3913399Y1835427D01*
X3914359Y1837744D01*
X3914686Y1840230D01*
X3914359Y1842716D01*
X3913399Y1845033D01*
X3911873Y1847023D01*
X3909883Y1848549D01*
X3907566Y1849509D01*
X3905080Y1849836D01*
D02*
G37*
G36*
X3619500Y1849442D02*
X3614420D01*
X3612365Y1849171D01*
X3610449Y1848378D01*
X3608804Y1847116D01*
X3607542Y1845471D01*
X3606748Y1843555D01*
X3606478Y1841500D01*
X3606748Y1839444D01*
X3607542Y1837529D01*
X3608804Y1835884D01*
X3610449Y1834622D01*
X3612365Y1833828D01*
X3614420Y1833558D01*
X3619500D01*
X3621555Y1833828D01*
X3623471Y1834622D01*
X3625116Y1835884D01*
X3626378Y1837529D01*
X3627171Y1839444D01*
X3627442Y1841500D01*
X3627171Y1843555D01*
X3626378Y1845471D01*
X3625116Y1847116D01*
X3623471Y1848378D01*
X3621555Y1849171D01*
X3619500Y1849442D01*
D02*
G37*
G36*
X3929210Y1850694D02*
X3927728Y1850499D01*
X3925164Y1849436D01*
X3922963Y1847747D01*
X3921273Y1845545D01*
X3920211Y1842981D01*
X3920016Y1841500D01*
X3929210D01*
Y1850694D01*
D02*
G37*
G36*
X3300480Y1837136D02*
X3297993Y1836809D01*
X3295677Y1835849D01*
X3293687Y1834323D01*
X3292161Y1832333D01*
X3291201Y1830016D01*
X3290874Y1827530D01*
X3291201Y1825044D01*
X3292161Y1822727D01*
X3293687Y1820737D01*
X3295677Y1819211D01*
X3297993Y1818251D01*
X3300480Y1817924D01*
X3302966Y1818251D01*
X3305283Y1819211D01*
X3307272Y1820737D01*
X3308799Y1822727D01*
X3309759Y1825044D01*
X3310086Y1827530D01*
X3309759Y1830016D01*
X3308799Y1832333D01*
X3307272Y1834323D01*
X3305283Y1835849D01*
X3302966Y1836809D01*
X3300480Y1837136D01*
D02*
G37*
G36*
X3940944Y1838960D02*
X3931750D01*
Y1829766D01*
X3933232Y1829961D01*
X3935795Y1831023D01*
X3937997Y1832713D01*
X3939687Y1834914D01*
X3940749Y1837478D01*
X3940944Y1838960D01*
D02*
G37*
G36*
X3929210D02*
X3920016D01*
X3920211Y1837478D01*
X3921273Y1834914D01*
X3922963Y1832713D01*
X3925164Y1831023D01*
X3927728Y1829961D01*
X3929210Y1829766D01*
Y1838960D01*
D02*
G37*
G36*
X3940944Y1813560D02*
X3931750D01*
Y1804366D01*
X3933232Y1804561D01*
X3935795Y1805623D01*
X3937997Y1807313D01*
X3939687Y1809514D01*
X3940749Y1812078D01*
X3940944Y1813560D01*
D02*
G37*
G36*
X3929210Y1774494D02*
X3927728Y1774299D01*
X3925164Y1773237D01*
X3922963Y1771547D01*
X3921273Y1769345D01*
X3920211Y1766781D01*
X3920016Y1765300D01*
X3929210D01*
Y1774494D01*
D02*
G37*
G36*
X3931750Y1774494D02*
Y1765300D01*
X3940944D01*
X3940749Y1766781D01*
X3939687Y1769345D01*
X3937997Y1771547D01*
X3935795Y1773237D01*
X3933232Y1774299D01*
X3931750Y1774494D01*
D02*
G37*
G36*
X3275080Y1786336D02*
X3272594Y1786009D01*
X3270277Y1785049D01*
X3268287Y1783522D01*
X3266761Y1781533D01*
X3265801Y1779216D01*
X3265474Y1776730D01*
X3265801Y1774244D01*
X3266761Y1771927D01*
X3268287Y1769937D01*
X3270277Y1768411D01*
X3272594Y1767451D01*
X3275080Y1767124D01*
X3277566Y1767451D01*
X3279883Y1768411D01*
X3281872Y1769937D01*
X3283399Y1771927D01*
X3284359Y1774244D01*
X3284686Y1776730D01*
X3284359Y1779216D01*
X3283399Y1781533D01*
X3281872Y1783522D01*
X3279883Y1785049D01*
X3277566Y1786009D01*
X3275080Y1786336D01*
D02*
G37*
G36*
X3905080Y1773636D02*
X3902594Y1773309D01*
X3900277Y1772349D01*
X3898287Y1770822D01*
X3896761Y1768833D01*
X3895801Y1766516D01*
X3895474Y1764030D01*
X3895801Y1761544D01*
X3896761Y1759227D01*
X3898287Y1757237D01*
X3900277Y1755711D01*
X3902594Y1754751D01*
X3905080Y1754424D01*
X3907566Y1754751D01*
X3909883Y1755711D01*
X3911873Y1757237D01*
X3913399Y1759227D01*
X3914359Y1761544D01*
X3914686Y1764030D01*
X3914359Y1766516D01*
X3913399Y1768833D01*
X3911873Y1770822D01*
X3909883Y1772349D01*
X3907566Y1773309D01*
X3905080Y1773636D01*
D02*
G37*
G36*
X3177480Y1789584D02*
X3172480D01*
X3169241Y1789265D01*
X3166126Y1788320D01*
X3163255Y1786786D01*
X3160739Y1784721D01*
X3158674Y1782204D01*
X3157140Y1779334D01*
X3156195Y1776219D01*
X3155876Y1772980D01*
X3156195Y1769741D01*
X3157140Y1766626D01*
X3158674Y1763755D01*
X3160739Y1761239D01*
X3163255Y1759174D01*
X3166126Y1757640D01*
X3169241Y1756695D01*
X3172480Y1756376D01*
X3177480D01*
X3180719Y1756695D01*
X3183834Y1757640D01*
X3186704Y1759174D01*
X3189221Y1761239D01*
X3191286Y1763755D01*
X3192820Y1766626D01*
X3193765Y1769741D01*
X3194084Y1772980D01*
X3193765Y1776219D01*
X3192820Y1779334D01*
X3191286Y1782204D01*
X3189221Y1784721D01*
X3186704Y1786786D01*
X3183834Y1788320D01*
X3180719Y1789265D01*
X3177480Y1789584D01*
D02*
G37*
G36*
X3619500Y1773242D02*
X3614420D01*
X3612365Y1772971D01*
X3610449Y1772178D01*
X3608804Y1770916D01*
X3607542Y1769271D01*
X3606748Y1767355D01*
X3606478Y1765300D01*
X3606748Y1763244D01*
X3607542Y1761329D01*
X3608804Y1759684D01*
X3610449Y1758422D01*
X3612365Y1757628D01*
X3614420Y1757358D01*
X3619500D01*
X3621555Y1757628D01*
X3623471Y1758422D01*
X3625116Y1759684D01*
X3626378Y1761329D01*
X3627171Y1763244D01*
X3627442Y1765300D01*
X3627171Y1767355D01*
X3626378Y1769271D01*
X3625116Y1770916D01*
X3623471Y1772178D01*
X3621555Y1772971D01*
X3619500Y1773242D01*
D02*
G37*
G36*
Y1798642D02*
X3614420D01*
X3612365Y1798371D01*
X3610449Y1797578D01*
X3608804Y1796316D01*
X3607542Y1794671D01*
X3606748Y1792755D01*
X3606478Y1790700D01*
X3606748Y1788644D01*
X3607542Y1786729D01*
X3608804Y1785084D01*
X3610449Y1783822D01*
X3612365Y1783029D01*
X3614420Y1782758D01*
X3619500D01*
X3621555Y1783029D01*
X3623471Y1783822D01*
X3625116Y1785084D01*
X3626378Y1786729D01*
X3627171Y1788644D01*
X3627442Y1790700D01*
X3627171Y1792755D01*
X3626378Y1794671D01*
X3625116Y1796316D01*
X3623471Y1797578D01*
X3621555Y1798371D01*
X3619500Y1798642D01*
D02*
G37*
G36*
X3929210Y1799894D02*
X3927728Y1799699D01*
X3925164Y1798636D01*
X3922963Y1796947D01*
X3921273Y1794745D01*
X3920211Y1792181D01*
X3920016Y1790700D01*
X3929210D01*
Y1799894D01*
D02*
G37*
G36*
X3931750Y1799894D02*
Y1790700D01*
X3940944D01*
X3940749Y1792181D01*
X3939687Y1794745D01*
X3937997Y1796947D01*
X3935795Y1798636D01*
X3933232Y1799699D01*
X3931750Y1799894D01*
D02*
G37*
G36*
X3940944Y1788160D02*
X3931750D01*
Y1778966D01*
X3933232Y1779161D01*
X3935795Y1780223D01*
X3937997Y1781913D01*
X3939687Y1784114D01*
X3940749Y1786678D01*
X3940944Y1788160D01*
D02*
G37*
G36*
X3929210D02*
X3920016D01*
X3920211Y1786678D01*
X3921273Y1784114D01*
X3922963Y1781913D01*
X3925164Y1780223D01*
X3927728Y1779161D01*
X3929210Y1778966D01*
Y1788160D01*
D02*
G37*
G36*
X3905080Y1799036D02*
X3902594Y1798709D01*
X3900277Y1797749D01*
X3898287Y1796223D01*
X3896761Y1794233D01*
X3895801Y1791916D01*
X3895474Y1789430D01*
X3895801Y1786944D01*
X3896761Y1784627D01*
X3898287Y1782637D01*
X3900277Y1781111D01*
X3902594Y1780151D01*
X3905080Y1779824D01*
X3907566Y1780151D01*
X3909883Y1781111D01*
X3911873Y1782637D01*
X3913399Y1784627D01*
X3914359Y1786944D01*
X3914686Y1789430D01*
X3914359Y1791916D01*
X3913399Y1794233D01*
X3911873Y1796223D01*
X3909883Y1797749D01*
X3907566Y1798709D01*
X3905080Y1799036D01*
D02*
G37*
G36*
X3492500Y1648663D02*
X3489818Y1648309D01*
X3487319Y1647274D01*
X3485172Y1645627D01*
X3483526Y1643481D01*
X3482490Y1640982D01*
X3482137Y1638300D01*
X3482490Y1635618D01*
X3483526Y1633119D01*
X3485172Y1630972D01*
X3487319Y1629326D01*
X3489818Y1628290D01*
X3492500Y1627937D01*
X3495182Y1628290D01*
X3497681Y1629326D01*
X3499827Y1630972D01*
X3501474Y1633119D01*
X3502509Y1635618D01*
X3502863Y1638300D01*
X3502509Y1640982D01*
X3501474Y1643481D01*
X3499827Y1645627D01*
X3497681Y1647274D01*
X3495182Y1648309D01*
X3492500Y1648663D01*
D02*
G37*
G36*
X3517900D02*
X3515218Y1648309D01*
X3512719Y1647274D01*
X3510573Y1645627D01*
X3508925Y1643481D01*
X3507890Y1640982D01*
X3507537Y1638300D01*
X3507890Y1635618D01*
X3508925Y1633119D01*
X3510573Y1630972D01*
X3512719Y1629326D01*
X3515218Y1628290D01*
X3517900Y1627937D01*
X3520582Y1628290D01*
X3523081Y1629326D01*
X3525227Y1630972D01*
X3526874Y1633119D01*
X3527910Y1635618D01*
X3528263Y1638300D01*
X3527910Y1640982D01*
X3526874Y1643481D01*
X3525227Y1645627D01*
X3523081Y1647274D01*
X3520582Y1648309D01*
X3517900Y1648663D01*
D02*
G37*
G36*
X3543300D02*
X3540618Y1648309D01*
X3538119Y1647274D01*
X3535972Y1645627D01*
X3534326Y1643481D01*
X3533290Y1640982D01*
X3532937Y1638300D01*
X3533290Y1635618D01*
X3534326Y1633119D01*
X3535972Y1630972D01*
X3538119Y1629326D01*
X3540618Y1628290D01*
X3543300Y1627937D01*
X3545982Y1628290D01*
X3548481Y1629326D01*
X3550627Y1630972D01*
X3552274Y1633119D01*
X3553309Y1635618D01*
X3553662Y1638300D01*
X3553309Y1640982D01*
X3552274Y1643481D01*
X3550627Y1645627D01*
X3548481Y1647274D01*
X3545982Y1648309D01*
X3543300Y1648663D01*
D02*
G37*
G36*
X3416300D02*
X3413618Y1648309D01*
X3411118Y1647274D01*
X3408972Y1645627D01*
X3407326Y1643481D01*
X3406290Y1640982D01*
X3405937Y1638300D01*
X3406290Y1635618D01*
X3407326Y1633119D01*
X3408972Y1630972D01*
X3411118Y1629326D01*
X3413618Y1628290D01*
X3416300Y1627937D01*
X3418982Y1628290D01*
X3421481Y1629326D01*
X3423627Y1630972D01*
X3425274Y1633119D01*
X3426310Y1635618D01*
X3426663Y1638300D01*
X3426310Y1640982D01*
X3425274Y1643481D01*
X3423627Y1645627D01*
X3421481Y1647274D01*
X3418982Y1648309D01*
X3416300Y1648663D01*
D02*
G37*
G36*
X3441700D02*
X3439018Y1648309D01*
X3436519Y1647274D01*
X3434372Y1645627D01*
X3432726Y1643481D01*
X3431690Y1640982D01*
X3431337Y1638300D01*
X3431690Y1635618D01*
X3432726Y1633119D01*
X3434372Y1630972D01*
X3436519Y1629326D01*
X3439018Y1628290D01*
X3441700Y1627937D01*
X3444382Y1628290D01*
X3446881Y1629326D01*
X3449027Y1630972D01*
X3450674Y1633119D01*
X3451709Y1635618D01*
X3452062Y1638300D01*
X3451709Y1640982D01*
X3450674Y1643481D01*
X3449027Y1645627D01*
X3446881Y1647274D01*
X3444382Y1648309D01*
X3441700Y1648663D01*
D02*
G37*
G36*
X3467100D02*
X3464418Y1648309D01*
X3461919Y1647274D01*
X3459772Y1645627D01*
X3458126Y1643481D01*
X3457090Y1640982D01*
X3456737Y1638300D01*
X3457090Y1635618D01*
X3458126Y1633119D01*
X3459772Y1630972D01*
X3461919Y1629326D01*
X3464418Y1628290D01*
X3467100Y1627937D01*
X3469782Y1628290D01*
X3472281Y1629326D01*
X3474427Y1630972D01*
X3476074Y1633119D01*
X3477109Y1635618D01*
X3477462Y1638300D01*
X3477109Y1640982D01*
X3476074Y1643481D01*
X3474427Y1645627D01*
X3472281Y1647274D01*
X3469782Y1648309D01*
X3467100Y1648663D01*
D02*
G37*
G36*
X3568700D02*
X3566018Y1648309D01*
X3563519Y1647274D01*
X3561372Y1645627D01*
X3559726Y1643481D01*
X3558690Y1640982D01*
X3558337Y1638300D01*
X3558690Y1635618D01*
X3559726Y1633119D01*
X3561372Y1630972D01*
X3563519Y1629326D01*
X3566018Y1628290D01*
X3568700Y1627937D01*
X3571382Y1628290D01*
X3573881Y1629326D01*
X3576028Y1630972D01*
X3577674Y1633119D01*
X3578709Y1635618D01*
X3579062Y1638300D01*
X3578709Y1640982D01*
X3577674Y1643481D01*
X3576028Y1645627D01*
X3573881Y1647274D01*
X3571382Y1648309D01*
X3568700Y1648663D01*
D02*
G37*
G36*
X3670300D02*
X3667618Y1648309D01*
X3665119Y1647274D01*
X3662972Y1645627D01*
X3661326Y1643481D01*
X3660290Y1640982D01*
X3659937Y1638300D01*
X3660290Y1635618D01*
X3661326Y1633119D01*
X3662972Y1630972D01*
X3665119Y1629326D01*
X3667618Y1628290D01*
X3670300Y1627937D01*
X3672982Y1628290D01*
X3675481Y1629326D01*
X3677627Y1630972D01*
X3679274Y1633119D01*
X3680309Y1635618D01*
X3680663Y1638300D01*
X3680309Y1640982D01*
X3679274Y1643481D01*
X3677627Y1645627D01*
X3675481Y1647274D01*
X3672982Y1648309D01*
X3670300Y1648663D01*
D02*
G37*
G36*
X3695700D02*
X3693018Y1648309D01*
X3690518Y1647274D01*
X3688372Y1645627D01*
X3686725Y1643481D01*
X3685690Y1640982D01*
X3685337Y1638300D01*
X3685690Y1635618D01*
X3686725Y1633119D01*
X3688372Y1630972D01*
X3690518Y1629326D01*
X3693018Y1628290D01*
X3695700Y1627937D01*
X3698382Y1628290D01*
X3700881Y1629326D01*
X3703027Y1630972D01*
X3704674Y1633119D01*
X3705710Y1635618D01*
X3706063Y1638300D01*
X3705710Y1640982D01*
X3704674Y1643481D01*
X3703027Y1645627D01*
X3700881Y1647274D01*
X3698382Y1648309D01*
X3695700Y1648663D01*
D02*
G37*
G36*
X3721100D02*
X3718418Y1648309D01*
X3715919Y1647274D01*
X3713772Y1645627D01*
X3712126Y1643481D01*
X3711090Y1640982D01*
X3710737Y1638300D01*
X3711090Y1635618D01*
X3712126Y1633119D01*
X3713772Y1630972D01*
X3715919Y1629326D01*
X3718418Y1628290D01*
X3721100Y1627937D01*
X3723782Y1628290D01*
X3726281Y1629326D01*
X3728427Y1630972D01*
X3730074Y1633119D01*
X3731109Y1635618D01*
X3731462Y1638300D01*
X3731109Y1640982D01*
X3730074Y1643481D01*
X3728427Y1645627D01*
X3726281Y1647274D01*
X3723782Y1648309D01*
X3721100Y1648663D01*
D02*
G37*
G36*
X3594100D02*
X3591418Y1648309D01*
X3588918Y1647274D01*
X3586772Y1645627D01*
X3585126Y1643481D01*
X3584090Y1640982D01*
X3583737Y1638300D01*
X3584090Y1635618D01*
X3585126Y1633119D01*
X3586772Y1630972D01*
X3588918Y1629326D01*
X3591418Y1628290D01*
X3594100Y1627937D01*
X3596782Y1628290D01*
X3599281Y1629326D01*
X3601427Y1630972D01*
X3603074Y1633119D01*
X3604109Y1635618D01*
X3604463Y1638300D01*
X3604109Y1640982D01*
X3603074Y1643481D01*
X3601427Y1645627D01*
X3599281Y1647274D01*
X3596782Y1648309D01*
X3594100Y1648663D01*
D02*
G37*
G36*
X3619500D02*
X3616818Y1648309D01*
X3614319Y1647274D01*
X3612173Y1645627D01*
X3610526Y1643481D01*
X3609490Y1640982D01*
X3609137Y1638300D01*
X3609490Y1635618D01*
X3610526Y1633119D01*
X3612173Y1630972D01*
X3614319Y1629326D01*
X3616818Y1628290D01*
X3619500Y1627937D01*
X3622182Y1628290D01*
X3624681Y1629326D01*
X3626827Y1630972D01*
X3628474Y1633119D01*
X3629509Y1635618D01*
X3629862Y1638300D01*
X3629509Y1640982D01*
X3628474Y1643481D01*
X3626827Y1645627D01*
X3624681Y1647274D01*
X3622182Y1648309D01*
X3619500Y1648663D01*
D02*
G37*
G36*
X3644900D02*
X3642218Y1648309D01*
X3639719Y1647274D01*
X3637572Y1645627D01*
X3635926Y1643481D01*
X3634890Y1640982D01*
X3634537Y1638300D01*
X3634890Y1635618D01*
X3635926Y1633119D01*
X3637572Y1630972D01*
X3639719Y1629326D01*
X3642218Y1628290D01*
X3644900Y1627937D01*
X3647582Y1628290D01*
X3650081Y1629326D01*
X3652227Y1630972D01*
X3653874Y1633119D01*
X3654909Y1635618D01*
X3655262Y1638300D01*
X3654909Y1640982D01*
X3653874Y1643481D01*
X3652227Y1645627D01*
X3650081Y1647274D01*
X3647582Y1648309D01*
X3644900Y1648663D01*
D02*
G37*
G36*
X3224390Y1637030D02*
X3214370D01*
Y1627010D01*
X3224390D01*
Y1637030D01*
D02*
G37*
G36*
X3745230D02*
X3735280D01*
X3735500Y1635353D01*
X3736638Y1632606D01*
X3738448Y1630248D01*
X3740806Y1628438D01*
X3743553Y1627301D01*
X3745230Y1627080D01*
Y1637030D01*
D02*
G37*
G36*
X3757720D02*
X3747770D01*
Y1627080D01*
X3749447Y1627301D01*
X3752194Y1628438D01*
X3754552Y1630248D01*
X3756362Y1632606D01*
X3757499Y1635353D01*
X3757720Y1637030D01*
D02*
G37*
G36*
X3161030Y1649730D02*
X3135777D01*
X3136005Y1646835D01*
X3136980Y1642773D01*
X3138579Y1638914D01*
X3140762Y1635352D01*
X3143475Y1632175D01*
X3146652Y1629462D01*
X3150214Y1627279D01*
X3154073Y1625680D01*
X3158135Y1624705D01*
X3161030Y1624477D01*
Y1649730D01*
D02*
G37*
G36*
X3188823D02*
X3163570D01*
Y1624477D01*
X3166465Y1624705D01*
X3170527Y1625680D01*
X3174386Y1627279D01*
X3177948Y1629462D01*
X3181125Y1632175D01*
X3183838Y1635352D01*
X3186021Y1638914D01*
X3187619Y1642773D01*
X3188595Y1646835D01*
X3188823Y1649730D01*
D02*
G37*
G36*
X3211830Y1637030D02*
X3201810D01*
Y1627010D01*
X3211830D01*
Y1637030D01*
D02*
G37*
G36*
X3770630D02*
X3760680D01*
X3760901Y1635353D01*
X3762038Y1632606D01*
X3763848Y1630248D01*
X3766206Y1628438D01*
X3768953Y1627301D01*
X3770630Y1627080D01*
Y1637030D01*
D02*
G37*
G36*
X3340100Y1648663D02*
X3337418Y1648309D01*
X3334919Y1647274D01*
X3332773Y1645627D01*
X3331125Y1643481D01*
X3330090Y1640982D01*
X3329737Y1638300D01*
X3330090Y1635618D01*
X3331125Y1633119D01*
X3332773Y1630972D01*
X3334919Y1629326D01*
X3337418Y1628290D01*
X3340100Y1627937D01*
X3342782Y1628290D01*
X3345281Y1629326D01*
X3347427Y1630972D01*
X3349074Y1633119D01*
X3350109Y1635618D01*
X3350463Y1638300D01*
X3350109Y1640982D01*
X3349074Y1643481D01*
X3347427Y1645627D01*
X3345281Y1647274D01*
X3342782Y1648309D01*
X3340100Y1648663D01*
D02*
G37*
G36*
X3365500D02*
X3362818Y1648309D01*
X3360319Y1647274D01*
X3358172Y1645627D01*
X3356526Y1643481D01*
X3355490Y1640982D01*
X3355137Y1638300D01*
X3355490Y1635618D01*
X3356526Y1633119D01*
X3358172Y1630972D01*
X3360319Y1629326D01*
X3362818Y1628290D01*
X3365500Y1627937D01*
X3368182Y1628290D01*
X3370681Y1629326D01*
X3372827Y1630972D01*
X3374474Y1633119D01*
X3375509Y1635618D01*
X3375862Y1638300D01*
X3375509Y1640982D01*
X3374474Y1643481D01*
X3372827Y1645627D01*
X3370681Y1647274D01*
X3368182Y1648309D01*
X3365500Y1648663D01*
D02*
G37*
G36*
X3390900D02*
X3388218Y1648309D01*
X3385719Y1647274D01*
X3383572Y1645627D01*
X3381926Y1643481D01*
X3380890Y1640982D01*
X3380537Y1638300D01*
X3380890Y1635618D01*
X3381926Y1633119D01*
X3383572Y1630972D01*
X3385719Y1629326D01*
X3388218Y1628290D01*
X3390900Y1627937D01*
X3393582Y1628290D01*
X3396081Y1629326D01*
X3398228Y1630972D01*
X3399874Y1633119D01*
X3400909Y1635618D01*
X3401263Y1638300D01*
X3400909Y1640982D01*
X3399874Y1643481D01*
X3398228Y1645627D01*
X3396081Y1647274D01*
X3393582Y1648309D01*
X3390900Y1648663D01*
D02*
G37*
G36*
X3783120Y1637030D02*
X3773170D01*
Y1627080D01*
X3774847Y1627301D01*
X3777594Y1628438D01*
X3779952Y1630248D01*
X3781762Y1632606D01*
X3782899Y1635353D01*
X3783120Y1637030D01*
D02*
G37*
G36*
X3289300Y1648663D02*
X3286618Y1648309D01*
X3284119Y1647274D01*
X3281972Y1645627D01*
X3280326Y1643481D01*
X3279290Y1640982D01*
X3278937Y1638300D01*
X3279290Y1635618D01*
X3280326Y1633119D01*
X3281972Y1630972D01*
X3284119Y1629326D01*
X3286618Y1628290D01*
X3289300Y1627937D01*
X3291982Y1628290D01*
X3294481Y1629326D01*
X3296628Y1630972D01*
X3298274Y1633119D01*
X3299309Y1635618D01*
X3299662Y1638300D01*
X3299309Y1640982D01*
X3298274Y1643481D01*
X3296628Y1645627D01*
X3294481Y1647274D01*
X3291982Y1648309D01*
X3289300Y1648663D01*
D02*
G37*
G36*
X3314700D02*
X3312018Y1648309D01*
X3309519Y1647274D01*
X3307372Y1645627D01*
X3305726Y1643481D01*
X3304690Y1640982D01*
X3304337Y1638300D01*
X3304690Y1635618D01*
X3305726Y1633119D01*
X3307372Y1630972D01*
X3309519Y1629326D01*
X3312018Y1628290D01*
X3314700Y1627937D01*
X3317382Y1628290D01*
X3319881Y1629326D01*
X3322027Y1630972D01*
X3323674Y1633119D01*
X3324709Y1635618D01*
X3325063Y1638300D01*
X3324709Y1640982D01*
X3323674Y1643481D01*
X3322027Y1645627D01*
X3319881Y1647274D01*
X3317382Y1648309D01*
X3314700Y1648663D01*
D02*
G37*
G36*
X3340100Y1674062D02*
X3337418Y1673709D01*
X3334919Y1672674D01*
X3332773Y1671027D01*
X3331125Y1668881D01*
X3330090Y1666382D01*
X3329737Y1663700D01*
X3330090Y1661018D01*
X3331125Y1658519D01*
X3332773Y1656372D01*
X3334919Y1654726D01*
X3337418Y1653690D01*
X3340100Y1653337D01*
X3342782Y1653690D01*
X3345281Y1654726D01*
X3347427Y1656372D01*
X3349074Y1658519D01*
X3350109Y1661018D01*
X3350463Y1663700D01*
X3350109Y1666382D01*
X3349074Y1668881D01*
X3347427Y1671027D01*
X3345281Y1672674D01*
X3342782Y1673709D01*
X3340100Y1674062D01*
D02*
G37*
G36*
X3365500D02*
X3362818Y1673709D01*
X3360319Y1672674D01*
X3358172Y1671027D01*
X3356526Y1668881D01*
X3355490Y1666382D01*
X3355137Y1663700D01*
X3355490Y1661018D01*
X3356526Y1658519D01*
X3358172Y1656372D01*
X3360319Y1654726D01*
X3362818Y1653690D01*
X3365500Y1653337D01*
X3368182Y1653690D01*
X3370681Y1654726D01*
X3372827Y1656372D01*
X3374474Y1658519D01*
X3375509Y1661018D01*
X3375862Y1663700D01*
X3375509Y1666382D01*
X3374474Y1668881D01*
X3372827Y1671027D01*
X3370681Y1672674D01*
X3368182Y1673709D01*
X3365500Y1674062D01*
D02*
G37*
G36*
X3390900D02*
X3388218Y1673709D01*
X3385719Y1672674D01*
X3383572Y1671027D01*
X3381926Y1668881D01*
X3380890Y1666382D01*
X3380537Y1663700D01*
X3380890Y1661018D01*
X3381926Y1658519D01*
X3383572Y1656372D01*
X3385719Y1654726D01*
X3388218Y1653690D01*
X3390900Y1653337D01*
X3393582Y1653690D01*
X3396081Y1654726D01*
X3398228Y1656372D01*
X3399874Y1658519D01*
X3400909Y1661018D01*
X3401263Y1663700D01*
X3400909Y1666382D01*
X3399874Y1668881D01*
X3398228Y1671027D01*
X3396081Y1672674D01*
X3393582Y1673709D01*
X3390900Y1674062D01*
D02*
G37*
G36*
X3783120Y1662430D02*
X3773170D01*
Y1652480D01*
X3774847Y1652701D01*
X3777594Y1653838D01*
X3779952Y1655648D01*
X3781762Y1658006D01*
X3782899Y1660753D01*
X3783120Y1662430D01*
D02*
G37*
G36*
X3289300Y1674062D02*
X3286618Y1673709D01*
X3284119Y1672674D01*
X3281972Y1671027D01*
X3280326Y1668881D01*
X3279290Y1666382D01*
X3278937Y1663700D01*
X3279290Y1661018D01*
X3280326Y1658519D01*
X3281972Y1656372D01*
X3284119Y1654726D01*
X3286618Y1653690D01*
X3289300Y1653337D01*
X3291982Y1653690D01*
X3294481Y1654726D01*
X3296628Y1656372D01*
X3298274Y1658519D01*
X3299309Y1661018D01*
X3299662Y1663700D01*
X3299309Y1666382D01*
X3298274Y1668881D01*
X3296628Y1671027D01*
X3294481Y1672674D01*
X3291982Y1673709D01*
X3289300Y1674062D01*
D02*
G37*
G36*
X3314700D02*
X3312018Y1673709D01*
X3309519Y1672674D01*
X3307372Y1671027D01*
X3305726Y1668881D01*
X3304690Y1666382D01*
X3304337Y1663700D01*
X3304690Y1661018D01*
X3305726Y1658519D01*
X3307372Y1656372D01*
X3309519Y1654726D01*
X3312018Y1653690D01*
X3314700Y1653337D01*
X3317382Y1653690D01*
X3319881Y1654726D01*
X3322027Y1656372D01*
X3323674Y1658519D01*
X3324709Y1661018D01*
X3325063Y1663700D01*
X3324709Y1666382D01*
X3323674Y1668881D01*
X3322027Y1671027D01*
X3319881Y1672674D01*
X3317382Y1673709D01*
X3314700Y1674062D01*
D02*
G37*
G36*
X3416300D02*
X3413618Y1673709D01*
X3411118Y1672674D01*
X3408972Y1671027D01*
X3407326Y1668881D01*
X3406290Y1666382D01*
X3405937Y1663700D01*
X3406290Y1661018D01*
X3407326Y1658519D01*
X3408972Y1656372D01*
X3411118Y1654726D01*
X3413618Y1653690D01*
X3416300Y1653337D01*
X3418982Y1653690D01*
X3421481Y1654726D01*
X3423627Y1656372D01*
X3425274Y1658519D01*
X3426310Y1661018D01*
X3426663Y1663700D01*
X3426310Y1666382D01*
X3425274Y1668881D01*
X3423627Y1671027D01*
X3421481Y1672674D01*
X3418982Y1673709D01*
X3416300Y1674062D01*
D02*
G37*
G36*
X3517900D02*
X3515218Y1673709D01*
X3512719Y1672674D01*
X3510573Y1671027D01*
X3508925Y1668881D01*
X3507890Y1666382D01*
X3507537Y1663700D01*
X3507890Y1661018D01*
X3508925Y1658519D01*
X3510573Y1656372D01*
X3512719Y1654726D01*
X3515218Y1653690D01*
X3517900Y1653337D01*
X3520582Y1653690D01*
X3523081Y1654726D01*
X3525227Y1656372D01*
X3526874Y1658519D01*
X3527910Y1661018D01*
X3528263Y1663700D01*
X3527910Y1666382D01*
X3526874Y1668881D01*
X3525227Y1671027D01*
X3523081Y1672674D01*
X3520582Y1673709D01*
X3517900Y1674062D01*
D02*
G37*
G36*
X3543300D02*
X3540618Y1673709D01*
X3538119Y1672674D01*
X3535972Y1671027D01*
X3534326Y1668881D01*
X3533290Y1666382D01*
X3532937Y1663700D01*
X3533290Y1661018D01*
X3534326Y1658519D01*
X3535972Y1656372D01*
X3538119Y1654726D01*
X3540618Y1653690D01*
X3543300Y1653337D01*
X3545982Y1653690D01*
X3548481Y1654726D01*
X3550627Y1656372D01*
X3552274Y1658519D01*
X3553309Y1661018D01*
X3553662Y1663700D01*
X3553309Y1666382D01*
X3552274Y1668881D01*
X3550627Y1671027D01*
X3548481Y1672674D01*
X3545982Y1673709D01*
X3543300Y1674062D01*
D02*
G37*
G36*
X3568700D02*
X3566018Y1673709D01*
X3563519Y1672674D01*
X3561372Y1671027D01*
X3559726Y1668881D01*
X3558690Y1666382D01*
X3558337Y1663700D01*
X3558690Y1661018D01*
X3559726Y1658519D01*
X3561372Y1656372D01*
X3563519Y1654726D01*
X3566018Y1653690D01*
X3568700Y1653337D01*
X3571382Y1653690D01*
X3573881Y1654726D01*
X3576028Y1656372D01*
X3577674Y1658519D01*
X3578709Y1661018D01*
X3579062Y1663700D01*
X3578709Y1666382D01*
X3577674Y1668881D01*
X3576028Y1671027D01*
X3573881Y1672674D01*
X3571382Y1673709D01*
X3568700Y1674062D01*
D02*
G37*
G36*
X3441700D02*
X3439018Y1673709D01*
X3436519Y1672674D01*
X3434372Y1671027D01*
X3432726Y1668881D01*
X3431690Y1666382D01*
X3431337Y1663700D01*
X3431690Y1661018D01*
X3432726Y1658519D01*
X3434372Y1656372D01*
X3436519Y1654726D01*
X3439018Y1653690D01*
X3441700Y1653337D01*
X3444382Y1653690D01*
X3446881Y1654726D01*
X3449027Y1656372D01*
X3450674Y1658519D01*
X3451709Y1661018D01*
X3452062Y1663700D01*
X3451709Y1666382D01*
X3450674Y1668881D01*
X3449027Y1671027D01*
X3446881Y1672674D01*
X3444382Y1673709D01*
X3441700Y1674062D01*
D02*
G37*
G36*
X3467100D02*
X3464418Y1673709D01*
X3461919Y1672674D01*
X3459772Y1671027D01*
X3458126Y1668881D01*
X3457090Y1666382D01*
X3456737Y1663700D01*
X3457090Y1661018D01*
X3458126Y1658519D01*
X3459772Y1656372D01*
X3461919Y1654726D01*
X3464418Y1653690D01*
X3467100Y1653337D01*
X3469782Y1653690D01*
X3472281Y1654726D01*
X3474427Y1656372D01*
X3476074Y1658519D01*
X3477109Y1661018D01*
X3477462Y1663700D01*
X3477109Y1666382D01*
X3476074Y1668881D01*
X3474427Y1671027D01*
X3472281Y1672674D01*
X3469782Y1673709D01*
X3467100Y1674062D01*
D02*
G37*
G36*
X3492500D02*
X3489818Y1673709D01*
X3487319Y1672674D01*
X3485172Y1671027D01*
X3483526Y1668881D01*
X3482490Y1666382D01*
X3482137Y1663700D01*
X3482490Y1661018D01*
X3483526Y1658519D01*
X3485172Y1656372D01*
X3487319Y1654726D01*
X3489818Y1653690D01*
X3492500Y1653337D01*
X3495182Y1653690D01*
X3497681Y1654726D01*
X3499827Y1656372D01*
X3501474Y1658519D01*
X3502509Y1661018D01*
X3502863Y1663700D01*
X3502509Y1666382D01*
X3501474Y1668881D01*
X3499827Y1671027D01*
X3497681Y1672674D01*
X3495182Y1673709D01*
X3492500Y1674062D01*
D02*
G37*
G36*
X3747770Y1649520D02*
Y1639570D01*
X3757720D01*
X3757499Y1641247D01*
X3756362Y1643994D01*
X3754552Y1646352D01*
X3752194Y1648162D01*
X3749447Y1649299D01*
X3747770Y1649520D01*
D02*
G37*
G36*
X3770630D02*
X3768953Y1649299D01*
X3766206Y1648162D01*
X3763848Y1646352D01*
X3762038Y1643994D01*
X3760901Y1641247D01*
X3760680Y1639570D01*
X3770630D01*
Y1649520D01*
D02*
G37*
G36*
X3773170D02*
Y1639570D01*
X3783120D01*
X3782899Y1641247D01*
X3781762Y1643994D01*
X3779952Y1646352D01*
X3777594Y1648162D01*
X3774847Y1649299D01*
X3773170Y1649520D01*
D02*
G37*
G36*
X3211830Y1649590D02*
X3201810D01*
Y1639570D01*
X3211830D01*
Y1649590D01*
D02*
G37*
G36*
X3224390D02*
X3214370D01*
Y1639570D01*
X3224390D01*
Y1649590D01*
D02*
G37*
G36*
X3745230Y1649520D02*
X3743553Y1649299D01*
X3740806Y1648162D01*
X3738448Y1646352D01*
X3736638Y1643994D01*
X3735500Y1641247D01*
X3735280Y1639570D01*
X3745230D01*
Y1649520D01*
D02*
G37*
G36*
X3161030Y1677522D02*
X3158135Y1677295D01*
X3154073Y1676319D01*
X3150214Y1674721D01*
X3146652Y1672538D01*
X3143475Y1669825D01*
X3140762Y1666648D01*
X3138579Y1663086D01*
X3136980Y1659227D01*
X3136005Y1655165D01*
X3135777Y1652270D01*
X3161030D01*
Y1677522D01*
D02*
G37*
G36*
X3745230Y1662430D02*
X3735280D01*
X3735500Y1660753D01*
X3736638Y1658006D01*
X3738448Y1655648D01*
X3740806Y1653838D01*
X3743553Y1652701D01*
X3745230Y1652480D01*
Y1662430D01*
D02*
G37*
G36*
X3757720D02*
X3747770D01*
Y1652480D01*
X3749447Y1652701D01*
X3752194Y1653838D01*
X3754552Y1655648D01*
X3756362Y1658006D01*
X3757499Y1660753D01*
X3757720Y1662430D01*
D02*
G37*
G36*
X3770630D02*
X3760680D01*
X3760901Y1660753D01*
X3762038Y1658006D01*
X3763848Y1655648D01*
X3766206Y1653838D01*
X3768953Y1652701D01*
X3770630Y1652480D01*
Y1662430D01*
D02*
G37*
G36*
X3163570Y1677522D02*
Y1652270D01*
X3188823D01*
X3188595Y1655165D01*
X3187619Y1659227D01*
X3186021Y1663086D01*
X3183838Y1666648D01*
X3181125Y1669825D01*
X3177948Y1672538D01*
X3174386Y1674721D01*
X3170527Y1676319D01*
X3166465Y1677295D01*
X3163570Y1677522D01*
D02*
G37*
G36*
X3211830Y1662430D02*
X3201880D01*
X3202101Y1660753D01*
X3203238Y1658006D01*
X3205048Y1655648D01*
X3207406Y1653838D01*
X3210153Y1652701D01*
X3211830Y1652480D01*
Y1662430D01*
D02*
G37*
G36*
X3224320D02*
X3214370D01*
Y1652480D01*
X3216047Y1652701D01*
X3218794Y1653838D01*
X3221152Y1655648D01*
X3222962Y1658006D01*
X3224099Y1660753D01*
X3224320Y1662430D01*
D02*
G37*
G36*
X3746500Y2131263D02*
X3743818Y2130909D01*
X3741319Y2129874D01*
X3739172Y2128227D01*
X3737526Y2126081D01*
X3736490Y2123582D01*
X3736137Y2120900D01*
X3736490Y2118218D01*
X3737526Y2115719D01*
X3739172Y2113572D01*
X3741319Y2111926D01*
X3743818Y2110890D01*
X3746500Y2110537D01*
X3749182Y2110890D01*
X3751681Y2111926D01*
X3753828Y2113572D01*
X3755474Y2115719D01*
X3756509Y2118218D01*
X3756862Y2120900D01*
X3756509Y2123582D01*
X3755474Y2126081D01*
X3753828Y2128227D01*
X3751681Y2129874D01*
X3749182Y2130909D01*
X3746500Y2131263D01*
D02*
G37*
G36*
X3771900D02*
X3769218Y2130909D01*
X3766719Y2129874D01*
X3764572Y2128227D01*
X3762926Y2126081D01*
X3761890Y2123582D01*
X3761537Y2120900D01*
X3761890Y2118218D01*
X3762926Y2115719D01*
X3764572Y2113572D01*
X3766719Y2111926D01*
X3769218Y2110890D01*
X3771900Y2110537D01*
X3774582Y2110890D01*
X3777081Y2111926D01*
X3779227Y2113572D01*
X3780874Y2115719D01*
X3781909Y2118218D01*
X3782263Y2120900D01*
X3781909Y2123582D01*
X3780874Y2126081D01*
X3779227Y2128227D01*
X3777081Y2129874D01*
X3774582Y2130909D01*
X3771900Y2131263D01*
D02*
G37*
G36*
X3670300Y2127984D02*
X3668466Y2127743D01*
X3666758Y2127035D01*
X3665290Y2125909D01*
X3664164Y2124442D01*
X3663457Y2122733D01*
X3663215Y2120900D01*
X3663457Y2119066D01*
X3664164Y2117358D01*
X3665290Y2115890D01*
X3666301Y2115115D01*
X3665780Y2113083D01*
X3649419D01*
X3648899Y2115115D01*
X3649909Y2115890D01*
X3651035Y2117358D01*
X3651743Y2119066D01*
X3651985Y2120900D01*
X3651743Y2122733D01*
X3651035Y2124442D01*
X3649909Y2125909D01*
X3648442Y2127035D01*
X3646733Y2127743D01*
X3644900Y2127984D01*
X3643066Y2127743D01*
X3641358Y2127035D01*
X3639890Y2125909D01*
X3638764Y2124442D01*
X3638057Y2122733D01*
X3637815Y2120900D01*
X3638057Y2119066D01*
X3638764Y2117358D01*
X3639890Y2115890D01*
X3640901Y2115115D01*
X3640380Y2113083D01*
X3624019D01*
X3623499Y2115115D01*
X3624509Y2115890D01*
X3625635Y2117358D01*
X3626343Y2119066D01*
X3626584Y2120900D01*
X3626343Y2122733D01*
X3625635Y2124442D01*
X3624509Y2125909D01*
X3623042Y2127035D01*
X3621334Y2127743D01*
X3619500Y2127984D01*
X3617666Y2127743D01*
X3615958Y2127035D01*
X3614490Y2125909D01*
X3613364Y2124442D01*
X3612657Y2122733D01*
X3612415Y2120900D01*
X3612657Y2119066D01*
X3613364Y2117358D01*
X3614490Y2115890D01*
X3615501Y2115115D01*
X3614980Y2113083D01*
X3598619D01*
X3598099Y2115115D01*
X3599109Y2115890D01*
X3600235Y2117358D01*
X3600943Y2119066D01*
X3601184Y2120900D01*
X3600943Y2122733D01*
X3600235Y2124442D01*
X3599109Y2125909D01*
X3597642Y2127035D01*
X3595934Y2127743D01*
X3594100Y2127984D01*
X3592266Y2127743D01*
X3590558Y2127035D01*
X3589090Y2125909D01*
X3587964Y2124442D01*
X3587257Y2122733D01*
X3587015Y2120900D01*
X3587257Y2119066D01*
X3587964Y2117358D01*
X3589090Y2115890D01*
X3590101Y2115115D01*
X3589580Y2113083D01*
X3576980D01*
X3575410Y2112770D01*
X3574079Y2111881D01*
X3566079Y2103881D01*
X3565190Y2102550D01*
X3564877Y2100980D01*
Y1732679D01*
X3539731Y1707533D01*
X3269518D01*
Y1726177D01*
X3304325Y1760984D01*
X3305504Y1762749D01*
X3305918Y1764830D01*
Y1768898D01*
X3307272Y1769937D01*
X3308799Y1771927D01*
X3309759Y1774244D01*
X3310086Y1776730D01*
X3309759Y1779216D01*
X3308799Y1781533D01*
X3307272Y1783522D01*
X3305908Y1784570D01*
X3306598Y1786602D01*
X3434908D01*
X3470504Y1751006D01*
X3470122Y1750085D01*
X3469852Y1748030D01*
X3470122Y1745974D01*
X3470916Y1744059D01*
X3472178Y1742414D01*
X3473823Y1741152D01*
X3475739Y1740358D01*
X3477794Y1740088D01*
X3482366D01*
X3484421Y1740358D01*
X3486337Y1741152D01*
X3487982Y1742414D01*
X3489244Y1744059D01*
X3490037Y1745974D01*
X3490308Y1748030D01*
X3490037Y1750085D01*
X3489244Y1752001D01*
X3487982Y1753646D01*
X3486337Y1754908D01*
X3485080Y1755428D01*
Y1766031D01*
X3486337Y1766552D01*
X3487982Y1767814D01*
X3489244Y1769459D01*
X3490037Y1771374D01*
X3490308Y1773430D01*
X3490037Y1775485D01*
X3489244Y1777401D01*
X3487982Y1779046D01*
X3486337Y1780308D01*
X3484421Y1781101D01*
X3482366Y1781372D01*
X3477794D01*
X3475739Y1781101D01*
X3473823Y1780308D01*
X3472178Y1779046D01*
X3471379Y1778004D01*
X3469432Y1777598D01*
X3468831Y1777678D01*
X3442380Y1804130D01*
X3441462Y1804743D01*
X3440380Y1804958D01*
X3309617D01*
X3308799Y1806933D01*
X3307272Y1808922D01*
X3305283Y1810449D01*
X3302966Y1811409D01*
X3300480Y1811736D01*
X3297993Y1811409D01*
X3295677Y1810449D01*
X3293687Y1808922D01*
X3292161Y1806933D01*
X3291201Y1804616D01*
X3290874Y1802130D01*
X3291201Y1799644D01*
X3292161Y1797327D01*
X3293687Y1795337D01*
X3295052Y1794290D01*
X3294362Y1792258D01*
X3288951D01*
X3283541Y1797669D01*
X3284359Y1799644D01*
X3284686Y1802130D01*
X3284359Y1804616D01*
X3283399Y1806933D01*
X3281872Y1808922D01*
X3279883Y1810449D01*
X3277566Y1811409D01*
X3275080Y1811736D01*
X3272594Y1811409D01*
X3270277Y1810449D01*
X3268287Y1808922D01*
X3266761Y1806933D01*
X3265801Y1804616D01*
X3265474Y1802130D01*
X3265801Y1799644D01*
X3266761Y1797327D01*
X3268287Y1795337D01*
X3270277Y1793811D01*
X3272594Y1792851D01*
X3275080Y1792524D01*
X3277566Y1792851D01*
X3279541Y1793669D01*
X3285780Y1787430D01*
X3286697Y1786817D01*
X3286877Y1786781D01*
X3287780Y1786602D01*
X3287780Y1786602D01*
X3294362D01*
X3295052Y1784570D01*
X3293687Y1783522D01*
X3292161Y1781533D01*
X3291201Y1779216D01*
X3290874Y1776730D01*
X3291201Y1774244D01*
X3292161Y1771927D01*
X3293687Y1769937D01*
X3294858Y1769039D01*
X3294940Y1766982D01*
X3260234Y1732276D01*
X3259055Y1730511D01*
X3258641Y1728430D01*
Y1705683D01*
X3235343Y1682384D01*
X3234517Y1681832D01*
X3233297Y1680005D01*
X3232868Y1677850D01*
Y1672328D01*
X3231172Y1671027D01*
X3229525Y1668881D01*
X3228490Y1666382D01*
X3228137Y1663700D01*
X3228490Y1661018D01*
X3229525Y1658519D01*
X3231172Y1656372D01*
X3233062Y1654923D01*
Y1647077D01*
X3231172Y1645627D01*
X3229525Y1643481D01*
X3228490Y1640982D01*
X3228137Y1638300D01*
X3228490Y1635618D01*
X3229525Y1633119D01*
X3231172Y1630972D01*
X3233318Y1629326D01*
X3235818Y1628290D01*
X3238500Y1627937D01*
X3241182Y1628290D01*
X3243681Y1629326D01*
X3245827Y1630972D01*
X3247474Y1633119D01*
X3248510Y1635618D01*
X3248863Y1638300D01*
X3248510Y1640982D01*
X3247474Y1643481D01*
X3245827Y1645627D01*
X3243938Y1647077D01*
Y1654923D01*
X3245827Y1656372D01*
X3247474Y1658519D01*
X3248510Y1661018D01*
X3248863Y1663700D01*
X3248510Y1666382D01*
X3247474Y1668881D01*
X3245827Y1671027D01*
X3244132Y1672328D01*
Y1675791D01*
X3267668Y1699327D01*
X3541430D01*
X3543000Y1699639D01*
X3544331Y1700529D01*
X3571881Y1728079D01*
X3572770Y1729410D01*
X3573083Y1730980D01*
Y2099281D01*
X3578679Y2104877D01*
X3585773D01*
X3586177Y2102845D01*
X3585049Y2102378D01*
X3583404Y2101116D01*
X3582142Y2099471D01*
X3581349Y2097555D01*
X3581078Y2095500D01*
X3581349Y2093444D01*
X3582142Y2091529D01*
X3583404Y2089884D01*
X3585049Y2088622D01*
X3585928Y2088258D01*
Y2077342D01*
X3585049Y2076978D01*
X3583404Y2075716D01*
X3582142Y2074071D01*
X3581349Y2072155D01*
X3581078Y2070100D01*
X3581349Y2068044D01*
X3582142Y2066129D01*
X3583404Y2064484D01*
X3585049Y2063222D01*
X3585928Y2062858D01*
Y2051942D01*
X3585049Y2051578D01*
X3583404Y2050316D01*
X3582142Y2048671D01*
X3581349Y2046755D01*
X3581078Y2044700D01*
X3581349Y2042644D01*
X3582142Y2040729D01*
X3583404Y2039084D01*
X3585049Y2037822D01*
X3585928Y2037458D01*
Y2026542D01*
X3585049Y2026178D01*
X3583404Y2024916D01*
X3582142Y2023271D01*
X3581349Y2021355D01*
X3581078Y2019300D01*
X3581349Y2017244D01*
X3582142Y2015329D01*
X3583404Y2013684D01*
X3585049Y2012422D01*
X3585928Y2012058D01*
Y2001142D01*
X3585049Y2000778D01*
X3583404Y1999516D01*
X3582142Y1997871D01*
X3581349Y1995955D01*
X3581078Y1993900D01*
X3581349Y1991844D01*
X3582142Y1989929D01*
X3583404Y1988284D01*
X3585049Y1987022D01*
X3585928Y1986658D01*
Y1975742D01*
X3585049Y1975378D01*
X3583404Y1974116D01*
X3582142Y1972471D01*
X3581349Y1970555D01*
X3581078Y1968500D01*
X3581349Y1966444D01*
X3582142Y1964529D01*
X3583404Y1962884D01*
X3585049Y1961622D01*
X3585928Y1961258D01*
Y1950342D01*
X3585049Y1949978D01*
X3583404Y1948716D01*
X3582142Y1947071D01*
X3581349Y1945155D01*
X3581078Y1943100D01*
X3581349Y1941044D01*
X3582142Y1939129D01*
X3583404Y1937484D01*
X3585049Y1936222D01*
X3585928Y1935858D01*
Y1924942D01*
X3585049Y1924578D01*
X3583404Y1923316D01*
X3582142Y1921671D01*
X3581349Y1919755D01*
X3581078Y1917700D01*
X3581349Y1915644D01*
X3582142Y1913729D01*
X3583404Y1912084D01*
X3585049Y1910822D01*
X3585928Y1910458D01*
Y1899542D01*
X3585049Y1899178D01*
X3583404Y1897916D01*
X3582142Y1896271D01*
X3581349Y1894355D01*
X3581078Y1892300D01*
X3581349Y1890244D01*
X3582142Y1888329D01*
X3583404Y1886684D01*
X3585049Y1885422D01*
X3585928Y1885058D01*
Y1874142D01*
X3585049Y1873778D01*
X3583404Y1872516D01*
X3582142Y1870871D01*
X3581349Y1868955D01*
X3581078Y1866900D01*
X3581349Y1864844D01*
X3582142Y1862929D01*
X3583404Y1861284D01*
X3585049Y1860022D01*
X3585928Y1859658D01*
Y1848742D01*
X3585049Y1848378D01*
X3583404Y1847116D01*
X3582142Y1845471D01*
X3581349Y1843555D01*
X3581078Y1841500D01*
X3581349Y1839444D01*
X3582142Y1837529D01*
X3583404Y1835884D01*
X3585049Y1834622D01*
X3585928Y1834258D01*
Y1823342D01*
X3585049Y1822978D01*
X3583404Y1821716D01*
X3582142Y1820071D01*
X3581349Y1818155D01*
X3581078Y1816100D01*
X3581349Y1814044D01*
X3582142Y1812129D01*
X3583404Y1810484D01*
X3585049Y1809222D01*
X3585928Y1808858D01*
Y1797942D01*
X3585049Y1797578D01*
X3583404Y1796316D01*
X3582142Y1794671D01*
X3581349Y1792755D01*
X3581078Y1790700D01*
X3581349Y1788644D01*
X3582142Y1786729D01*
X3583404Y1785084D01*
X3585049Y1783822D01*
X3585928Y1783458D01*
Y1772542D01*
X3585049Y1772178D01*
X3583404Y1770916D01*
X3582142Y1769271D01*
X3581349Y1767355D01*
X3581078Y1765300D01*
X3581349Y1763244D01*
X3582142Y1761329D01*
X3583404Y1759684D01*
X3585049Y1758422D01*
X3585928Y1758058D01*
Y1747142D01*
X3585049Y1746778D01*
X3583404Y1745516D01*
X3582142Y1743871D01*
X3581349Y1741955D01*
X3581078Y1739900D01*
X3581349Y1737844D01*
X3582142Y1735929D01*
X3583404Y1734284D01*
X3585049Y1733022D01*
X3585928Y1732658D01*
Y1721742D01*
X3585049Y1721378D01*
X3583404Y1720116D01*
X3582142Y1718471D01*
X3581349Y1716555D01*
X3581078Y1714500D01*
X3581349Y1712444D01*
X3582142Y1710529D01*
X3583404Y1708884D01*
X3585049Y1707622D01*
X3585928Y1707258D01*
Y1701800D01*
Y1696342D01*
X3585049Y1695978D01*
X3583404Y1694716D01*
X3583268Y1694538D01*
X3575860D01*
X3573779Y1694124D01*
X3573096Y1693668D01*
X3278880D01*
X3276799Y1693254D01*
X3275034Y1692076D01*
X3260054Y1677095D01*
X3258875Y1675331D01*
X3258461Y1673250D01*
Y1672477D01*
X3256572Y1671027D01*
X3254926Y1668881D01*
X3253890Y1666382D01*
X3253537Y1663700D01*
X3253890Y1661018D01*
X3254926Y1658519D01*
X3256572Y1656372D01*
X3258461Y1654923D01*
Y1647077D01*
X3256572Y1645627D01*
X3254926Y1643481D01*
X3253890Y1640982D01*
X3253537Y1638300D01*
X3253890Y1635618D01*
X3254926Y1633119D01*
X3256572Y1630972D01*
X3258719Y1629326D01*
X3261218Y1628290D01*
X3263900Y1627937D01*
X3266582Y1628290D01*
X3269081Y1629326D01*
X3271227Y1630972D01*
X3272874Y1633119D01*
X3273909Y1635618D01*
X3274262Y1638300D01*
X3273909Y1640982D01*
X3272874Y1643481D01*
X3271227Y1645627D01*
X3269338Y1647077D01*
Y1654923D01*
X3271227Y1656372D01*
X3272874Y1658519D01*
X3273909Y1661018D01*
X3274262Y1663700D01*
X3273909Y1666382D01*
X3272874Y1668881D01*
X3271227Y1671027D01*
X3271113Y1672772D01*
X3281133Y1682791D01*
X3574990D01*
X3577071Y1683205D01*
X3577754Y1683661D01*
X3583268D01*
X3583404Y1683484D01*
X3585049Y1682222D01*
X3586964Y1681429D01*
X3589020Y1681158D01*
X3594100D01*
X3596155Y1681429D01*
X3598071Y1682222D01*
X3599716Y1683484D01*
X3600978Y1685129D01*
X3601771Y1687044D01*
X3602042Y1689100D01*
X3601771Y1691155D01*
X3600978Y1693071D01*
X3600161Y1694136D01*
X3600889Y1695997D01*
X3601045Y1696168D01*
X3607475D01*
X3607631Y1695997D01*
X3608359Y1694136D01*
X3607542Y1693071D01*
X3606748Y1691155D01*
X3606478Y1689100D01*
X3606748Y1687044D01*
X3607542Y1685129D01*
X3608804Y1683484D01*
X3610449Y1682222D01*
X3612365Y1681429D01*
X3614420Y1681158D01*
X3619500D01*
X3621555Y1681429D01*
X3623471Y1682222D01*
X3625116Y1683484D01*
X3626378Y1685129D01*
X3627171Y1687044D01*
X3627442Y1689100D01*
X3627171Y1691155D01*
X3626378Y1693071D01*
X3625561Y1694136D01*
X3626288Y1695997D01*
X3626445Y1696168D01*
X3628827D01*
X3648047Y1676947D01*
X3648047Y1676947D01*
X3649875Y1675726D01*
X3650232Y1675655D01*
X3652030Y1675298D01*
X3652030Y1675298D01*
X3691542D01*
X3691946Y1673266D01*
X3690518Y1672674D01*
X3688372Y1671027D01*
X3686725Y1668881D01*
X3685690Y1666382D01*
X3685337Y1663700D01*
X3685690Y1661018D01*
X3686725Y1658519D01*
X3688372Y1656372D01*
X3690518Y1654726D01*
X3693018Y1653690D01*
X3695700Y1653337D01*
X3698382Y1653690D01*
X3700881Y1654726D01*
X3703027Y1656372D01*
X3704674Y1658519D01*
X3705710Y1661018D01*
X3706063Y1663700D01*
X3705710Y1666382D01*
X3704674Y1668881D01*
X3703027Y1671027D01*
X3700881Y1672674D01*
X3699453Y1673266D01*
X3699857Y1675298D01*
X3713330D01*
X3713330Y1675298D01*
X3715128Y1675655D01*
X3715485Y1675726D01*
X3717313Y1676947D01*
X3730963Y1690597D01*
X3730963Y1690597D01*
X3732184Y1692424D01*
X3732255Y1692782D01*
X3732612Y1694580D01*
X3732612Y1694580D01*
Y1719980D01*
Y1727048D01*
X3784247D01*
X3792847Y1718447D01*
X3794674Y1717226D01*
X3795032Y1717155D01*
X3796830Y1716798D01*
X3796830Y1716798D01*
X3799203D01*
X3799290Y1716731D01*
X3800877Y1716074D01*
X3802580Y1715850D01*
X3804283Y1716074D01*
X3805870Y1716731D01*
X3807233Y1717777D01*
X3808279Y1719140D01*
X3808936Y1720727D01*
X3809160Y1722430D01*
X3808936Y1724133D01*
X3808279Y1725720D01*
X3807233Y1727083D01*
X3805870Y1728129D01*
X3804283Y1728786D01*
X3802580Y1729010D01*
X3800877Y1728786D01*
X3799290Y1728129D01*
X3799203Y1728062D01*
X3799163D01*
X3790562Y1736662D01*
X3788735Y1737883D01*
X3788378Y1737955D01*
X3786580Y1738312D01*
X3786580Y1738312D01*
X3732612D01*
Y1745380D01*
Y1770780D01*
Y1796180D01*
Y1821580D01*
Y1846980D01*
Y1872380D01*
Y1897780D01*
Y1923180D01*
Y1948580D01*
Y1973980D01*
Y1999380D01*
Y2024780D01*
Y2050180D01*
Y2075580D01*
Y2100980D01*
X3732184Y2103135D01*
X3730963Y2104962D01*
X3729135Y2106183D01*
X3726980Y2106612D01*
X3724825Y2106183D01*
X3722997Y2104962D01*
X3721776Y2103135D01*
X3721348Y2100980D01*
Y2075580D01*
Y2050180D01*
Y2024780D01*
Y1999380D01*
Y1973980D01*
Y1948580D01*
Y1923180D01*
Y1897780D01*
Y1872380D01*
Y1846980D01*
Y1821580D01*
Y1796180D01*
Y1770780D01*
Y1745380D01*
Y1732680D01*
Y1719980D01*
Y1696913D01*
X3710997Y1686562D01*
X3654363D01*
X3635143Y1705782D01*
X3633315Y1707003D01*
X3632957Y1707074D01*
X3631160Y1707432D01*
X3631160Y1707432D01*
X3626445D01*
X3626288Y1707603D01*
X3625561Y1709464D01*
X3626378Y1710529D01*
X3627171Y1712444D01*
X3627442Y1714500D01*
X3627171Y1716555D01*
X3626378Y1718471D01*
X3625116Y1720116D01*
X3623471Y1721378D01*
X3621555Y1722171D01*
X3619500Y1722442D01*
X3614420D01*
X3612365Y1722171D01*
X3610449Y1721378D01*
X3608804Y1720116D01*
X3607542Y1718471D01*
X3606748Y1716555D01*
X3606478Y1714500D01*
X3606748Y1712444D01*
X3607542Y1710529D01*
X3608359Y1709464D01*
X3607631Y1707603D01*
X3607475Y1707432D01*
X3601045D01*
X3600889Y1707603D01*
X3600161Y1709464D01*
X3600978Y1710529D01*
X3601771Y1712444D01*
X3602042Y1714500D01*
X3601771Y1716555D01*
X3600978Y1718471D01*
X3599716Y1720116D01*
X3598071Y1721378D01*
X3597192Y1721742D01*
Y1732658D01*
X3598071Y1733022D01*
X3599716Y1734284D01*
X3600978Y1735929D01*
X3601771Y1737844D01*
X3602042Y1739900D01*
X3601771Y1741955D01*
X3600978Y1743871D01*
X3599716Y1745516D01*
X3598071Y1746778D01*
X3597192Y1747142D01*
Y1758058D01*
X3598071Y1758422D01*
X3599716Y1759684D01*
X3600978Y1761329D01*
X3601771Y1763244D01*
X3602042Y1765300D01*
X3601771Y1767355D01*
X3600978Y1769271D01*
X3599716Y1770916D01*
X3598071Y1772178D01*
X3597192Y1772542D01*
Y1783458D01*
X3598071Y1783822D01*
X3599716Y1785084D01*
X3600978Y1786729D01*
X3601771Y1788644D01*
X3602042Y1790700D01*
X3601771Y1792755D01*
X3600978Y1794671D01*
X3599716Y1796316D01*
X3598071Y1797578D01*
X3597192Y1797942D01*
Y1808858D01*
X3598071Y1809222D01*
X3599716Y1810484D01*
X3600978Y1812129D01*
X3601771Y1814044D01*
X3602042Y1816100D01*
X3601771Y1818155D01*
X3600978Y1820071D01*
X3599716Y1821716D01*
X3598071Y1822978D01*
X3597192Y1823342D01*
Y1834258D01*
X3598071Y1834622D01*
X3599716Y1835884D01*
X3600978Y1837529D01*
X3601771Y1839444D01*
X3602042Y1841500D01*
X3601771Y1843555D01*
X3600978Y1845471D01*
X3599716Y1847116D01*
X3598071Y1848378D01*
X3597192Y1848742D01*
Y1859658D01*
X3598071Y1860022D01*
X3599716Y1861284D01*
X3600978Y1862929D01*
X3601771Y1864844D01*
X3602042Y1866900D01*
X3601771Y1868955D01*
X3600978Y1870871D01*
X3599716Y1872516D01*
X3598071Y1873778D01*
X3597192Y1874142D01*
Y1885058D01*
X3598071Y1885422D01*
X3599716Y1886684D01*
X3600978Y1888329D01*
X3601771Y1890244D01*
X3602042Y1892300D01*
X3601771Y1894355D01*
X3600978Y1896271D01*
X3599716Y1897916D01*
X3598071Y1899178D01*
X3597192Y1899542D01*
Y1910458D01*
X3598071Y1910822D01*
X3599716Y1912084D01*
X3600978Y1913729D01*
X3601771Y1915644D01*
X3602042Y1917700D01*
X3601771Y1919755D01*
X3600978Y1921671D01*
X3599716Y1923316D01*
X3598071Y1924578D01*
X3597192Y1924942D01*
Y1935858D01*
X3598071Y1936222D01*
X3599716Y1937484D01*
X3600978Y1939129D01*
X3601771Y1941044D01*
X3602042Y1943100D01*
X3601771Y1945155D01*
X3600978Y1947071D01*
X3599716Y1948716D01*
X3598071Y1949978D01*
X3597192Y1950342D01*
Y1961258D01*
X3598071Y1961622D01*
X3599716Y1962884D01*
X3600978Y1964529D01*
X3601771Y1966444D01*
X3602042Y1968500D01*
X3601771Y1970555D01*
X3600978Y1972471D01*
X3599716Y1974116D01*
X3598071Y1975378D01*
X3597192Y1975742D01*
Y1986658D01*
X3598071Y1987022D01*
X3599716Y1988284D01*
X3600978Y1989929D01*
X3601771Y1991844D01*
X3602042Y1993900D01*
X3601771Y1995955D01*
X3600978Y1997871D01*
X3599716Y1999516D01*
X3598071Y2000778D01*
X3597192Y2001142D01*
Y2012058D01*
X3598071Y2012422D01*
X3599716Y2013684D01*
X3600978Y2015329D01*
X3601771Y2017244D01*
X3602042Y2019300D01*
X3601771Y2021355D01*
X3600978Y2023271D01*
X3599716Y2024916D01*
X3598071Y2026178D01*
X3597192Y2026542D01*
Y2037458D01*
X3598071Y2037822D01*
X3599716Y2039084D01*
X3600978Y2040729D01*
X3601771Y2042644D01*
X3602042Y2044700D01*
X3601771Y2046755D01*
X3600978Y2048671D01*
X3599716Y2050316D01*
X3598071Y2051578D01*
X3597192Y2051942D01*
Y2062858D01*
X3598071Y2063222D01*
X3599716Y2064484D01*
X3600978Y2066129D01*
X3601771Y2068044D01*
X3602042Y2070100D01*
X3601771Y2072155D01*
X3600978Y2074071D01*
X3599716Y2075716D01*
X3598071Y2076978D01*
X3597192Y2077342D01*
Y2088258D01*
X3598071Y2088622D01*
X3599716Y2089884D01*
X3600978Y2091529D01*
X3601771Y2093444D01*
X3602042Y2095500D01*
X3601771Y2097555D01*
X3600978Y2099471D01*
X3599716Y2101116D01*
X3598071Y2102378D01*
X3596943Y2102845D01*
X3597347Y2104877D01*
X3611173D01*
X3611577Y2102845D01*
X3610449Y2102378D01*
X3608804Y2101116D01*
X3607542Y2099471D01*
X3606748Y2097555D01*
X3606478Y2095500D01*
X3606748Y2093444D01*
X3607542Y2091529D01*
X3608804Y2089884D01*
X3610449Y2088622D01*
X3612365Y2087829D01*
X3614420Y2087558D01*
X3619500D01*
X3621555Y2087829D01*
X3623471Y2088622D01*
X3625116Y2089884D01*
X3626378Y2091529D01*
X3627171Y2093444D01*
X3627442Y2095500D01*
X3627171Y2097555D01*
X3626378Y2099471D01*
X3625116Y2101116D01*
X3623471Y2102378D01*
X3622343Y2102845D01*
X3622747Y2104877D01*
X3676931D01*
X3681663Y2100145D01*
X3681718Y2099865D01*
X3681877Y2099627D01*
Y2078233D01*
X3681718Y2077995D01*
X3681367Y2076230D01*
X3681718Y2074465D01*
X3681877Y2074227D01*
Y2052832D01*
X3681718Y2052595D01*
X3681367Y2050830D01*
X3681718Y2049065D01*
X3681877Y2048827D01*
Y2027433D01*
X3681718Y2027195D01*
X3681367Y2025430D01*
X3681718Y2023665D01*
X3681877Y2023427D01*
Y2002032D01*
X3681718Y2001795D01*
X3681367Y2000030D01*
X3681718Y1998265D01*
X3681877Y1998027D01*
Y1976633D01*
X3681718Y1976395D01*
X3681367Y1974630D01*
X3681718Y1972865D01*
X3681877Y1972627D01*
Y1951232D01*
X3681718Y1950995D01*
X3681367Y1949230D01*
X3681718Y1947465D01*
X3681877Y1947227D01*
Y1925833D01*
X3681718Y1925595D01*
X3681367Y1923830D01*
X3681718Y1922065D01*
X3681877Y1921827D01*
Y1900432D01*
X3681718Y1900195D01*
X3681367Y1898430D01*
X3681718Y1896665D01*
X3681877Y1896427D01*
Y1875033D01*
X3681718Y1874795D01*
X3681367Y1873030D01*
X3681718Y1871265D01*
X3681877Y1871027D01*
Y1849633D01*
X3681718Y1849395D01*
X3681367Y1847630D01*
X3681718Y1845865D01*
X3681877Y1845627D01*
Y1824232D01*
X3681718Y1823995D01*
X3681367Y1822230D01*
X3681718Y1820465D01*
X3681877Y1820227D01*
Y1798833D01*
X3681718Y1798595D01*
X3681367Y1796830D01*
X3681718Y1795065D01*
X3681877Y1794827D01*
Y1773432D01*
X3681718Y1773195D01*
X3681367Y1771430D01*
X3681718Y1769665D01*
X3681877Y1769427D01*
Y1748033D01*
X3681718Y1747795D01*
X3681367Y1746030D01*
X3681718Y1744265D01*
X3681877Y1744027D01*
Y1722632D01*
X3681718Y1722395D01*
X3681367Y1720630D01*
X3681718Y1718865D01*
X3681877Y1718627D01*
Y1697233D01*
X3681718Y1696995D01*
X3681367Y1695230D01*
X3681718Y1693465D01*
X3682718Y1691968D01*
X3684215Y1690968D01*
X3685980Y1690617D01*
X3687745Y1690968D01*
X3689242Y1691968D01*
X3690241Y1693465D01*
X3690593Y1695230D01*
X3690241Y1696995D01*
X3690083Y1697233D01*
Y1718627D01*
X3690241Y1718865D01*
X3690593Y1720630D01*
X3690241Y1722395D01*
X3690083Y1722632D01*
Y1744027D01*
X3690241Y1744265D01*
X3690593Y1746030D01*
X3690241Y1747795D01*
X3690083Y1748033D01*
Y1769427D01*
X3690241Y1769665D01*
X3690593Y1771430D01*
X3690241Y1773195D01*
X3690083Y1773432D01*
Y1794827D01*
X3690241Y1795065D01*
X3690593Y1796830D01*
X3690241Y1798595D01*
X3690083Y1798833D01*
Y1820227D01*
X3690241Y1820465D01*
X3690593Y1822230D01*
X3690241Y1823995D01*
X3690083Y1824232D01*
Y1845627D01*
X3690241Y1845865D01*
X3690593Y1847630D01*
X3690241Y1849395D01*
X3690083Y1849633D01*
Y1871027D01*
X3690241Y1871265D01*
X3690593Y1873030D01*
X3690241Y1874795D01*
X3690083Y1875033D01*
Y1896427D01*
X3690241Y1896665D01*
X3690593Y1898430D01*
X3690241Y1900195D01*
X3690083Y1900432D01*
Y1921827D01*
X3690241Y1922065D01*
X3690593Y1923830D01*
X3690241Y1925595D01*
X3690083Y1925833D01*
Y1947227D01*
X3690241Y1947465D01*
X3690593Y1949230D01*
X3690241Y1950995D01*
X3690083Y1951232D01*
Y1972627D01*
X3690241Y1972865D01*
X3690593Y1974630D01*
X3690241Y1976395D01*
X3690083Y1976633D01*
Y1998027D01*
X3690241Y1998265D01*
X3690593Y2000030D01*
X3690241Y2001795D01*
X3690083Y2002032D01*
Y2023427D01*
X3690241Y2023665D01*
X3690593Y2025430D01*
X3690241Y2027195D01*
X3690083Y2027433D01*
Y2048827D01*
X3690241Y2049065D01*
X3690593Y2050830D01*
X3690241Y2052595D01*
X3690083Y2052832D01*
Y2074227D01*
X3690241Y2074465D01*
X3690593Y2076230D01*
X3690241Y2077995D01*
X3690083Y2078233D01*
Y2099627D01*
X3690241Y2099865D01*
X3690593Y2101630D01*
X3690241Y2103395D01*
X3689242Y2104892D01*
X3687745Y2105891D01*
X3687465Y2105947D01*
X3681531Y2111881D01*
X3680200Y2112770D01*
X3678630Y2113083D01*
X3674819D01*
X3674299Y2115115D01*
X3675309Y2115890D01*
X3676435Y2117358D01*
X3677143Y2119066D01*
X3677385Y2120900D01*
X3677143Y2122733D01*
X3676435Y2124442D01*
X3675309Y2125909D01*
X3673842Y2127035D01*
X3672133Y2127743D01*
X3670300Y2127984D01*
D02*
G37*
G36*
X3492500Y2131263D02*
X3489818Y2130909D01*
X3487319Y2129874D01*
X3485172Y2128227D01*
X3483526Y2126081D01*
X3482490Y2123582D01*
X3482137Y2120900D01*
X3482490Y2118218D01*
X3483526Y2115719D01*
X3485172Y2113572D01*
X3487319Y2111926D01*
X3489818Y2110890D01*
X3492500Y2110537D01*
X3495182Y2110890D01*
X3497681Y2111926D01*
X3499827Y2113572D01*
X3501474Y2115719D01*
X3502509Y2118218D01*
X3502863Y2120900D01*
X3502509Y2123582D01*
X3501474Y2126081D01*
X3499827Y2128227D01*
X3497681Y2129874D01*
X3495182Y2130909D01*
X3492500Y2131263D01*
D02*
G37*
G36*
X3517900D02*
X3515218Y2130909D01*
X3512719Y2129874D01*
X3510573Y2128227D01*
X3508925Y2126081D01*
X3507890Y2123582D01*
X3507537Y2120900D01*
X3507890Y2118218D01*
X3508925Y2115719D01*
X3510573Y2113572D01*
X3512719Y2111926D01*
X3515218Y2110890D01*
X3517900Y2110537D01*
X3520582Y2110890D01*
X3523081Y2111926D01*
X3525227Y2113572D01*
X3526874Y2115719D01*
X3527910Y2118218D01*
X3528263Y2120900D01*
X3527910Y2123582D01*
X3526874Y2126081D01*
X3525227Y2128227D01*
X3523081Y2129874D01*
X3520582Y2130909D01*
X3517900Y2131263D01*
D02*
G37*
G36*
X3721100D02*
X3718418Y2130909D01*
X3715919Y2129874D01*
X3713772Y2128227D01*
X3712126Y2126081D01*
X3711090Y2123582D01*
X3710737Y2120900D01*
X3711090Y2118218D01*
X3712126Y2115719D01*
X3713772Y2113572D01*
X3715919Y2111926D01*
X3718418Y2110890D01*
X3721100Y2110537D01*
X3723782Y2110890D01*
X3726281Y2111926D01*
X3728427Y2113572D01*
X3730074Y2115719D01*
X3731109Y2118218D01*
X3731462Y2120900D01*
X3731109Y2123582D01*
X3730074Y2126081D01*
X3728427Y2128227D01*
X3726281Y2129874D01*
X3723782Y2130909D01*
X3721100Y2131263D01*
D02*
G37*
G36*
X3543300Y2127984D02*
X3541466Y2127743D01*
X3539758Y2127035D01*
X3538290Y2125909D01*
X3537164Y2124442D01*
X3536457Y2122733D01*
X3536215Y2120900D01*
X3536457Y2119066D01*
X3537164Y2117358D01*
X3538290Y2115890D01*
X3539758Y2114764D01*
X3541466Y2114057D01*
X3543300Y2113815D01*
X3545133Y2114057D01*
X3546842Y2114764D01*
X3548309Y2115890D01*
X3549435Y2117358D01*
X3550143Y2119066D01*
X3550385Y2120900D01*
X3550143Y2122733D01*
X3549435Y2124442D01*
X3548309Y2125909D01*
X3546842Y2127035D01*
X3545133Y2127743D01*
X3543300Y2127984D01*
D02*
G37*
G36*
X3224390Y2132190D02*
X3214370D01*
Y2122170D01*
X3224390D01*
Y2132190D01*
D02*
G37*
G36*
X3161030Y2160123D02*
X3158135Y2159895D01*
X3154073Y2158919D01*
X3150214Y2157321D01*
X3146652Y2155138D01*
X3143475Y2152425D01*
X3140762Y2149248D01*
X3138579Y2145686D01*
X3136980Y2141827D01*
X3136005Y2137765D01*
X3135777Y2134870D01*
X3161030D01*
Y2160123D01*
D02*
G37*
G36*
X3163570D02*
Y2134870D01*
X3188823D01*
X3188595Y2137765D01*
X3187619Y2141827D01*
X3186021Y2145686D01*
X3183838Y2149248D01*
X3181125Y2152425D01*
X3177948Y2155138D01*
X3174386Y2157321D01*
X3170527Y2158919D01*
X3166465Y2159895D01*
X3163570Y2160123D01*
D02*
G37*
G36*
X3568700Y2127984D02*
X3566866Y2127743D01*
X3565157Y2127035D01*
X3563690Y2125909D01*
X3562564Y2124442D01*
X3561857Y2122733D01*
X3561615Y2120900D01*
X3561857Y2119066D01*
X3562564Y2117358D01*
X3563690Y2115890D01*
X3565157Y2114764D01*
X3566866Y2114057D01*
X3568700Y2113815D01*
X3570533Y2114057D01*
X3572242Y2114764D01*
X3573709Y2115890D01*
X3574835Y2117358D01*
X3575543Y2119066D01*
X3575785Y2120900D01*
X3575543Y2122733D01*
X3574835Y2124442D01*
X3573709Y2125909D01*
X3572242Y2127035D01*
X3570533Y2127743D01*
X3568700Y2127984D01*
D02*
G37*
G36*
X3695700D02*
X3693866Y2127743D01*
X3692158Y2127035D01*
X3690690Y2125909D01*
X3689565Y2124442D01*
X3688857Y2122733D01*
X3688615Y2120900D01*
X3688857Y2119066D01*
X3689565Y2117358D01*
X3690690Y2115890D01*
X3692158Y2114764D01*
X3693866Y2114057D01*
X3695700Y2113815D01*
X3697534Y2114057D01*
X3699242Y2114764D01*
X3700710Y2115890D01*
X3701835Y2117358D01*
X3702543Y2119066D01*
X3702784Y2120900D01*
X3702543Y2122733D01*
X3701835Y2124442D01*
X3700710Y2125909D01*
X3699242Y2127035D01*
X3697534Y2127743D01*
X3695700Y2127984D01*
D02*
G37*
G36*
X3211830Y2132190D02*
X3201810D01*
Y2122170D01*
X3211830D01*
Y2132190D01*
D02*
G37*
G36*
X3238500Y2131263D02*
X3235818Y2130909D01*
X3233318Y2129874D01*
X3231172Y2128227D01*
X3229525Y2126081D01*
X3228490Y2123582D01*
X3228137Y2120900D01*
X3228490Y2118218D01*
X3229525Y2115719D01*
X3231172Y2113572D01*
X3233318Y2111926D01*
X3235818Y2110890D01*
X3238500Y2110537D01*
X3241182Y2110890D01*
X3243681Y2111926D01*
X3245827Y2113572D01*
X3247474Y2115719D01*
X3248510Y2118218D01*
X3248863Y2120900D01*
X3248510Y2123582D01*
X3247474Y2126081D01*
X3245827Y2128227D01*
X3243681Y2129874D01*
X3241182Y2130909D01*
X3238500Y2131263D01*
D02*
G37*
G36*
X3263900D02*
X3261218Y2130909D01*
X3258719Y2129874D01*
X3256572Y2128227D01*
X3254926Y2126081D01*
X3253890Y2123582D01*
X3253537Y2120900D01*
X3253890Y2118218D01*
X3254926Y2115719D01*
X3256572Y2113572D01*
X3258719Y2111926D01*
X3261218Y2110890D01*
X3263900Y2110537D01*
X3266582Y2110890D01*
X3269081Y2111926D01*
X3271227Y2113572D01*
X3272874Y2115719D01*
X3273909Y2118218D01*
X3274262Y2120900D01*
X3273909Y2123582D01*
X3272874Y2126081D01*
X3271227Y2128227D01*
X3269081Y2129874D01*
X3266582Y2130909D01*
X3263900Y2131263D01*
D02*
G37*
G36*
X3289300D02*
X3286618Y2130909D01*
X3284119Y2129874D01*
X3281972Y2128227D01*
X3280326Y2126081D01*
X3279290Y2123582D01*
X3278937Y2120900D01*
X3279290Y2118218D01*
X3280326Y2115719D01*
X3281972Y2113572D01*
X3284119Y2111926D01*
X3286618Y2110890D01*
X3289300Y2110537D01*
X3291982Y2110890D01*
X3294481Y2111926D01*
X3296628Y2113572D01*
X3298274Y2115719D01*
X3299309Y2118218D01*
X3299662Y2120900D01*
X3299309Y2123582D01*
X3298274Y2126081D01*
X3296628Y2128227D01*
X3294481Y2129874D01*
X3291982Y2130909D01*
X3289300Y2131263D01*
D02*
G37*
G36*
X3188823Y2132330D02*
X3163570D01*
Y2107077D01*
X3166465Y2107305D01*
X3170527Y2108280D01*
X3174386Y2109879D01*
X3177948Y2112062D01*
X3181125Y2114775D01*
X3183838Y2117952D01*
X3186021Y2121514D01*
X3187619Y2125373D01*
X3188595Y2129435D01*
X3188823Y2132330D01*
D02*
G37*
G36*
X3211830Y2119630D02*
X3201810D01*
Y2109610D01*
X3211830D01*
Y2119630D01*
D02*
G37*
G36*
X3224390D02*
X3214370D01*
Y2109610D01*
X3224390D01*
Y2119630D01*
D02*
G37*
G36*
X3314700Y2131263D02*
X3312018Y2130909D01*
X3309519Y2129874D01*
X3307372Y2128227D01*
X3305726Y2126081D01*
X3304690Y2123582D01*
X3304337Y2120900D01*
X3304690Y2118218D01*
X3305726Y2115719D01*
X3307372Y2113572D01*
X3309519Y2111926D01*
X3312018Y2110890D01*
X3314700Y2110537D01*
X3317382Y2110890D01*
X3319881Y2111926D01*
X3322027Y2113572D01*
X3323674Y2115719D01*
X3324709Y2118218D01*
X3325063Y2120900D01*
X3324709Y2123582D01*
X3323674Y2126081D01*
X3322027Y2128227D01*
X3319881Y2129874D01*
X3317382Y2130909D01*
X3314700Y2131263D01*
D02*
G37*
G36*
X3416300D02*
X3413618Y2130909D01*
X3411118Y2129874D01*
X3408972Y2128227D01*
X3407326Y2126081D01*
X3406290Y2123582D01*
X3405937Y2120900D01*
X3406290Y2118218D01*
X3407326Y2115719D01*
X3408972Y2113572D01*
X3411118Y2111926D01*
X3413618Y2110890D01*
X3416300Y2110537D01*
X3418982Y2110890D01*
X3421481Y2111926D01*
X3423627Y2113572D01*
X3425274Y2115719D01*
X3426310Y2118218D01*
X3426663Y2120900D01*
X3426310Y2123582D01*
X3425274Y2126081D01*
X3423627Y2128227D01*
X3421481Y2129874D01*
X3418982Y2130909D01*
X3416300Y2131263D01*
D02*
G37*
G36*
X3441700D02*
X3439018Y2130909D01*
X3436519Y2129874D01*
X3434372Y2128227D01*
X3432726Y2126081D01*
X3431690Y2123582D01*
X3431337Y2120900D01*
X3431690Y2118218D01*
X3432726Y2115719D01*
X3434372Y2113572D01*
X3436519Y2111926D01*
X3439018Y2110890D01*
X3441700Y2110537D01*
X3444382Y2110890D01*
X3446881Y2111926D01*
X3449027Y2113572D01*
X3450674Y2115719D01*
X3451709Y2118218D01*
X3452062Y2120900D01*
X3451709Y2123582D01*
X3450674Y2126081D01*
X3449027Y2128227D01*
X3446881Y2129874D01*
X3444382Y2130909D01*
X3441700Y2131263D01*
D02*
G37*
G36*
X3467100D02*
X3464418Y2130909D01*
X3461919Y2129874D01*
X3459772Y2128227D01*
X3458126Y2126081D01*
X3457090Y2123582D01*
X3456737Y2120900D01*
X3457090Y2118218D01*
X3458126Y2115719D01*
X3459772Y2113572D01*
X3461919Y2111926D01*
X3464418Y2110890D01*
X3467100Y2110537D01*
X3469782Y2110890D01*
X3472281Y2111926D01*
X3474427Y2113572D01*
X3476074Y2115719D01*
X3477109Y2118218D01*
X3477462Y2120900D01*
X3477109Y2123582D01*
X3476074Y2126081D01*
X3474427Y2128227D01*
X3472281Y2129874D01*
X3469782Y2130909D01*
X3467100Y2131263D01*
D02*
G37*
G36*
X3340100D02*
X3337418Y2130909D01*
X3334919Y2129874D01*
X3332773Y2128227D01*
X3331125Y2126081D01*
X3330090Y2123582D01*
X3329737Y2120900D01*
X3330090Y2118218D01*
X3331125Y2115719D01*
X3332773Y2113572D01*
X3334919Y2111926D01*
X3337418Y2110890D01*
X3340100Y2110537D01*
X3342782Y2110890D01*
X3345281Y2111926D01*
X3347427Y2113572D01*
X3349074Y2115719D01*
X3350109Y2118218D01*
X3350463Y2120900D01*
X3350109Y2123582D01*
X3349074Y2126081D01*
X3347427Y2128227D01*
X3345281Y2129874D01*
X3342782Y2130909D01*
X3340100Y2131263D01*
D02*
G37*
G36*
X3365500D02*
X3362818Y2130909D01*
X3360319Y2129874D01*
X3358172Y2128227D01*
X3356526Y2126081D01*
X3355490Y2123582D01*
X3355137Y2120900D01*
X3355490Y2118218D01*
X3356526Y2115719D01*
X3358172Y2113572D01*
X3360319Y2111926D01*
X3362818Y2110890D01*
X3365500Y2110537D01*
X3368182Y2110890D01*
X3370681Y2111926D01*
X3372827Y2113572D01*
X3374474Y2115719D01*
X3375509Y2118218D01*
X3375862Y2120900D01*
X3375509Y2123582D01*
X3374474Y2126081D01*
X3372827Y2128227D01*
X3370681Y2129874D01*
X3368182Y2130909D01*
X3365500Y2131263D01*
D02*
G37*
G36*
X3390900D02*
X3388218Y2130909D01*
X3385719Y2129874D01*
X3383572Y2128227D01*
X3381926Y2126081D01*
X3380890Y2123582D01*
X3380537Y2120900D01*
X3380890Y2118218D01*
X3381926Y2115719D01*
X3383572Y2113572D01*
X3385719Y2111926D01*
X3388218Y2110890D01*
X3390900Y2110537D01*
X3393582Y2110890D01*
X3396081Y2111926D01*
X3398228Y2113572D01*
X3399874Y2115719D01*
X3400909Y2118218D01*
X3401263Y2120900D01*
X3400909Y2123582D01*
X3399874Y2126081D01*
X3398228Y2128227D01*
X3396081Y2129874D01*
X3393582Y2130909D01*
X3390900Y2131263D01*
D02*
G37*
G36*
X3594100Y2156662D02*
X3591418Y2156309D01*
X3588918Y2155274D01*
X3586772Y2153627D01*
X3585126Y2151481D01*
X3584090Y2148982D01*
X3583737Y2146300D01*
X3584090Y2143618D01*
X3585126Y2141119D01*
X3586772Y2138972D01*
X3588918Y2137326D01*
X3591418Y2136290D01*
X3594100Y2135937D01*
X3596782Y2136290D01*
X3599281Y2137326D01*
X3601427Y2138972D01*
X3603074Y2141119D01*
X3604109Y2143618D01*
X3604463Y2146300D01*
X3604109Y2148982D01*
X3603074Y2151481D01*
X3601427Y2153627D01*
X3599281Y2155274D01*
X3596782Y2156309D01*
X3594100Y2156662D01*
D02*
G37*
G36*
X3619500D02*
X3616818Y2156309D01*
X3614319Y2155274D01*
X3612173Y2153627D01*
X3610526Y2151481D01*
X3609490Y2148982D01*
X3609137Y2146300D01*
X3609490Y2143618D01*
X3610526Y2141119D01*
X3612173Y2138972D01*
X3614319Y2137326D01*
X3616818Y2136290D01*
X3619500Y2135937D01*
X3622182Y2136290D01*
X3624681Y2137326D01*
X3626827Y2138972D01*
X3628474Y2141119D01*
X3629509Y2143618D01*
X3629862Y2146300D01*
X3629509Y2148982D01*
X3628474Y2151481D01*
X3626827Y2153627D01*
X3624681Y2155274D01*
X3622182Y2156309D01*
X3619500Y2156662D01*
D02*
G37*
G36*
X3644900D02*
X3642218Y2156309D01*
X3639719Y2155274D01*
X3637572Y2153627D01*
X3635926Y2151481D01*
X3634890Y2148982D01*
X3634537Y2146300D01*
X3634890Y2143618D01*
X3635926Y2141119D01*
X3637572Y2138972D01*
X3639719Y2137326D01*
X3642218Y2136290D01*
X3644900Y2135937D01*
X3647582Y2136290D01*
X3650081Y2137326D01*
X3652227Y2138972D01*
X3653874Y2141119D01*
X3654909Y2143618D01*
X3655262Y2146300D01*
X3654909Y2148982D01*
X3653874Y2151481D01*
X3652227Y2153627D01*
X3650081Y2155274D01*
X3647582Y2156309D01*
X3644900Y2156662D01*
D02*
G37*
G36*
X3517900D02*
X3515218Y2156309D01*
X3512719Y2155274D01*
X3510573Y2153627D01*
X3508925Y2151481D01*
X3507890Y2148982D01*
X3507537Y2146300D01*
X3507890Y2143618D01*
X3508925Y2141119D01*
X3510573Y2138972D01*
X3512719Y2137326D01*
X3515218Y2136290D01*
X3517900Y2135937D01*
X3520582Y2136290D01*
X3523081Y2137326D01*
X3525227Y2138972D01*
X3526874Y2141119D01*
X3527910Y2143618D01*
X3528263Y2146300D01*
X3527910Y2148982D01*
X3526874Y2151481D01*
X3525227Y2153627D01*
X3523081Y2155274D01*
X3520582Y2156309D01*
X3517900Y2156662D01*
D02*
G37*
G36*
X3543300D02*
X3540618Y2156309D01*
X3538119Y2155274D01*
X3535972Y2153627D01*
X3534326Y2151481D01*
X3533290Y2148982D01*
X3532937Y2146300D01*
X3533290Y2143618D01*
X3534326Y2141119D01*
X3535972Y2138972D01*
X3538119Y2137326D01*
X3540618Y2136290D01*
X3543300Y2135937D01*
X3545982Y2136290D01*
X3548481Y2137326D01*
X3550627Y2138972D01*
X3552274Y2141119D01*
X3553309Y2143618D01*
X3553662Y2146300D01*
X3553309Y2148982D01*
X3552274Y2151481D01*
X3550627Y2153627D01*
X3548481Y2155274D01*
X3545982Y2156309D01*
X3543300Y2156662D01*
D02*
G37*
G36*
X3568700D02*
X3566018Y2156309D01*
X3563519Y2155274D01*
X3561372Y2153627D01*
X3559726Y2151481D01*
X3558690Y2148982D01*
X3558337Y2146300D01*
X3558690Y2143618D01*
X3559726Y2141119D01*
X3561372Y2138972D01*
X3563519Y2137326D01*
X3566018Y2136290D01*
X3568700Y2135937D01*
X3571382Y2136290D01*
X3573881Y2137326D01*
X3576028Y2138972D01*
X3577674Y2141119D01*
X3578709Y2143618D01*
X3579062Y2146300D01*
X3578709Y2148982D01*
X3577674Y2151481D01*
X3576028Y2153627D01*
X3573881Y2155274D01*
X3571382Y2156309D01*
X3568700Y2156662D01*
D02*
G37*
G36*
X3670300D02*
X3667618Y2156309D01*
X3665119Y2155274D01*
X3662972Y2153627D01*
X3661326Y2151481D01*
X3660290Y2148982D01*
X3659937Y2146300D01*
X3660290Y2143618D01*
X3661326Y2141119D01*
X3662972Y2138972D01*
X3665119Y2137326D01*
X3667618Y2136290D01*
X3670300Y2135937D01*
X3672982Y2136290D01*
X3675481Y2137326D01*
X3677627Y2138972D01*
X3679274Y2141119D01*
X3680309Y2143618D01*
X3680663Y2146300D01*
X3680309Y2148982D01*
X3679274Y2151481D01*
X3677627Y2153627D01*
X3675481Y2155274D01*
X3672982Y2156309D01*
X3670300Y2156662D01*
D02*
G37*
G36*
X3771900D02*
X3769218Y2156309D01*
X3766719Y2155274D01*
X3764572Y2153627D01*
X3762926Y2151481D01*
X3761890Y2148982D01*
X3761537Y2146300D01*
X3761890Y2143618D01*
X3762926Y2141119D01*
X3764572Y2138972D01*
X3766719Y2137326D01*
X3769218Y2136290D01*
X3771900Y2135937D01*
X3774582Y2136290D01*
X3777081Y2137326D01*
X3779227Y2138972D01*
X3780874Y2141119D01*
X3781909Y2143618D01*
X3782263Y2146300D01*
X3781909Y2148982D01*
X3780874Y2151481D01*
X3779227Y2153627D01*
X3777081Y2155274D01*
X3774582Y2156309D01*
X3771900Y2156662D01*
D02*
G37*
G36*
X3211830Y2157520D02*
X3210153Y2157299D01*
X3207406Y2156162D01*
X3205048Y2154352D01*
X3203238Y2151994D01*
X3202101Y2149247D01*
X3201880Y2147570D01*
X3211830D01*
Y2157520D01*
D02*
G37*
G36*
X3214370D02*
Y2147570D01*
X3224320D01*
X3224099Y2149247D01*
X3222962Y2151994D01*
X3221152Y2154352D01*
X3218794Y2156162D01*
X3216047Y2157299D01*
X3214370Y2157520D01*
D02*
G37*
G36*
X3695700Y2156662D02*
X3693018Y2156309D01*
X3690518Y2155274D01*
X3688372Y2153627D01*
X3686725Y2151481D01*
X3685690Y2148982D01*
X3685337Y2146300D01*
X3685690Y2143618D01*
X3686725Y2141119D01*
X3688372Y2138972D01*
X3690518Y2137326D01*
X3693018Y2136290D01*
X3695700Y2135937D01*
X3698382Y2136290D01*
X3700881Y2137326D01*
X3703027Y2138972D01*
X3704674Y2141119D01*
X3705710Y2143618D01*
X3706063Y2146300D01*
X3705710Y2148982D01*
X3704674Y2151481D01*
X3703027Y2153627D01*
X3700881Y2155274D01*
X3698382Y2156309D01*
X3695700Y2156662D01*
D02*
G37*
G36*
X3721100D02*
X3718418Y2156309D01*
X3715919Y2155274D01*
X3713772Y2153627D01*
X3712126Y2151481D01*
X3711090Y2148982D01*
X3710737Y2146300D01*
X3711090Y2143618D01*
X3712126Y2141119D01*
X3713772Y2138972D01*
X3715919Y2137326D01*
X3718418Y2136290D01*
X3721100Y2135937D01*
X3723782Y2136290D01*
X3726281Y2137326D01*
X3728427Y2138972D01*
X3730074Y2141119D01*
X3731109Y2143618D01*
X3731462Y2146300D01*
X3731109Y2148982D01*
X3730074Y2151481D01*
X3728427Y2153627D01*
X3726281Y2155274D01*
X3723782Y2156309D01*
X3721100Y2156662D01*
D02*
G37*
G36*
X3746500D02*
X3743818Y2156309D01*
X3741319Y2155274D01*
X3739172Y2153627D01*
X3737526Y2151481D01*
X3736490Y2148982D01*
X3736137Y2146300D01*
X3736490Y2143618D01*
X3737526Y2141119D01*
X3739172Y2138972D01*
X3741319Y2137326D01*
X3743818Y2136290D01*
X3746500Y2135937D01*
X3749182Y2136290D01*
X3751681Y2137326D01*
X3753828Y2138972D01*
X3755474Y2141119D01*
X3756509Y2143618D01*
X3756862Y2146300D01*
X3756509Y2148982D01*
X3755474Y2151481D01*
X3753828Y2153627D01*
X3751681Y2155274D01*
X3749182Y2156309D01*
X3746500Y2156662D01*
D02*
G37*
G36*
X3263900D02*
X3261218Y2156309D01*
X3258719Y2155274D01*
X3256572Y2153627D01*
X3254926Y2151481D01*
X3253890Y2148982D01*
X3253537Y2146300D01*
X3253890Y2143618D01*
X3254926Y2141119D01*
X3256572Y2138972D01*
X3258719Y2137326D01*
X3261218Y2136290D01*
X3263900Y2135937D01*
X3266582Y2136290D01*
X3269081Y2137326D01*
X3271227Y2138972D01*
X3272874Y2141119D01*
X3273909Y2143618D01*
X3274262Y2146300D01*
X3273909Y2148982D01*
X3272874Y2151481D01*
X3271227Y2153627D01*
X3269081Y2155274D01*
X3266582Y2156309D01*
X3263900Y2156662D01*
D02*
G37*
G36*
X3289300D02*
X3286618Y2156309D01*
X3284119Y2155274D01*
X3281972Y2153627D01*
X3280326Y2151481D01*
X3279290Y2148982D01*
X3278937Y2146300D01*
X3279290Y2143618D01*
X3280326Y2141119D01*
X3281972Y2138972D01*
X3284119Y2137326D01*
X3286618Y2136290D01*
X3289300Y2135937D01*
X3291982Y2136290D01*
X3294481Y2137326D01*
X3296628Y2138972D01*
X3298274Y2141119D01*
X3299309Y2143618D01*
X3299662Y2146300D01*
X3299309Y2148982D01*
X3298274Y2151481D01*
X3296628Y2153627D01*
X3294481Y2155274D01*
X3291982Y2156309D01*
X3289300Y2156662D01*
D02*
G37*
G36*
X3314700D02*
X3312018Y2156309D01*
X3309519Y2155274D01*
X3307372Y2153627D01*
X3305726Y2151481D01*
X3304690Y2148982D01*
X3304337Y2146300D01*
X3304690Y2143618D01*
X3305726Y2141119D01*
X3307372Y2138972D01*
X3309519Y2137326D01*
X3312018Y2136290D01*
X3314700Y2135937D01*
X3317382Y2136290D01*
X3319881Y2137326D01*
X3322027Y2138972D01*
X3323674Y2141119D01*
X3324709Y2143618D01*
X3325063Y2146300D01*
X3324709Y2148982D01*
X3323674Y2151481D01*
X3322027Y2153627D01*
X3319881Y2155274D01*
X3317382Y2156309D01*
X3314700Y2156662D01*
D02*
G37*
G36*
X3211830Y2145030D02*
X3201880D01*
X3202101Y2143353D01*
X3203238Y2140606D01*
X3205048Y2138248D01*
X3207406Y2136438D01*
X3210153Y2135300D01*
X3211830Y2135080D01*
Y2145030D01*
D02*
G37*
G36*
X3224320D02*
X3214370D01*
Y2135080D01*
X3216047Y2135300D01*
X3218794Y2136438D01*
X3221152Y2138248D01*
X3222962Y2140606D01*
X3224099Y2143353D01*
X3224320Y2145030D01*
D02*
G37*
G36*
X3238500Y2156662D02*
X3235818Y2156309D01*
X3233318Y2155274D01*
X3231172Y2153627D01*
X3229525Y2151481D01*
X3228490Y2148982D01*
X3228137Y2146300D01*
X3228490Y2143618D01*
X3229525Y2141119D01*
X3231172Y2138972D01*
X3233318Y2137326D01*
X3235818Y2136290D01*
X3238500Y2135937D01*
X3241182Y2136290D01*
X3243681Y2137326D01*
X3245827Y2138972D01*
X3247474Y2141119D01*
X3248510Y2143618D01*
X3248863Y2146300D01*
X3248510Y2148982D01*
X3247474Y2151481D01*
X3245827Y2153627D01*
X3243681Y2155274D01*
X3241182Y2156309D01*
X3238500Y2156662D01*
D02*
G37*
G36*
X3340100D02*
X3337418Y2156309D01*
X3334919Y2155274D01*
X3332773Y2153627D01*
X3331125Y2151481D01*
X3330090Y2148982D01*
X3329737Y2146300D01*
X3330090Y2143618D01*
X3331125Y2141119D01*
X3332773Y2138972D01*
X3334919Y2137326D01*
X3337418Y2136290D01*
X3340100Y2135937D01*
X3342782Y2136290D01*
X3345281Y2137326D01*
X3347427Y2138972D01*
X3349074Y2141119D01*
X3350109Y2143618D01*
X3350463Y2146300D01*
X3350109Y2148982D01*
X3349074Y2151481D01*
X3347427Y2153627D01*
X3345281Y2155274D01*
X3342782Y2156309D01*
X3340100Y2156662D01*
D02*
G37*
G36*
X3441700D02*
X3439018Y2156309D01*
X3436519Y2155274D01*
X3434372Y2153627D01*
X3432726Y2151481D01*
X3431690Y2148982D01*
X3431337Y2146300D01*
X3431690Y2143618D01*
X3432726Y2141119D01*
X3434372Y2138972D01*
X3436519Y2137326D01*
X3439018Y2136290D01*
X3441700Y2135937D01*
X3444382Y2136290D01*
X3446881Y2137326D01*
X3449027Y2138972D01*
X3450674Y2141119D01*
X3451709Y2143618D01*
X3452062Y2146300D01*
X3451709Y2148982D01*
X3450674Y2151481D01*
X3449027Y2153627D01*
X3446881Y2155274D01*
X3444382Y2156309D01*
X3441700Y2156662D01*
D02*
G37*
G36*
X3467100D02*
X3464418Y2156309D01*
X3461919Y2155274D01*
X3459772Y2153627D01*
X3458126Y2151481D01*
X3457090Y2148982D01*
X3456737Y2146300D01*
X3457090Y2143618D01*
X3458126Y2141119D01*
X3459772Y2138972D01*
X3461919Y2137326D01*
X3464418Y2136290D01*
X3467100Y2135937D01*
X3469782Y2136290D01*
X3472281Y2137326D01*
X3474427Y2138972D01*
X3476074Y2141119D01*
X3477109Y2143618D01*
X3477462Y2146300D01*
X3477109Y2148982D01*
X3476074Y2151481D01*
X3474427Y2153627D01*
X3472281Y2155274D01*
X3469782Y2156309D01*
X3467100Y2156662D01*
D02*
G37*
G36*
X3492500D02*
X3489818Y2156309D01*
X3487319Y2155274D01*
X3485172Y2153627D01*
X3483526Y2151481D01*
X3482490Y2148982D01*
X3482137Y2146300D01*
X3482490Y2143618D01*
X3483526Y2141119D01*
X3485172Y2138972D01*
X3487319Y2137326D01*
X3489818Y2136290D01*
X3492500Y2135937D01*
X3495182Y2136290D01*
X3497681Y2137326D01*
X3499827Y2138972D01*
X3501474Y2141119D01*
X3502509Y2143618D01*
X3502863Y2146300D01*
X3502509Y2148982D01*
X3501474Y2151481D01*
X3499827Y2153627D01*
X3497681Y2155274D01*
X3495182Y2156309D01*
X3492500Y2156662D01*
D02*
G37*
G36*
X3365500D02*
X3362818Y2156309D01*
X3360319Y2155274D01*
X3358172Y2153627D01*
X3356526Y2151481D01*
X3355490Y2148982D01*
X3355137Y2146300D01*
X3355490Y2143618D01*
X3356526Y2141119D01*
X3358172Y2138972D01*
X3360319Y2137326D01*
X3362818Y2136290D01*
X3365500Y2135937D01*
X3368182Y2136290D01*
X3370681Y2137326D01*
X3372827Y2138972D01*
X3374474Y2141119D01*
X3375509Y2143618D01*
X3375862Y2146300D01*
X3375509Y2148982D01*
X3374474Y2151481D01*
X3372827Y2153627D01*
X3370681Y2155274D01*
X3368182Y2156309D01*
X3365500Y2156662D01*
D02*
G37*
G36*
X3390900D02*
X3388218Y2156309D01*
X3385719Y2155274D01*
X3383572Y2153627D01*
X3381926Y2151481D01*
X3380890Y2148982D01*
X3380537Y2146300D01*
X3380890Y2143618D01*
X3381926Y2141119D01*
X3383572Y2138972D01*
X3385719Y2137326D01*
X3388218Y2136290D01*
X3390900Y2135937D01*
X3393582Y2136290D01*
X3396081Y2137326D01*
X3398228Y2138972D01*
X3399874Y2141119D01*
X3400909Y2143618D01*
X3401263Y2146300D01*
X3400909Y2148982D01*
X3399874Y2151481D01*
X3398228Y2153627D01*
X3396081Y2155274D01*
X3393582Y2156309D01*
X3390900Y2156662D01*
D02*
G37*
G36*
X3416300D02*
X3413618Y2156309D01*
X3411118Y2155274D01*
X3408972Y2153627D01*
X3407326Y2151481D01*
X3406290Y2148982D01*
X3405937Y2146300D01*
X3406290Y2143618D01*
X3407326Y2141119D01*
X3408972Y2138972D01*
X3411118Y2137326D01*
X3413618Y2136290D01*
X3416300Y2135937D01*
X3418982Y2136290D01*
X3421481Y2137326D01*
X3423627Y2138972D01*
X3425274Y2141119D01*
X3426310Y2143618D01*
X3426663Y2146300D01*
X3426310Y2148982D01*
X3425274Y2151481D01*
X3423627Y2153627D01*
X3421481Y2155274D01*
X3418982Y2156309D01*
X3416300Y2156662D01*
D02*
G37*
G36*
X3931750Y1901494D02*
Y1892300D01*
X3940944D01*
X3940749Y1893781D01*
X3939687Y1896345D01*
X3937997Y1898547D01*
X3935795Y1900237D01*
X3933232Y1901299D01*
X3931750Y1901494D01*
D02*
G37*
G36*
X3275080Y1913336D02*
X3272594Y1913009D01*
X3270277Y1912049D01*
X3268287Y1910522D01*
X3266761Y1908533D01*
X3265801Y1906216D01*
X3265474Y1903730D01*
X3265801Y1901244D01*
X3266761Y1898927D01*
X3268287Y1896937D01*
X3270277Y1895411D01*
X3272594Y1894451D01*
X3275080Y1894124D01*
X3277566Y1894451D01*
X3279883Y1895411D01*
X3281872Y1896937D01*
X3283399Y1898927D01*
X3284359Y1901244D01*
X3284686Y1903730D01*
X3284359Y1906216D01*
X3283399Y1908533D01*
X3281872Y1910522D01*
X3279883Y1912049D01*
X3277566Y1913009D01*
X3275080Y1913336D01*
D02*
G37*
G36*
X3300480D02*
X3297993Y1913009D01*
X3295677Y1912049D01*
X3293687Y1910522D01*
X3292161Y1908533D01*
X3291201Y1906216D01*
X3290874Y1903730D01*
X3291201Y1901244D01*
X3292161Y1898927D01*
X3293687Y1896937D01*
X3295677Y1895411D01*
X3297993Y1894451D01*
X3300480Y1894124D01*
X3302966Y1894451D01*
X3305283Y1895411D01*
X3307272Y1896937D01*
X3308799Y1898927D01*
X3309759Y1901244D01*
X3310086Y1903730D01*
X3309759Y1906216D01*
X3308799Y1908533D01*
X3307272Y1910522D01*
X3305283Y1912049D01*
X3302966Y1913009D01*
X3300480Y1913336D01*
D02*
G37*
G36*
X3905080Y1900636D02*
X3902594Y1900309D01*
X3900277Y1899349D01*
X3898287Y1897823D01*
X3896761Y1895833D01*
X3895801Y1893516D01*
X3895474Y1891030D01*
X3895801Y1888544D01*
X3896761Y1886227D01*
X3898287Y1884237D01*
X3900277Y1882711D01*
X3902594Y1881751D01*
X3905080Y1881424D01*
X3907566Y1881751D01*
X3909883Y1882711D01*
X3911873Y1884237D01*
X3913399Y1886227D01*
X3914359Y1888544D01*
X3914686Y1891030D01*
X3914359Y1893516D01*
X3913399Y1895833D01*
X3911873Y1897823D01*
X3909883Y1899349D01*
X3907566Y1900309D01*
X3905080Y1900636D01*
D02*
G37*
G36*
X3619500Y1900242D02*
X3614420D01*
X3612365Y1899971D01*
X3610449Y1899178D01*
X3608804Y1897916D01*
X3607542Y1896271D01*
X3606748Y1894355D01*
X3606478Y1892300D01*
X3606748Y1890244D01*
X3607542Y1888329D01*
X3608804Y1886684D01*
X3610449Y1885422D01*
X3612365Y1884628D01*
X3614420Y1884358D01*
X3619500D01*
X3621555Y1884628D01*
X3623471Y1885422D01*
X3625116Y1886684D01*
X3626378Y1888329D01*
X3627171Y1890244D01*
X3627442Y1892300D01*
X3627171Y1894355D01*
X3626378Y1896271D01*
X3625116Y1897916D01*
X3623471Y1899178D01*
X3621555Y1899971D01*
X3619500Y1900242D01*
D02*
G37*
G36*
X3929210Y1901494D02*
X3927728Y1901299D01*
X3925164Y1900237D01*
X3922963Y1898547D01*
X3921273Y1896345D01*
X3920211Y1893781D01*
X3920016Y1892300D01*
X3929210D01*
Y1901494D01*
D02*
G37*
G36*
X3940944Y1915160D02*
X3931750D01*
Y1905966D01*
X3933232Y1906161D01*
X3935795Y1907223D01*
X3937997Y1908913D01*
X3939687Y1911114D01*
X3940749Y1913678D01*
X3940944Y1915160D01*
D02*
G37*
G36*
X3929210Y1926894D02*
X3927728Y1926699D01*
X3925164Y1925636D01*
X3922963Y1923947D01*
X3921273Y1921745D01*
X3920211Y1919181D01*
X3920016Y1917700D01*
X3929210D01*
Y1926894D01*
D02*
G37*
G36*
X3931750Y1926894D02*
Y1917700D01*
X3940944D01*
X3940749Y1919181D01*
X3939687Y1921745D01*
X3937997Y1923947D01*
X3935795Y1925636D01*
X3933232Y1926699D01*
X3931750Y1926894D01*
D02*
G37*
G36*
X3275080Y1938736D02*
X3272594Y1938409D01*
X3270277Y1937449D01*
X3268287Y1935923D01*
X3266761Y1933933D01*
X3265801Y1931616D01*
X3265474Y1929130D01*
X3265801Y1926644D01*
X3266761Y1924327D01*
X3268287Y1922337D01*
X3270277Y1920811D01*
X3272594Y1919851D01*
X3275080Y1919524D01*
X3277566Y1919851D01*
X3279883Y1920811D01*
X3281872Y1922337D01*
X3283399Y1924327D01*
X3284359Y1926644D01*
X3284686Y1929130D01*
X3284359Y1931616D01*
X3283399Y1933933D01*
X3281872Y1935923D01*
X3279883Y1937449D01*
X3277566Y1938409D01*
X3275080Y1938736D01*
D02*
G37*
G36*
X3929210Y1915160D02*
X3920016D01*
X3920211Y1913678D01*
X3921273Y1911114D01*
X3922963Y1908913D01*
X3925164Y1907223D01*
X3927728Y1906161D01*
X3929210Y1905966D01*
Y1915160D01*
D02*
G37*
G36*
X3905080Y1926036D02*
X3902594Y1925709D01*
X3900277Y1924749D01*
X3898287Y1923223D01*
X3896761Y1921233D01*
X3895801Y1918916D01*
X3895474Y1916430D01*
X3895801Y1913944D01*
X3896761Y1911627D01*
X3898287Y1909637D01*
X3900277Y1908111D01*
X3902594Y1907151D01*
X3905080Y1906824D01*
X3907566Y1907151D01*
X3909883Y1908111D01*
X3911873Y1909637D01*
X3913399Y1911627D01*
X3914359Y1913944D01*
X3914686Y1916430D01*
X3914359Y1918916D01*
X3913399Y1921233D01*
X3911873Y1923223D01*
X3909883Y1924749D01*
X3907566Y1925709D01*
X3905080Y1926036D01*
D02*
G37*
G36*
X3619500Y1925642D02*
X3614420D01*
X3612365Y1925371D01*
X3610449Y1924578D01*
X3608804Y1923316D01*
X3607542Y1921671D01*
X3606748Y1919755D01*
X3606478Y1917700D01*
X3606748Y1915644D01*
X3607542Y1913729D01*
X3608804Y1912084D01*
X3610449Y1910822D01*
X3612365Y1910029D01*
X3614420Y1909758D01*
X3619500D01*
X3621555Y1910029D01*
X3623471Y1910822D01*
X3625116Y1912084D01*
X3626378Y1913729D01*
X3627171Y1915644D01*
X3627442Y1917700D01*
X3627171Y1919755D01*
X3626378Y1921671D01*
X3625116Y1923316D01*
X3623471Y1924578D01*
X3621555Y1925371D01*
X3619500Y1925642D01*
D02*
G37*
G36*
X3940944Y1864360D02*
X3931750D01*
Y1855166D01*
X3933232Y1855361D01*
X3935795Y1856423D01*
X3937997Y1858113D01*
X3939687Y1860314D01*
X3940749Y1862878D01*
X3940944Y1864360D01*
D02*
G37*
G36*
X3929210D02*
X3920016D01*
X3920211Y1862878D01*
X3921273Y1860314D01*
X3922963Y1858113D01*
X3925164Y1856423D01*
X3927728Y1855361D01*
X3929210Y1855166D01*
Y1864360D01*
D02*
G37*
G36*
X3905080Y1875236D02*
X3902594Y1874909D01*
X3900277Y1873949D01*
X3898287Y1872422D01*
X3896761Y1870433D01*
X3895801Y1868116D01*
X3895474Y1865630D01*
X3895801Y1863144D01*
X3896761Y1860827D01*
X3898287Y1858837D01*
X3900277Y1857311D01*
X3902594Y1856351D01*
X3905080Y1856024D01*
X3907566Y1856351D01*
X3909883Y1857311D01*
X3911873Y1858837D01*
X3913399Y1860827D01*
X3914359Y1863144D01*
X3914686Y1865630D01*
X3914359Y1868116D01*
X3913399Y1870433D01*
X3911873Y1872422D01*
X3909883Y1873949D01*
X3907566Y1874909D01*
X3905080Y1875236D01*
D02*
G37*
G36*
X3931750Y1850694D02*
Y1841500D01*
X3940944D01*
X3940749Y1842981D01*
X3939687Y1845545D01*
X3937997Y1847747D01*
X3935795Y1849436D01*
X3933232Y1850499D01*
X3931750Y1850694D01*
D02*
G37*
G36*
X3275080Y1862536D02*
X3272594Y1862209D01*
X3270277Y1861249D01*
X3268287Y1859722D01*
X3266761Y1857733D01*
X3265801Y1855416D01*
X3265474Y1852930D01*
X3265801Y1850444D01*
X3266761Y1848127D01*
X3268287Y1846137D01*
X3270277Y1844611D01*
X3272594Y1843651D01*
X3275080Y1843324D01*
X3277566Y1843651D01*
X3279883Y1844611D01*
X3281872Y1846137D01*
X3283399Y1848127D01*
X3284359Y1850444D01*
X3284686Y1852930D01*
X3284359Y1855416D01*
X3283399Y1857733D01*
X3281872Y1859722D01*
X3279883Y1861249D01*
X3277566Y1862209D01*
X3275080Y1862536D01*
D02*
G37*
G36*
X3300480D02*
X3297993Y1862209D01*
X3295677Y1861249D01*
X3293687Y1859722D01*
X3292161Y1857733D01*
X3291201Y1855416D01*
X3290874Y1852930D01*
X3291201Y1850444D01*
X3292161Y1848127D01*
X3293687Y1846137D01*
X3295677Y1844611D01*
X3297993Y1843651D01*
X3300480Y1843324D01*
X3302966Y1843651D01*
X3305283Y1844611D01*
X3307272Y1846137D01*
X3308799Y1848127D01*
X3309759Y1850444D01*
X3310086Y1852930D01*
X3309759Y1855416D01*
X3308799Y1857733D01*
X3307272Y1859722D01*
X3305283Y1861249D01*
X3302966Y1862209D01*
X3300480Y1862536D01*
D02*
G37*
G36*
X3619500Y1874842D02*
X3614420D01*
X3612365Y1874571D01*
X3610449Y1873778D01*
X3608804Y1872516D01*
X3607542Y1870871D01*
X3606748Y1868955D01*
X3606478Y1866900D01*
X3606748Y1864844D01*
X3607542Y1862929D01*
X3608804Y1861284D01*
X3610449Y1860022D01*
X3612365Y1859229D01*
X3614420Y1858958D01*
X3619500D01*
X3621555Y1859229D01*
X3623471Y1860022D01*
X3625116Y1861284D01*
X3626378Y1862929D01*
X3627171Y1864844D01*
X3627442Y1866900D01*
X3627171Y1868955D01*
X3626378Y1870871D01*
X3625116Y1872516D01*
X3623471Y1873778D01*
X3621555Y1874571D01*
X3619500Y1874842D01*
D02*
G37*
G36*
X3300480Y1887936D02*
X3297993Y1887609D01*
X3295677Y1886649D01*
X3293687Y1885123D01*
X3292161Y1883133D01*
X3291201Y1880816D01*
X3290874Y1878330D01*
X3291201Y1875844D01*
X3292161Y1873527D01*
X3293687Y1871537D01*
X3295677Y1870011D01*
X3297993Y1869051D01*
X3300480Y1868724D01*
X3302966Y1869051D01*
X3305283Y1870011D01*
X3307272Y1871537D01*
X3308799Y1873527D01*
X3309759Y1875844D01*
X3310086Y1878330D01*
X3309759Y1880816D01*
X3308799Y1883133D01*
X3307272Y1885123D01*
X3305283Y1886649D01*
X3302966Y1887609D01*
X3300480Y1887936D01*
D02*
G37*
G36*
X3940944Y1889760D02*
X3931750D01*
Y1880566D01*
X3933232Y1880761D01*
X3935795Y1881823D01*
X3937997Y1883513D01*
X3939687Y1885714D01*
X3940749Y1888278D01*
X3940944Y1889760D01*
D02*
G37*
G36*
X3929210D02*
X3920016D01*
X3920211Y1888278D01*
X3921273Y1885714D01*
X3922963Y1883513D01*
X3925164Y1881823D01*
X3927728Y1880761D01*
X3929210Y1880566D01*
Y1889760D01*
D02*
G37*
G36*
Y1876094D02*
X3927728Y1875899D01*
X3925164Y1874836D01*
X3922963Y1873147D01*
X3921273Y1870945D01*
X3920211Y1868381D01*
X3920016Y1866900D01*
X3929210D01*
Y1876094D01*
D02*
G37*
G36*
X3931750Y1876094D02*
Y1866900D01*
X3940944D01*
X3940749Y1868381D01*
X3939687Y1870945D01*
X3937997Y1873147D01*
X3935795Y1874836D01*
X3933232Y1875899D01*
X3931750Y1876094D01*
D02*
G37*
G36*
X3275080Y1887936D02*
X3272594Y1887609D01*
X3270277Y1886649D01*
X3268287Y1885123D01*
X3266761Y1883133D01*
X3265801Y1880816D01*
X3265474Y1878330D01*
X3265801Y1875844D01*
X3266761Y1873527D01*
X3268287Y1871537D01*
X3270277Y1870011D01*
X3272594Y1869051D01*
X3275080Y1868724D01*
X3277566Y1869051D01*
X3279883Y1870011D01*
X3281872Y1871537D01*
X3283399Y1873527D01*
X3284359Y1875844D01*
X3284686Y1878330D01*
X3284359Y1880816D01*
X3283399Y1883133D01*
X3281872Y1885123D01*
X3279883Y1886649D01*
X3277566Y1887609D01*
X3275080Y1887936D01*
D02*
G37*
G36*
X3284604Y2014854D02*
X3265556D01*
Y1995806D01*
X3284604D01*
Y2014854D01*
D02*
G37*
G36*
X3619500Y2027242D02*
X3614420D01*
X3612365Y2026971D01*
X3610449Y2026178D01*
X3608804Y2024916D01*
X3607542Y2023271D01*
X3606748Y2021355D01*
X3606478Y2019300D01*
X3606748Y2017244D01*
X3607542Y2015329D01*
X3608804Y2013684D01*
X3610449Y2012422D01*
X3612365Y2011629D01*
X3614420Y2011358D01*
X3619500D01*
X3621555Y2011629D01*
X3623471Y2012422D01*
X3625116Y2013684D01*
X3626378Y2015329D01*
X3627171Y2017244D01*
X3627442Y2019300D01*
X3627171Y2021355D01*
X3626378Y2023271D01*
X3625116Y2024916D01*
X3623471Y2026178D01*
X3621555Y2026971D01*
X3619500Y2027242D01*
D02*
G37*
G36*
X3930480Y2053036D02*
X3927993Y2052709D01*
X3925677Y2051749D01*
X3923687Y2050222D01*
X3922161Y2048233D01*
X3921201Y2045916D01*
X3920874Y2043430D01*
X3921201Y2040944D01*
X3921702Y2039734D01*
X3916636Y2034667D01*
X3914604Y2035225D01*
Y2052954D01*
X3895556D01*
Y2034273D01*
X3889330D01*
X3887955Y2033999D01*
X3886789Y2033221D01*
X3837539Y1983970D01*
X3836760Y1982805D01*
X3836487Y1981430D01*
Y1784918D01*
X3828683Y1777114D01*
X3827815Y1776941D01*
X3826318Y1775941D01*
X3825318Y1774445D01*
X3824967Y1772680D01*
X3825318Y1770915D01*
X3826318Y1769418D01*
X3827815Y1768418D01*
X3829580Y1768067D01*
X3830312Y1768213D01*
X3831111Y1766807D01*
X3831241Y1766326D01*
X3830318Y1764945D01*
X3829967Y1763180D01*
X3830318Y1761415D01*
X3831318Y1759918D01*
X3832815Y1758918D01*
X3834580Y1758567D01*
X3835278Y1758706D01*
X3835311Y1758713D01*
X3835580Y1758759D01*
X3836716Y1756920D01*
X3836636Y1756797D01*
X3836568Y1756691D01*
X3836473Y1756549D01*
X3835569Y1755195D01*
X3835217Y1753430D01*
X3835569Y1751665D01*
X3836568Y1750168D01*
X3838065Y1749168D01*
X3839830Y1748817D01*
X3841595Y1749168D01*
X3843091Y1750168D01*
X3844091Y1751665D01*
X3844264Y1752533D01*
X3862621Y1770889D01*
X3863399Y1772055D01*
X3863673Y1773430D01*
Y1948942D01*
X3891068Y1976337D01*
X3897965D01*
X3898655Y1974305D01*
X3898287Y1974023D01*
X3896761Y1972033D01*
X3895801Y1969716D01*
X3895474Y1967230D01*
X3895801Y1964744D01*
X3896761Y1962427D01*
X3898287Y1960437D01*
X3898460Y1960305D01*
X3897770Y1958273D01*
X3889330D01*
X3887955Y1957999D01*
X3886789Y1957220D01*
X3867539Y1937970D01*
X3866760Y1936805D01*
X3866487Y1935430D01*
Y1769918D01*
X3844495Y1747926D01*
X3843315Y1747691D01*
X3841818Y1746691D01*
X3840818Y1745195D01*
X3840467Y1743430D01*
X3840818Y1741665D01*
X3841818Y1740168D01*
X3843315Y1739168D01*
X3845080Y1738817D01*
X3846845Y1739168D01*
X3848341Y1740168D01*
X3849341Y1741665D01*
X3849576Y1742845D01*
X3872621Y1765889D01*
X3873399Y1767055D01*
X3873673Y1768430D01*
Y1933942D01*
X3890818Y1951087D01*
X3898161D01*
X3898851Y1949055D01*
X3898287Y1948622D01*
X3896761Y1946633D01*
X3895801Y1944316D01*
X3895474Y1941830D01*
X3895801Y1939344D01*
X3896761Y1937027D01*
X3898287Y1935037D01*
X3900277Y1933511D01*
X3902594Y1932551D01*
X3905080Y1932224D01*
X3907566Y1932551D01*
X3909883Y1933511D01*
X3911873Y1935037D01*
X3913399Y1937027D01*
X3914359Y1939344D01*
X3914686Y1941830D01*
X3914359Y1944316D01*
X3913399Y1946633D01*
X3911873Y1948622D01*
X3911309Y1949055D01*
X3911999Y1951087D01*
X3917930D01*
X3919305Y1951360D01*
X3920471Y1952139D01*
X3926784Y1958452D01*
X3927993Y1957951D01*
X3930480Y1957624D01*
X3932966Y1957951D01*
X3935283Y1958911D01*
X3937273Y1960437D01*
X3938799Y1962427D01*
X3939759Y1964744D01*
X3940086Y1967230D01*
X3939759Y1969716D01*
X3938799Y1972033D01*
X3937273Y1974023D01*
X3935283Y1975549D01*
X3932966Y1976509D01*
X3930480Y1976836D01*
X3927993Y1976509D01*
X3925677Y1975549D01*
X3923687Y1974023D01*
X3922161Y1972033D01*
X3921201Y1969716D01*
X3920874Y1967230D01*
X3921201Y1964744D01*
X3921702Y1963534D01*
X3916442Y1958273D01*
X3912390D01*
X3911700Y1960305D01*
X3911873Y1960437D01*
X3913399Y1962427D01*
X3914359Y1964744D01*
X3914686Y1967230D01*
X3914359Y1969716D01*
X3913399Y1972033D01*
X3911873Y1974023D01*
X3911505Y1974305D01*
X3912194Y1976337D01*
X3917780D01*
X3919155Y1976610D01*
X3920320Y1977389D01*
X3926784Y1983852D01*
X3927993Y1983351D01*
X3930480Y1983024D01*
X3932966Y1983351D01*
X3935283Y1984311D01*
X3937273Y1985837D01*
X3938799Y1987827D01*
X3939759Y1990144D01*
X3940086Y1992630D01*
X3939759Y1995116D01*
X3938799Y1997433D01*
X3937273Y1999422D01*
X3935283Y2000949D01*
X3932966Y2001909D01*
X3930480Y2002236D01*
X3927993Y2001909D01*
X3925677Y2000949D01*
X3923687Y1999422D01*
X3922161Y1997433D01*
X3921201Y1995116D01*
X3920874Y1992630D01*
X3921201Y1990144D01*
X3921702Y1988934D01*
X3916292Y1983523D01*
X3912194D01*
X3911505Y1985555D01*
X3911873Y1985837D01*
X3913399Y1987827D01*
X3914359Y1990144D01*
X3914686Y1992630D01*
X3914359Y1995116D01*
X3913399Y1997433D01*
X3911873Y1999422D01*
X3911374Y1999805D01*
X3912064Y2001837D01*
X3917880D01*
X3919255Y2002110D01*
X3920421Y2002889D01*
X3926784Y2009252D01*
X3927993Y2008751D01*
X3930480Y2008424D01*
X3932966Y2008751D01*
X3935283Y2009711D01*
X3937273Y2011237D01*
X3938799Y2013227D01*
X3939759Y2015544D01*
X3940086Y2018030D01*
X3939759Y2020516D01*
X3938799Y2022833D01*
X3937273Y2024823D01*
X3935283Y2026349D01*
X3932966Y2027309D01*
X3930480Y2027636D01*
X3927993Y2027309D01*
X3925677Y2026349D01*
X3923687Y2024823D01*
X3922161Y2022833D01*
X3921201Y2020516D01*
X3920874Y2018030D01*
X3921201Y2015544D01*
X3921702Y2014334D01*
X3916392Y2009023D01*
X3912325D01*
X3911635Y2011055D01*
X3911873Y2011237D01*
X3913399Y2013227D01*
X3914359Y2015544D01*
X3914686Y2018030D01*
X3914359Y2020516D01*
X3913399Y2022833D01*
X3911873Y2024823D01*
X3911570Y2025055D01*
X3912260Y2027087D01*
X3917730D01*
X3919105Y2027360D01*
X3920270Y2028139D01*
X3926784Y2034652D01*
X3927993Y2034151D01*
X3930480Y2033824D01*
X3932966Y2034151D01*
X3935283Y2035111D01*
X3937273Y2036637D01*
X3938799Y2038627D01*
X3939759Y2040944D01*
X3940086Y2043430D01*
X3939759Y2045916D01*
X3938799Y2048233D01*
X3937273Y2050222D01*
X3935283Y2051749D01*
X3932966Y2052709D01*
X3930480Y2053036D01*
D02*
G37*
G36*
X3300480Y1989536D02*
X3297993Y1989209D01*
X3295677Y1988249D01*
X3293687Y1986723D01*
X3292161Y1984733D01*
X3291201Y1982416D01*
X3290874Y1979930D01*
X3291201Y1977444D01*
X3292161Y1975127D01*
X3293687Y1973137D01*
X3295677Y1971611D01*
X3297993Y1970651D01*
X3300480Y1970324D01*
X3302966Y1970651D01*
X3305283Y1971611D01*
X3307272Y1973137D01*
X3308799Y1975127D01*
X3309759Y1977444D01*
X3310086Y1979930D01*
X3309759Y1982416D01*
X3308799Y1984733D01*
X3307272Y1986723D01*
X3305283Y1988249D01*
X3302966Y1989209D01*
X3300480Y1989536D01*
D02*
G37*
G36*
X3619500Y2001842D02*
X3614420D01*
X3612365Y2001571D01*
X3610449Y2000778D01*
X3608804Y1999516D01*
X3607542Y1997871D01*
X3606748Y1995955D01*
X3606478Y1993900D01*
X3606748Y1991844D01*
X3607542Y1989929D01*
X3608804Y1988284D01*
X3610449Y1987022D01*
X3612365Y1986228D01*
X3614420Y1985958D01*
X3619500D01*
X3621555Y1986228D01*
X3623471Y1987022D01*
X3625116Y1988284D01*
X3626378Y1989929D01*
X3627171Y1991844D01*
X3627442Y1993900D01*
X3627171Y1995955D01*
X3626378Y1997871D01*
X3625116Y1999516D01*
X3623471Y2000778D01*
X3621555Y2001571D01*
X3619500Y2001842D01*
D02*
G37*
G36*
X3300480Y2014936D02*
X3297993Y2014609D01*
X3295677Y2013649D01*
X3293687Y2012122D01*
X3292161Y2010133D01*
X3291201Y2007816D01*
X3290874Y2005330D01*
X3291201Y2002844D01*
X3292161Y2000527D01*
X3293687Y1998537D01*
X3295677Y1997011D01*
X3297993Y1996051D01*
X3300480Y1995724D01*
X3302966Y1996051D01*
X3305283Y1997011D01*
X3307272Y1998537D01*
X3308799Y2000527D01*
X3309759Y2002844D01*
X3310086Y2005330D01*
X3309759Y2007816D01*
X3308799Y2010133D01*
X3307272Y2012122D01*
X3305283Y2013649D01*
X3302966Y2014609D01*
X3300480Y2014936D01*
D02*
G37*
G36*
X3619500Y2052642D02*
X3614420D01*
X3612365Y2052371D01*
X3610449Y2051578D01*
X3608804Y2050316D01*
X3607542Y2048671D01*
X3606748Y2046755D01*
X3606478Y2044700D01*
X3606748Y2042644D01*
X3607542Y2040729D01*
X3608804Y2039084D01*
X3610449Y2037822D01*
X3612365Y2037029D01*
X3614420Y2036758D01*
X3619500D01*
X3621555Y2037029D01*
X3623471Y2037822D01*
X3625116Y2039084D01*
X3626378Y2040729D01*
X3627171Y2042644D01*
X3627442Y2044700D01*
X3627171Y2046755D01*
X3626378Y2048671D01*
X3625116Y2050316D01*
X3623471Y2051578D01*
X3621555Y2052371D01*
X3619500Y2052642D01*
D02*
G37*
G36*
X3821430Y2128372D02*
X3818535Y2128145D01*
X3814473Y2127169D01*
X3810613Y2125571D01*
X3807051Y2123388D01*
X3803875Y2120675D01*
X3801162Y2117498D01*
X3798979Y2113936D01*
X3797380Y2110077D01*
X3796405Y2106015D01*
X3796177Y2103120D01*
X3821430D01*
Y2128372D01*
D02*
G37*
G36*
X3823970D02*
Y2103120D01*
X3849222D01*
X3848995Y2106015D01*
X3848019Y2110077D01*
X3846421Y2113936D01*
X3844238Y2117498D01*
X3841525Y2120675D01*
X3838348Y2123388D01*
X3834786Y2125571D01*
X3830927Y2127169D01*
X3826865Y2128145D01*
X3823970Y2128372D01*
D02*
G37*
G36*
X3161030Y2132330D02*
X3135777D01*
X3136005Y2129435D01*
X3136980Y2125373D01*
X3138579Y2121514D01*
X3140762Y2117952D01*
X3143475Y2114775D01*
X3146652Y2112062D01*
X3150214Y2109879D01*
X3154073Y2108280D01*
X3158135Y2107305D01*
X3161030Y2107077D01*
Y2132330D01*
D02*
G37*
G36*
X3619500Y2078042D02*
X3614420D01*
X3612365Y2077771D01*
X3610449Y2076978D01*
X3608804Y2075716D01*
X3607542Y2074071D01*
X3606748Y2072155D01*
X3606478Y2070100D01*
X3606748Y2068044D01*
X3607542Y2066129D01*
X3608804Y2064484D01*
X3610449Y2063222D01*
X3612365Y2062428D01*
X3614420Y2062158D01*
X3619500D01*
X3621555Y2062428D01*
X3623471Y2063222D01*
X3625116Y2064484D01*
X3626378Y2066129D01*
X3627171Y2068044D01*
X3627442Y2070100D01*
X3627171Y2072155D01*
X3626378Y2074071D01*
X3625116Y2075716D01*
X3623471Y2076978D01*
X3621555Y2077771D01*
X3619500Y2078042D01*
D02*
G37*
G36*
X3821430Y2100580D02*
X3796177D01*
X3796405Y2097685D01*
X3797380Y2093623D01*
X3798979Y2089763D01*
X3801162Y2086201D01*
X3803875Y2083025D01*
X3807051Y2080312D01*
X3810613Y2078129D01*
X3814473Y2076530D01*
X3818535Y2075555D01*
X3821430Y2075327D01*
Y2100580D01*
D02*
G37*
G36*
X3849222D02*
X3823970D01*
Y2075327D01*
X3826865Y2075555D01*
X3830927Y2076530D01*
X3834786Y2078129D01*
X3838348Y2080312D01*
X3841525Y2083025D01*
X3844238Y2086201D01*
X3846421Y2089763D01*
X3848019Y2093623D01*
X3848995Y2097685D01*
X3849222Y2100580D01*
D02*
G37*
G36*
X3619500Y1951042D02*
X3614420D01*
X3612365Y1950771D01*
X3610449Y1949978D01*
X3608804Y1948716D01*
X3607542Y1947071D01*
X3606748Y1945155D01*
X3606478Y1943100D01*
X3606748Y1941044D01*
X3607542Y1939129D01*
X3608804Y1937484D01*
X3610449Y1936222D01*
X3612365Y1935428D01*
X3614420Y1935158D01*
X3619500D01*
X3621555Y1935428D01*
X3623471Y1936222D01*
X3625116Y1937484D01*
X3626378Y1939129D01*
X3627171Y1941044D01*
X3627442Y1943100D01*
X3627171Y1945155D01*
X3626378Y1947071D01*
X3625116Y1948716D01*
X3623471Y1949978D01*
X3621555Y1950771D01*
X3619500Y1951042D01*
D02*
G37*
G36*
X3929210Y1952294D02*
X3927728Y1952099D01*
X3925164Y1951037D01*
X3922963Y1949347D01*
X3921273Y1947145D01*
X3920211Y1944581D01*
X3920016Y1943100D01*
X3929210D01*
Y1952294D01*
D02*
G37*
G36*
X3931750Y1952294D02*
Y1943100D01*
X3940944D01*
X3940749Y1944581D01*
X3939687Y1947145D01*
X3937997Y1949347D01*
X3935795Y1951037D01*
X3933232Y1952099D01*
X3931750Y1952294D01*
D02*
G37*
G36*
X3300480Y1938736D02*
X3297993Y1938409D01*
X3295677Y1937449D01*
X3293687Y1935923D01*
X3292161Y1933933D01*
X3291201Y1931616D01*
X3290874Y1929130D01*
X3291201Y1926644D01*
X3292161Y1924327D01*
X3293687Y1922337D01*
X3295677Y1920811D01*
X3297993Y1919851D01*
X3300480Y1919524D01*
X3302966Y1919851D01*
X3305283Y1920811D01*
X3307272Y1922337D01*
X3308799Y1924327D01*
X3309759Y1926644D01*
X3310086Y1929130D01*
X3309759Y1931616D01*
X3308799Y1933933D01*
X3307272Y1935923D01*
X3305283Y1937449D01*
X3302966Y1938409D01*
X3300480Y1938736D01*
D02*
G37*
G36*
X3940944Y1940560D02*
X3931750D01*
Y1931366D01*
X3933232Y1931561D01*
X3935795Y1932623D01*
X3937997Y1934313D01*
X3939687Y1936514D01*
X3940749Y1939078D01*
X3940944Y1940560D01*
D02*
G37*
G36*
X3929210D02*
X3920016D01*
X3920211Y1939078D01*
X3921273Y1936514D01*
X3922963Y1934313D01*
X3925164Y1932623D01*
X3927728Y1931561D01*
X3929210Y1931366D01*
Y1940560D01*
D02*
G37*
G36*
X3273810Y1953260D02*
X3264616D01*
X3264811Y1951778D01*
X3265873Y1949214D01*
X3267563Y1947013D01*
X3269764Y1945323D01*
X3272328Y1944261D01*
X3273810Y1944066D01*
Y1953260D01*
D02*
G37*
G36*
X3276350Y1964994D02*
Y1955800D01*
X3285544D01*
X3285349Y1957281D01*
X3284286Y1959845D01*
X3282597Y1962047D01*
X3280395Y1963737D01*
X3277831Y1964799D01*
X3276350Y1964994D01*
D02*
G37*
G36*
X3619500Y1976442D02*
X3614420D01*
X3612365Y1976171D01*
X3610449Y1975378D01*
X3608804Y1974116D01*
X3607542Y1972471D01*
X3606748Y1970555D01*
X3606478Y1968500D01*
X3606748Y1966444D01*
X3607542Y1964529D01*
X3608804Y1962884D01*
X3610449Y1961622D01*
X3612365Y1960829D01*
X3614420Y1960558D01*
X3619500D01*
X3621555Y1960829D01*
X3623471Y1961622D01*
X3625116Y1962884D01*
X3626378Y1964529D01*
X3627171Y1966444D01*
X3627442Y1968500D01*
X3627171Y1970555D01*
X3626378Y1972471D01*
X3625116Y1974116D01*
X3623471Y1975378D01*
X3621555Y1976171D01*
X3619500Y1976442D01*
D02*
G37*
G36*
X3275080Y1989536D02*
X3272594Y1989209D01*
X3270277Y1988249D01*
X3268287Y1986723D01*
X3266761Y1984733D01*
X3265801Y1982416D01*
X3265474Y1979930D01*
X3265801Y1977444D01*
X3266761Y1975127D01*
X3268287Y1973137D01*
X3270277Y1971611D01*
X3272594Y1970651D01*
X3275080Y1970324D01*
X3277566Y1970651D01*
X3279883Y1971611D01*
X3281872Y1973137D01*
X3283399Y1975127D01*
X3284359Y1977444D01*
X3284686Y1979930D01*
X3284359Y1982416D01*
X3283399Y1984733D01*
X3281872Y1986723D01*
X3279883Y1988249D01*
X3277566Y1989209D01*
X3275080Y1989536D01*
D02*
G37*
G36*
X3285544Y1953260D02*
X3276350D01*
Y1944066D01*
X3277831Y1944261D01*
X3280395Y1945323D01*
X3282597Y1947013D01*
X3284286Y1949214D01*
X3285349Y1951778D01*
X3285544Y1953260D01*
D02*
G37*
G36*
X3300480Y1964136D02*
X3297993Y1963809D01*
X3295677Y1962849D01*
X3293687Y1961322D01*
X3292161Y1959333D01*
X3291201Y1957016D01*
X3290874Y1954530D01*
X3291201Y1952044D01*
X3292161Y1949727D01*
X3293687Y1947737D01*
X3295677Y1946211D01*
X3297993Y1945251D01*
X3300480Y1944924D01*
X3302966Y1945251D01*
X3305283Y1946211D01*
X3307272Y1947737D01*
X3308799Y1949727D01*
X3309759Y1952044D01*
X3310086Y1954530D01*
X3309759Y1957016D01*
X3308799Y1959333D01*
X3307272Y1961322D01*
X3305283Y1962849D01*
X3302966Y1963809D01*
X3300480Y1964136D01*
D02*
G37*
G36*
X3273810Y1964994D02*
X3272328Y1964799D01*
X3269764Y1963737D01*
X3267563Y1962047D01*
X3265873Y1959845D01*
X3264811Y1957281D01*
X3264616Y1955800D01*
X3273810D01*
Y1964994D01*
D02*
G37*
%LPD*%
D10*
X3264080Y1703430D02*
Y1728430D01*
X3238500Y1677850D02*
X3264080Y1703430D01*
Y1728430D02*
X3300480Y1764830D01*
Y1776730D01*
X3278880Y1688230D02*
X3574990D01*
X3263900Y1673250D02*
X3278880Y1688230D01*
X3263900Y1663700D02*
Y1673250D01*
X3574990Y1688230D02*
X3575860Y1689100D01*
X3591560D01*
X3263900Y1638300D02*
Y1663700D01*
X3238500Y1638300D02*
Y1663700D01*
D11*
Y1677850D01*
X3713330Y1680930D02*
X3726980Y1694580D01*
X3652030Y1680930D02*
X3713330D01*
X3631160Y1701800D02*
X3652030Y1680930D01*
X3796830Y1722430D02*
X3802580D01*
X3786580Y1732680D02*
X3796830Y1722430D01*
X3726980Y1732680D02*
X3786580D01*
X3726980D02*
Y1745380D01*
Y1719980D02*
Y1732680D01*
X3591560Y1701800D02*
Y1714500D01*
Y1689100D02*
Y1701800D01*
X3631160D01*
X3726980Y1694580D02*
Y1719980D01*
Y1745380D02*
Y1770780D01*
Y1796180D01*
Y1821580D01*
Y1846980D01*
Y1872380D01*
Y1897780D01*
Y1923180D01*
Y1948580D01*
Y1973980D01*
Y1999380D01*
Y2024780D01*
Y2050180D01*
Y2075580D02*
Y2100980D01*
Y2050180D02*
Y2075580D01*
X3591560Y2070100D02*
Y2095500D01*
Y2044700D02*
Y2070100D01*
Y2019300D02*
Y2044700D01*
Y1993900D02*
Y2019300D01*
Y1968500D02*
Y1993900D01*
Y1943100D02*
Y1968500D01*
Y1917700D02*
Y1943100D01*
Y1892300D02*
Y1917700D01*
Y1866900D02*
Y1892300D01*
Y1841500D02*
Y1866900D01*
Y1816100D02*
Y1841500D01*
Y1790700D02*
Y1816100D01*
Y1765300D02*
Y1790700D01*
Y1739900D02*
Y1765300D01*
Y1714500D02*
Y1739900D01*
D12*
X3264080Y1703430D02*
X3541430D01*
X3568980Y1730980D01*
X3678630Y2108980D02*
X3685980Y2101630D01*
X3576980Y2108980D02*
X3678630D01*
X3568980Y2100980D02*
X3576980Y2108980D01*
X3568980Y1730980D02*
Y2100980D01*
X3685980Y2076230D02*
Y2101630D01*
Y2050830D02*
Y2076230D01*
Y2025430D02*
Y2050830D01*
Y2000030D02*
Y2025430D01*
Y1974630D02*
Y2000030D01*
Y1949230D02*
Y1974630D01*
Y1923830D02*
Y1949230D01*
Y1898430D02*
Y1923830D01*
Y1873030D02*
Y1898430D01*
Y1847630D02*
Y1873030D01*
Y1822230D02*
Y1847630D01*
Y1796830D02*
Y1822230D01*
Y1771430D02*
Y1796830D01*
Y1746030D02*
Y1771430D01*
Y1720630D02*
Y1746030D01*
Y1695230D02*
Y1720630D01*
D13*
X3845080Y1743430D02*
X3870080Y1768430D01*
X3839830Y1753430D02*
X3840080D01*
X3860080Y1773430D01*
X3834580Y1763180D02*
X3834830D01*
X3850080Y1778430D01*
X3829580Y1772680D02*
Y1772930D01*
X3840080Y1783430D01*
X3889330Y2030680D02*
X3917730D01*
X3840080Y1981430D02*
X3889330Y2030680D01*
X3840080Y1783430D02*
Y1981430D01*
X3889080Y2005430D02*
X3917880D01*
X3850080Y1966430D02*
X3889080Y2005430D01*
X3850080Y1778430D02*
Y1966430D01*
X3889580Y1979930D02*
X3917780D01*
X3860080Y1950430D02*
X3889580Y1979930D01*
X3860080Y1773430D02*
Y1950430D01*
X3889330Y1954680D02*
X3917930D01*
X3870080Y1935430D02*
X3889330Y1954680D01*
X3870080Y1768430D02*
Y1935430D01*
X3917730Y2030680D02*
X3930480Y2043430D01*
X3917880Y2005430D02*
X3930480Y2018030D01*
X3917780Y1979930D02*
X3930480Y1992630D01*
X3917930Y1954680D02*
X3930480Y1967230D01*
D14*
X3275080Y1802130D02*
X3287780Y1789430D01*
X3300480Y1802130D02*
X3440380D01*
X3469080Y1773430D01*
X3480080D01*
X3287780Y1789430D02*
X3436080D01*
X3477480Y1748030D01*
X3480080D01*
D15*
X3300480Y1776730D02*
D03*
Y1802130D02*
D03*
Y1827530D02*
D03*
X3275080Y1776730D02*
D03*
Y1802130D02*
D03*
Y1827530D02*
D03*
X3300480Y2005330D02*
D03*
X3275080Y1979930D02*
D03*
X3300480D02*
D03*
X3275080Y1954530D02*
D03*
X3300480D02*
D03*
X3275080Y1929130D02*
D03*
X3300480D02*
D03*
X3275080Y1903730D02*
D03*
Y1878330D02*
D03*
X3300480Y1903730D02*
D03*
Y1878330D02*
D03*
X3275080Y1852930D02*
D03*
X3300480D02*
D03*
X3930480Y1738630D02*
D03*
Y1764030D02*
D03*
X3905080Y1738630D02*
D03*
Y1764030D02*
D03*
X3930480Y1891030D02*
D03*
X3905080D02*
D03*
X3930480Y1916430D02*
D03*
Y1941830D02*
D03*
X3905080Y1916430D02*
D03*
Y1941830D02*
D03*
X3930480Y1967230D02*
D03*
X3905080D02*
D03*
X3930480Y1992630D02*
D03*
X3905080D02*
D03*
X3930480Y2018030D02*
D03*
X3905080D02*
D03*
X3930480Y2043430D02*
D03*
X3905080Y1865630D02*
D03*
Y1840230D02*
D03*
X3930480Y1865630D02*
D03*
Y1840230D02*
D03*
X3905080Y1814830D02*
D03*
Y1789430D02*
D03*
X3930480Y1814830D02*
D03*
Y1789430D02*
D03*
D16*
X3275080Y2005330D02*
D03*
X3905080Y2043430D02*
D03*
D17*
X3174980Y1722180D02*
D03*
Y1772980D02*
D03*
D18*
X3215980Y1730580D02*
D03*
Y1765980D02*
D03*
D19*
X3591560Y2070100D02*
D03*
X3616960D02*
D03*
X3591560Y2044700D02*
D03*
X3616960D02*
D03*
X3591560Y2019300D02*
D03*
X3616960D02*
D03*
X3591560Y1993900D02*
D03*
X3616960D02*
D03*
X3591560Y1968500D02*
D03*
X3616960D02*
D03*
X3591560Y1943100D02*
D03*
X3616960D02*
D03*
X3591560Y1917700D02*
D03*
X3616960D02*
D03*
X3591560Y1892300D02*
D03*
X3616960D02*
D03*
X3591560Y1866900D02*
D03*
X3616960D02*
D03*
X3591560Y1841500D02*
D03*
X3616960D02*
D03*
X3591560Y1816100D02*
D03*
X3616960D02*
D03*
X3591560Y1790700D02*
D03*
X3616960D02*
D03*
X3591560Y1765300D02*
D03*
X3616960D02*
D03*
X3591560Y1739900D02*
D03*
X3616960D02*
D03*
X3591560Y1714500D02*
D03*
X3616960D02*
D03*
X3591560Y1689100D02*
D03*
X3616960D02*
D03*
X3591560Y2095500D02*
D03*
X3616960D02*
D03*
D20*
X3213100Y1638300D02*
D03*
Y2120900D02*
D03*
D21*
Y1663700D02*
D03*
X3238500Y1638300D02*
D03*
Y1663700D02*
D03*
X3263900Y1638300D02*
D03*
Y1663700D02*
D03*
X3289300Y1638300D02*
D03*
Y1663700D02*
D03*
X3314700Y1638300D02*
D03*
Y1663700D02*
D03*
X3340100Y1638300D02*
D03*
Y1663700D02*
D03*
X3365500Y1638300D02*
D03*
Y1663700D02*
D03*
X3390900Y1638300D02*
D03*
Y1663700D02*
D03*
X3416300Y1638300D02*
D03*
Y1663700D02*
D03*
X3441700Y1638300D02*
D03*
Y1663700D02*
D03*
X3467100Y1638300D02*
D03*
Y1663700D02*
D03*
X3492500Y1638300D02*
D03*
Y1663700D02*
D03*
X3517900Y1638300D02*
D03*
Y1663700D02*
D03*
X3543300Y1638300D02*
D03*
Y1663700D02*
D03*
X3568700Y1638300D02*
D03*
Y1663700D02*
D03*
X3594100Y1638300D02*
D03*
Y1663700D02*
D03*
X3619500Y1638300D02*
D03*
Y1663700D02*
D03*
X3644900Y1638300D02*
D03*
Y1663700D02*
D03*
X3670300Y1638300D02*
D03*
X3695700D02*
D03*
Y1663700D02*
D03*
X3721100Y1638300D02*
D03*
Y1663700D02*
D03*
X3746500Y1638300D02*
D03*
Y1663700D02*
D03*
X3771900Y1638300D02*
D03*
Y1663700D02*
D03*
Y2146300D02*
D03*
Y2120900D02*
D03*
X3746500Y2146300D02*
D03*
Y2120900D02*
D03*
X3721100Y2146300D02*
D03*
Y2120900D02*
D03*
X3695700Y2146300D02*
D03*
X3670300D02*
D03*
X3644900D02*
D03*
X3619500D02*
D03*
X3594100D02*
D03*
X3568700D02*
D03*
X3543300D02*
D03*
X3517900D02*
D03*
Y2120900D02*
D03*
X3492500Y2146300D02*
D03*
Y2120900D02*
D03*
X3467100Y2146300D02*
D03*
Y2120900D02*
D03*
X3441700Y2146300D02*
D03*
Y2120900D02*
D03*
X3416300Y2146300D02*
D03*
Y2120900D02*
D03*
X3390900Y2146300D02*
D03*
Y2120900D02*
D03*
X3365500Y2146300D02*
D03*
Y2120900D02*
D03*
X3340100Y2146300D02*
D03*
Y2120900D02*
D03*
X3314700Y2146300D02*
D03*
Y2120900D02*
D03*
X3289300Y2146300D02*
D03*
Y2120900D02*
D03*
X3263900Y2146300D02*
D03*
Y2120900D02*
D03*
X3238500Y2146300D02*
D03*
Y2120900D02*
D03*
X3213100Y2146300D02*
D03*
D22*
X3670300Y1663700D02*
D03*
D23*
X3162300Y2133600D02*
D03*
Y1651000D02*
D03*
X3822700Y2101850D02*
D03*
D24*
Y1682750D02*
D03*
D25*
X3480080Y1748030D02*
D03*
Y1773430D02*
D03*
D26*
X3262080Y1764430D02*
D03*
X3252080Y1722430D02*
D03*
X3279080D02*
D03*
X3845080Y1743430D02*
D03*
X3839830Y1753430D02*
D03*
X3834580Y1763180D02*
D03*
X3829580Y1772680D02*
D03*
X3752980Y1719580D02*
D03*
X3707230Y1700480D02*
D03*
Y1776730D02*
D03*
Y1852980D02*
D03*
Y1929230D02*
D03*
Y2005230D02*
D03*
Y2081480D02*
D03*
X3659980Y2100630D02*
D03*
X3685980Y2101630D02*
D03*
X3659980Y1694230D02*
D03*
X3726980Y1694580D02*
D03*
X3685980Y1695230D02*
D03*
X3659980Y1719630D02*
D03*
X3726980Y1719980D02*
D03*
X3685980Y1720630D02*
D03*
X3659980Y1745030D02*
D03*
X3726980Y1745380D02*
D03*
X3685980Y1746030D02*
D03*
X3659980Y1770430D02*
D03*
X3726980Y1770780D02*
D03*
X3685980Y1771430D02*
D03*
X3659980Y1795830D02*
D03*
X3726980Y1796180D02*
D03*
X3685980Y1796830D02*
D03*
X3659980Y1821230D02*
D03*
X3726980Y1821580D02*
D03*
X3685980Y1822230D02*
D03*
X3659980Y1846630D02*
D03*
X3726980Y1846980D02*
D03*
X3685980Y1847630D02*
D03*
X3659980Y1872030D02*
D03*
X3726980Y1872380D02*
D03*
X3685980Y1873030D02*
D03*
X3659980Y1897430D02*
D03*
X3726980Y1897780D02*
D03*
X3685980Y1898430D02*
D03*
X3659980Y1922830D02*
D03*
X3726980Y1923180D02*
D03*
X3685980Y1923830D02*
D03*
X3659980Y1948230D02*
D03*
X3726980Y1948580D02*
D03*
X3685980Y1949230D02*
D03*
X3659980Y1973630D02*
D03*
X3726980Y1973980D02*
D03*
X3685980Y1974630D02*
D03*
X3659980Y1999030D02*
D03*
X3726980Y1999380D02*
D03*
X3685980Y2000030D02*
D03*
X3659980Y2024430D02*
D03*
X3726980Y2024780D02*
D03*
X3685980Y2025430D02*
D03*
X3659980Y2049830D02*
D03*
X3726980Y2050180D02*
D03*
X3685980Y2050830D02*
D03*
Y2076230D02*
D03*
X3726980Y2100980D02*
D03*
Y2075580D02*
D03*
X3659980Y2075230D02*
D03*
X3752730D02*
D03*
X3708230Y2111230D02*
D03*
X3752980Y1693980D02*
D03*
Y1744980D02*
D03*
Y1769980D02*
D03*
Y1795980D02*
D03*
Y1820980D02*
D03*
Y1845980D02*
D03*
Y1871980D02*
D03*
Y1896980D02*
D03*
Y1922980D02*
D03*
Y1947980D02*
D03*
Y1972980D02*
D03*
Y1998980D02*
D03*
Y2023980D02*
D03*
Y2049980D02*
D03*
Y2100980D02*
D03*
X3212980Y1679980D02*
D03*
X3197980Y1663980D02*
D03*
Y1638980D02*
D03*
X3228980Y1624980D02*
D03*
X3197980D02*
D03*
X3225980Y1672980D02*
D03*
X3758980Y1650980D02*
D03*
X3787980Y1663980D02*
D03*
Y1637980D02*
D03*
Y1650980D02*
D03*
X3758980Y1625980D02*
D03*
D27*
X3802580Y1722430D02*
D03*
M02*
