G04*
G04 #@! TF.GenerationSoftware,Altium Limited,CircuitStudio,1.5.2 (30)*
G04*
G04 Layer_Color=13948096*
%FSLAX44Y44*%
%MOMM*%
G71*
G01*
G75*
%ADD35C,0.1000*%
%ADD60C,0.1500*%
G36*
X3870344Y2029960D02*
X3870760Y2029877D01*
X3871537Y2029627D01*
X3872204Y2029322D01*
X3872481Y2029155D01*
X3872759Y2028989D01*
X3873009Y2028822D01*
X3873203Y2028656D01*
X3873398Y2028517D01*
X3873536Y2028378D01*
X3873647Y2028295D01*
X3873730Y2028212D01*
X3873786Y2028156D01*
X3873814Y2028128D01*
X3874064Y2027795D01*
X3874314Y2027462D01*
X3874508Y2027129D01*
X3874674Y2026768D01*
X3874952Y2026074D01*
X3875119Y2025408D01*
X3875174Y2025102D01*
X3875230Y2024825D01*
X3875258Y2024575D01*
X3875285Y2024353D01*
X3875313Y2024186D01*
Y2024047D01*
Y2023964D01*
Y2023936D01*
X3875285Y2023409D01*
X3875230Y2022937D01*
X3875146Y2022465D01*
X3875035Y2022021D01*
X3874897Y2021604D01*
X3874758Y2021243D01*
X3874591Y2020882D01*
X3874425Y2020577D01*
X3874286Y2020271D01*
X3874119Y2020022D01*
X3873980Y2019800D01*
X3873842Y2019633D01*
X3873730Y2019494D01*
X3873647Y2019383D01*
X3873592Y2019328D01*
X3873564Y2019300D01*
X3873231Y2018967D01*
X3872870Y2018689D01*
X3872509Y2018439D01*
X3872148Y2018217D01*
X3871815Y2018051D01*
X3871454Y2017884D01*
X3870788Y2017662D01*
X3870482Y2017606D01*
X3870205Y2017551D01*
X3869955Y2017495D01*
X3869733Y2017467D01*
X3869566Y2017440D01*
X3869316D01*
X3868650Y2017467D01*
X3868039Y2017579D01*
X3867512Y2017745D01*
X3867068Y2017912D01*
X3866707Y2018078D01*
X3866429Y2018245D01*
X3866263Y2018356D01*
X3866207Y2018384D01*
X3865791Y2018772D01*
X3865430Y2019189D01*
X3865152Y2019633D01*
X3864930Y2020077D01*
X3864763Y2020466D01*
X3864652Y2020771D01*
X3864625Y2020882D01*
X3864597Y2020966D01*
X3864569Y2021021D01*
Y2021049D01*
X3864319Y2020577D01*
X3864069Y2020188D01*
X3863792Y2019855D01*
X3863542Y2019577D01*
X3863320Y2019355D01*
X3863125Y2019189D01*
X3863015Y2019106D01*
X3862959Y2019078D01*
X3862570Y2018856D01*
X3862181Y2018689D01*
X3861793Y2018550D01*
X3861432Y2018467D01*
X3861126Y2018412D01*
X3860905Y2018384D01*
X3860682D01*
X3860210Y2018412D01*
X3859738Y2018495D01*
X3859322Y2018606D01*
X3858961Y2018745D01*
X3858656Y2018883D01*
X3858406Y2018994D01*
X3858267Y2019078D01*
X3858211Y2019106D01*
X3857795Y2019383D01*
X3857434Y2019716D01*
X3857129Y2020049D01*
X3856851Y2020383D01*
X3856657Y2020660D01*
X3856490Y2020910D01*
X3856407Y2021077D01*
X3856379Y2021104D01*
Y2021132D01*
X3856157Y2021632D01*
X3855991Y2022132D01*
X3855852Y2022631D01*
X3855768Y2023076D01*
X3855713Y2023436D01*
X3855685Y2023742D01*
Y2023853D01*
Y2023936D01*
Y2023992D01*
Y2024019D01*
Y2024436D01*
X3855741Y2024825D01*
X3855880Y2025574D01*
X3856102Y2026213D01*
X3856324Y2026768D01*
X3856462Y2027018D01*
X3856573Y2027212D01*
X3856685Y2027406D01*
X3856796Y2027545D01*
X3856879Y2027656D01*
X3856935Y2027740D01*
X3856962Y2027795D01*
X3856990Y2027823D01*
X3857517Y2028350D01*
X3858101Y2028767D01*
X3858711Y2029100D01*
X3859322Y2029377D01*
X3859850Y2029544D01*
X3860072Y2029627D01*
X3860266Y2029683D01*
X3860432Y2029711D01*
X3860544Y2029738D01*
X3860627Y2029766D01*
X3860655D01*
X3861071Y2027406D01*
X3860460Y2027295D01*
X3859933Y2027129D01*
X3859489Y2026935D01*
X3859128Y2026740D01*
X3858850Y2026546D01*
X3858656Y2026379D01*
X3858517Y2026268D01*
X3858489Y2026240D01*
X3858211Y2025880D01*
X3857990Y2025491D01*
X3857851Y2025130D01*
X3857740Y2024769D01*
X3857684Y2024436D01*
X3857628Y2024186D01*
Y2024019D01*
Y2023992D01*
Y2023964D01*
X3857656Y2023464D01*
X3857767Y2023020D01*
X3857906Y2022631D01*
X3858045Y2022298D01*
X3858211Y2022048D01*
X3858350Y2021854D01*
X3858461Y2021715D01*
X3858489Y2021687D01*
X3858822Y2021382D01*
X3859183Y2021160D01*
X3859544Y2021021D01*
X3859877Y2020910D01*
X3860182Y2020854D01*
X3860405Y2020799D01*
X3860932D01*
X3861210Y2020854D01*
X3861682Y2020993D01*
X3862098Y2021188D01*
X3862459Y2021410D01*
X3862709Y2021632D01*
X3862903Y2021826D01*
X3863015Y2021965D01*
X3863042Y2021993D01*
Y2022021D01*
X3863292Y2022493D01*
X3863486Y2022937D01*
X3863625Y2023409D01*
X3863708Y2023825D01*
X3863764Y2024186D01*
X3863820Y2024491D01*
Y2024602D01*
Y2024686D01*
Y2024713D01*
Y2024741D01*
Y2024852D01*
X3863792Y2024963D01*
Y2025074D01*
Y2025102D01*
X3865874Y2025380D01*
X3865791Y2025019D01*
X3865735Y2024686D01*
X3865680Y2024408D01*
X3865652Y2024158D01*
X3865624Y2023964D01*
Y2023825D01*
Y2023742D01*
Y2023714D01*
X3865680Y2023131D01*
X3865791Y2022603D01*
X3865957Y2022132D01*
X3866151Y2021743D01*
X3866346Y2021438D01*
X3866512Y2021215D01*
X3866624Y2021077D01*
X3866679Y2021021D01*
X3867095Y2020660D01*
X3867540Y2020383D01*
X3867984Y2020188D01*
X3868428Y2020077D01*
X3868789Y2019994D01*
X3869094Y2019966D01*
X3869205Y2019938D01*
X3869372D01*
X3869983Y2019994D01*
X3870538Y2020133D01*
X3871010Y2020299D01*
X3871426Y2020521D01*
X3871760Y2020744D01*
X3872009Y2020910D01*
X3872176Y2021049D01*
X3872231Y2021104D01*
X3872620Y2021549D01*
X3872898Y2022021D01*
X3873092Y2022493D01*
X3873231Y2022937D01*
X3873314Y2023325D01*
X3873342Y2023631D01*
X3873370Y2023742D01*
Y2023825D01*
Y2023881D01*
Y2023908D01*
X3873342Y2024408D01*
X3873231Y2024880D01*
X3873092Y2025296D01*
X3872925Y2025630D01*
X3872787Y2025907D01*
X3872648Y2026129D01*
X3872537Y2026240D01*
X3872509Y2026296D01*
X3872120Y2026629D01*
X3871676Y2026907D01*
X3871204Y2027157D01*
X3870705Y2027351D01*
X3870288Y2027490D01*
X3870094Y2027545D01*
X3869927Y2027573D01*
X3869788Y2027601D01*
X3869677Y2027628D01*
X3869622Y2027656D01*
X3869594D01*
X3869899Y2030016D01*
X3870344Y2029960D01*
D02*
G37*
G36*
X3869205Y2008084D02*
X3866846D01*
Y2015385D01*
X3869205D01*
Y2008084D01*
D02*
G37*
G36*
X3874980Y1993759D02*
X3872704D01*
Y2003226D01*
X3872231Y2002892D01*
X3872037Y2002726D01*
X3871843Y2002587D01*
X3871676Y2002448D01*
X3871565Y2002337D01*
X3871482Y2002254D01*
X3871454Y2002226D01*
X3871315Y2002087D01*
X3871176Y2001921D01*
X3870816Y2001532D01*
X3870399Y2001088D01*
X3869983Y2000616D01*
X3869622Y2000172D01*
X3869455Y1999977D01*
X3869289Y1999811D01*
X3869178Y1999672D01*
X3869094Y1999561D01*
X3869039Y1999505D01*
X3869011Y1999478D01*
X3868622Y1999033D01*
X3868261Y1998589D01*
X3867900Y1998201D01*
X3867595Y1997840D01*
X3867290Y1997507D01*
X3867012Y1997229D01*
X3866762Y1996951D01*
X3866540Y1996729D01*
X3866318Y1996507D01*
X3866151Y1996340D01*
X3866013Y1996202D01*
X3865874Y1996063D01*
X3865707Y1995924D01*
X3865652Y1995869D01*
X3865180Y1995480D01*
X3864763Y1995147D01*
X3864347Y1994869D01*
X3864014Y1994647D01*
X3863708Y1994480D01*
X3863486Y1994369D01*
X3863347Y1994314D01*
X3863292Y1994286D01*
X3862876Y1994120D01*
X3862459Y1994008D01*
X3862071Y1993897D01*
X3861737Y1993842D01*
X3861432Y1993814D01*
X3861210Y1993786D01*
X3861016D01*
X3860599Y1993814D01*
X3860210Y1993870D01*
X3859822Y1993925D01*
X3859489Y1994036D01*
X3858822Y1994314D01*
X3858295Y1994592D01*
X3858045Y1994758D01*
X3857851Y1994897D01*
X3857656Y1995036D01*
X3857517Y1995175D01*
X3857406Y1995285D01*
X3857296Y1995341D01*
X3857267Y1995397D01*
X3857240Y1995424D01*
X3856962Y1995730D01*
X3856712Y1996063D01*
X3856518Y1996424D01*
X3856351Y1996785D01*
X3856074Y1997507D01*
X3855880Y1998228D01*
X3855824Y1998534D01*
X3855768Y1998839D01*
X3855741Y1999117D01*
X3855713Y1999339D01*
X3855685Y1999533D01*
Y1999700D01*
Y1999783D01*
Y1999811D01*
X3855713Y2000311D01*
X3855741Y2000782D01*
X3855824Y2001227D01*
X3855907Y2001643D01*
X3856018Y2002032D01*
X3856129Y2002393D01*
X3856268Y2002726D01*
X3856407Y2003031D01*
X3856546Y2003309D01*
X3856685Y2003531D01*
X3856796Y2003725D01*
X3856907Y2003892D01*
X3856990Y2004031D01*
X3857073Y2004114D01*
X3857101Y2004169D01*
X3857129Y2004197D01*
X3857406Y2004475D01*
X3857712Y2004725D01*
X3858045Y2004975D01*
X3858378Y2005169D01*
X3859044Y2005502D01*
X3859711Y2005724D01*
X3860016Y2005807D01*
X3860321Y2005891D01*
X3860571Y2005946D01*
X3860793Y2006002D01*
X3860988Y2006030D01*
X3861126D01*
X3861210Y2006057D01*
X3861237D01*
X3861487Y2003642D01*
X3860849Y2003586D01*
X3860294Y2003475D01*
X3859794Y2003309D01*
X3859405Y2003114D01*
X3859072Y2002948D01*
X3858850Y2002781D01*
X3858711Y2002670D01*
X3858656Y2002615D01*
X3858322Y2002198D01*
X3858073Y2001754D01*
X3857878Y2001282D01*
X3857767Y2000866D01*
X3857684Y2000477D01*
X3857656Y2000144D01*
X3857628Y2000033D01*
Y1999950D01*
Y1999894D01*
Y1999866D01*
X3857656Y1999283D01*
X3857767Y1998756D01*
X3857934Y1998312D01*
X3858101Y1997923D01*
X3858295Y1997618D01*
X3858434Y1997423D01*
X3858545Y1997284D01*
X3858600Y1997229D01*
X3858989Y1996896D01*
X3859377Y1996646D01*
X3859766Y1996452D01*
X3860155Y1996340D01*
X3860460Y1996257D01*
X3860738Y1996230D01*
X3860905Y1996202D01*
X3860960D01*
X3861460Y1996257D01*
X3861987Y1996368D01*
X3862459Y1996563D01*
X3862903Y1996757D01*
X3863264Y1996979D01*
X3863570Y1997173D01*
X3863681Y1997229D01*
X3863764Y1997284D01*
X3863792Y1997340D01*
X3863820D01*
X3864125Y1997562D01*
X3864430Y1997840D01*
X3864763Y1998145D01*
X3865096Y1998478D01*
X3865763Y1999172D01*
X3866429Y1999866D01*
X3866735Y2000227D01*
X3867012Y2000533D01*
X3867262Y2000838D01*
X3867484Y2001088D01*
X3867651Y2001282D01*
X3867790Y2001449D01*
X3867873Y2001560D01*
X3867900Y2001588D01*
X3868484Y2002282D01*
X3869039Y2002920D01*
X3869539Y2003448D01*
X3869955Y2003864D01*
X3870316Y2004225D01*
X3870566Y2004475D01*
X3870732Y2004614D01*
X3870760Y2004669D01*
X3870788D01*
X3871260Y2005058D01*
X3871704Y2005363D01*
X3872148Y2005641D01*
X3872537Y2005863D01*
X3872870Y2006030D01*
X3873120Y2006141D01*
X3873286Y2006196D01*
X3873314Y2006224D01*
X3873342D01*
X3873647Y2006335D01*
X3873925Y2006390D01*
X3874203Y2006446D01*
X3874453Y2006474D01*
X3874674Y2006501D01*
X3874980D01*
Y1993759D01*
D02*
G37*
G36*
X3866485Y2044952D02*
X3867401Y2044897D01*
X3868234Y2044813D01*
X3869011Y2044675D01*
X3869733Y2044536D01*
X3870371Y2044369D01*
X3870954Y2044203D01*
X3871454Y2044036D01*
X3871898Y2043869D01*
X3872287Y2043675D01*
X3872620Y2043536D01*
X3872870Y2043397D01*
X3873092Y2043259D01*
X3873231Y2043175D01*
X3873314Y2043120D01*
X3873342Y2043092D01*
X3873675Y2042787D01*
X3873980Y2042453D01*
X3874258Y2042093D01*
X3874480Y2041732D01*
X3874674Y2041371D01*
X3874841Y2041010D01*
X3874952Y2040649D01*
X3875063Y2040316D01*
X3875146Y2039983D01*
X3875202Y2039677D01*
X3875258Y2039400D01*
X3875285Y2039178D01*
X3875313Y2038983D01*
Y2038817D01*
Y2038733D01*
Y2038706D01*
X3875258Y2037956D01*
X3875146Y2037262D01*
X3874952Y2036679D01*
X3874758Y2036179D01*
X3874563Y2035763D01*
X3874453Y2035624D01*
X3874369Y2035485D01*
X3874314Y2035374D01*
X3874258Y2035291D01*
X3874203Y2035263D01*
Y2035235D01*
X3873730Y2034736D01*
X3873231Y2034319D01*
X3872675Y2033958D01*
X3872176Y2033681D01*
X3871704Y2033459D01*
X3871510Y2033347D01*
X3871315Y2033292D01*
X3871176Y2033237D01*
X3871065Y2033181D01*
X3871010Y2033153D01*
X3870982D01*
X3870566Y2033014D01*
X3870149Y2032903D01*
X3869261Y2032737D01*
X3868345Y2032598D01*
X3867456Y2032515D01*
X3867068Y2032487D01*
X3866707Y2032459D01*
X3866374D01*
X3866068Y2032431D01*
X3864985D01*
X3864486Y2032459D01*
X3864042D01*
X3863597Y2032487D01*
X3863209Y2032542D01*
X3862820Y2032570D01*
X3862487Y2032598D01*
X3862181Y2032654D01*
X3861904Y2032681D01*
X3861654Y2032737D01*
X3861460Y2032764D01*
X3861293Y2032792D01*
X3861154Y2032820D01*
X3861071Y2032848D01*
X3861016Y2032876D01*
X3860988D01*
X3860377Y2033042D01*
X3859822Y2033237D01*
X3859350Y2033459D01*
X3858933Y2033625D01*
X3858572Y2033819D01*
X3858322Y2033931D01*
X3858184Y2034042D01*
X3858128Y2034069D01*
X3857712Y2034375D01*
X3857351Y2034680D01*
X3857046Y2035013D01*
X3856768Y2035319D01*
X3856573Y2035596D01*
X3856435Y2035818D01*
X3856351Y2035957D01*
X3856324Y2035985D01*
Y2036013D01*
X3856102Y2036457D01*
X3855963Y2036929D01*
X3855852Y2037373D01*
X3855768Y2037789D01*
X3855713Y2038150D01*
X3855685Y2038456D01*
Y2038567D01*
Y2038650D01*
Y2038678D01*
Y2038706D01*
X3855741Y2039455D01*
X3855852Y2040149D01*
X3856046Y2040732D01*
X3856241Y2041232D01*
X3856462Y2041648D01*
X3856546Y2041815D01*
X3856657Y2041954D01*
X3856712Y2042065D01*
X3856768Y2042148D01*
X3856823Y2042176D01*
Y2042204D01*
X3857267Y2042703D01*
X3857795Y2043120D01*
X3858322Y2043481D01*
X3858822Y2043758D01*
X3859294Y2043980D01*
X3859489Y2044091D01*
X3859683Y2044147D01*
X3859822Y2044203D01*
X3859933Y2044258D01*
X3859988Y2044286D01*
X3860016D01*
X3860432Y2044397D01*
X3860849Y2044508D01*
X3861765Y2044675D01*
X3862681Y2044813D01*
X3863542Y2044897D01*
X3863958Y2044924D01*
X3864319Y2044952D01*
X3864652D01*
X3864958Y2044980D01*
X3865513D01*
X3866485Y2044952D01*
D02*
G37*
G36*
X3843536Y1788599D02*
X3843906Y1788562D01*
X3844684Y1788377D01*
X3845313Y1788118D01*
X3845869Y1787821D01*
X3846313Y1787525D01*
X3846647Y1787266D01*
X3846832Y1787081D01*
X3846906Y1787007D01*
X3847387Y1786340D01*
X3847758Y1785600D01*
X3848017Y1784785D01*
X3848202Y1784044D01*
X3848313Y1783378D01*
X3848350Y1783081D01*
Y1782822D01*
X3848387Y1782600D01*
Y1782452D01*
Y1782341D01*
Y1782303D01*
X3848350Y1781637D01*
X3848276Y1780970D01*
X3848202Y1780378D01*
X3848091Y1779859D01*
X3847980Y1779452D01*
X3847869Y1779119D01*
X3847832Y1778896D01*
X3847795Y1778822D01*
X3847535Y1778193D01*
X3847202Y1777600D01*
X3846832Y1777045D01*
X3846499Y1776489D01*
X3846165Y1776045D01*
X3845906Y1775712D01*
X3845721Y1775489D01*
X3845647Y1775452D01*
Y1775415D01*
X3846128Y1775341D01*
X3846573Y1775267D01*
X3846980Y1775193D01*
X3847313Y1775082D01*
X3847610Y1774971D01*
X3847795Y1774897D01*
X3847943Y1774860D01*
X3847980Y1774823D01*
Y1771527D01*
X3847573Y1771712D01*
X3847165Y1771897D01*
X3846795Y1772045D01*
X3846461Y1772119D01*
X3846165Y1772231D01*
X3845943Y1772267D01*
X3845795Y1772305D01*
X3845758D01*
X3845499Y1772342D01*
X3845165Y1772379D01*
X3844795D01*
X3844388Y1772416D01*
X3843462Y1772453D01*
X3842536D01*
X3841647Y1772490D01*
X3835277D01*
X3834648Y1772527D01*
X3834167Y1772564D01*
X3833759D01*
X3833463Y1772601D01*
X3833241Y1772638D01*
X3833130Y1772675D01*
X3833093D01*
X3832611Y1772786D01*
X3832204Y1772934D01*
X3831870Y1773082D01*
X3831537Y1773267D01*
X3831315Y1773416D01*
X3831130Y1773527D01*
X3831019Y1773601D01*
X3830982Y1773638D01*
X3830685Y1773934D01*
X3830389Y1774267D01*
X3830167Y1774638D01*
X3829945Y1775008D01*
X3829796Y1775341D01*
X3829685Y1775600D01*
X3829612Y1775786D01*
X3829574Y1775860D01*
X3829389Y1776452D01*
X3829241Y1777082D01*
X3829130Y1777711D01*
X3829056Y1778341D01*
X3829019Y1778896D01*
X3828982Y1779304D01*
Y1779489D01*
Y1779600D01*
Y1779674D01*
Y1779711D01*
X3829019Y1780600D01*
X3829093Y1781378D01*
X3829204Y1782118D01*
X3829315Y1782711D01*
X3829426Y1783229D01*
X3829537Y1783600D01*
X3829574Y1783748D01*
X3829612Y1783859D01*
X3829648Y1783896D01*
Y1783933D01*
X3829908Y1784563D01*
X3830241Y1785118D01*
X3830537Y1785600D01*
X3830833Y1786007D01*
X3831130Y1786303D01*
X3831352Y1786525D01*
X3831500Y1786673D01*
X3831537Y1786710D01*
X3832019Y1787044D01*
X3832537Y1787340D01*
X3833055Y1787562D01*
X3833537Y1787747D01*
X3834018Y1787896D01*
X3834352Y1788007D01*
X3834500Y1788044D01*
X3834611D01*
X3834648Y1788081D01*
X3834685D01*
X3835092Y1785007D01*
X3834426Y1784785D01*
X3833833Y1784563D01*
X3833352Y1784303D01*
X3832981Y1784081D01*
X3832685Y1783859D01*
X3832500Y1783674D01*
X3832389Y1783526D01*
X3832352Y1783489D01*
X3832093Y1783044D01*
X3831907Y1782526D01*
X3831759Y1781970D01*
X3831685Y1781452D01*
X3831611Y1780933D01*
X3831574Y1780563D01*
Y1780415D01*
Y1780304D01*
Y1780230D01*
Y1780193D01*
X3831611Y1779341D01*
X3831722Y1778600D01*
X3831907Y1778008D01*
X3832093Y1777489D01*
X3832315Y1777119D01*
X3832463Y1776823D01*
X3832611Y1776637D01*
X3832648Y1776600D01*
X3832981Y1776304D01*
X3833389Y1776082D01*
X3833833Y1775897D01*
X3834278Y1775786D01*
X3834685Y1775712D01*
X3835055Y1775675D01*
X3835833D01*
X3836055Y1775712D01*
X3836166D01*
X3836277Y1776082D01*
X3836389Y1776489D01*
X3836611Y1777341D01*
X3836796Y1778304D01*
X3836981Y1779193D01*
X3837055Y1779637D01*
X3837092Y1780045D01*
X3837166Y1780415D01*
X3837203Y1780711D01*
X3837240Y1780970D01*
Y1781156D01*
X3837277Y1781304D01*
Y1781341D01*
X3837351Y1782007D01*
X3837462Y1782563D01*
X3837537Y1783044D01*
X3837610Y1783414D01*
X3837648Y1783711D01*
X3837722Y1783933D01*
X3837759Y1784081D01*
Y1784118D01*
X3837907Y1784600D01*
X3838055Y1785007D01*
X3838240Y1785414D01*
X3838388Y1785748D01*
X3838536Y1786044D01*
X3838685Y1786229D01*
X3838759Y1786377D01*
X3838795Y1786414D01*
X3839055Y1786785D01*
X3839351Y1787081D01*
X3839648Y1787377D01*
X3839944Y1787599D01*
X3840203Y1787784D01*
X3840425Y1787932D01*
X3840573Y1788007D01*
X3840610Y1788044D01*
X3841017Y1788229D01*
X3841462Y1788377D01*
X3841870Y1788488D01*
X3842277Y1788562D01*
X3842610Y1788599D01*
X3842869Y1788636D01*
X3843091D01*
X3843536Y1788599D01*
D02*
G37*
G36*
X3855090Y1764491D02*
X3846054D01*
X3846425Y1764194D01*
X3846758Y1763861D01*
X3847054Y1763491D01*
X3847276Y1763194D01*
X3847498Y1762898D01*
X3847646Y1762676D01*
X3847721Y1762491D01*
X3847758Y1762454D01*
X3847980Y1761972D01*
X3848128Y1761491D01*
X3848239Y1761009D01*
X3848313Y1760565D01*
X3848350Y1760195D01*
X3848387Y1759898D01*
Y1759713D01*
Y1759639D01*
X3848350Y1758862D01*
X3848202Y1758084D01*
X3848017Y1757417D01*
X3847795Y1756788D01*
X3847573Y1756269D01*
X3847387Y1755899D01*
X3847313Y1755751D01*
X3847239Y1755640D01*
X3847202Y1755603D01*
Y1755565D01*
X3846684Y1754862D01*
X3846128Y1754269D01*
X3845573Y1753751D01*
X3845017Y1753344D01*
X3844499Y1753010D01*
X3844091Y1752751D01*
X3843943Y1752677D01*
X3843832Y1752603D01*
X3843758Y1752566D01*
X3843721D01*
X3842832Y1752233D01*
X3841943Y1751973D01*
X3841092Y1751788D01*
X3840277Y1751640D01*
X3839610Y1751566D01*
X3839314D01*
X3839055Y1751529D01*
X3838574D01*
X3837610Y1751566D01*
X3836685Y1751677D01*
X3835870Y1751825D01*
X3835129Y1752010D01*
X3834537Y1752195D01*
X3834278Y1752270D01*
X3834055Y1752344D01*
X3833907Y1752418D01*
X3833796Y1752455D01*
X3833722Y1752492D01*
X3833685D01*
X3832907Y1752862D01*
X3832204Y1753306D01*
X3831611Y1753751D01*
X3831130Y1754195D01*
X3830759Y1754603D01*
X3830463Y1754936D01*
X3830315Y1755158D01*
X3830241Y1755195D01*
Y1755232D01*
X3829834Y1755936D01*
X3829500Y1756640D01*
X3829278Y1757343D01*
X3829130Y1758010D01*
X3829056Y1758565D01*
X3829019Y1758824D01*
X3828982Y1759010D01*
Y1759195D01*
Y1759306D01*
Y1759380D01*
Y1759417D01*
X3829019Y1760084D01*
X3829093Y1760676D01*
X3829204Y1761195D01*
X3829352Y1761639D01*
X3829500Y1762009D01*
X3829612Y1762306D01*
X3829685Y1762454D01*
X3829723Y1762528D01*
X3830019Y1762972D01*
X3830352Y1763417D01*
X3830685Y1763787D01*
X3831056Y1764120D01*
X3831352Y1764417D01*
X3831611Y1764602D01*
X3831759Y1764750D01*
X3831833Y1764787D01*
X3829389D01*
Y1767638D01*
X3855090D01*
Y1764491D01*
D02*
G37*
G36*
X3839684Y1748751D02*
X3840462Y1748677D01*
X3841203Y1748566D01*
X3841870Y1748418D01*
X3842499Y1748233D01*
X3843091Y1748048D01*
X3843610Y1747826D01*
X3844091Y1747603D01*
X3844499Y1747381D01*
X3844869Y1747159D01*
X3845165Y1746974D01*
X3845424Y1746789D01*
X3845647Y1746640D01*
X3845795Y1746529D01*
X3845869Y1746455D01*
X3845906Y1746418D01*
X3846350Y1745937D01*
X3846721Y1745455D01*
X3847054Y1744937D01*
X3847350Y1744382D01*
X3847573Y1743863D01*
X3847795Y1743307D01*
X3848091Y1742271D01*
X3848165Y1741789D01*
X3848239Y1741345D01*
X3848313Y1740937D01*
X3848350Y1740604D01*
X3848387Y1740345D01*
Y1740123D01*
Y1739975D01*
Y1739937D01*
X3848313Y1738790D01*
X3848128Y1737753D01*
X3847906Y1736827D01*
X3847758Y1736456D01*
X3847610Y1736086D01*
X3847462Y1735753D01*
X3847313Y1735457D01*
X3847202Y1735234D01*
X3847091Y1735012D01*
X3846980Y1734864D01*
X3846906Y1734753D01*
X3846832Y1734679D01*
Y1734642D01*
X3846165Y1733901D01*
X3845462Y1733309D01*
X3844721Y1732790D01*
X3844017Y1732420D01*
X3843388Y1732124D01*
X3843091Y1732012D01*
X3842869Y1731901D01*
X3842647Y1731827D01*
X3842499Y1731790D01*
X3842425Y1731753D01*
X3842388D01*
X3841981Y1735012D01*
X3842684Y1735308D01*
X3843277Y1735642D01*
X3843795Y1735975D01*
X3844203Y1736271D01*
X3844499Y1736530D01*
X3844721Y1736753D01*
X3844869Y1736938D01*
X3844906Y1736975D01*
X3845202Y1737456D01*
X3845424Y1737938D01*
X3845573Y1738456D01*
X3845684Y1738901D01*
X3845758Y1739308D01*
X3845795Y1739641D01*
Y1739863D01*
Y1739901D01*
Y1739937D01*
X3845758Y1740382D01*
X3845721Y1740789D01*
X3845536Y1741530D01*
X3845276Y1742197D01*
X3844980Y1742789D01*
X3844721Y1743233D01*
X3844462Y1743567D01*
X3844277Y1743789D01*
X3844203Y1743826D01*
Y1743863D01*
X3843536Y1744382D01*
X3842795Y1744789D01*
X3841981Y1745085D01*
X3841240Y1745307D01*
X3840573Y1745418D01*
X3840277Y1745493D01*
X3840018Y1745529D01*
X3839796D01*
X3839648Y1745567D01*
X3839499D01*
Y1731679D01*
X3839129Y1731642D01*
X3838685D01*
X3837833Y1731679D01*
X3837055Y1731753D01*
X3836314Y1731864D01*
X3835611Y1732012D01*
X3834981Y1732198D01*
X3834389Y1732383D01*
X3833870Y1732605D01*
X3833389Y1732827D01*
X3832944Y1733049D01*
X3832574Y1733271D01*
X3832278Y1733457D01*
X3832019Y1733642D01*
X3831796Y1733790D01*
X3831648Y1733901D01*
X3831574Y1733975D01*
X3831537Y1734012D01*
X3831093Y1734457D01*
X3830685Y1734938D01*
X3830352Y1735457D01*
X3830056Y1735975D01*
X3829796Y1736493D01*
X3829612Y1736975D01*
X3829426Y1737493D01*
X3829315Y1737938D01*
X3829204Y1738419D01*
X3829130Y1738826D01*
X3829056Y1739197D01*
X3829019Y1739493D01*
X3828982Y1739752D01*
Y1739975D01*
Y1740086D01*
Y1740123D01*
X3829019Y1740826D01*
X3829093Y1741493D01*
X3829204Y1742122D01*
X3829389Y1742715D01*
X3829574Y1743271D01*
X3829796Y1743789D01*
X3830019Y1744270D01*
X3830278Y1744678D01*
X3830500Y1745085D01*
X3830759Y1745418D01*
X3830982Y1745715D01*
X3831167Y1745937D01*
X3831352Y1746122D01*
X3831463Y1746270D01*
X3831537Y1746344D01*
X3831574Y1746381D01*
X3832093Y1746789D01*
X3832648Y1747159D01*
X3833204Y1747492D01*
X3833796Y1747789D01*
X3834426Y1748011D01*
X3835018Y1748196D01*
X3836203Y1748492D01*
X3836722Y1748603D01*
X3837240Y1748677D01*
X3837685Y1748714D01*
X3838092Y1748751D01*
X3838425Y1748788D01*
X3838870D01*
X3839684Y1748751D01*
D02*
G37*
G36*
X3866485Y1991205D02*
X3867401Y1991149D01*
X3868234Y1991066D01*
X3869011Y1990927D01*
X3869733Y1990788D01*
X3870371Y1990621D01*
X3870954Y1990455D01*
X3871454Y1990288D01*
X3871898Y1990122D01*
X3872287Y1989927D01*
X3872620Y1989789D01*
X3872870Y1989650D01*
X3873092Y1989511D01*
X3873231Y1989428D01*
X3873314Y1989372D01*
X3873342Y1989344D01*
X3873675Y1989039D01*
X3873980Y1988706D01*
X3874258Y1988345D01*
X3874480Y1987984D01*
X3874674Y1987623D01*
X3874841Y1987262D01*
X3874952Y1986901D01*
X3875063Y1986568D01*
X3875146Y1986235D01*
X3875202Y1985930D01*
X3875258Y1985652D01*
X3875285Y1985430D01*
X3875313Y1985236D01*
Y1985069D01*
Y1984986D01*
Y1984958D01*
X3875258Y1984208D01*
X3875146Y1983514D01*
X3874952Y1982931D01*
X3874758Y1982432D01*
X3874563Y1982015D01*
X3874453Y1981876D01*
X3874369Y1981738D01*
X3874314Y1981626D01*
X3874258Y1981543D01*
X3874203Y1981516D01*
Y1981488D01*
X3873730Y1980988D01*
X3873231Y1980572D01*
X3872675Y1980211D01*
X3872176Y1979933D01*
X3871704Y1979711D01*
X3871510Y1979600D01*
X3871315Y1979544D01*
X3871176Y1979489D01*
X3871065Y1979433D01*
X3871010Y1979406D01*
X3870982D01*
X3870566Y1979267D01*
X3870149Y1979156D01*
X3869261Y1978989D01*
X3868345Y1978850D01*
X3867456Y1978767D01*
X3867068Y1978739D01*
X3866707Y1978712D01*
X3866374D01*
X3866068Y1978684D01*
X3864985D01*
X3864486Y1978712D01*
X3864042D01*
X3863597Y1978739D01*
X3863209Y1978795D01*
X3862820Y1978823D01*
X3862487Y1978850D01*
X3862181Y1978906D01*
X3861904Y1978934D01*
X3861654Y1978989D01*
X3861460Y1979017D01*
X3861293Y1979045D01*
X3861154Y1979072D01*
X3861071Y1979100D01*
X3861016Y1979128D01*
X3860988D01*
X3860377Y1979294D01*
X3859822Y1979489D01*
X3859350Y1979711D01*
X3858933Y1979877D01*
X3858572Y1980072D01*
X3858322Y1980183D01*
X3858184Y1980294D01*
X3858128Y1980322D01*
X3857712Y1980627D01*
X3857351Y1980932D01*
X3857046Y1981266D01*
X3856768Y1981571D01*
X3856573Y1981849D01*
X3856435Y1982071D01*
X3856351Y1982209D01*
X3856324Y1982237D01*
Y1982265D01*
X3856102Y1982709D01*
X3855963Y1983181D01*
X3855852Y1983625D01*
X3855768Y1984042D01*
X3855713Y1984403D01*
X3855685Y1984708D01*
Y1984819D01*
Y1984902D01*
Y1984930D01*
Y1984958D01*
X3855741Y1985708D01*
X3855852Y1986402D01*
X3856046Y1986985D01*
X3856241Y1987484D01*
X3856462Y1987901D01*
X3856546Y1988067D01*
X3856657Y1988206D01*
X3856712Y1988317D01*
X3856768Y1988401D01*
X3856823Y1988428D01*
Y1988456D01*
X3857267Y1988956D01*
X3857795Y1989372D01*
X3858322Y1989733D01*
X3858822Y1990011D01*
X3859294Y1990233D01*
X3859489Y1990344D01*
X3859683Y1990399D01*
X3859822Y1990455D01*
X3859933Y1990510D01*
X3859988Y1990538D01*
X3860016D01*
X3860432Y1990649D01*
X3860849Y1990760D01*
X3861765Y1990927D01*
X3862681Y1991066D01*
X3863542Y1991149D01*
X3863958Y1991177D01*
X3864319Y1991205D01*
X3864652D01*
X3864958Y1991232D01*
X3865513D01*
X3866485Y1991205D01*
D02*
G37*
G36*
X3874980Y1881766D02*
X3872704D01*
Y1891233D01*
X3872231Y1890900D01*
X3872037Y1890733D01*
X3871843Y1890594D01*
X3871676Y1890455D01*
X3871565Y1890344D01*
X3871482Y1890261D01*
X3871454Y1890233D01*
X3871315Y1890095D01*
X3871176Y1889928D01*
X3870816Y1889539D01*
X3870399Y1889095D01*
X3869983Y1888623D01*
X3869622Y1888179D01*
X3869455Y1887985D01*
X3869289Y1887818D01*
X3869178Y1887679D01*
X3869094Y1887568D01*
X3869039Y1887513D01*
X3869011Y1887485D01*
X3868622Y1887041D01*
X3868261Y1886597D01*
X3867900Y1886208D01*
X3867595Y1885847D01*
X3867290Y1885514D01*
X3867012Y1885236D01*
X3866762Y1884959D01*
X3866540Y1884736D01*
X3866318Y1884514D01*
X3866151Y1884348D01*
X3866013Y1884209D01*
X3865874Y1884070D01*
X3865707Y1883931D01*
X3865652Y1883876D01*
X3865180Y1883487D01*
X3864763Y1883154D01*
X3864347Y1882876D01*
X3864014Y1882654D01*
X3863708Y1882488D01*
X3863486Y1882377D01*
X3863347Y1882321D01*
X3863292Y1882293D01*
X3862876Y1882127D01*
X3862459Y1882016D01*
X3862071Y1881905D01*
X3861737Y1881849D01*
X3861432Y1881821D01*
X3861210Y1881794D01*
X3861016D01*
X3860599Y1881821D01*
X3860210Y1881877D01*
X3859822Y1881933D01*
X3859489Y1882043D01*
X3858822Y1882321D01*
X3858295Y1882599D01*
X3858045Y1882765D01*
X3857851Y1882904D01*
X3857656Y1883043D01*
X3857517Y1883182D01*
X3857406Y1883293D01*
X3857296Y1883348D01*
X3857267Y1883404D01*
X3857240Y1883432D01*
X3856962Y1883737D01*
X3856712Y1884070D01*
X3856518Y1884431D01*
X3856351Y1884792D01*
X3856074Y1885514D01*
X3855880Y1886236D01*
X3855824Y1886541D01*
X3855768Y1886846D01*
X3855741Y1887124D01*
X3855713Y1887346D01*
X3855685Y1887540D01*
Y1887707D01*
Y1887790D01*
Y1887818D01*
X3855713Y1888318D01*
X3855741Y1888790D01*
X3855824Y1889234D01*
X3855907Y1889650D01*
X3856018Y1890039D01*
X3856129Y1890400D01*
X3856268Y1890733D01*
X3856407Y1891039D01*
X3856546Y1891316D01*
X3856685Y1891538D01*
X3856796Y1891732D01*
X3856907Y1891899D01*
X3856990Y1892038D01*
X3857073Y1892121D01*
X3857101Y1892177D01*
X3857129Y1892204D01*
X3857406Y1892482D01*
X3857712Y1892732D01*
X3858045Y1892982D01*
X3858378Y1893176D01*
X3859044Y1893509D01*
X3859711Y1893731D01*
X3860016Y1893815D01*
X3860321Y1893898D01*
X3860571Y1893954D01*
X3860793Y1894009D01*
X3860988Y1894037D01*
X3861126D01*
X3861210Y1894065D01*
X3861237D01*
X3861487Y1891649D01*
X3860849Y1891594D01*
X3860294Y1891483D01*
X3859794Y1891316D01*
X3859405Y1891122D01*
X3859072Y1890955D01*
X3858850Y1890789D01*
X3858711Y1890678D01*
X3858656Y1890622D01*
X3858322Y1890206D01*
X3858073Y1889761D01*
X3857878Y1889290D01*
X3857767Y1888873D01*
X3857684Y1888484D01*
X3857656Y1888151D01*
X3857628Y1888040D01*
Y1887957D01*
Y1887901D01*
Y1887874D01*
X3857656Y1887291D01*
X3857767Y1886763D01*
X3857934Y1886319D01*
X3858101Y1885930D01*
X3858295Y1885625D01*
X3858434Y1885430D01*
X3858545Y1885292D01*
X3858600Y1885236D01*
X3858989Y1884903D01*
X3859377Y1884653D01*
X3859766Y1884459D01*
X3860155Y1884348D01*
X3860460Y1884265D01*
X3860738Y1884237D01*
X3860905Y1884209D01*
X3860960D01*
X3861460Y1884265D01*
X3861987Y1884376D01*
X3862459Y1884570D01*
X3862903Y1884764D01*
X3863264Y1884986D01*
X3863570Y1885181D01*
X3863681Y1885236D01*
X3863764Y1885292D01*
X3863792Y1885347D01*
X3863820D01*
X3864125Y1885569D01*
X3864430Y1885847D01*
X3864763Y1886152D01*
X3865096Y1886485D01*
X3865763Y1887180D01*
X3866429Y1887874D01*
X3866735Y1888235D01*
X3867012Y1888540D01*
X3867262Y1888845D01*
X3867484Y1889095D01*
X3867651Y1889290D01*
X3867790Y1889456D01*
X3867873Y1889567D01*
X3867900Y1889595D01*
X3868484Y1890289D01*
X3869039Y1890927D01*
X3869539Y1891455D01*
X3869955Y1891871D01*
X3870316Y1892232D01*
X3870566Y1892482D01*
X3870732Y1892621D01*
X3870760Y1892677D01*
X3870788D01*
X3871260Y1893065D01*
X3871704Y1893371D01*
X3872148Y1893648D01*
X3872537Y1893870D01*
X3872870Y1894037D01*
X3873120Y1894148D01*
X3873286Y1894203D01*
X3873314Y1894231D01*
X3873342D01*
X3873647Y1894342D01*
X3873925Y1894398D01*
X3874203Y1894453D01*
X3874453Y1894481D01*
X3874674Y1894509D01*
X3874980D01*
Y1881766D01*
D02*
G37*
G36*
Y1875214D02*
X3872287D01*
Y1877907D01*
X3874980D01*
Y1875214D01*
D02*
G37*
G36*
X3866485Y1871744D02*
X3867401Y1871688D01*
X3868234Y1871605D01*
X3869011Y1871466D01*
X3869733Y1871327D01*
X3870371Y1871161D01*
X3870954Y1870994D01*
X3871454Y1870828D01*
X3871898Y1870661D01*
X3872287Y1870467D01*
X3872620Y1870328D01*
X3872870Y1870189D01*
X3873092Y1870050D01*
X3873231Y1869967D01*
X3873314Y1869911D01*
X3873342Y1869884D01*
X3873675Y1869578D01*
X3873980Y1869245D01*
X3874258Y1868884D01*
X3874480Y1868523D01*
X3874674Y1868162D01*
X3874841Y1867802D01*
X3874952Y1867441D01*
X3875063Y1867108D01*
X3875146Y1866774D01*
X3875202Y1866469D01*
X3875258Y1866191D01*
X3875285Y1865969D01*
X3875313Y1865775D01*
Y1865608D01*
Y1865525D01*
Y1865497D01*
X3875258Y1864748D01*
X3875146Y1864054D01*
X3874952Y1863471D01*
X3874758Y1862971D01*
X3874563Y1862554D01*
X3874453Y1862416D01*
X3874369Y1862277D01*
X3874314Y1862166D01*
X3874258Y1862083D01*
X3874203Y1862055D01*
Y1862027D01*
X3873730Y1861527D01*
X3873231Y1861111D01*
X3872675Y1860750D01*
X3872176Y1860472D01*
X3871704Y1860250D01*
X3871510Y1860139D01*
X3871315Y1860084D01*
X3871176Y1860028D01*
X3871065Y1859973D01*
X3871010Y1859945D01*
X3870982D01*
X3870566Y1859806D01*
X3870149Y1859695D01*
X3869261Y1859528D01*
X3868345Y1859390D01*
X3867456Y1859306D01*
X3867068Y1859279D01*
X3866707Y1859251D01*
X3866374D01*
X3866068Y1859223D01*
X3864985D01*
X3864486Y1859251D01*
X3864042D01*
X3863597Y1859279D01*
X3863209Y1859334D01*
X3862820Y1859362D01*
X3862487Y1859390D01*
X3862181Y1859445D01*
X3861904Y1859473D01*
X3861654Y1859528D01*
X3861460Y1859556D01*
X3861293Y1859584D01*
X3861154Y1859612D01*
X3861071Y1859639D01*
X3861016Y1859667D01*
X3860988D01*
X3860377Y1859834D01*
X3859822Y1860028D01*
X3859350Y1860250D01*
X3858933Y1860417D01*
X3858572Y1860611D01*
X3858322Y1860722D01*
X3858184Y1860833D01*
X3858128Y1860861D01*
X3857712Y1861166D01*
X3857351Y1861472D01*
X3857046Y1861805D01*
X3856768Y1862110D01*
X3856573Y1862388D01*
X3856435Y1862610D01*
X3856351Y1862749D01*
X3856324Y1862777D01*
Y1862804D01*
X3856102Y1863248D01*
X3855963Y1863721D01*
X3855852Y1864165D01*
X3855768Y1864581D01*
X3855713Y1864942D01*
X3855685Y1865247D01*
Y1865358D01*
Y1865442D01*
Y1865470D01*
Y1865497D01*
X3855741Y1866247D01*
X3855852Y1866941D01*
X3856046Y1867524D01*
X3856241Y1868024D01*
X3856462Y1868440D01*
X3856546Y1868607D01*
X3856657Y1868745D01*
X3856712Y1868857D01*
X3856768Y1868940D01*
X3856823Y1868967D01*
Y1868995D01*
X3857267Y1869495D01*
X3857795Y1869911D01*
X3858322Y1870272D01*
X3858822Y1870550D01*
X3859294Y1870772D01*
X3859489Y1870883D01*
X3859683Y1870939D01*
X3859822Y1870994D01*
X3859933Y1871050D01*
X3859988Y1871078D01*
X3860016D01*
X3860432Y1871189D01*
X3860849Y1871300D01*
X3861765Y1871466D01*
X3862681Y1871605D01*
X3863542Y1871688D01*
X3863958Y1871716D01*
X3864319Y1871744D01*
X3864652D01*
X3864958Y1871772D01*
X3865513D01*
X3866485Y1871744D01*
D02*
G37*
G36*
X3874980Y1903171D02*
Y1900922D01*
X3861043Y1895619D01*
Y1898062D01*
X3869566Y1901144D01*
X3870121Y1901338D01*
X3870621Y1901533D01*
X3871093Y1901671D01*
X3871454Y1901810D01*
X3871787Y1901893D01*
X3872009Y1901977D01*
X3872148Y1902005D01*
X3872204Y1902032D01*
X3871676Y1902199D01*
X3871149Y1902338D01*
X3870677Y1902504D01*
X3870260Y1902643D01*
X3869899Y1902754D01*
X3869622Y1902837D01*
X3869539Y1902865D01*
X3869455Y1902893D01*
X3869427Y1902921D01*
X3869400D01*
X3861043Y1905919D01*
Y1908418D01*
X3874980Y1903171D01*
D02*
G37*
G36*
Y1963887D02*
X3872704D01*
Y1973353D01*
X3872231Y1973020D01*
X3872037Y1972854D01*
X3871843Y1972715D01*
X3871676Y1972576D01*
X3871565Y1972465D01*
X3871482Y1972382D01*
X3871454Y1972354D01*
X3871315Y1972215D01*
X3871176Y1972049D01*
X3870816Y1971660D01*
X3870399Y1971216D01*
X3869983Y1970744D01*
X3869622Y1970300D01*
X3869455Y1970105D01*
X3869289Y1969939D01*
X3869178Y1969800D01*
X3869094Y1969689D01*
X3869039Y1969633D01*
X3869011Y1969606D01*
X3868622Y1969161D01*
X3868261Y1968717D01*
X3867900Y1968328D01*
X3867595Y1967968D01*
X3867290Y1967634D01*
X3867012Y1967357D01*
X3866762Y1967079D01*
X3866540Y1966857D01*
X3866318Y1966635D01*
X3866151Y1966468D01*
X3866013Y1966330D01*
X3865874Y1966191D01*
X3865707Y1966052D01*
X3865652Y1965996D01*
X3865180Y1965608D01*
X3864763Y1965275D01*
X3864347Y1964997D01*
X3864014Y1964775D01*
X3863708Y1964608D01*
X3863486Y1964497D01*
X3863347Y1964442D01*
X3863292Y1964414D01*
X3862876Y1964247D01*
X3862459Y1964136D01*
X3862071Y1964025D01*
X3861737Y1963970D01*
X3861432Y1963942D01*
X3861210Y1963914D01*
X3861016D01*
X3860599Y1963942D01*
X3860210Y1963997D01*
X3859822Y1964053D01*
X3859489Y1964164D01*
X3858822Y1964442D01*
X3858295Y1964719D01*
X3858045Y1964886D01*
X3857851Y1965025D01*
X3857656Y1965164D01*
X3857517Y1965302D01*
X3857406Y1965413D01*
X3857296Y1965469D01*
X3857267Y1965524D01*
X3857240Y1965552D01*
X3856962Y1965858D01*
X3856712Y1966191D01*
X3856518Y1966552D01*
X3856351Y1966913D01*
X3856074Y1967634D01*
X3855880Y1968356D01*
X3855824Y1968662D01*
X3855768Y1968967D01*
X3855741Y1969245D01*
X3855713Y1969467D01*
X3855685Y1969661D01*
Y1969828D01*
Y1969911D01*
Y1969939D01*
X3855713Y1970438D01*
X3855741Y1970910D01*
X3855824Y1971355D01*
X3855907Y1971771D01*
X3856018Y1972160D01*
X3856129Y1972520D01*
X3856268Y1972854D01*
X3856407Y1973159D01*
X3856546Y1973437D01*
X3856685Y1973659D01*
X3856796Y1973853D01*
X3856907Y1974020D01*
X3856990Y1974158D01*
X3857073Y1974242D01*
X3857101Y1974297D01*
X3857129Y1974325D01*
X3857406Y1974603D01*
X3857712Y1974853D01*
X3858045Y1975102D01*
X3858378Y1975297D01*
X3859044Y1975630D01*
X3859711Y1975852D01*
X3860016Y1975935D01*
X3860321Y1976019D01*
X3860571Y1976074D01*
X3860793Y1976130D01*
X3860988Y1976157D01*
X3861126D01*
X3861210Y1976185D01*
X3861237D01*
X3861487Y1973770D01*
X3860849Y1973714D01*
X3860294Y1973603D01*
X3859794Y1973437D01*
X3859405Y1973242D01*
X3859072Y1973076D01*
X3858850Y1972909D01*
X3858711Y1972798D01*
X3858656Y1972743D01*
X3858322Y1972326D01*
X3858073Y1971882D01*
X3857878Y1971410D01*
X3857767Y1970994D01*
X3857684Y1970605D01*
X3857656Y1970272D01*
X3857628Y1970161D01*
Y1970078D01*
Y1970022D01*
Y1969994D01*
X3857656Y1969411D01*
X3857767Y1968884D01*
X3857934Y1968439D01*
X3858101Y1968051D01*
X3858295Y1967745D01*
X3858434Y1967551D01*
X3858545Y1967412D01*
X3858600Y1967357D01*
X3858989Y1967024D01*
X3859377Y1966774D01*
X3859766Y1966579D01*
X3860155Y1966468D01*
X3860460Y1966385D01*
X3860738Y1966357D01*
X3860905Y1966330D01*
X3860960D01*
X3861460Y1966385D01*
X3861987Y1966496D01*
X3862459Y1966691D01*
X3862903Y1966885D01*
X3863264Y1967107D01*
X3863570Y1967301D01*
X3863681Y1967357D01*
X3863764Y1967412D01*
X3863792Y1967468D01*
X3863820D01*
X3864125Y1967690D01*
X3864430Y1967968D01*
X3864763Y1968273D01*
X3865096Y1968606D01*
X3865763Y1969300D01*
X3866429Y1969994D01*
X3866735Y1970355D01*
X3867012Y1970661D01*
X3867262Y1970966D01*
X3867484Y1971216D01*
X3867651Y1971410D01*
X3867790Y1971577D01*
X3867873Y1971688D01*
X3867900Y1971715D01*
X3868484Y1972410D01*
X3869039Y1973048D01*
X3869539Y1973575D01*
X3869955Y1973992D01*
X3870316Y1974353D01*
X3870566Y1974603D01*
X3870732Y1974742D01*
X3870760Y1974797D01*
X3870788D01*
X3871260Y1975186D01*
X3871704Y1975491D01*
X3872148Y1975769D01*
X3872537Y1975991D01*
X3872870Y1976157D01*
X3873120Y1976268D01*
X3873286Y1976324D01*
X3873314Y1976352D01*
X3873342D01*
X3873647Y1976463D01*
X3873925Y1976518D01*
X3874203Y1976574D01*
X3874453Y1976602D01*
X3874674Y1976629D01*
X3874980D01*
Y1963887D01*
D02*
G37*
G36*
X3866485Y1961332D02*
X3867401Y1961277D01*
X3868234Y1961194D01*
X3869011Y1961055D01*
X3869733Y1960916D01*
X3870371Y1960749D01*
X3870954Y1960583D01*
X3871454Y1960416D01*
X3871898Y1960250D01*
X3872287Y1960055D01*
X3872620Y1959917D01*
X3872870Y1959778D01*
X3873092Y1959639D01*
X3873231Y1959556D01*
X3873314Y1959500D01*
X3873342Y1959472D01*
X3873675Y1959167D01*
X3873980Y1958834D01*
X3874258Y1958473D01*
X3874480Y1958112D01*
X3874674Y1957751D01*
X3874841Y1957390D01*
X3874952Y1957029D01*
X3875063Y1956696D01*
X3875146Y1956363D01*
X3875202Y1956058D01*
X3875258Y1955780D01*
X3875285Y1955558D01*
X3875313Y1955363D01*
Y1955197D01*
Y1955114D01*
Y1955086D01*
X3875258Y1954336D01*
X3875146Y1953642D01*
X3874952Y1953059D01*
X3874758Y1952560D01*
X3874563Y1952143D01*
X3874453Y1952004D01*
X3874369Y1951866D01*
X3874314Y1951754D01*
X3874258Y1951671D01*
X3874203Y1951643D01*
Y1951616D01*
X3873730Y1951116D01*
X3873231Y1950699D01*
X3872675Y1950338D01*
X3872176Y1950061D01*
X3871704Y1949839D01*
X3871510Y1949728D01*
X3871315Y1949672D01*
X3871176Y1949617D01*
X3871065Y1949561D01*
X3871010Y1949533D01*
X3870982D01*
X3870566Y1949395D01*
X3870149Y1949284D01*
X3869261Y1949117D01*
X3868345Y1948978D01*
X3867456Y1948895D01*
X3867068Y1948867D01*
X3866707Y1948839D01*
X3866374D01*
X3866068Y1948812D01*
X3864985D01*
X3864486Y1948839D01*
X3864042D01*
X3863597Y1948867D01*
X3863209Y1948923D01*
X3862820Y1948950D01*
X3862487Y1948978D01*
X3862181Y1949034D01*
X3861904Y1949061D01*
X3861654Y1949117D01*
X3861460Y1949145D01*
X3861293Y1949173D01*
X3861154Y1949200D01*
X3861071Y1949228D01*
X3861016Y1949256D01*
X3860988D01*
X3860377Y1949422D01*
X3859822Y1949617D01*
X3859350Y1949839D01*
X3858933Y1950005D01*
X3858572Y1950200D01*
X3858322Y1950311D01*
X3858184Y1950422D01*
X3858128Y1950450D01*
X3857712Y1950755D01*
X3857351Y1951060D01*
X3857046Y1951393D01*
X3856768Y1951699D01*
X3856573Y1951976D01*
X3856435Y1952199D01*
X3856351Y1952337D01*
X3856324Y1952365D01*
Y1952393D01*
X3856102Y1952837D01*
X3855963Y1953309D01*
X3855852Y1953753D01*
X3855768Y1954170D01*
X3855713Y1954531D01*
X3855685Y1954836D01*
Y1954947D01*
Y1955030D01*
Y1955058D01*
Y1955086D01*
X3855741Y1955836D01*
X3855852Y1956530D01*
X3856046Y1957112D01*
X3856241Y1957612D01*
X3856462Y1958029D01*
X3856546Y1958195D01*
X3856657Y1958334D01*
X3856712Y1958445D01*
X3856768Y1958528D01*
X3856823Y1958556D01*
Y1958584D01*
X3857267Y1959084D01*
X3857795Y1959500D01*
X3858322Y1959861D01*
X3858822Y1960139D01*
X3859294Y1960361D01*
X3859489Y1960472D01*
X3859683Y1960527D01*
X3859822Y1960583D01*
X3859933Y1960638D01*
X3859988Y1960666D01*
X3860016D01*
X3860432Y1960777D01*
X3860849Y1960888D01*
X3861765Y1961055D01*
X3862681Y1961194D01*
X3863542Y1961277D01*
X3863958Y1961305D01*
X3864319Y1961332D01*
X3864652D01*
X3864958Y1961360D01*
X3865513D01*
X3866485Y1961332D01*
D02*
G37*
G36*
X3869205Y1924464D02*
X3866846D01*
Y1931766D01*
X3869205D01*
Y1924464D01*
D02*
G37*
G36*
X3847980Y1935065D02*
X3844943D01*
Y1947694D01*
X3844314Y1947249D01*
X3844054Y1947027D01*
X3843795Y1946842D01*
X3843573Y1946657D01*
X3843425Y1946509D01*
X3843314Y1946398D01*
X3843277Y1946361D01*
X3843091Y1946175D01*
X3842906Y1945953D01*
X3842425Y1945435D01*
X3841870Y1944842D01*
X3841314Y1944213D01*
X3840833Y1943620D01*
X3840610Y1943361D01*
X3840388Y1943139D01*
X3840240Y1942953D01*
X3840129Y1942805D01*
X3840055Y1942731D01*
X3840018Y1942694D01*
X3839499Y1942102D01*
X3839018Y1941509D01*
X3838536Y1940991D01*
X3838129Y1940509D01*
X3837722Y1940065D01*
X3837351Y1939695D01*
X3837018Y1939324D01*
X3836722Y1939028D01*
X3836425Y1938732D01*
X3836203Y1938510D01*
X3836018Y1938324D01*
X3835833Y1938139D01*
X3835611Y1937954D01*
X3835537Y1937880D01*
X3834907Y1937361D01*
X3834352Y1936917D01*
X3833796Y1936547D01*
X3833352Y1936250D01*
X3832944Y1936028D01*
X3832648Y1935880D01*
X3832463Y1935806D01*
X3832389Y1935769D01*
X3831833Y1935547D01*
X3831278Y1935399D01*
X3830759Y1935251D01*
X3830315Y1935177D01*
X3829908Y1935139D01*
X3829612Y1935103D01*
X3829352D01*
X3828797Y1935139D01*
X3828278Y1935214D01*
X3827760Y1935288D01*
X3827315Y1935436D01*
X3826427Y1935806D01*
X3825723Y1936176D01*
X3825390Y1936399D01*
X3825130Y1936584D01*
X3824871Y1936769D01*
X3824686Y1936954D01*
X3824538Y1937102D01*
X3824390Y1937176D01*
X3824353Y1937250D01*
X3824316Y1937287D01*
X3823945Y1937695D01*
X3823612Y1938139D01*
X3823353Y1938621D01*
X3823130Y1939102D01*
X3822760Y1940065D01*
X3822501Y1941028D01*
X3822427Y1941435D01*
X3822353Y1941842D01*
X3822316Y1942213D01*
X3822279Y1942509D01*
X3822242Y1942768D01*
Y1942991D01*
Y1943102D01*
Y1943139D01*
X3822279Y1943805D01*
X3822316Y1944435D01*
X3822427Y1945027D01*
X3822538Y1945583D01*
X3822686Y1946101D01*
X3822834Y1946583D01*
X3823019Y1947027D01*
X3823205Y1947435D01*
X3823390Y1947805D01*
X3823575Y1948101D01*
X3823723Y1948360D01*
X3823871Y1948583D01*
X3823983Y1948768D01*
X3824094Y1948879D01*
X3824131Y1948953D01*
X3824167Y1948990D01*
X3824538Y1949360D01*
X3824945Y1949694D01*
X3825390Y1950027D01*
X3825834Y1950286D01*
X3826723Y1950730D01*
X3827612Y1951027D01*
X3828019Y1951138D01*
X3828427Y1951249D01*
X3828760Y1951323D01*
X3829056Y1951397D01*
X3829315Y1951434D01*
X3829500D01*
X3829612Y1951471D01*
X3829648D01*
X3829982Y1948249D01*
X3829130Y1948175D01*
X3828389Y1948027D01*
X3827723Y1947805D01*
X3827204Y1947546D01*
X3826760Y1947323D01*
X3826464Y1947101D01*
X3826278Y1946953D01*
X3826205Y1946879D01*
X3825760Y1946324D01*
X3825427Y1945731D01*
X3825168Y1945101D01*
X3825019Y1944546D01*
X3824908Y1944028D01*
X3824871Y1943583D01*
X3824834Y1943435D01*
Y1943324D01*
Y1943250D01*
Y1943213D01*
X3824871Y1942435D01*
X3825019Y1941731D01*
X3825241Y1941139D01*
X3825464Y1940620D01*
X3825723Y1940213D01*
X3825908Y1939954D01*
X3826056Y1939769D01*
X3826130Y1939695D01*
X3826649Y1939250D01*
X3827167Y1938917D01*
X3827686Y1938658D01*
X3828204Y1938510D01*
X3828611Y1938398D01*
X3828982Y1938361D01*
X3829204Y1938324D01*
X3829278D01*
X3829945Y1938398D01*
X3830648Y1938547D01*
X3831278Y1938806D01*
X3831870Y1939065D01*
X3832352Y1939361D01*
X3832759Y1939621D01*
X3832907Y1939695D01*
X3833018Y1939769D01*
X3833055Y1939843D01*
X3833093D01*
X3833500Y1940139D01*
X3833907Y1940509D01*
X3834352Y1940917D01*
X3834796Y1941361D01*
X3835685Y1942287D01*
X3836574Y1943213D01*
X3836981Y1943694D01*
X3837351Y1944102D01*
X3837685Y1944509D01*
X3837981Y1944842D01*
X3838203Y1945101D01*
X3838388Y1945324D01*
X3838499Y1945472D01*
X3838536Y1945509D01*
X3839314Y1946435D01*
X3840055Y1947286D01*
X3840721Y1947990D01*
X3841277Y1948546D01*
X3841758Y1949027D01*
X3842092Y1949360D01*
X3842314Y1949545D01*
X3842351Y1949619D01*
X3842388D01*
X3843017Y1950138D01*
X3843610Y1950545D01*
X3844203Y1950916D01*
X3844721Y1951212D01*
X3845165Y1951434D01*
X3845499Y1951582D01*
X3845721Y1951656D01*
X3845758Y1951693D01*
X3845795D01*
X3846202Y1951841D01*
X3846573Y1951916D01*
X3846943Y1951990D01*
X3847276Y1952027D01*
X3847573Y1952064D01*
X3847980D01*
Y1935065D01*
D02*
G37*
G36*
X3841870Y1931621D02*
X3842425Y1931510D01*
X3843462Y1931177D01*
X3844351Y1930770D01*
X3844758Y1930547D01*
X3845091Y1930325D01*
X3845424Y1930140D01*
X3845721Y1929918D01*
X3845943Y1929733D01*
X3846128Y1929547D01*
X3846277Y1929399D01*
X3846425Y1929325D01*
X3846461Y1929251D01*
X3846499Y1929214D01*
X3846832Y1928770D01*
X3847128Y1928325D01*
X3847387Y1927844D01*
X3847610Y1927363D01*
X3847943Y1926437D01*
X3848165Y1925511D01*
X3848276Y1925103D01*
X3848313Y1924696D01*
X3848350Y1924363D01*
X3848387Y1924067D01*
X3848424Y1923807D01*
Y1923622D01*
Y1923511D01*
Y1923474D01*
X3848387Y1922696D01*
X3848276Y1921956D01*
X3848128Y1921252D01*
X3847943Y1920623D01*
X3847684Y1920030D01*
X3847424Y1919474D01*
X3847165Y1918956D01*
X3846869Y1918512D01*
X3846573Y1918104D01*
X3846313Y1917734D01*
X3846017Y1917438D01*
X3845795Y1917178D01*
X3845610Y1916993D01*
X3845462Y1916845D01*
X3845351Y1916771D01*
X3845313Y1916734D01*
X3844832Y1916364D01*
X3844314Y1916067D01*
X3843832Y1915771D01*
X3843314Y1915549D01*
X3842314Y1915179D01*
X3841351Y1914956D01*
X3840944Y1914882D01*
X3840536Y1914808D01*
X3840203Y1914771D01*
X3839907Y1914734D01*
X3839648Y1914697D01*
X3839314D01*
X3838647Y1914734D01*
X3838018Y1914808D01*
X3837388Y1914919D01*
X3836833Y1915067D01*
X3836314Y1915253D01*
X3835796Y1915438D01*
X3835352Y1915660D01*
X3834944Y1915845D01*
X3834574Y1916067D01*
X3834241Y1916290D01*
X3833981Y1916475D01*
X3833722Y1916660D01*
X3833537Y1916808D01*
X3833426Y1916919D01*
X3833352Y1916993D01*
X3833315Y1917030D01*
X3832907Y1917475D01*
X3832537Y1917919D01*
X3832241Y1918401D01*
X3831982Y1918882D01*
X3831722Y1919363D01*
X3831537Y1919845D01*
X3831278Y1920734D01*
X3831167Y1921141D01*
X3831093Y1921511D01*
X3831056Y1921845D01*
X3831019Y1922141D01*
X3830982Y1922363D01*
Y1922548D01*
Y1922659D01*
Y1922696D01*
Y1923178D01*
X3831056Y1923622D01*
X3831241Y1924511D01*
X3831500Y1925326D01*
X3831796Y1926066D01*
X3832093Y1926659D01*
X3832241Y1926918D01*
X3832352Y1927140D01*
X3832463Y1927325D01*
X3832537Y1927437D01*
X3832574Y1927511D01*
X3832611Y1927548D01*
X3825686Y1926178D01*
Y1915919D01*
X3822686D01*
Y1928659D01*
X3835870Y1931140D01*
X3836277Y1928177D01*
X3835870Y1927918D01*
X3835537Y1927585D01*
X3835204Y1927289D01*
X3834944Y1926992D01*
X3834759Y1926696D01*
X3834574Y1926474D01*
X3834500Y1926326D01*
X3834463Y1926289D01*
X3834241Y1925807D01*
X3834055Y1925326D01*
X3833944Y1924881D01*
X3833833Y1924437D01*
X3833796Y1924067D01*
X3833759Y1923770D01*
Y1923585D01*
Y1923511D01*
Y1923067D01*
X3833833Y1922622D01*
X3834018Y1921845D01*
X3834278Y1921178D01*
X3834537Y1920585D01*
X3834833Y1920141D01*
X3835092Y1919808D01*
X3835277Y1919623D01*
X3835315Y1919548D01*
X3835352D01*
X3835981Y1919030D01*
X3836648Y1918660D01*
X3837351Y1918401D01*
X3838055Y1918215D01*
X3838647Y1918104D01*
X3838907Y1918067D01*
X3839129D01*
X3839314Y1918030D01*
X3840092D01*
X3840573Y1918104D01*
X3841499Y1918289D01*
X3842277Y1918549D01*
X3842906Y1918808D01*
X3843425Y1919104D01*
X3843832Y1919363D01*
X3843943Y1919474D01*
X3844054Y1919548D01*
X3844091Y1919586D01*
X3844128Y1919623D01*
X3844425Y1919919D01*
X3844684Y1920215D01*
X3845128Y1920882D01*
X3845424Y1921511D01*
X3845610Y1922141D01*
X3845758Y1922659D01*
X3845795Y1923104D01*
X3845832Y1923252D01*
Y1923363D01*
Y1923437D01*
Y1923474D01*
X3845795Y1924178D01*
X3845647Y1924807D01*
X3845462Y1925363D01*
X3845239Y1925807D01*
X3845017Y1926214D01*
X3844832Y1926511D01*
X3844684Y1926659D01*
X3844647Y1926733D01*
X3844128Y1927177D01*
X3843573Y1927548D01*
X3842943Y1927844D01*
X3842388Y1928066D01*
X3841832Y1928214D01*
X3841425Y1928325D01*
X3841240Y1928362D01*
X3841129Y1928400D01*
X3841017D01*
X3841277Y1931695D01*
X3841870Y1931621D01*
D02*
G37*
G36*
X3836314Y1901439D02*
X3837610Y1901291D01*
X3838759Y1901106D01*
X3839314Y1900958D01*
X3839796Y1900847D01*
X3840240Y1900736D01*
X3840647Y1900587D01*
X3841017Y1900476D01*
X3841314Y1900402D01*
X3841536Y1900291D01*
X3841721Y1900254D01*
X3841832Y1900180D01*
X3841870D01*
X3842980Y1899625D01*
X3843980Y1898995D01*
X3844832Y1898329D01*
X3845165Y1897995D01*
X3845499Y1897699D01*
X3845795Y1897403D01*
X3846054Y1897106D01*
X3846277Y1896847D01*
X3846425Y1896625D01*
X3846573Y1896477D01*
X3846684Y1896329D01*
X3846721Y1896255D01*
X3846758Y1896218D01*
X3847054Y1895699D01*
X3847313Y1895181D01*
X3847721Y1894070D01*
X3848017Y1892959D01*
X3848202Y1891885D01*
X3848276Y1891366D01*
X3848350Y1890922D01*
X3848387Y1890515D01*
Y1890181D01*
X3848424Y1889885D01*
Y1889663D01*
Y1889515D01*
Y1889478D01*
X3848387Y1888737D01*
X3848313Y1888033D01*
X3848239Y1887367D01*
X3848091Y1886737D01*
X3847906Y1886145D01*
X3847721Y1885589D01*
X3847535Y1885071D01*
X3847313Y1884589D01*
X3847128Y1884182D01*
X3846943Y1883775D01*
X3846758Y1883478D01*
X3846573Y1883182D01*
X3846425Y1882997D01*
X3846350Y1882812D01*
X3846277Y1882737D01*
X3846239Y1882701D01*
X3845795Y1882182D01*
X3845351Y1881738D01*
X3844832Y1881330D01*
X3844314Y1880923D01*
X3843277Y1880256D01*
X3842240Y1879738D01*
X3841758Y1879516D01*
X3841314Y1879330D01*
X3840906Y1879182D01*
X3840573Y1879071D01*
X3840277Y1878960D01*
X3840055Y1878886D01*
X3839907Y1878849D01*
X3839870D01*
X3839018Y1882256D01*
X3839610Y1882404D01*
X3840166Y1882589D01*
X3840684Y1882775D01*
X3841166Y1882960D01*
X3841610Y1883182D01*
X3841981Y1883404D01*
X3842351Y1883663D01*
X3842684Y1883886D01*
X3842980Y1884071D01*
X3843203Y1884293D01*
X3843425Y1884478D01*
X3843610Y1884626D01*
X3843721Y1884774D01*
X3843832Y1884886D01*
X3843869Y1884922D01*
X3843906Y1884960D01*
X3844203Y1885330D01*
X3844425Y1885737D01*
X3844832Y1886552D01*
X3845128Y1887330D01*
X3845313Y1888107D01*
X3845462Y1888774D01*
X3845499Y1889033D01*
Y1889292D01*
X3845536Y1889515D01*
Y1889663D01*
Y1889737D01*
Y1889774D01*
X3845499Y1890626D01*
X3845351Y1891440D01*
X3845165Y1892181D01*
X3844943Y1892848D01*
X3844721Y1893366D01*
X3844610Y1893588D01*
X3844536Y1893773D01*
X3844462Y1893922D01*
X3844388Y1894033D01*
X3844351Y1894107D01*
Y1894144D01*
X3843832Y1894847D01*
X3843277Y1895440D01*
X3842647Y1895958D01*
X3842055Y1896366D01*
X3841536Y1896699D01*
X3841092Y1896921D01*
X3840906Y1896995D01*
X3840795Y1897069D01*
X3840721Y1897106D01*
X3840684D01*
X3839721Y1897403D01*
X3838759Y1897625D01*
X3837796Y1897810D01*
X3836907Y1897921D01*
X3836500Y1897958D01*
X3836129Y1897995D01*
X3835796D01*
X3835537Y1898032D01*
X3834981D01*
X3834018Y1897995D01*
X3833130Y1897921D01*
X3832315Y1897773D01*
X3831574Y1897625D01*
X3830945Y1897514D01*
X3830685Y1897440D01*
X3830463Y1897366D01*
X3830278Y1897329D01*
X3830167Y1897292D01*
X3830093Y1897254D01*
X3830056D01*
X3829204Y1896884D01*
X3828427Y1896477D01*
X3827797Y1896033D01*
X3827241Y1895551D01*
X3826797Y1895144D01*
X3826501Y1894810D01*
X3826316Y1894551D01*
X3826241Y1894514D01*
Y1894477D01*
X3825760Y1893699D01*
X3825390Y1892848D01*
X3825130Y1892033D01*
X3824982Y1891255D01*
X3824871Y1890551D01*
X3824834Y1890255D01*
Y1889996D01*
X3824797Y1889811D01*
Y1889663D01*
Y1889552D01*
Y1889515D01*
X3824834Y1888589D01*
X3824982Y1887737D01*
X3825204Y1887033D01*
X3825427Y1886404D01*
X3825686Y1885922D01*
X3825871Y1885552D01*
X3826019Y1885330D01*
X3826093Y1885256D01*
X3826649Y1884663D01*
X3827278Y1884108D01*
X3827945Y1883663D01*
X3828611Y1883293D01*
X3829204Y1882997D01*
X3829500Y1882886D01*
X3829723Y1882812D01*
X3829908Y1882737D01*
X3830056Y1882664D01*
X3830130Y1882626D01*
X3830167D01*
X3829389Y1879293D01*
X3828723Y1879516D01*
X3828130Y1879738D01*
X3827574Y1880034D01*
X3827019Y1880293D01*
X3826538Y1880590D01*
X3826093Y1880923D01*
X3825649Y1881219D01*
X3825279Y1881515D01*
X3824982Y1881812D01*
X3824686Y1882071D01*
X3824427Y1882330D01*
X3824242Y1882515D01*
X3824056Y1882701D01*
X3823945Y1882849D01*
X3823908Y1882923D01*
X3823871Y1882960D01*
X3823538Y1883478D01*
X3823205Y1883997D01*
X3822945Y1884515D01*
X3822723Y1885071D01*
X3822390Y1886182D01*
X3822168Y1887182D01*
X3822057Y1887663D01*
X3822020Y1888070D01*
X3821983Y1888478D01*
X3821945Y1888811D01*
X3821909Y1889070D01*
Y1889255D01*
Y1889404D01*
Y1889440D01*
X3821983Y1890663D01*
X3822168Y1891848D01*
X3822390Y1892885D01*
X3822538Y1893366D01*
X3822686Y1893810D01*
X3822834Y1894218D01*
X3822982Y1894588D01*
X3823094Y1894884D01*
X3823205Y1895181D01*
X3823316Y1895366D01*
X3823390Y1895514D01*
X3823427Y1895625D01*
X3823464Y1895662D01*
X3824094Y1896662D01*
X3824834Y1897514D01*
X3825575Y1898254D01*
X3826316Y1898884D01*
X3826982Y1899365D01*
X3827278Y1899551D01*
X3827538Y1899699D01*
X3827723Y1899847D01*
X3827871Y1899921D01*
X3827982Y1899958D01*
X3828019Y1899995D01*
X3829167Y1900513D01*
X3830352Y1900884D01*
X3831537Y1901143D01*
X3832611Y1901328D01*
X3833093Y1901402D01*
X3833574Y1901439D01*
X3833944Y1901476D01*
X3834315D01*
X3834574Y1901513D01*
X3834981D01*
X3836314Y1901439D01*
D02*
G37*
G36*
X3847980Y1964581D02*
X3847943Y1963692D01*
X3847906Y1962914D01*
X3847832Y1962211D01*
X3847758Y1961618D01*
X3847684Y1961137D01*
X3847646Y1960766D01*
X3847573Y1960544D01*
Y1960470D01*
X3847387Y1959841D01*
X3847202Y1959322D01*
X3846980Y1958841D01*
X3846758Y1958433D01*
X3846610Y1958100D01*
X3846461Y1957841D01*
X3846350Y1957693D01*
X3846313Y1957656D01*
X3845980Y1957248D01*
X3845573Y1956878D01*
X3845165Y1956582D01*
X3844795Y1956286D01*
X3844425Y1956063D01*
X3844166Y1955915D01*
X3843980Y1955804D01*
X3843906Y1955767D01*
X3843314Y1955508D01*
X3842721Y1955323D01*
X3842166Y1955175D01*
X3841647Y1955100D01*
X3841203Y1955026D01*
X3840833Y1954989D01*
X3840536D01*
X3839721Y1955026D01*
X3838981Y1955175D01*
X3838351Y1955397D01*
X3837759Y1955619D01*
X3837314Y1955841D01*
X3836981Y1956063D01*
X3836759Y1956211D01*
X3836685Y1956248D01*
X3836092Y1956767D01*
X3835611Y1957322D01*
X3835204Y1957952D01*
X3834870Y1958508D01*
X3834611Y1959026D01*
X3834463Y1959470D01*
X3834389Y1959619D01*
X3834352Y1959730D01*
X3834315Y1959804D01*
Y1959841D01*
X3833944Y1959211D01*
X3833574Y1958656D01*
X3833167Y1958211D01*
X3832796Y1957841D01*
X3832500Y1957545D01*
X3832204Y1957322D01*
X3832056Y1957211D01*
X3831982Y1957174D01*
X3831426Y1956878D01*
X3830908Y1956656D01*
X3830389Y1956471D01*
X3829908Y1956360D01*
X3829500Y1956286D01*
X3829167Y1956248D01*
X3828908D01*
X3828278Y1956286D01*
X3827649Y1956397D01*
X3827093Y1956582D01*
X3826575Y1956767D01*
X3826130Y1956952D01*
X3825834Y1957137D01*
X3825612Y1957248D01*
X3825538Y1957285D01*
X3824982Y1957693D01*
X3824464Y1958137D01*
X3824056Y1958619D01*
X3823723Y1959063D01*
X3823464Y1959433D01*
X3823279Y1959767D01*
X3823168Y1959989D01*
X3823130Y1960026D01*
Y1960063D01*
X3822871Y1960766D01*
X3822686Y1961544D01*
X3822538Y1962322D01*
X3822464Y1963062D01*
X3822390Y1963729D01*
Y1964025D01*
X3822353Y1964285D01*
Y1964470D01*
Y1964618D01*
Y1964729D01*
Y1964766D01*
Y1974358D01*
X3847980D01*
Y1964581D01*
D02*
G37*
G36*
Y2036203D02*
X3847943Y2035314D01*
X3847906Y2034537D01*
X3847832Y2033833D01*
X3847758Y2033241D01*
X3847684Y2032759D01*
X3847646Y2032389D01*
X3847573Y2032166D01*
Y2032092D01*
X3847387Y2031463D01*
X3847202Y2030944D01*
X3846980Y2030463D01*
X3846758Y2030056D01*
X3846610Y2029722D01*
X3846461Y2029463D01*
X3846350Y2029315D01*
X3846313Y2029278D01*
X3845980Y2028871D01*
X3845573Y2028500D01*
X3845165Y2028204D01*
X3844795Y2027908D01*
X3844425Y2027686D01*
X3844166Y2027537D01*
X3843980Y2027426D01*
X3843906Y2027389D01*
X3843314Y2027130D01*
X3842721Y2026945D01*
X3842166Y2026797D01*
X3841647Y2026723D01*
X3841203Y2026649D01*
X3840833Y2026611D01*
X3840536D01*
X3839721Y2026649D01*
X3838981Y2026797D01*
X3838351Y2027019D01*
X3837759Y2027241D01*
X3837314Y2027463D01*
X3836981Y2027686D01*
X3836759Y2027834D01*
X3836685Y2027871D01*
X3836092Y2028389D01*
X3835611Y2028945D01*
X3835204Y2029574D01*
X3834870Y2030130D01*
X3834611Y2030648D01*
X3834463Y2031093D01*
X3834389Y2031241D01*
X3834352Y2031352D01*
X3834315Y2031426D01*
Y2031463D01*
X3833944Y2030833D01*
X3833574Y2030278D01*
X3833167Y2029833D01*
X3832796Y2029463D01*
X3832500Y2029167D01*
X3832204Y2028945D01*
X3832056Y2028833D01*
X3831982Y2028797D01*
X3831426Y2028500D01*
X3830908Y2028278D01*
X3830389Y2028093D01*
X3829908Y2027982D01*
X3829500Y2027908D01*
X3829167Y2027871D01*
X3828908D01*
X3828278Y2027908D01*
X3827649Y2028019D01*
X3827093Y2028204D01*
X3826575Y2028389D01*
X3826130Y2028574D01*
X3825834Y2028759D01*
X3825612Y2028871D01*
X3825538Y2028908D01*
X3824982Y2029315D01*
X3824464Y2029759D01*
X3824056Y2030241D01*
X3823723Y2030685D01*
X3823464Y2031055D01*
X3823279Y2031389D01*
X3823168Y2031611D01*
X3823130Y2031648D01*
Y2031685D01*
X3822871Y2032389D01*
X3822686Y2033166D01*
X3822538Y2033944D01*
X3822464Y2034685D01*
X3822390Y2035351D01*
Y2035648D01*
X3822353Y2035907D01*
Y2036092D01*
Y2036240D01*
Y2036351D01*
Y2036388D01*
Y2045980D01*
X3847980D01*
Y2036203D01*
D02*
G37*
G36*
X3832352Y2023945D02*
X3832907Y2023723D01*
X3833389Y2023464D01*
X3833796Y2023204D01*
X3834092Y2022945D01*
X3834315Y2022723D01*
X3834463Y2022538D01*
X3834500Y2022501D01*
X3834833Y2021982D01*
X3835055Y2021353D01*
X3835240Y2020760D01*
X3835352Y2020131D01*
X3835426Y2019612D01*
X3835463Y2019168D01*
Y2018983D01*
Y2018872D01*
Y2018797D01*
Y2018761D01*
X3835426Y2017872D01*
X3835277Y2017057D01*
X3835092Y2016390D01*
X3834870Y2015835D01*
X3834648Y2015390D01*
X3834463Y2015094D01*
X3834315Y2014909D01*
X3834278Y2014835D01*
X3833796Y2014353D01*
X3833315Y2014020D01*
X3832833Y2013761D01*
X3832389Y2013613D01*
X3832019Y2013502D01*
X3831685Y2013465D01*
X3831500Y2013428D01*
X3831426D01*
X3830982Y2013465D01*
X3830611Y2013539D01*
X3830241Y2013650D01*
X3829945Y2013798D01*
X3829685Y2013946D01*
X3829500Y2014057D01*
X3829389Y2014131D01*
X3829352Y2014168D01*
X3829056Y2014465D01*
X3828797Y2014835D01*
X3828575Y2015242D01*
X3828389Y2015613D01*
X3828241Y2015946D01*
X3828167Y2016242D01*
X3828093Y2016427D01*
Y2016464D01*
Y2016501D01*
X3827945Y2016094D01*
X3827797Y2015724D01*
X3827612Y2015390D01*
X3827426Y2015131D01*
X3827278Y2014946D01*
X3827130Y2014798D01*
X3827056Y2014724D01*
X3827019Y2014687D01*
X3826723Y2014465D01*
X3826427Y2014317D01*
X3826130Y2014205D01*
X3825871Y2014131D01*
X3825612Y2014094D01*
X3825427Y2014057D01*
X3825279D01*
X3824797Y2014094D01*
X3824353Y2014242D01*
X3823945Y2014428D01*
X3823612Y2014613D01*
X3823353Y2014835D01*
X3823130Y2015020D01*
X3823019Y2015168D01*
X3822982Y2015205D01*
X3822649Y2015687D01*
X3822427Y2016279D01*
X3822242Y2016872D01*
X3822131Y2017464D01*
X3822057Y2018020D01*
X3822020Y2018464D01*
Y2018612D01*
Y2018761D01*
Y2018835D01*
Y2018872D01*
X3822057Y2019612D01*
X3822131Y2020242D01*
X3822242Y2020797D01*
X3822390Y2021242D01*
X3822538Y2021612D01*
X3822649Y2021834D01*
X3822723Y2022019D01*
X3822760Y2022056D01*
X3823094Y2022427D01*
X3823464Y2022797D01*
X3823908Y2023093D01*
X3824316Y2023353D01*
X3824686Y2023538D01*
X3825019Y2023723D01*
X3825241Y2023797D01*
X3825279Y2023834D01*
X3825316D01*
X3825723Y2021316D01*
X3825390Y2021168D01*
X3825093Y2021019D01*
X3824834Y2020871D01*
X3824649Y2020723D01*
X3824538Y2020575D01*
X3824427Y2020464D01*
X3824353Y2020427D01*
Y2020390D01*
X3824205Y2020168D01*
X3824131Y2019908D01*
X3823983Y2019427D01*
Y2019205D01*
X3823945Y2019020D01*
Y2018909D01*
Y2018872D01*
X3823983Y2018501D01*
X3824019Y2018205D01*
X3824094Y2017946D01*
X3824167Y2017724D01*
X3824279Y2017575D01*
X3824353Y2017464D01*
X3824390Y2017390D01*
X3824427Y2017353D01*
X3824612Y2017168D01*
X3824797Y2017020D01*
X3824945Y2016946D01*
X3825130Y2016872D01*
X3825279Y2016835D01*
X3825390Y2016798D01*
X3825501D01*
X3825797Y2016835D01*
X3826019Y2016909D01*
X3826427Y2017131D01*
X3826575Y2017242D01*
X3826686Y2017353D01*
X3826760Y2017427D01*
X3826797Y2017464D01*
X3826982Y2017761D01*
X3827093Y2018057D01*
X3827167Y2018427D01*
X3827241Y2018761D01*
X3827278Y2019057D01*
Y2019316D01*
Y2019464D01*
Y2019538D01*
X3829204Y2019908D01*
Y2019797D01*
Y2019686D01*
Y2019575D01*
Y2019538D01*
X3829167Y2019279D01*
Y2019131D01*
Y2019020D01*
Y2018983D01*
X3829204Y2018427D01*
X3829241Y2017983D01*
X3829315Y2017612D01*
X3829426Y2017316D01*
X3829537Y2017094D01*
X3829612Y2016909D01*
X3829648Y2016835D01*
X3829685Y2016798D01*
X3829908Y2016575D01*
X3830130Y2016427D01*
X3830352Y2016316D01*
X3830574Y2016242D01*
X3830797Y2016205D01*
X3830945Y2016168D01*
X3831093D01*
X3831426Y2016205D01*
X3831759Y2016279D01*
X3832019Y2016427D01*
X3832278Y2016539D01*
X3832463Y2016687D01*
X3832611Y2016835D01*
X3832685Y2016909D01*
X3832722Y2016946D01*
X3832944Y2017242D01*
X3833093Y2017575D01*
X3833241Y2017909D01*
X3833315Y2018205D01*
X3833352Y2018464D01*
X3833389Y2018686D01*
Y2018872D01*
Y2018909D01*
X3833352Y2019279D01*
X3833315Y2019612D01*
X3833241Y2019908D01*
X3833130Y2020168D01*
X3833018Y2020390D01*
X3832944Y2020538D01*
X3832907Y2020649D01*
X3832870Y2020686D01*
X3832685Y2020871D01*
X3832500Y2021057D01*
X3832019Y2021353D01*
X3831796Y2021427D01*
X3831611Y2021501D01*
X3831463Y2021575D01*
X3831426D01*
X3831685Y2024130D01*
X3832352Y2023945D01*
D02*
G37*
G36*
X3847980Y1990837D02*
X3847943Y1989986D01*
X3847906Y1989208D01*
X3847832Y1988504D01*
X3847758Y1987912D01*
X3847684Y1987393D01*
X3847646Y1987023D01*
X3847610Y1986912D01*
X3847573Y1986801D01*
Y1986764D01*
Y1986727D01*
X3847387Y1986060D01*
X3847165Y1985468D01*
X3846980Y1984949D01*
X3846758Y1984505D01*
X3846573Y1984134D01*
X3846425Y1983875D01*
X3846313Y1983727D01*
X3846277Y1983653D01*
X3845943Y1983172D01*
X3845536Y1982764D01*
X3845165Y1982357D01*
X3844795Y1982023D01*
X3844462Y1981727D01*
X3844203Y1981505D01*
X3844017Y1981357D01*
X3843943Y1981320D01*
X3843351Y1980950D01*
X3842721Y1980579D01*
X3842129Y1980283D01*
X3841536Y1980061D01*
X3841017Y1979839D01*
X3840610Y1979691D01*
X3840462Y1979653D01*
X3840351Y1979616D01*
X3840277Y1979579D01*
X3840240D01*
X3839351Y1979357D01*
X3838463Y1979172D01*
X3837610Y1979061D01*
X3836796Y1978950D01*
X3836092Y1978913D01*
X3835796D01*
X3835537Y1978876D01*
X3835055D01*
X3833796Y1978913D01*
X3832648Y1979024D01*
X3831611Y1979209D01*
X3831130Y1979283D01*
X3830722Y1979394D01*
X3830315Y1979505D01*
X3829982Y1979579D01*
X3829685Y1979653D01*
X3829426Y1979765D01*
X3829204Y1979802D01*
X3829056Y1979876D01*
X3828982Y1979913D01*
X3828945D01*
X3827982Y1980320D01*
X3827130Y1980801D01*
X3826389Y1981320D01*
X3825760Y1981801D01*
X3825241Y1982246D01*
X3824871Y1982616D01*
X3824760Y1982764D01*
X3824649Y1982875D01*
X3824612Y1982912D01*
X3824575Y1982949D01*
X3824094Y1983542D01*
X3823723Y1984171D01*
X3823390Y1984801D01*
X3823130Y1985394D01*
X3822945Y1985912D01*
X3822834Y1986319D01*
X3822760Y1986467D01*
Y1986579D01*
X3822723Y1986653D01*
Y1986690D01*
X3822612Y1987319D01*
X3822501Y1988060D01*
X3822427Y1988801D01*
X3822390Y1989541D01*
X3822353Y1990208D01*
Y1990504D01*
Y1990763D01*
Y1990948D01*
Y1991097D01*
Y1991208D01*
Y1991245D01*
Y2000059D01*
X3847980D01*
Y1990837D01*
D02*
G37*
G36*
X3836314Y1849741D02*
X3837610Y1849593D01*
X3838759Y1849408D01*
X3839314Y1849259D01*
X3839796Y1849148D01*
X3840240Y1849037D01*
X3840647Y1848889D01*
X3841017Y1848778D01*
X3841314Y1848704D01*
X3841536Y1848593D01*
X3841721Y1848556D01*
X3841832Y1848482D01*
X3841870D01*
X3842980Y1847926D01*
X3843980Y1847297D01*
X3844832Y1846630D01*
X3845165Y1846297D01*
X3845499Y1846001D01*
X3845795Y1845704D01*
X3846054Y1845408D01*
X3846277Y1845149D01*
X3846425Y1844927D01*
X3846573Y1844778D01*
X3846684Y1844630D01*
X3846721Y1844556D01*
X3846758Y1844519D01*
X3847054Y1844001D01*
X3847313Y1843482D01*
X3847721Y1842371D01*
X3848017Y1841260D01*
X3848202Y1840186D01*
X3848276Y1839668D01*
X3848350Y1839223D01*
X3848387Y1838816D01*
Y1838483D01*
X3848424Y1838187D01*
Y1837964D01*
Y1837816D01*
Y1837779D01*
X3848387Y1837039D01*
X3848313Y1836335D01*
X3848239Y1835668D01*
X3848091Y1835039D01*
X3847906Y1834446D01*
X3847721Y1833891D01*
X3847535Y1833372D01*
X3847313Y1832891D01*
X3847128Y1832484D01*
X3846943Y1832076D01*
X3846758Y1831780D01*
X3846573Y1831484D01*
X3846425Y1831298D01*
X3846350Y1831113D01*
X3846277Y1831039D01*
X3846239Y1831002D01*
X3845795Y1830484D01*
X3845351Y1830039D01*
X3844832Y1829632D01*
X3844314Y1829225D01*
X3843277Y1828558D01*
X3842240Y1828040D01*
X3841758Y1827817D01*
X3841314Y1827632D01*
X3840906Y1827484D01*
X3840573Y1827373D01*
X3840277Y1827262D01*
X3840055Y1827188D01*
X3839907Y1827151D01*
X3839870D01*
X3839018Y1830558D01*
X3839610Y1830706D01*
X3840166Y1830891D01*
X3840684Y1831076D01*
X3841166Y1831261D01*
X3841610Y1831484D01*
X3841981Y1831706D01*
X3842351Y1831965D01*
X3842684Y1832187D01*
X3842980Y1832372D01*
X3843203Y1832595D01*
X3843425Y1832780D01*
X3843610Y1832928D01*
X3843721Y1833076D01*
X3843832Y1833187D01*
X3843869Y1833224D01*
X3843906Y1833261D01*
X3844203Y1833631D01*
X3844425Y1834039D01*
X3844832Y1834854D01*
X3845128Y1835631D01*
X3845313Y1836409D01*
X3845462Y1837076D01*
X3845499Y1837335D01*
Y1837594D01*
X3845536Y1837816D01*
Y1837964D01*
Y1838038D01*
Y1838076D01*
X3845499Y1838927D01*
X3845351Y1839742D01*
X3845165Y1840483D01*
X3844943Y1841149D01*
X3844721Y1841668D01*
X3844610Y1841890D01*
X3844536Y1842075D01*
X3844462Y1842223D01*
X3844388Y1842334D01*
X3844351Y1842408D01*
Y1842445D01*
X3843832Y1843149D01*
X3843277Y1843742D01*
X3842647Y1844260D01*
X3842055Y1844667D01*
X3841536Y1845001D01*
X3841092Y1845223D01*
X3840906Y1845297D01*
X3840795Y1845371D01*
X3840721Y1845408D01*
X3840684D01*
X3839721Y1845704D01*
X3838759Y1845927D01*
X3837796Y1846112D01*
X3836907Y1846223D01*
X3836500Y1846260D01*
X3836129Y1846297D01*
X3835796D01*
X3835537Y1846334D01*
X3834981D01*
X3834018Y1846297D01*
X3833130Y1846223D01*
X3832315Y1846075D01*
X3831574Y1845927D01*
X3830945Y1845815D01*
X3830685Y1845741D01*
X3830463Y1845667D01*
X3830278Y1845630D01*
X3830167Y1845593D01*
X3830093Y1845556D01*
X3830056D01*
X3829204Y1845186D01*
X3828427Y1844778D01*
X3827797Y1844334D01*
X3827241Y1843853D01*
X3826797Y1843445D01*
X3826501Y1843112D01*
X3826316Y1842853D01*
X3826241Y1842816D01*
Y1842779D01*
X3825760Y1842001D01*
X3825390Y1841149D01*
X3825130Y1840334D01*
X3824982Y1839557D01*
X3824871Y1838853D01*
X3824834Y1838557D01*
Y1838298D01*
X3824797Y1838112D01*
Y1837964D01*
Y1837853D01*
Y1837816D01*
X3824834Y1836890D01*
X3824982Y1836039D01*
X3825204Y1835335D01*
X3825427Y1834706D01*
X3825686Y1834224D01*
X3825871Y1833854D01*
X3826019Y1833631D01*
X3826093Y1833557D01*
X3826649Y1832965D01*
X3827278Y1832409D01*
X3827945Y1831965D01*
X3828611Y1831595D01*
X3829204Y1831298D01*
X3829500Y1831187D01*
X3829723Y1831113D01*
X3829908Y1831039D01*
X3830056Y1830965D01*
X3830130Y1830928D01*
X3830167D01*
X3829389Y1827595D01*
X3828723Y1827817D01*
X3828130Y1828040D01*
X3827574Y1828336D01*
X3827019Y1828595D01*
X3826538Y1828891D01*
X3826093Y1829225D01*
X3825649Y1829521D01*
X3825279Y1829817D01*
X3824982Y1830113D01*
X3824686Y1830373D01*
X3824427Y1830632D01*
X3824242Y1830817D01*
X3824056Y1831002D01*
X3823945Y1831150D01*
X3823908Y1831224D01*
X3823871Y1831261D01*
X3823538Y1831780D01*
X3823205Y1832298D01*
X3822945Y1832817D01*
X3822723Y1833372D01*
X3822390Y1834483D01*
X3822168Y1835483D01*
X3822057Y1835965D01*
X3822020Y1836372D01*
X3821983Y1836779D01*
X3821945Y1837113D01*
X3821909Y1837372D01*
Y1837557D01*
Y1837705D01*
Y1837742D01*
X3821983Y1838964D01*
X3822168Y1840149D01*
X3822390Y1841186D01*
X3822538Y1841668D01*
X3822686Y1842112D01*
X3822834Y1842520D01*
X3822982Y1842890D01*
X3823094Y1843186D01*
X3823205Y1843482D01*
X3823316Y1843667D01*
X3823390Y1843816D01*
X3823427Y1843927D01*
X3823464Y1843964D01*
X3824094Y1844964D01*
X3824834Y1845815D01*
X3825575Y1846556D01*
X3826316Y1847186D01*
X3826982Y1847667D01*
X3827278Y1847852D01*
X3827538Y1848000D01*
X3827723Y1848148D01*
X3827871Y1848223D01*
X3827982Y1848260D01*
X3828019Y1848297D01*
X3829167Y1848815D01*
X3830352Y1849185D01*
X3831537Y1849445D01*
X3832611Y1849630D01*
X3833093Y1849704D01*
X3833574Y1849741D01*
X3833944Y1849778D01*
X3834315D01*
X3834574Y1849815D01*
X3834981D01*
X3836314Y1849741D01*
D02*
G37*
G36*
Y1813930D02*
X3837610Y1813782D01*
X3838759Y1813597D01*
X3839314Y1813448D01*
X3839796Y1813337D01*
X3840240Y1813226D01*
X3840647Y1813078D01*
X3841017Y1812967D01*
X3841314Y1812893D01*
X3841536Y1812782D01*
X3841721Y1812745D01*
X3841832Y1812671D01*
X3841870D01*
X3842980Y1812115D01*
X3843980Y1811486D01*
X3844832Y1810819D01*
X3845165Y1810486D01*
X3845499Y1810190D01*
X3845795Y1809893D01*
X3846054Y1809597D01*
X3846277Y1809338D01*
X3846425Y1809115D01*
X3846573Y1808967D01*
X3846684Y1808819D01*
X3846721Y1808745D01*
X3846758Y1808708D01*
X3847054Y1808190D01*
X3847313Y1807671D01*
X3847721Y1806560D01*
X3848017Y1805449D01*
X3848202Y1804375D01*
X3848276Y1803857D01*
X3848350Y1803412D01*
X3848387Y1803005D01*
Y1802672D01*
X3848424Y1802375D01*
Y1802153D01*
Y1802005D01*
Y1801968D01*
X3848387Y1801228D01*
X3848313Y1800524D01*
X3848239Y1799857D01*
X3848091Y1799228D01*
X3847906Y1798635D01*
X3847721Y1798080D01*
X3847535Y1797561D01*
X3847313Y1797080D01*
X3847128Y1796672D01*
X3846943Y1796265D01*
X3846758Y1795969D01*
X3846573Y1795672D01*
X3846425Y1795487D01*
X3846350Y1795302D01*
X3846277Y1795228D01*
X3846239Y1795191D01*
X3845795Y1794673D01*
X3845351Y1794228D01*
X3844832Y1793821D01*
X3844314Y1793414D01*
X3843277Y1792747D01*
X3842240Y1792228D01*
X3841758Y1792006D01*
X3841314Y1791821D01*
X3840906Y1791673D01*
X3840573Y1791562D01*
X3840277Y1791451D01*
X3840055Y1791377D01*
X3839907Y1791340D01*
X3839870D01*
X3839018Y1794747D01*
X3839610Y1794895D01*
X3840166Y1795080D01*
X3840684Y1795265D01*
X3841166Y1795450D01*
X3841610Y1795672D01*
X3841981Y1795895D01*
X3842351Y1796154D01*
X3842684Y1796376D01*
X3842980Y1796561D01*
X3843203Y1796783D01*
X3843425Y1796969D01*
X3843610Y1797117D01*
X3843721Y1797265D01*
X3843832Y1797376D01*
X3843869Y1797413D01*
X3843906Y1797450D01*
X3844203Y1797820D01*
X3844425Y1798228D01*
X3844832Y1799043D01*
X3845128Y1799820D01*
X3845313Y1800598D01*
X3845462Y1801264D01*
X3845499Y1801524D01*
Y1801783D01*
X3845536Y1802005D01*
Y1802153D01*
Y1802227D01*
Y1802264D01*
X3845499Y1803116D01*
X3845351Y1803931D01*
X3845165Y1804671D01*
X3844943Y1805338D01*
X3844721Y1805857D01*
X3844610Y1806079D01*
X3844536Y1806264D01*
X3844462Y1806412D01*
X3844388Y1806523D01*
X3844351Y1806597D01*
Y1806634D01*
X3843832Y1807338D01*
X3843277Y1807930D01*
X3842647Y1808449D01*
X3842055Y1808856D01*
X3841536Y1809190D01*
X3841092Y1809412D01*
X3840906Y1809486D01*
X3840795Y1809560D01*
X3840721Y1809597D01*
X3840684D01*
X3839721Y1809893D01*
X3838759Y1810115D01*
X3837796Y1810301D01*
X3836907Y1810412D01*
X3836500Y1810449D01*
X3836129Y1810486D01*
X3835796D01*
X3835537Y1810523D01*
X3834981D01*
X3834018Y1810486D01*
X3833130Y1810412D01*
X3832315Y1810264D01*
X3831574Y1810115D01*
X3830945Y1810004D01*
X3830685Y1809930D01*
X3830463Y1809856D01*
X3830278Y1809819D01*
X3830167Y1809782D01*
X3830093Y1809745D01*
X3830056D01*
X3829204Y1809375D01*
X3828427Y1808967D01*
X3827797Y1808523D01*
X3827241Y1808042D01*
X3826797Y1807634D01*
X3826501Y1807301D01*
X3826316Y1807042D01*
X3826241Y1807005D01*
Y1806968D01*
X3825760Y1806190D01*
X3825390Y1805338D01*
X3825130Y1804523D01*
X3824982Y1803746D01*
X3824871Y1803042D01*
X3824834Y1802746D01*
Y1802487D01*
X3824797Y1802301D01*
Y1802153D01*
Y1802042D01*
Y1802005D01*
X3824834Y1801079D01*
X3824982Y1800228D01*
X3825204Y1799524D01*
X3825427Y1798894D01*
X3825686Y1798413D01*
X3825871Y1798043D01*
X3826019Y1797820D01*
X3826093Y1797746D01*
X3826649Y1797154D01*
X3827278Y1796598D01*
X3827945Y1796154D01*
X3828611Y1795784D01*
X3829204Y1795487D01*
X3829500Y1795376D01*
X3829723Y1795302D01*
X3829908Y1795228D01*
X3830056Y1795154D01*
X3830130Y1795117D01*
X3830167D01*
X3829389Y1791784D01*
X3828723Y1792006D01*
X3828130Y1792228D01*
X3827574Y1792525D01*
X3827019Y1792784D01*
X3826538Y1793080D01*
X3826093Y1793414D01*
X3825649Y1793710D01*
X3825279Y1794006D01*
X3824982Y1794302D01*
X3824686Y1794561D01*
X3824427Y1794821D01*
X3824242Y1795006D01*
X3824056Y1795191D01*
X3823945Y1795339D01*
X3823908Y1795413D01*
X3823871Y1795450D01*
X3823538Y1795969D01*
X3823205Y1796487D01*
X3822945Y1797006D01*
X3822723Y1797561D01*
X3822390Y1798672D01*
X3822168Y1799672D01*
X3822057Y1800154D01*
X3822020Y1800561D01*
X3821983Y1800968D01*
X3821945Y1801302D01*
X3821909Y1801561D01*
Y1801746D01*
Y1801894D01*
Y1801931D01*
X3821983Y1803153D01*
X3822168Y1804338D01*
X3822390Y1805375D01*
X3822538Y1805857D01*
X3822686Y1806301D01*
X3822834Y1806708D01*
X3822982Y1807079D01*
X3823094Y1807375D01*
X3823205Y1807671D01*
X3823316Y1807856D01*
X3823390Y1808004D01*
X3823427Y1808116D01*
X3823464Y1808153D01*
X3824094Y1809153D01*
X3824834Y1810004D01*
X3825575Y1810745D01*
X3826316Y1811375D01*
X3826982Y1811856D01*
X3827278Y1812041D01*
X3827538Y1812189D01*
X3827723Y1812337D01*
X3827871Y1812411D01*
X3827982Y1812448D01*
X3828019Y1812486D01*
X3829167Y1813004D01*
X3830352Y1813374D01*
X3831537Y1813634D01*
X3832611Y1813819D01*
X3833093Y1813893D01*
X3833574Y1813930D01*
X3833944Y1813967D01*
X3834315D01*
X3834574Y1814004D01*
X3834981D01*
X3836314Y1813930D01*
D02*
G37*
G36*
X3847980Y1871442D02*
X3827871D01*
X3847980Y1858036D01*
Y1854518D01*
X3822353D01*
Y1857777D01*
X3842499D01*
X3822353Y1871220D01*
Y1874701D01*
X3847980D01*
Y1871442D01*
D02*
G37*
%LPC*%
G36*
X3833093Y2042573D02*
X3825390D01*
Y2037462D01*
Y2036981D01*
Y2036499D01*
X3825464Y2035685D01*
X3825501Y2035055D01*
X3825575Y2034500D01*
X3825649Y2034092D01*
X3825686Y2033833D01*
X3825760Y2033648D01*
Y2033611D01*
X3825908Y2033203D01*
X3826130Y2032833D01*
X3826353Y2032537D01*
X3826575Y2032278D01*
X3826760Y2032092D01*
X3826945Y2031944D01*
X3827056Y2031870D01*
X3827093Y2031833D01*
X3827463Y2031611D01*
X3827834Y2031463D01*
X3828204Y2031352D01*
X3828575Y2031278D01*
X3828871Y2031241D01*
X3829093Y2031204D01*
X3829315D01*
X3829796Y2031241D01*
X3830241Y2031315D01*
X3830611Y2031426D01*
X3830908Y2031537D01*
X3831167Y2031648D01*
X3831389Y2031759D01*
X3831500Y2031833D01*
X3831537Y2031870D01*
X3831833Y2032130D01*
X3832130Y2032463D01*
X3832352Y2032796D01*
X3832500Y2033092D01*
X3832648Y2033389D01*
X3832759Y2033611D01*
X3832796Y2033759D01*
X3832833Y2033833D01*
X3832907Y2034240D01*
X3832981Y2034759D01*
X3833018Y2035277D01*
X3833055Y2035796D01*
X3833093Y2036277D01*
Y2036685D01*
Y2036833D01*
Y2036944D01*
Y2037018D01*
Y2037055D01*
Y2042573D01*
D02*
G37*
G36*
X3844943Y1996652D02*
X3825390D01*
Y1991282D01*
Y1990726D01*
X3825427Y1990245D01*
Y1989763D01*
X3825464Y1989319D01*
X3825575Y1988578D01*
X3825649Y1987986D01*
X3825760Y1987504D01*
X3825871Y1987171D01*
X3825908Y1986986D01*
X3825945Y1986912D01*
X3826278Y1986245D01*
X3826686Y1985616D01*
X3827167Y1985060D01*
X3827649Y1984579D01*
X3828093Y1984209D01*
X3828463Y1983912D01*
X3828611Y1983838D01*
X3828723Y1983764D01*
X3828797Y1983690D01*
X3828834D01*
X3829241Y1983468D01*
X3829723Y1983246D01*
X3830685Y1982912D01*
X3831722Y1982690D01*
X3832722Y1982505D01*
X3833167Y1982468D01*
X3833611Y1982431D01*
X3833981Y1982394D01*
X3834315D01*
X3834611Y1982357D01*
X3834981D01*
X3836018Y1982394D01*
X3836981Y1982468D01*
X3837833Y1982579D01*
X3838574Y1982690D01*
X3838870Y1982764D01*
X3839129Y1982838D01*
X3839388Y1982912D01*
X3839573Y1982949D01*
X3839721Y1982986D01*
X3839832Y1983023D01*
X3839907Y1983060D01*
X3839944D01*
X3840647Y1983320D01*
X3841277Y1983616D01*
X3841832Y1983949D01*
X3842314Y1984245D01*
X3842684Y1984505D01*
X3842943Y1984727D01*
X3843091Y1984875D01*
X3843166Y1984912D01*
X3843462Y1985282D01*
X3843721Y1985653D01*
X3843943Y1986023D01*
X3844166Y1986393D01*
X3844314Y1986727D01*
X3844425Y1986986D01*
X3844462Y1987171D01*
X3844499Y1987245D01*
X3844647Y1987801D01*
X3844758Y1988467D01*
X3844832Y1989134D01*
X3844869Y1989763D01*
X3844906Y1990319D01*
X3844943Y1990578D01*
Y1990800D01*
Y1990948D01*
Y1991097D01*
Y1991171D01*
Y1991208D01*
Y1996652D01*
D02*
G37*
G36*
X3843203Y1785266D02*
X3842980D01*
X3842684Y1785229D01*
X3842388Y1785192D01*
X3842166Y1785118D01*
X3841943Y1785044D01*
X3841758Y1784970D01*
X3841610Y1784933D01*
X3841536Y1784859D01*
X3841499D01*
X3841055Y1784489D01*
X3840758Y1784044D01*
X3840647Y1783896D01*
X3840573Y1783748D01*
X3840499Y1783637D01*
Y1783600D01*
X3840351Y1783229D01*
X3840240Y1782822D01*
X3840129Y1782378D01*
X3840055Y1781933D01*
X3839981Y1781526D01*
X3839907Y1781156D01*
X3839870Y1780933D01*
Y1780896D01*
Y1780859D01*
X3839759Y1780230D01*
X3839684Y1779637D01*
X3839573Y1779119D01*
X3839462Y1778600D01*
X3839351Y1778119D01*
X3839240Y1777711D01*
X3839166Y1777304D01*
X3839055Y1776971D01*
X3838981Y1776674D01*
X3838907Y1776415D01*
X3838833Y1776193D01*
X3838759Y1776008D01*
X3838722Y1775860D01*
X3838685Y1775749D01*
X3838647Y1775712D01*
Y1775675D01*
X3839832Y1775712D01*
X3840573Y1775749D01*
X3841203Y1775786D01*
X3841721Y1775860D01*
X3842166Y1775971D01*
X3842499Y1776082D01*
X3842758Y1776156D01*
X3842906Y1776193D01*
X3842943Y1776230D01*
X3843425Y1776526D01*
X3843869Y1776823D01*
X3844240Y1777193D01*
X3844536Y1777526D01*
X3844795Y1777823D01*
X3844980Y1778082D01*
X3845091Y1778230D01*
X3845128Y1778304D01*
X3845388Y1778859D01*
X3845573Y1779415D01*
X3845721Y1779933D01*
X3845795Y1780452D01*
X3845869Y1780859D01*
X3845906Y1781230D01*
Y1781452D01*
Y1781489D01*
Y1781526D01*
X3845869Y1782192D01*
X3845795Y1782748D01*
X3845647Y1783229D01*
X3845499Y1783637D01*
X3845351Y1783933D01*
X3845202Y1784155D01*
X3845128Y1784303D01*
X3845091Y1784340D01*
X3844758Y1784637D01*
X3844388Y1784859D01*
X3844054Y1785044D01*
X3843721Y1785155D01*
X3843425Y1785229D01*
X3843203Y1785266D01*
D02*
G37*
G36*
X3865957Y1869356D02*
X3865513D01*
X3864652Y1869328D01*
X3863875Y1869301D01*
X3863153Y1869245D01*
X3862487Y1869162D01*
X3861904Y1869079D01*
X3861376Y1868967D01*
X3860905Y1868857D01*
X3860488Y1868745D01*
X3860127Y1868634D01*
X3859822Y1868551D01*
X3859572Y1868440D01*
X3859350Y1868357D01*
X3859211Y1868273D01*
X3859100Y1868218D01*
X3859044Y1868162D01*
X3859017D01*
X3858767Y1867968D01*
X3858545Y1867774D01*
X3858378Y1867552D01*
X3858211Y1867330D01*
X3857962Y1866885D01*
X3857795Y1866469D01*
X3857712Y1866108D01*
X3857656Y1865803D01*
X3857628Y1865692D01*
Y1865608D01*
Y1865553D01*
Y1865525D01*
X3857656Y1865220D01*
X3857684Y1864914D01*
X3857767Y1864637D01*
X3857878Y1864387D01*
X3858128Y1863915D01*
X3858406Y1863498D01*
X3858711Y1863193D01*
X3858961Y1862943D01*
X3859072Y1862860D01*
X3859155Y1862804D01*
X3859183Y1862749D01*
X3859211D01*
X3859544Y1862554D01*
X3859933Y1862388D01*
X3860377Y1862221D01*
X3860849Y1862110D01*
X3861349Y1861999D01*
X3861876Y1861916D01*
X3862931Y1861777D01*
X3863459Y1861722D01*
X3863930Y1861694D01*
X3864375Y1861666D01*
X3864736D01*
X3865069Y1861638D01*
X3866374D01*
X3867151Y1861694D01*
X3867845Y1861749D01*
X3868511Y1861805D01*
X3869066Y1861888D01*
X3869594Y1861999D01*
X3870038Y1862110D01*
X3870455Y1862194D01*
X3870788Y1862305D01*
X3871065Y1862416D01*
X3871315Y1862499D01*
X3871510Y1862610D01*
X3871648Y1862666D01*
X3871732Y1862721D01*
X3871787Y1862777D01*
X3871815D01*
X3872093Y1862999D01*
X3872315Y1863221D01*
X3872537Y1863443D01*
X3872704Y1863665D01*
X3872981Y1864137D01*
X3873175Y1864553D01*
X3873286Y1864942D01*
X3873342Y1865220D01*
X3873370Y1865331D01*
Y1865414D01*
Y1865470D01*
Y1865497D01*
X3873342Y1865803D01*
X3873314Y1866080D01*
X3873120Y1866608D01*
X3872870Y1867080D01*
X3872592Y1867496D01*
X3872315Y1867802D01*
X3872065Y1868051D01*
X3871870Y1868190D01*
X3871843Y1868246D01*
X3871815D01*
X3871482Y1868440D01*
X3871093Y1868607D01*
X3870649Y1868773D01*
X3870177Y1868884D01*
X3869677Y1868995D01*
X3869150Y1869079D01*
X3868067Y1869217D01*
X3867567Y1869273D01*
X3867095Y1869301D01*
X3866651Y1869328D01*
X3866290D01*
X3865957Y1869356D01*
D02*
G37*
G36*
X3844943Y2042573D02*
X3836129D01*
Y2036685D01*
Y2035833D01*
X3836203Y2035055D01*
X3836277Y2034426D01*
X3836352Y2033907D01*
X3836425Y2033500D01*
X3836500Y2033166D01*
X3836537Y2033018D01*
X3836574Y2032944D01*
X3836759Y2032463D01*
X3836981Y2032055D01*
X3837240Y2031685D01*
X3837499Y2031389D01*
X3837722Y2031167D01*
X3837907Y2031019D01*
X3838055Y2030907D01*
X3838092Y2030870D01*
X3838499Y2030611D01*
X3838907Y2030426D01*
X3839314Y2030278D01*
X3839684Y2030204D01*
X3840018Y2030130D01*
X3840314Y2030093D01*
X3840536D01*
X3840981Y2030130D01*
X3841425Y2030167D01*
X3841795Y2030241D01*
X3842092Y2030352D01*
X3842351Y2030463D01*
X3842573Y2030537D01*
X3842684Y2030574D01*
X3842721Y2030611D01*
X3843055Y2030833D01*
X3843351Y2031019D01*
X3843573Y2031278D01*
X3843795Y2031463D01*
X3843943Y2031648D01*
X3844054Y2031796D01*
X3844128Y2031907D01*
X3844166Y2031944D01*
X3844462Y2032574D01*
X3844684Y2033203D01*
X3844758Y2033463D01*
X3844795Y2033685D01*
X3844832Y2033833D01*
Y2033870D01*
X3844869Y2034166D01*
X3844906Y2034500D01*
X3844943Y2035277D01*
Y2035648D01*
Y2035944D01*
Y2036129D01*
Y2036166D01*
Y2036203D01*
Y2042573D01*
D02*
G37*
G36*
X3839129Y1764787D02*
X3838129D01*
X3837537Y1764713D01*
X3836981Y1764639D01*
X3836425Y1764565D01*
X3835944Y1764417D01*
X3835500Y1764305D01*
X3835092Y1764157D01*
X3834722Y1764009D01*
X3834426Y1763898D01*
X3834130Y1763750D01*
X3833907Y1763602D01*
X3833685Y1763491D01*
X3833537Y1763417D01*
X3833426Y1763342D01*
X3833389Y1763268D01*
X3833352D01*
X3833018Y1762972D01*
X3832722Y1762676D01*
X3832463Y1762380D01*
X3832241Y1762046D01*
X3831907Y1761454D01*
X3831685Y1760898D01*
X3831574Y1760417D01*
X3831500Y1760047D01*
X3831463Y1759898D01*
Y1759787D01*
Y1759750D01*
Y1759713D01*
X3831500Y1759343D01*
X3831537Y1758973D01*
X3831722Y1758306D01*
X3832019Y1757713D01*
X3832352Y1757195D01*
X3832685Y1756788D01*
X3832944Y1756491D01*
X3833167Y1756306D01*
X3833204Y1756232D01*
X3833241D01*
X3833574Y1755973D01*
X3833981Y1755751D01*
X3834833Y1755380D01*
X3835685Y1755121D01*
X3836537Y1754936D01*
X3837314Y1754825D01*
X3837648Y1754788D01*
X3837944D01*
X3838203Y1754751D01*
X3839203D01*
X3839832Y1754825D01*
X3840425Y1754899D01*
X3840981Y1754973D01*
X3841462Y1755084D01*
X3841906Y1755232D01*
X3842351Y1755380D01*
X3842684Y1755491D01*
X3843017Y1755640D01*
X3843277Y1755788D01*
X3843536Y1755899D01*
X3843721Y1756047D01*
X3843869Y1756121D01*
X3843980Y1756195D01*
X3844017Y1756269D01*
X3844054D01*
X3844351Y1756565D01*
X3844610Y1756862D01*
X3845054Y1757454D01*
X3845351Y1758047D01*
X3845573Y1758602D01*
X3845684Y1759121D01*
X3845758Y1759491D01*
X3845795Y1759639D01*
Y1759750D01*
Y1759824D01*
Y1759861D01*
X3845758Y1760232D01*
X3845721Y1760602D01*
X3845536Y1761269D01*
X3845239Y1761861D01*
X3844943Y1762380D01*
X3844647Y1762787D01*
X3844351Y1763083D01*
X3844166Y1763268D01*
X3844091Y1763342D01*
X3843758Y1763602D01*
X3843388Y1763824D01*
X3842536Y1764194D01*
X3841684Y1764417D01*
X3840795Y1764602D01*
X3840018Y1764713D01*
X3839684Y1764750D01*
X3839388D01*
X3839129Y1764787D01*
D02*
G37*
G36*
X3865957Y1988817D02*
X3865513D01*
X3864652Y1988789D01*
X3863875Y1988761D01*
X3863153Y1988706D01*
X3862487Y1988623D01*
X3861904Y1988539D01*
X3861376Y1988428D01*
X3860905Y1988317D01*
X3860488Y1988206D01*
X3860127Y1988095D01*
X3859822Y1988012D01*
X3859572Y1987901D01*
X3859350Y1987818D01*
X3859211Y1987734D01*
X3859100Y1987679D01*
X3859044Y1987623D01*
X3859017D01*
X3858767Y1987429D01*
X3858545Y1987234D01*
X3858378Y1987012D01*
X3858211Y1986790D01*
X3857962Y1986346D01*
X3857795Y1985930D01*
X3857712Y1985569D01*
X3857656Y1985263D01*
X3857628Y1985152D01*
Y1985069D01*
Y1985013D01*
Y1984986D01*
X3857656Y1984680D01*
X3857684Y1984375D01*
X3857767Y1984097D01*
X3857878Y1983848D01*
X3858128Y1983376D01*
X3858406Y1982959D01*
X3858711Y1982654D01*
X3858961Y1982404D01*
X3859072Y1982321D01*
X3859155Y1982265D01*
X3859183Y1982209D01*
X3859211D01*
X3859544Y1982015D01*
X3859933Y1981849D01*
X3860377Y1981682D01*
X3860849Y1981571D01*
X3861349Y1981460D01*
X3861876Y1981377D01*
X3862931Y1981238D01*
X3863459Y1981182D01*
X3863930Y1981155D01*
X3864375Y1981127D01*
X3864736D01*
X3865069Y1981099D01*
X3866374D01*
X3867151Y1981155D01*
X3867845Y1981210D01*
X3868511Y1981266D01*
X3869066Y1981349D01*
X3869594Y1981460D01*
X3870038Y1981571D01*
X3870455Y1981654D01*
X3870788Y1981765D01*
X3871065Y1981876D01*
X3871315Y1981960D01*
X3871510Y1982071D01*
X3871648Y1982126D01*
X3871732Y1982182D01*
X3871787Y1982237D01*
X3871815D01*
X3872093Y1982459D01*
X3872315Y1982681D01*
X3872537Y1982904D01*
X3872704Y1983126D01*
X3872981Y1983598D01*
X3873175Y1984014D01*
X3873286Y1984403D01*
X3873342Y1984680D01*
X3873370Y1984791D01*
Y1984875D01*
Y1984930D01*
Y1984958D01*
X3873342Y1985263D01*
X3873314Y1985541D01*
X3873120Y1986069D01*
X3872870Y1986541D01*
X3872592Y1986957D01*
X3872315Y1987262D01*
X3872065Y1987512D01*
X3871870Y1987651D01*
X3871843Y1987706D01*
X3871815D01*
X3871482Y1987901D01*
X3871093Y1988067D01*
X3870649Y1988234D01*
X3870177Y1988345D01*
X3869677Y1988456D01*
X3869150Y1988539D01*
X3868067Y1988678D01*
X3867567Y1988734D01*
X3867095Y1988761D01*
X3866651Y1988789D01*
X3866290D01*
X3865957Y1988817D01*
D02*
G37*
G36*
X3836907Y1745381D02*
X3836055Y1745270D01*
X3835277Y1745048D01*
X3834611Y1744789D01*
X3834092Y1744493D01*
X3833648Y1744233D01*
X3833315Y1743974D01*
X3833130Y1743826D01*
X3833055Y1743752D01*
X3832574Y1743159D01*
X3832204Y1742567D01*
X3831945Y1741937D01*
X3831759Y1741345D01*
X3831648Y1740863D01*
X3831611Y1740456D01*
X3831574Y1740308D01*
Y1740197D01*
Y1740123D01*
Y1740086D01*
X3831611Y1739641D01*
X3831648Y1739234D01*
X3831870Y1738456D01*
X3832167Y1737790D01*
X3832500Y1737234D01*
X3832833Y1736790D01*
X3833130Y1736456D01*
X3833352Y1736271D01*
X3833389Y1736197D01*
X3833426D01*
X3833907Y1735864D01*
X3834463Y1735568D01*
X3835018Y1735382D01*
X3835611Y1735197D01*
X3836092Y1735086D01*
X3836537Y1735012D01*
X3836685D01*
X3836796Y1734975D01*
X3836907D01*
Y1745381D01*
D02*
G37*
G36*
X3865957Y2042565D02*
X3865513D01*
X3864652Y2042537D01*
X3863875Y2042509D01*
X3863153Y2042453D01*
X3862487Y2042370D01*
X3861904Y2042287D01*
X3861376Y2042176D01*
X3860905Y2042065D01*
X3860488Y2041954D01*
X3860127Y2041843D01*
X3859822Y2041759D01*
X3859572Y2041648D01*
X3859350Y2041565D01*
X3859211Y2041482D01*
X3859100Y2041426D01*
X3859044Y2041371D01*
X3859017D01*
X3858767Y2041176D01*
X3858545Y2040982D01*
X3858378Y2040760D01*
X3858211Y2040538D01*
X3857962Y2040094D01*
X3857795Y2039677D01*
X3857712Y2039316D01*
X3857656Y2039011D01*
X3857628Y2038900D01*
Y2038817D01*
Y2038761D01*
Y2038733D01*
X3857656Y2038428D01*
X3857684Y2038123D01*
X3857767Y2037845D01*
X3857878Y2037595D01*
X3858128Y2037123D01*
X3858406Y2036707D01*
X3858711Y2036401D01*
X3858961Y2036151D01*
X3859072Y2036068D01*
X3859155Y2036013D01*
X3859183Y2035957D01*
X3859211D01*
X3859544Y2035763D01*
X3859933Y2035596D01*
X3860377Y2035430D01*
X3860849Y2035319D01*
X3861349Y2035208D01*
X3861876Y2035124D01*
X3862931Y2034986D01*
X3863459Y2034930D01*
X3863930Y2034902D01*
X3864375Y2034874D01*
X3864736D01*
X3865069Y2034847D01*
X3866374D01*
X3867151Y2034902D01*
X3867845Y2034958D01*
X3868511Y2035013D01*
X3869066Y2035096D01*
X3869594Y2035208D01*
X3870038Y2035319D01*
X3870455Y2035402D01*
X3870788Y2035513D01*
X3871065Y2035624D01*
X3871315Y2035707D01*
X3871510Y2035818D01*
X3871648Y2035874D01*
X3871732Y2035929D01*
X3871787Y2035985D01*
X3871815D01*
X3872093Y2036207D01*
X3872315Y2036429D01*
X3872537Y2036651D01*
X3872704Y2036873D01*
X3872981Y2037345D01*
X3873175Y2037762D01*
X3873286Y2038150D01*
X3873342Y2038428D01*
X3873370Y2038539D01*
Y2038622D01*
Y2038678D01*
Y2038706D01*
X3873342Y2039011D01*
X3873314Y2039289D01*
X3873120Y2039816D01*
X3872870Y2040288D01*
X3872592Y2040704D01*
X3872315Y2041010D01*
X3872065Y2041260D01*
X3871870Y2041399D01*
X3871843Y2041454D01*
X3871815D01*
X3871482Y2041648D01*
X3871093Y2041815D01*
X3870649Y2041982D01*
X3870177Y2042093D01*
X3869677Y2042204D01*
X3869150Y2042287D01*
X3868067Y2042426D01*
X3867567Y2042481D01*
X3867095Y2042509D01*
X3866651Y2042537D01*
X3866290D01*
X3865957Y2042565D01*
D02*
G37*
G36*
Y1958945D02*
X3865513D01*
X3864652Y1958917D01*
X3863875Y1958889D01*
X3863153Y1958834D01*
X3862487Y1958750D01*
X3861904Y1958667D01*
X3861376Y1958556D01*
X3860905Y1958445D01*
X3860488Y1958334D01*
X3860127Y1958223D01*
X3859822Y1958140D01*
X3859572Y1958029D01*
X3859350Y1957945D01*
X3859211Y1957862D01*
X3859100Y1957807D01*
X3859044Y1957751D01*
X3859017D01*
X3858767Y1957557D01*
X3858545Y1957362D01*
X3858378Y1957140D01*
X3858211Y1956918D01*
X3857962Y1956474D01*
X3857795Y1956058D01*
X3857712Y1955697D01*
X3857656Y1955391D01*
X3857628Y1955280D01*
Y1955197D01*
Y1955141D01*
Y1955114D01*
X3857656Y1954808D01*
X3857684Y1954503D01*
X3857767Y1954225D01*
X3857878Y1953975D01*
X3858128Y1953503D01*
X3858406Y1953087D01*
X3858711Y1952782D01*
X3858961Y1952532D01*
X3859072Y1952448D01*
X3859155Y1952393D01*
X3859183Y1952337D01*
X3859211D01*
X3859544Y1952143D01*
X3859933Y1951976D01*
X3860377Y1951810D01*
X3860849Y1951699D01*
X3861349Y1951588D01*
X3861876Y1951505D01*
X3862931Y1951366D01*
X3863459Y1951310D01*
X3863930Y1951283D01*
X3864375Y1951255D01*
X3864736D01*
X3865069Y1951227D01*
X3866374D01*
X3867151Y1951283D01*
X3867845Y1951338D01*
X3868511Y1951393D01*
X3869066Y1951477D01*
X3869594Y1951588D01*
X3870038Y1951699D01*
X3870455Y1951782D01*
X3870788Y1951893D01*
X3871065Y1952004D01*
X3871315Y1952088D01*
X3871510Y1952199D01*
X3871648Y1952254D01*
X3871732Y1952310D01*
X3871787Y1952365D01*
X3871815D01*
X3872093Y1952587D01*
X3872315Y1952809D01*
X3872537Y1953031D01*
X3872704Y1953254D01*
X3872981Y1953725D01*
X3873175Y1954142D01*
X3873286Y1954531D01*
X3873342Y1954808D01*
X3873370Y1954919D01*
Y1955003D01*
Y1955058D01*
Y1955086D01*
X3873342Y1955391D01*
X3873314Y1955669D01*
X3873120Y1956196D01*
X3872870Y1956668D01*
X3872592Y1957085D01*
X3872315Y1957390D01*
X3872065Y1957640D01*
X3871870Y1957779D01*
X3871843Y1957834D01*
X3871815D01*
X3871482Y1958029D01*
X3871093Y1958195D01*
X3870649Y1958362D01*
X3870177Y1958473D01*
X3869677Y1958584D01*
X3869150Y1958667D01*
X3868067Y1958806D01*
X3867567Y1958862D01*
X3867095Y1958889D01*
X3866651Y1958917D01*
X3866290D01*
X3865957Y1958945D01*
D02*
G37*
G36*
X3833093Y1970951D02*
X3825390D01*
Y1965840D01*
Y1965359D01*
Y1964877D01*
X3825464Y1964062D01*
X3825501Y1963433D01*
X3825575Y1962877D01*
X3825649Y1962470D01*
X3825686Y1962211D01*
X3825760Y1962026D01*
Y1961989D01*
X3825908Y1961581D01*
X3826130Y1961211D01*
X3826353Y1960915D01*
X3826575Y1960655D01*
X3826760Y1960470D01*
X3826945Y1960322D01*
X3827056Y1960248D01*
X3827093Y1960211D01*
X3827463Y1959989D01*
X3827834Y1959841D01*
X3828204Y1959730D01*
X3828575Y1959655D01*
X3828871Y1959619D01*
X3829093Y1959581D01*
X3829315D01*
X3829796Y1959619D01*
X3830241Y1959693D01*
X3830611Y1959804D01*
X3830908Y1959915D01*
X3831167Y1960026D01*
X3831389Y1960137D01*
X3831500Y1960211D01*
X3831537Y1960248D01*
X3831833Y1960507D01*
X3832130Y1960841D01*
X3832352Y1961174D01*
X3832500Y1961470D01*
X3832648Y1961766D01*
X3832759Y1961989D01*
X3832796Y1962137D01*
X3832833Y1962211D01*
X3832907Y1962618D01*
X3832981Y1963137D01*
X3833018Y1963655D01*
X3833055Y1964173D01*
X3833093Y1964655D01*
Y1965062D01*
Y1965211D01*
Y1965322D01*
Y1965396D01*
Y1965433D01*
Y1970951D01*
D02*
G37*
G36*
X3844943D02*
X3836129D01*
Y1965062D01*
Y1964211D01*
X3836203Y1963433D01*
X3836277Y1962803D01*
X3836352Y1962285D01*
X3836425Y1961877D01*
X3836500Y1961544D01*
X3836537Y1961396D01*
X3836574Y1961322D01*
X3836759Y1960841D01*
X3836981Y1960433D01*
X3837240Y1960063D01*
X3837499Y1959767D01*
X3837722Y1959544D01*
X3837907Y1959396D01*
X3838055Y1959285D01*
X3838092Y1959248D01*
X3838499Y1958989D01*
X3838907Y1958804D01*
X3839314Y1958656D01*
X3839684Y1958582D01*
X3840018Y1958508D01*
X3840314Y1958470D01*
X3840536D01*
X3840981Y1958508D01*
X3841425Y1958544D01*
X3841795Y1958619D01*
X3842092Y1958730D01*
X3842351Y1958841D01*
X3842573Y1958915D01*
X3842684Y1958952D01*
X3842721Y1958989D01*
X3843055Y1959211D01*
X3843351Y1959396D01*
X3843573Y1959655D01*
X3843795Y1959841D01*
X3843943Y1960026D01*
X3844054Y1960174D01*
X3844128Y1960285D01*
X3844166Y1960322D01*
X3844462Y1960952D01*
X3844684Y1961581D01*
X3844758Y1961841D01*
X3844795Y1962063D01*
X3844832Y1962211D01*
Y1962248D01*
X3844869Y1962544D01*
X3844906Y1962877D01*
X3844943Y1963655D01*
Y1964025D01*
Y1964322D01*
Y1964507D01*
Y1964544D01*
Y1964581D01*
Y1970951D01*
D02*
G37*
%LPD*%
D35*
X3636680Y1689230D02*
Y1690420D01*
Y1689230D02*
X3656280D01*
Y1690420D01*
Y1698040D02*
Y1699230D01*
X3636680D02*
X3656280D01*
X3636680Y1698040D02*
Y1699230D01*
Y1714630D02*
Y1715820D01*
Y1714630D02*
X3656280D01*
Y1715820D01*
Y1723440D02*
Y1724630D01*
X3636680D02*
X3656280D01*
X3636680Y1723440D02*
Y1724630D01*
Y1740030D02*
Y1741220D01*
Y1740030D02*
X3656280D01*
Y1741220D01*
Y1748840D02*
Y1750030D01*
X3636680D02*
X3656280D01*
X3636680Y1748840D02*
Y1750030D01*
Y1765430D02*
Y1766620D01*
Y1765430D02*
X3656280D01*
Y1766620D01*
Y1774240D02*
Y1775430D01*
X3636680D02*
X3656280D01*
X3636680Y1774240D02*
Y1775430D01*
Y1790830D02*
Y1792020D01*
Y1790830D02*
X3656280D01*
Y1792020D01*
Y1799640D02*
Y1800830D01*
X3636680D02*
X3656280D01*
X3636680Y1799640D02*
Y1800830D01*
Y1816230D02*
Y1817420D01*
Y1816230D02*
X3656280D01*
Y1817420D01*
Y1825040D02*
Y1826230D01*
X3636680D02*
X3656280D01*
X3636680Y1825040D02*
Y1826230D01*
Y1841630D02*
Y1842820D01*
Y1841630D02*
X3656280D01*
Y1842820D01*
Y1850440D02*
Y1851630D01*
X3636680D02*
X3656280D01*
X3636680Y1850440D02*
Y1851630D01*
Y1867030D02*
Y1868220D01*
Y1867030D02*
X3656280D01*
Y1868220D01*
Y1875840D02*
Y1877030D01*
X3636680D02*
X3656280D01*
X3636680Y1875840D02*
Y1877030D01*
Y1892430D02*
Y1893620D01*
Y1892430D02*
X3656280D01*
Y1893620D01*
Y1901240D02*
Y1902430D01*
X3636680D02*
X3656280D01*
X3636680Y1901240D02*
Y1902430D01*
Y1917830D02*
Y1919020D01*
Y1917830D02*
X3656280D01*
Y1919020D01*
Y1926640D02*
Y1927830D01*
X3636680D02*
X3656280D01*
X3636680Y1926640D02*
Y1927830D01*
Y1943230D02*
Y1944420D01*
Y1943230D02*
X3656280D01*
Y1944420D01*
Y1952040D02*
Y1953230D01*
X3636680D02*
X3656280D01*
X3636680Y1952040D02*
Y1953230D01*
Y1968630D02*
Y1969820D01*
Y1968630D02*
X3656280D01*
Y1969820D01*
Y1977440D02*
Y1978630D01*
X3636680D02*
X3656280D01*
X3636680Y1977440D02*
Y1978630D01*
Y1994030D02*
Y1995220D01*
Y1994030D02*
X3656280D01*
Y1995220D01*
Y2002840D02*
Y2004030D01*
X3636680D02*
X3656280D01*
X3636680Y2002840D02*
Y2004030D01*
Y2019430D02*
Y2020620D01*
Y2019430D02*
X3656280D01*
Y2020620D01*
Y2028240D02*
Y2029430D01*
X3636680D02*
X3656280D01*
X3636680Y2028240D02*
Y2029430D01*
Y2044830D02*
Y2046020D01*
Y2044830D02*
X3656280D01*
Y2046020D01*
Y2053640D02*
Y2054830D01*
X3636680D02*
X3656280D01*
X3636680Y2053640D02*
Y2054830D01*
X3748220Y2052780D02*
Y2054530D01*
X3730720D02*
X3748220D01*
X3730720Y2052780D02*
Y2054530D01*
Y2045030D02*
Y2046780D01*
Y2045030D02*
X3748220D01*
Y2046780D01*
X3664130Y2045030D02*
Y2046780D01*
Y2045030D02*
X3681630D01*
Y2046780D01*
Y2052780D02*
Y2054530D01*
X3664130D02*
X3681630D01*
X3664130Y2052780D02*
Y2054530D01*
X3700880Y2053430D02*
X3713380D01*
X3700880Y2033430D02*
X3713380D01*
X3748220Y2027380D02*
Y2029130D01*
X3730720D02*
X3748220D01*
X3730720Y2027380D02*
Y2029130D01*
Y2019630D02*
Y2021380D01*
Y2019630D02*
X3748220D01*
Y2021380D01*
X3664130Y2019630D02*
Y2021380D01*
Y2019630D02*
X3681630D01*
Y2021380D01*
Y2027380D02*
Y2029130D01*
X3664130D02*
X3681630D01*
X3664130Y2027380D02*
Y2029130D01*
X3700880Y2028030D02*
X3713380D01*
X3700880Y2008030D02*
X3713380D01*
X3748220Y2001980D02*
Y2003730D01*
X3730720D02*
X3748220D01*
X3730720Y2001980D02*
Y2003730D01*
Y1994230D02*
Y1995980D01*
Y1994230D02*
X3748220D01*
Y1995980D01*
X3664130Y1994230D02*
Y1995980D01*
Y1994230D02*
X3681630D01*
Y1995980D01*
Y2001980D02*
Y2003730D01*
X3664130D02*
X3681630D01*
X3664130Y2001980D02*
Y2003730D01*
X3700880Y2002630D02*
X3713380D01*
X3700880Y1982630D02*
X3713380D01*
X3748220Y1976580D02*
Y1978330D01*
X3730720D02*
X3748220D01*
X3730720Y1976580D02*
Y1978330D01*
Y1968830D02*
Y1970580D01*
Y1968830D02*
X3748220D01*
Y1970580D01*
X3664130Y1968830D02*
Y1970580D01*
Y1968830D02*
X3681630D01*
Y1970580D01*
Y1976580D02*
Y1978330D01*
X3664130D02*
X3681630D01*
X3664130Y1976580D02*
Y1978330D01*
X3700880Y1977230D02*
X3713380D01*
X3700880Y1957230D02*
X3713380D01*
X3748220Y1951180D02*
Y1952930D01*
X3730720D02*
X3748220D01*
X3730720Y1951180D02*
Y1952930D01*
Y1943430D02*
Y1945180D01*
Y1943430D02*
X3748220D01*
Y1945180D01*
X3664130Y1943430D02*
Y1945180D01*
Y1943430D02*
X3681630D01*
Y1945180D01*
Y1951180D02*
Y1952930D01*
X3664130D02*
X3681630D01*
X3664130Y1951180D02*
Y1952930D01*
X3700880Y1951830D02*
X3713380D01*
X3700880Y1931830D02*
X3713380D01*
X3748220Y1925780D02*
Y1927530D01*
X3730720D02*
X3748220D01*
X3730720Y1925780D02*
Y1927530D01*
Y1918030D02*
Y1919780D01*
Y1918030D02*
X3748220D01*
Y1919780D01*
X3664130Y1918030D02*
Y1919780D01*
Y1918030D02*
X3681630D01*
Y1919780D01*
Y1925780D02*
Y1927530D01*
X3664130D02*
X3681630D01*
X3664130Y1925780D02*
Y1927530D01*
X3700880Y1926430D02*
X3713380D01*
X3700880Y1906430D02*
X3713380D01*
X3748220Y1900380D02*
Y1902130D01*
X3730720D02*
X3748220D01*
X3730720Y1900380D02*
Y1902130D01*
Y1892630D02*
Y1894380D01*
Y1892630D02*
X3748220D01*
Y1894380D01*
X3664130Y1892630D02*
Y1894380D01*
Y1892630D02*
X3681630D01*
Y1894380D01*
Y1900380D02*
Y1902130D01*
X3664130D02*
X3681630D01*
X3664130Y1900380D02*
Y1902130D01*
X3700880Y1901030D02*
X3713380D01*
X3700880Y1881030D02*
X3713380D01*
X3748220Y1874980D02*
Y1876730D01*
X3730720D02*
X3748220D01*
X3730720Y1874980D02*
Y1876730D01*
Y1867230D02*
Y1868980D01*
Y1867230D02*
X3748220D01*
Y1868980D01*
X3664130Y1867230D02*
Y1868980D01*
Y1867230D02*
X3681630D01*
Y1868980D01*
Y1874980D02*
Y1876730D01*
X3664130D02*
X3681630D01*
X3664130Y1874980D02*
Y1876730D01*
X3700880Y1875630D02*
X3713380D01*
X3700880Y1855630D02*
X3713380D01*
X3748220Y1849580D02*
Y1851330D01*
X3730720D02*
X3748220D01*
X3730720Y1849580D02*
Y1851330D01*
Y1841830D02*
Y1843580D01*
Y1841830D02*
X3748220D01*
Y1843580D01*
X3664130Y1841830D02*
Y1843580D01*
Y1841830D02*
X3681630D01*
Y1843580D01*
Y1849580D02*
Y1851330D01*
X3664130D02*
X3681630D01*
X3664130Y1849580D02*
Y1851330D01*
X3700880Y1850230D02*
X3713380D01*
X3700880Y1830230D02*
X3713380D01*
X3748220Y1824180D02*
Y1825930D01*
X3730720D02*
X3748220D01*
X3730720Y1824180D02*
Y1825930D01*
Y1816430D02*
Y1818180D01*
Y1816430D02*
X3748220D01*
Y1818180D01*
X3664130Y1816430D02*
Y1818180D01*
Y1816430D02*
X3681630D01*
Y1818180D01*
Y1824180D02*
Y1825930D01*
X3664130D02*
X3681630D01*
X3664130Y1824180D02*
Y1825930D01*
X3700880Y1824830D02*
X3713380D01*
X3700880Y1804830D02*
X3713380D01*
X3748220Y1798780D02*
Y1800530D01*
X3730720D02*
X3748220D01*
X3730720Y1798780D02*
Y1800530D01*
Y1791030D02*
Y1792780D01*
Y1791030D02*
X3748220D01*
Y1792780D01*
X3664130Y1791030D02*
Y1792780D01*
Y1791030D02*
X3681630D01*
Y1792780D01*
Y1798780D02*
Y1800530D01*
X3664130D02*
X3681630D01*
X3664130Y1798780D02*
Y1800530D01*
X3700880Y1799430D02*
X3713380D01*
X3700880Y1779430D02*
X3713380D01*
X3748220Y1773380D02*
Y1775130D01*
X3730720D02*
X3748220D01*
X3730720Y1773380D02*
Y1775130D01*
Y1765630D02*
Y1767380D01*
Y1765630D02*
X3748220D01*
Y1767380D01*
X3664130Y1765630D02*
Y1767380D01*
Y1765630D02*
X3681630D01*
Y1767380D01*
Y1773380D02*
Y1775130D01*
X3664130D02*
X3681630D01*
X3664130Y1773380D02*
Y1775130D01*
X3700880Y1774030D02*
X3713380D01*
X3700880Y1754030D02*
X3713380D01*
X3748220Y1747980D02*
Y1749730D01*
X3730720D02*
X3748220D01*
X3730720Y1747980D02*
Y1749730D01*
Y1740230D02*
Y1741980D01*
Y1740230D02*
X3748220D01*
Y1741980D01*
X3664130Y1740230D02*
Y1741980D01*
Y1740230D02*
X3681630D01*
Y1741980D01*
Y1747980D02*
Y1749730D01*
X3664130D02*
X3681630D01*
X3664130Y1747980D02*
Y1749730D01*
X3700880Y1748630D02*
X3713380D01*
X3700880Y1728630D02*
X3713380D01*
X3748220Y1722580D02*
Y1724330D01*
X3730720D02*
X3748220D01*
X3730720Y1722580D02*
Y1724330D01*
Y1714830D02*
Y1716580D01*
Y1714830D02*
X3748220D01*
Y1716580D01*
X3664130Y1714830D02*
Y1716580D01*
Y1714830D02*
X3681630D01*
Y1716580D01*
Y1722580D02*
Y1724330D01*
X3664130D02*
X3681630D01*
X3664130Y1722580D02*
Y1724330D01*
X3700880Y1723230D02*
X3713380D01*
X3700880Y1703230D02*
X3713380D01*
X3748220Y1697180D02*
Y1698930D01*
X3730720D02*
X3748220D01*
X3730720Y1697180D02*
Y1698930D01*
Y1689430D02*
Y1691180D01*
Y1689430D02*
X3748220D01*
Y1691180D01*
X3664130Y1689430D02*
Y1691180D01*
Y1689430D02*
X3681630D01*
Y1691180D01*
Y1697180D02*
Y1698930D01*
X3664130D02*
X3681630D01*
X3664130Y1697180D02*
Y1698930D01*
X3700880Y1697830D02*
X3713380D01*
X3700880Y1677830D02*
X3713380D01*
X3636680Y2070230D02*
Y2071420D01*
Y2070230D02*
X3656280D01*
Y2071420D01*
Y2079040D02*
Y2080230D01*
X3636680D02*
X3656280D01*
X3636680Y2079040D02*
Y2080230D01*
Y2095730D02*
Y2096920D01*
Y2095730D02*
X3656280D01*
Y2096920D01*
Y2104540D02*
Y2105730D01*
X3636680D02*
X3656280D01*
X3636680Y2104540D02*
Y2105730D01*
X3664130Y2070430D02*
Y2072180D01*
Y2070430D02*
X3681630D01*
Y2072180D01*
Y2078180D02*
Y2079930D01*
X3664130D02*
X3681630D01*
X3664130Y2078180D02*
Y2079930D01*
Y2095830D02*
Y2097580D01*
Y2095830D02*
X3681630D01*
Y2097580D01*
Y2103580D02*
Y2105330D01*
X3664130D02*
X3681630D01*
X3664130Y2103580D02*
Y2105330D01*
X3748220Y2078180D02*
Y2079930D01*
X3730720D02*
X3748220D01*
X3730720Y2078180D02*
Y2079930D01*
Y2070430D02*
Y2072180D01*
Y2070430D02*
X3748220D01*
Y2072180D01*
Y2103580D02*
Y2105330D01*
X3730720D02*
X3748220D01*
X3730720Y2103580D02*
Y2105330D01*
Y2095830D02*
Y2097580D01*
Y2095830D02*
X3748220D01*
Y2097580D01*
X3700880Y2104230D02*
X3713380D01*
X3700880Y2084230D02*
X3713380D01*
X3700880Y2078830D02*
X3713380D01*
X3700880Y2058830D02*
X3713380D01*
D60*
X3715920Y2055430D02*
G03*
X3715920Y2055430I-791J0D01*
G01*
Y2030030D02*
G03*
X3715920Y2030030I-791J0D01*
G01*
Y2004630D02*
G03*
X3715920Y2004630I-791J0D01*
G01*
Y1979230D02*
G03*
X3715920Y1979230I-791J0D01*
G01*
Y1953830D02*
G03*
X3715920Y1953830I-791J0D01*
G01*
Y1928430D02*
G03*
X3715920Y1928430I-791J0D01*
G01*
Y1903030D02*
G03*
X3715920Y1903030I-791J0D01*
G01*
Y1877630D02*
G03*
X3715920Y1877630I-791J0D01*
G01*
Y1852230D02*
G03*
X3715920Y1852230I-791J0D01*
G01*
Y1826830D02*
G03*
X3715920Y1826830I-791J0D01*
G01*
Y1801430D02*
G03*
X3715920Y1801430I-791J0D01*
G01*
Y1776030D02*
G03*
X3715920Y1776030I-791J0D01*
G01*
Y1750630D02*
G03*
X3715920Y1750630I-791J0D01*
G01*
Y1725230D02*
G03*
X3715920Y1725230I-791J0D01*
G01*
Y1699830D02*
G03*
X3715920Y1699830I-791J0D01*
G01*
Y2106230D02*
G03*
X3715920Y2106230I-791J0D01*
G01*
Y2080830D02*
G03*
X3715920Y2080830I-791J0D01*
G01*
M02*
