G04*
G04 #@! TF.GenerationSoftware,Altium Limited,CircuitStudio,1.5.2 (30)*
G04*
G04 Layer_Color=8150272*
%FSLAX44Y44*%
%MOMM*%
G71*
G01*
G75*
%ADD45C,1.8032*%
%ADD46R,1.8032X1.8032*%
%ADD47O,3.7032X3.2032*%
%ADD48O,2.7032X2.2032*%
%ADD49O,1.9812X1.4732*%
%ADD50R,1.9532X1.9532*%
%ADD51C,1.9532*%
%ADD52O,1.9532X1.7032*%
%ADD53C,0.2032*%
%ADD54C,5.0033*%
%ADD55C,5.0032*%
%ADD56O,1.9304X1.4732*%
%ADD57R,0.7532X0.7532*%
%ADD58R,0.6232X0.7532*%
%ADD59R,1.4031X0.6032*%
D45*
X3300480Y1776730D02*
D03*
Y1802130D02*
D03*
Y1827530D02*
D03*
X3275080Y1776730D02*
D03*
Y1802130D02*
D03*
Y1827530D02*
D03*
X3300480Y2005330D02*
D03*
X3275080Y1979930D02*
D03*
X3300480D02*
D03*
X3275080Y1954530D02*
D03*
X3300480D02*
D03*
X3275080Y1929130D02*
D03*
X3300480D02*
D03*
X3275080Y1903730D02*
D03*
Y1878330D02*
D03*
X3300480Y1903730D02*
D03*
Y1878330D02*
D03*
X3275080Y1852930D02*
D03*
X3300480D02*
D03*
X3930480Y1738630D02*
D03*
Y1764030D02*
D03*
X3905080Y1738630D02*
D03*
Y1764030D02*
D03*
X3930480Y1891030D02*
D03*
X3905080D02*
D03*
X3930480Y1916430D02*
D03*
Y1941830D02*
D03*
X3905080Y1916430D02*
D03*
Y1941830D02*
D03*
X3930480Y1967230D02*
D03*
X3905080D02*
D03*
X3930480Y1992630D02*
D03*
X3905080D02*
D03*
X3930480Y2018030D02*
D03*
X3905080D02*
D03*
X3930480Y2043430D02*
D03*
X3905080Y1865630D02*
D03*
Y1840230D02*
D03*
X3930480Y1865630D02*
D03*
Y1840230D02*
D03*
X3905080Y1814830D02*
D03*
Y1789430D02*
D03*
X3930480Y1814830D02*
D03*
Y1789430D02*
D03*
D46*
X3275080Y2005330D02*
D03*
X3905080Y2043430D02*
D03*
D47*
X3174980Y1722180D02*
D03*
Y1772980D02*
D03*
D48*
X3215980Y1730580D02*
D03*
Y1765980D02*
D03*
D49*
X3591560Y2070100D02*
D03*
X3616960D02*
D03*
X3591560Y2044700D02*
D03*
X3616960D02*
D03*
X3591560Y2019300D02*
D03*
X3616960D02*
D03*
X3591560Y1993900D02*
D03*
X3616960D02*
D03*
X3591560Y1968500D02*
D03*
X3616960D02*
D03*
X3591560Y1943100D02*
D03*
X3616960D02*
D03*
X3591560Y1917700D02*
D03*
X3616960D02*
D03*
X3591560Y1892300D02*
D03*
X3616960D02*
D03*
X3591560Y1866900D02*
D03*
X3616960D02*
D03*
X3591560Y1841500D02*
D03*
X3616960D02*
D03*
X3591560Y1816100D02*
D03*
X3616960D02*
D03*
X3591560Y1790700D02*
D03*
X3616960D02*
D03*
X3591560Y1765300D02*
D03*
X3616960D02*
D03*
X3591560Y1739900D02*
D03*
X3616960D02*
D03*
X3591560Y1714500D02*
D03*
X3616960D02*
D03*
X3591560Y1689100D02*
D03*
X3616960D02*
D03*
X3591560Y2095500D02*
D03*
X3616960D02*
D03*
D50*
X3213100Y1638300D02*
D03*
Y2120900D02*
D03*
D51*
Y1663700D02*
D03*
X3238500Y1638300D02*
D03*
Y1663700D02*
D03*
X3263900Y1638300D02*
D03*
Y1663700D02*
D03*
X3289300Y1638300D02*
D03*
Y1663700D02*
D03*
X3314700Y1638300D02*
D03*
Y1663700D02*
D03*
X3340100Y1638300D02*
D03*
Y1663700D02*
D03*
X3365500Y1638300D02*
D03*
Y1663700D02*
D03*
X3390900Y1638300D02*
D03*
Y1663700D02*
D03*
X3416300Y1638300D02*
D03*
Y1663700D02*
D03*
X3441700Y1638300D02*
D03*
Y1663700D02*
D03*
X3467100Y1638300D02*
D03*
Y1663700D02*
D03*
X3492500Y1638300D02*
D03*
Y1663700D02*
D03*
X3517900Y1638300D02*
D03*
Y1663700D02*
D03*
X3543300Y1638300D02*
D03*
Y1663700D02*
D03*
X3568700Y1638300D02*
D03*
Y1663700D02*
D03*
X3594100Y1638300D02*
D03*
Y1663700D02*
D03*
X3619500Y1638300D02*
D03*
Y1663700D02*
D03*
X3644900Y1638300D02*
D03*
Y1663700D02*
D03*
X3670300Y1638300D02*
D03*
X3695700D02*
D03*
Y1663700D02*
D03*
X3721100Y1638300D02*
D03*
Y1663700D02*
D03*
X3746500Y1638300D02*
D03*
Y1663700D02*
D03*
X3771900Y1638300D02*
D03*
Y1663700D02*
D03*
Y2146300D02*
D03*
Y2120900D02*
D03*
X3746500Y2146300D02*
D03*
Y2120900D02*
D03*
X3721100Y2146300D02*
D03*
Y2120900D02*
D03*
X3695700Y2146300D02*
D03*
X3670300D02*
D03*
X3644900D02*
D03*
X3619500D02*
D03*
X3594100D02*
D03*
X3568700D02*
D03*
X3543300D02*
D03*
X3517900D02*
D03*
Y2120900D02*
D03*
X3492500Y2146300D02*
D03*
Y2120900D02*
D03*
X3467100Y2146300D02*
D03*
Y2120900D02*
D03*
X3441700Y2146300D02*
D03*
Y2120900D02*
D03*
X3416300Y2146300D02*
D03*
Y2120900D02*
D03*
X3390900Y2146300D02*
D03*
Y2120900D02*
D03*
X3365500Y2146300D02*
D03*
Y2120900D02*
D03*
X3340100Y2146300D02*
D03*
Y2120900D02*
D03*
X3314700Y2146300D02*
D03*
Y2120900D02*
D03*
X3289300Y2146300D02*
D03*
Y2120900D02*
D03*
X3263900Y2146300D02*
D03*
Y2120900D02*
D03*
X3238500Y2146300D02*
D03*
Y2120900D02*
D03*
X3213100Y2146300D02*
D03*
D52*
X3670300Y1663700D02*
D03*
D53*
X3695700Y2120900D02*
D03*
X3670300D02*
D03*
X3644900D02*
D03*
X3619500D02*
D03*
X3594100D02*
D03*
X3568700D02*
D03*
X3543300D02*
D03*
D54*
X3162300Y2133600D02*
D03*
Y1651000D02*
D03*
X3822700Y2101850D02*
D03*
D55*
Y1682750D02*
D03*
D56*
X3480080Y1748030D02*
D03*
Y1773430D02*
D03*
D57*
X3641980Y1694230D02*
D03*
X3650980D02*
D03*
X3641980Y1719630D02*
D03*
X3650980D02*
D03*
X3641980Y1745030D02*
D03*
X3650980D02*
D03*
X3641980Y1770430D02*
D03*
X3650980D02*
D03*
X3641980Y1795830D02*
D03*
X3650980D02*
D03*
X3641980Y1821230D02*
D03*
X3650980D02*
D03*
X3641980Y1846630D02*
D03*
X3650980D02*
D03*
X3641980Y1872030D02*
D03*
X3650980D02*
D03*
X3641980Y1897430D02*
D03*
X3650980D02*
D03*
X3641980Y1922830D02*
D03*
X3650980D02*
D03*
X3641980Y1948230D02*
D03*
X3650980D02*
D03*
X3641980Y1973630D02*
D03*
X3650980D02*
D03*
X3641980Y1999030D02*
D03*
X3650980D02*
D03*
X3641980Y2024430D02*
D03*
X3650980D02*
D03*
X3641980Y2049830D02*
D03*
X3650980D02*
D03*
X3641980Y2075230D02*
D03*
X3650980D02*
D03*
X3641980Y2100730D02*
D03*
X3650980D02*
D03*
D58*
X3734870Y2049780D02*
D03*
X3744070D02*
D03*
X3677480D02*
D03*
X3668280D02*
D03*
X3734870Y2024380D02*
D03*
X3744070D02*
D03*
X3677480D02*
D03*
X3668280D02*
D03*
X3734870Y1998980D02*
D03*
X3744070D02*
D03*
X3677480D02*
D03*
X3668280D02*
D03*
X3734870Y1973580D02*
D03*
X3744070D02*
D03*
X3677480D02*
D03*
X3668280D02*
D03*
X3734870Y1948180D02*
D03*
X3744070D02*
D03*
X3677480D02*
D03*
X3668280D02*
D03*
X3734870Y1922780D02*
D03*
X3744070D02*
D03*
X3677480D02*
D03*
X3668280D02*
D03*
X3734870Y1897380D02*
D03*
X3744070D02*
D03*
X3677480D02*
D03*
X3668280D02*
D03*
X3734870Y1871980D02*
D03*
X3744070D02*
D03*
X3677480D02*
D03*
X3668280D02*
D03*
X3734870Y1846580D02*
D03*
X3744070D02*
D03*
X3677480D02*
D03*
X3668280D02*
D03*
X3734870Y1821180D02*
D03*
X3744070D02*
D03*
X3677480D02*
D03*
X3668280D02*
D03*
X3734870Y1795780D02*
D03*
X3744070D02*
D03*
X3677480D02*
D03*
X3668280D02*
D03*
X3734870Y1770380D02*
D03*
X3744070D02*
D03*
X3677480D02*
D03*
X3668280D02*
D03*
X3734870Y1744980D02*
D03*
X3744070D02*
D03*
X3677480D02*
D03*
X3668280D02*
D03*
X3734870Y1719580D02*
D03*
X3744070D02*
D03*
X3677480D02*
D03*
X3668280D02*
D03*
X3734870Y1694180D02*
D03*
X3744070D02*
D03*
X3677480D02*
D03*
X3668280D02*
D03*
X3677480Y2075180D02*
D03*
X3668280D02*
D03*
X3677480Y2100580D02*
D03*
X3668280D02*
D03*
X3734870Y2075180D02*
D03*
X3744070D02*
D03*
X3734870Y2100580D02*
D03*
X3744070D02*
D03*
D59*
X3716630Y2049930D02*
D03*
Y2043430D02*
D03*
Y2036930D02*
D03*
X3697630D02*
D03*
Y2043430D02*
D03*
Y2049930D02*
D03*
X3716630Y2024530D02*
D03*
Y2018030D02*
D03*
Y2011530D02*
D03*
X3697630D02*
D03*
Y2018030D02*
D03*
Y2024530D02*
D03*
X3716630Y1999130D02*
D03*
Y1992630D02*
D03*
Y1986130D02*
D03*
X3697630D02*
D03*
Y1992630D02*
D03*
Y1999130D02*
D03*
X3716630Y1973730D02*
D03*
Y1967230D02*
D03*
Y1960730D02*
D03*
X3697630D02*
D03*
Y1967230D02*
D03*
Y1973730D02*
D03*
X3716630Y1948330D02*
D03*
Y1941830D02*
D03*
Y1935330D02*
D03*
X3697630D02*
D03*
Y1941830D02*
D03*
Y1948330D02*
D03*
X3716630Y1922930D02*
D03*
Y1916430D02*
D03*
Y1909930D02*
D03*
X3697630D02*
D03*
Y1916430D02*
D03*
Y1922930D02*
D03*
X3716630Y1897530D02*
D03*
Y1891030D02*
D03*
Y1884530D02*
D03*
X3697630D02*
D03*
Y1891030D02*
D03*
Y1897530D02*
D03*
X3716630Y1872130D02*
D03*
Y1865630D02*
D03*
Y1859130D02*
D03*
X3697630D02*
D03*
Y1865630D02*
D03*
Y1872130D02*
D03*
X3716630Y1846730D02*
D03*
Y1840230D02*
D03*
Y1833730D02*
D03*
X3697630D02*
D03*
Y1840230D02*
D03*
Y1846730D02*
D03*
X3716630Y1821330D02*
D03*
Y1814830D02*
D03*
Y1808330D02*
D03*
X3697630D02*
D03*
Y1814830D02*
D03*
Y1821330D02*
D03*
X3716630Y1795930D02*
D03*
Y1789430D02*
D03*
Y1782930D02*
D03*
X3697630D02*
D03*
Y1789430D02*
D03*
Y1795930D02*
D03*
X3716630Y1770530D02*
D03*
Y1764030D02*
D03*
Y1757530D02*
D03*
X3697630D02*
D03*
Y1764030D02*
D03*
Y1770530D02*
D03*
X3716630Y1745130D02*
D03*
Y1738630D02*
D03*
Y1732130D02*
D03*
X3697630D02*
D03*
Y1738630D02*
D03*
Y1745130D02*
D03*
X3716630Y1719730D02*
D03*
Y1713230D02*
D03*
Y1706730D02*
D03*
X3697630D02*
D03*
Y1713230D02*
D03*
Y1719730D02*
D03*
X3716630Y1694330D02*
D03*
Y1687830D02*
D03*
Y1681330D02*
D03*
X3697630D02*
D03*
Y1687830D02*
D03*
Y1694330D02*
D03*
X3716630Y2100730D02*
D03*
Y2094230D02*
D03*
Y2087730D02*
D03*
X3697630D02*
D03*
Y2094230D02*
D03*
Y2100730D02*
D03*
X3716630Y2075330D02*
D03*
Y2068830D02*
D03*
Y2062330D02*
D03*
X3697630D02*
D03*
Y2068830D02*
D03*
Y2075330D02*
D03*
M02*
